<svg width="600" height="600" viewBox="0 0 600 600" fill="none" xmlns="http://www.w3.org/2000/svg">
<path d="M301.12 259.645C254.361 294.956 226.612 389.878 226.612 389.878L255.859 428.791C255.859 428.791 317.696 412.022 354.4 394.258C381.127 381.323 401.931 372.553 425.569 354.584C444.741 340.011 450.862 327.328 451.785 303.48C452.789 277.537 439.561 261.216 418.63 245.856C397.877 230.626 379.774 227.541 354.322 231.391C331.062 234.909 318.751 246.331 301.12 259.645Z" fill="#4A5253" stroke="#3B4242" stroke-width="5"/>
<path d="M365.654 232.292C367.89 318.721 319.388 364.108 255.385 429.435" stroke="#3B4242" stroke-width="3" stroke-linecap="round"/>
<path d="M400.741 237.829C402.977 324.257 375.081 346.584 311.078 411.911" stroke="#3B4242" stroke-width="3" stroke-linecap="round"/>
<path d="M314.889 247.765C317.125 334.194 305.514 338.932 241.511 404.259" stroke="#3B4242" stroke-width="3" stroke-linecap="round"/>
<path d="M440.343 265.497C438.475 314.634 417.005 346.079 381.116 382.434" stroke="#3B4242" stroke-width="3" stroke-linecap="round"/>
<path d="M446.6 333.897C362.856 312.403 306.865 341.661 228.887 389.446" stroke="#3B4242" stroke-width="3" stroke-linecap="round"/>
<path d="M449.046 298.463C365.302 276.969 321.918 297.241 243.94 345.027" stroke="#3B4242" stroke-width="3" stroke-linecap="round"/>
<path d="M428.224 253.534C379.913 244.373 315.322 266.763 271.866 293.619" stroke="#3B4242" stroke-width="3" stroke-linecap="round"/>
<path d="M404.48 368.293C356.168 359.133 287.135 379.701 248.599 417.702" stroke="#3B4242" stroke-width="3" stroke-linecap="round"/>
<path d="M372.651 463.279C403.434 459.88 340.37 436.727 310.871 441.648C282.016 446.462 274.542 480.073 301.571 473.758C309.279 471.958 318.179 467.444 318.179 467.444C318.179 467.444 328.224 474.618 337.775 473.758C348.226 472.818 346.743 463.279 346.743 463.279C346.743 463.279 362.891 464.356 372.651 463.279Z" fill="#4A5253"/>
<path d="M372.651 463.279C403.434 459.88 340.37 436.727 310.871 441.648C282.016 446.462 274.542 480.073 301.571 473.758C309.279 471.958 318.179 467.444 318.179 467.444C318.179 467.444 328.224 474.618 337.775 473.758C348.226 472.818 346.743 463.279 346.743 463.279C346.743 463.279 362.891 464.356 372.651 463.279Z" stroke="#4A5253" stroke-width="5"/>
<path d="M372.651 463.279C403.434 459.88 340.37 436.727 310.871 441.648C282.016 446.462 274.542 480.073 301.571 473.758C309.279 471.958 318.179 467.444 318.179 467.444C318.179 467.444 328.224 474.618 337.775 473.758C348.226 472.818 346.743 463.279 346.743 463.279C346.743 463.279 362.891 464.356 372.651 463.279Z" stroke="black" stroke-opacity="0.2" stroke-width="5"/>
<path d="M133.258 463.279C102.474 459.88 165.538 436.727 195.037 441.648C223.893 446.462 231.366 480.073 204.337 473.758C196.63 471.958 187.73 467.444 187.73 467.444C187.73 467.444 177.684 474.618 168.133 473.758C157.682 472.818 159.165 463.279 159.165 463.279C159.165 463.279 143.018 464.356 133.258 463.279Z" fill="#4A5253"/>
<path d="M133.258 463.279C102.474 459.88 165.538 436.727 195.037 441.648C223.893 446.462 231.366 480.073 204.337 473.758C196.63 471.958 187.73 467.444 187.73 467.444C187.73 467.444 177.684 474.618 168.133 473.758C157.682 472.818 159.165 463.279 159.165 463.279C159.165 463.279 143.018 464.356 133.258 463.279Z" stroke="#4A5253" stroke-width="5"/>
<path d="M133.258 463.279C102.474 459.88 165.538 436.727 195.037 441.648C223.893 446.462 231.366 480.073 204.337 473.758C196.63 471.958 187.73 467.444 187.73 467.444C187.73 467.444 177.684 474.618 168.133 473.758C157.682 472.818 159.165 463.279 159.165 463.279C159.165 463.279 143.018 464.356 133.258 463.279Z" stroke="black" stroke-opacity="0.2" stroke-width="5"/>
<path d="M331.489 218.81C341.593 188.89 353.033 148.523 336.821 139.838C321.768 131.774 285.273 146.687 260.481 162.703L331.489 218.81Z" fill="#D9844B"/>
<path d="M331.489 218.81C341.593 188.89 353.033 148.523 336.821 139.838C321.768 131.774 285.273 146.687 260.481 162.703L331.489 218.81Z" stroke="#D9844B" stroke-width="5" stroke-linecap="round"/>
<path d="M331.489 218.81C341.593 188.89 353.033 148.523 336.821 139.838C321.768 131.774 285.273 146.687 260.481 162.703L331.489 218.81Z" stroke="black" stroke-opacity="0.2" stroke-width="5" stroke-linecap="round"/>
<path d="M160.444 218.81C150.339 188.89 138.9 148.523 155.111 139.838C170.165 131.774 206.659 146.687 231.452 162.703L160.444 218.81Z" fill="#D9844B"/>
<path d="M160.444 218.81C150.339 188.89 138.9 148.523 155.111 139.838C170.165 131.774 206.659 146.687 231.452 162.703L160.444 218.81Z" stroke="#D9844B" stroke-width="5" stroke-linecap="round"/>
<path d="M160.444 218.81C150.339 188.89 138.9 148.523 155.111 139.838C170.165 131.774 206.659 146.687 231.452 162.703L160.444 218.81Z" stroke="black" stroke-opacity="0.2" stroke-width="5" stroke-linecap="round"/>
<path d="M322.577 356.126C313.636 358.899 303.47 370.6 303.47 370.6L298.838 449.341C298.838 449.341 326.964 438.82 343.42 429.077C347.091 426.904 349.49 426.117 352.683 423.287C365.009 412.366 366.787 395.772 362.526 379.864C359.506 368.589 354.121 360.786 343.42 356.126C335.957 352.876 330.351 353.715 322.577 356.126Z" fill="#D9844B"/>
<path d="M322.577 356.126C313.636 358.899 303.47 370.6 303.47 370.6L298.838 449.341C298.838 449.341 326.964 438.82 343.42 429.077C347.091 426.904 349.49 426.117 352.683 423.287C365.009 412.366 366.787 395.772 362.526 379.864C359.506 368.589 354.121 360.786 343.42 356.126C335.957 352.876 330.351 353.715 322.577 356.126Z" stroke="#D9844B" stroke-width="5"/>
<path d="M322.577 356.126C313.636 358.899 303.47 370.6 303.47 370.6L298.838 449.341C298.838 449.341 326.964 438.82 343.42 429.077C347.091 426.904 349.49 426.117 352.683 423.287C365.009 412.366 366.787 395.772 362.526 379.864C359.506 368.589 354.121 360.786 343.42 356.126C335.957 352.876 330.351 353.715 322.577 356.126Z" stroke="black" stroke-opacity="0.2" stroke-width="5"/>
<path d="M170.656 356.126C179.597 358.899 189.763 370.6 189.763 370.6L194.395 449.341C194.395 449.341 166.269 438.82 149.813 429.077C146.142 426.904 143.742 426.117 140.549 423.287C128.224 412.366 126.446 395.772 130.707 379.864C133.727 368.589 139.112 360.786 149.813 356.126C157.276 352.876 162.882 353.715 170.656 356.126Z" fill="#D9844B"/>
<path d="M170.656 356.126C179.597 358.899 189.763 370.6 189.763 370.6L194.395 449.341C194.395 449.341 166.269 438.82 149.813 429.077C146.142 426.904 143.742 426.117 140.549 423.287C128.224 412.366 126.446 395.772 130.707 379.864C133.727 368.589 139.112 360.786 149.813 356.126C157.276 352.876 162.882 353.715 170.656 356.126Z" stroke="#D9844B" stroke-width="5"/>
<path d="M170.656 356.126C179.597 358.899 189.763 370.6 189.763 370.6L194.395 449.341C194.395 449.341 166.269 438.82 149.813 429.077C146.142 426.904 143.742 426.117 140.549 423.287C128.224 412.366 126.446 395.772 130.707 379.864C133.727 368.589 139.112 360.786 149.813 356.126C157.276 352.876 162.882 353.715 170.656 356.126Z" stroke="black" stroke-opacity="0.2" stroke-width="5"/>
<path d="M203.526 178.269L193.222 192.515L190.763 195.914C190.763 195.914 161.348 191.384 161.101 170.215C161.065 167.095 161.577 164.723 162.749 161.563C163.848 158.598 165.453 156.502 167.776 154.612C170.389 152.486 172.785 151.677 175.782 151.058C191.095 147.898 203.526 178.269 203.526 178.269Z" fill="#F0BBDD" stroke="#AE6A3C" stroke-width="5"/>
<path d="M291.077 178.269L301.381 192.515L303.84 195.914C303.84 195.914 333.255 191.384 333.501 170.215C333.538 167.095 333.025 164.723 331.854 161.563C330.755 158.598 329.149 156.502 326.826 154.612C324.213 152.486 321.817 151.677 318.821 151.058C303.507 147.898 291.077 178.269 291.077 178.269Z" fill="#F0BBDD" stroke="#AE6A3C" stroke-width="5"/>
<path d="M181.306 317.926C179.667 322.498 151.95 400.858 174.357 434.47C198.674 470.945 294.208 475.577 313.892 434.47C333.577 393.362 306.947 321.415 305.208 317.926C305.208 317.926 182.687 314.074 181.306 317.926Z" fill="#D9844B"/>
<path d="M181.306 317.926C179.667 322.498 151.95 400.858 174.357 434.47C198.674 470.945 294.208 475.577 313.892 434.47C333.577 393.362 306.947 321.415 305.208 317.926C305.208 317.926 182.687 314.074 181.306 317.926Z" stroke="#D9844B" stroke-width="5"/>
<path d="M181.306 317.926C179.667 322.498 151.95 400.858 174.357 434.47C198.674 470.945 294.208 475.577 313.892 434.47C333.577 393.362 306.947 321.415 305.208 317.926C305.208 317.926 182.687 314.074 181.306 317.926Z" stroke="black" stroke-opacity="0.2" stroke-width="5"/>
<path d="M289.368 377.782C304.306 414.304 268.659 460.65 243.112 460.65C217.565 460.65 181.917 414.304 196.855 377.782C206.292 354.707 216.369 344.854 243.112 344.854C269.854 344.854 279.931 354.707 289.368 377.782Z" fill="#EEAF85"/>
<path d="M249.351 174.369C249.351 174.369 213.241 162.372 218.084 154.522C223.813 145.235 231.261 127.499 247.032 126.152C251.792 125.745 255.585 126.144 259.192 127.472C265.275 129.71 259.604 137.92 253.896 144.308C256.907 141.857 260.425 139.65 263.824 139.051C271.118 137.767 277.851 137.221 282.351 143.104C288.173 150.715 280.986 159.453 274.246 166.263C267.052 173.53 249.351 174.369 249.351 174.369Z" fill="#D9844B"/>
<path d="M249.351 174.369C249.351 174.369 213.241 162.372 218.084 154.522C223.813 145.235 231.261 127.499 247.032 126.152C251.792 125.745 255.585 126.144 259.192 127.472C265.275 129.71 259.604 137.92 253.896 144.308C256.907 141.857 260.425 139.65 263.824 139.051C271.118 137.767 277.851 137.221 282.351 143.104C288.173 150.715 280.986 159.453 274.246 166.263C267.052 173.53 249.351 174.369 249.351 174.369Z" stroke="#D9844B" stroke-width="5"/>
<path d="M249.351 174.369C249.351 174.369 213.241 162.372 218.084 154.522C223.813 145.235 231.261 127.499 247.032 126.152C251.792 125.745 255.585 126.144 259.192 127.472C265.275 129.71 259.604 137.92 253.896 144.308C256.907 141.857 260.425 139.65 263.824 139.051C271.118 137.767 277.851 137.221 282.351 143.104C288.173 150.715 280.986 159.453 274.246 166.263C267.052 173.53 249.351 174.369 249.351 174.369Z" stroke="black" stroke-opacity="0.2" stroke-width="5"/>
<path d="M243.729 150.653C188.724 150.653 159.517 190.887 143.672 237.352C138.086 250.847 121.092 279.303 149.461 308.252C174.282 329.282 210.808 330.72 243.729 330.72C276.651 330.72 389.739 334.885 341.857 237.352C326.012 190.887 298.735 150.653 243.729 150.653Z" fill="#D9844B"/>
<path d="M243.729 150.653C188.724 150.653 159.517 190.887 143.672 237.352C138.086 250.847 121.092 279.303 149.461 308.252C174.282 329.282 210.808 330.72 243.729 330.72C276.651 330.72 389.739 334.885 341.857 237.352C326.012 190.887 298.735 150.653 243.729 150.653Z" stroke="#D9844B" stroke-width="5"/>
<path d="M243.729 150.653C188.724 150.653 159.517 190.887 143.672 237.352C138.086 250.847 121.092 279.303 149.461 308.252C174.282 329.282 210.808 330.72 243.729 330.72C276.651 330.72 389.739 334.885 341.857 237.352C326.012 190.887 298.735 150.653 243.729 150.653Z" stroke="black" stroke-opacity="0.2" stroke-width="5"/>
<ellipse cx="186.688" cy="287.258" rx="15.3678" ry="6.90327" fill="#F5AC7B" fill-opacity="0.8"/>
<ellipse cx="302.434" cy="287.516" rx="15.3678" ry="6.90327" transform="rotate(-2.27638 302.434 287.516)" fill="#F5AC7B" fill-opacity="0.8"/>
<ellipse cx="21.1587" cy="25.0175" rx="21.1587" ry="25.0175" transform="matrix(-0.953838 0.300322 0.215795 0.976439 306.382 214.939)" fill="black" stroke="#504B4F"/>
<ellipse cx="21.1587" cy="25.0175" rx="21.1587" ry="25.0175" transform="matrix(-0.953838 0.300322 0.215795 0.976439 209.975 213.773)" fill="black" stroke="#504B4F"/>
<ellipse cx="9.06397" cy="5.15934" rx="9.06397" ry="5.15934" transform="matrix(-0.99981 -0.0194845 -0.0063223 0.99998 198.771 229.412)" fill="white" stroke="#504B4F"/>
<ellipse cx="9.06397" cy="5.15934" rx="9.06397" ry="5.15934" transform="matrix(-0.99981 -0.0194845 -0.0063223 0.99998 297.198 230.57)" fill="white" stroke="#504B4F"/>
<path d="M272.061 423.595C277.19 408.229 281.639 400.174 290.208 388.856L293.837 384.225L312.589 387.12C304.833 407.012 306.224 418.212 292.627 429.385C279.008 434.596 272.061 431.701 272.061 423.595Z" fill="#D9844B"/>
<path d="M291.498 382.527C291.498 382.527 273.797 409.121 270.903 424.174C269.044 433.84 281.625 431.122 290.009 431.122C305.137 431.122 315.181 413.114 317.8 390.593C320.695 365.697 313.168 342.538 313.168 342.538" stroke="#AE6A3C" stroke-width="5" stroke-linecap="round"/>
<path d="M215.405 423.595C210.275 408.229 205.826 400.174 197.258 388.856L193.628 384.225L174.876 387.12C182.632 407.012 181.242 418.212 194.838 429.385C205.478 429.385 216.479 431.701 215.405 423.595Z" fill="#D9844B"/>
<path d="M195.966 382.527C195.966 382.527 213.667 409.121 216.562 424.174C218.421 433.84 205.84 431.122 197.456 431.122C182.328 431.122 172.284 413.114 169.665 390.593C166.77 365.697 173.634 343.117 173.634 343.117" stroke="#AE6A3C" stroke-width="5" stroke-linecap="round"/>
<path d="M207.706 212.458C207.706 216.627 197.462 212.458 193.555 212.458C189.647 212.458 180.582 211.86 180.582 207.691C180.582 203.522 182.548 198.951 193.555 198.951C204.562 198.951 207.706 208.289 207.706 212.458Z" fill="#AE6A3C" fill-opacity="0.8"/>
<path d="M278.295 212.458C278.295 216.627 288.539 212.458 292.447 212.458C296.355 212.458 305.419 211.86 305.419 207.691C305.419 203.522 303.454 198.951 292.447 198.951C281.44 198.951 278.295 208.289 278.295 212.458Z" fill="#AE6A3C" fill-opacity="0.8"/>
<path d="M235.898 307.982L249.793 307.982C249.793 307.982 248.635 322.457 242.266 322.457C236.183 322.457 235.898 307.982 235.898 307.982Z" fill="white"/>
<path d="M235.898 307.982L249.793 307.982C249.793 307.982 248.635 322.457 242.266 322.457C236.183 322.457 235.898 307.982 235.898 307.982Z" stroke="white"/>
<path d="M235.898 307.982L249.793 307.982C249.793 307.982 248.635 322.457 242.266 322.457C236.183 322.457 235.898 307.982 235.898 307.982Z" stroke="black" stroke-opacity="0.2"/>
<path d="M242.033 321.483C242.033 321.759 242.257 321.983 242.533 321.983C242.809 321.983 243.033 321.759 243.033 321.483H242.033ZM242.033 308.745V321.483H243.033V308.745H242.033Z" fill="#CCCCCC"/>
<path d="M242.996 293.344V305.155M242.996 305.155C242.996 305.155 239.36 308.694 236.395 308.977C232.83 309.317 228.058 305.155 228.058 305.155M242.996 305.155C242.996 305.155 246.623 308.795 249.596 308.977C252.927 309.181 257.239 305.155 257.239 305.155" stroke="black" stroke-width="5" stroke-linecap="round"/>
<path d="M242.727 294.387C241.166 294.387 230.632 290.514 229.549 284.511C228.466 278.507 257.768 278.507 255.905 284.511C254.042 290.514 244.288 294.387 242.727 294.387Z" fill="#27051B"/>
<path d="M246.513 283.93C246.513 284.652 244.757 285.237 242.592 285.237C240.426 285.237 238.67 284.652 238.67 283.93C238.67 283.208 240.426 282.623 242.592 282.623C244.757 282.623 246.513 283.208 246.513 283.93Z" fill="white" fill-opacity="0.5"/>
<path d="M218.009 293.471C203.673 286.025 196.291 285.32 183.934 288.478" stroke="black" stroke-opacity="0.6" stroke-linecap="round"/>
<path d="M219.849 302.531C204.913 296.377 197.498 296.324 185.467 300.558" stroke="black" stroke-opacity="0.6" stroke-linecap="round"/>
<path d="M275.595 293.135C289.931 285.689 297.312 284.984 309.669 288.142" stroke="black" stroke-opacity="0.6" stroke-linecap="round"/>
<path d="M273.756 302.196C288.691 296.041 296.106 295.989 308.137 300.222" stroke="black" stroke-opacity="0.6" stroke-linecap="round"/>
</svg>
