<svg width="600" height="600" viewBox="0 0 600 600" fill="none" xmlns="http://www.w3.org/2000/svg">
<path d="M370.878 461.332C404.229 443.111 420.446 427.832 445.535 392.75C411.316 367.632 392.186 361.374 358.106 355.735L370.878 461.332Z" fill="#FAA1B7"/>
<path d="M378.437 435.832C396.247 426.044 404.921 417.864 418.367 399.108C400.193 385.797 390.016 382.505 371.872 379.577L378.437 435.832Z" fill="#F7C1CE"/>
<path fill-rule="evenodd" clip-rule="evenodd" d="M452.136 391.387L448.573 388.775C431.321 376.127 417.678 368.093 403.918 362.53C390.159 356.968 376.482 353.96 359.325 351.16L353.026 350.132L367.08 468.619L372.969 465.391C389.894 456.115 402.672 447.485 414.444 436.615C426.189 425.77 436.773 412.841 449.444 395.146L452.136 391.387ZM439.297 393.747C428.018 409.238 418.571 420.499 408.354 429.932C398.707 438.841 388.252 446.232 374.713 454.007L363.726 361.384C377.642 363.849 388.901 366.62 400.116 371.153C412.049 375.977 424.104 382.869 439.297 393.747Z" fill="#F094A7"/>
<path d="M459.449 184.541C444.842 190.207 388.489 219.95 388.489 219.95C388.489 219.95 387.5 156.397 381.98 141.55C380.13 136.572 381.643 129.682 387.038 127.132C392.186 124.698 396.173 126.727 400.947 131.512C408.287 138.87 413.367 155.05 413.367 155.05C413.367 155.05 420.345 136.878 428.146 127.475C433.092 121.514 436.944 120.27 442.122 122.786C447.49 125.393 447.731 130.233 446.728 137.355C444.993 149.671 431.865 165.524 431.865 165.524C431.865 165.524 448.015 164.023 458.304 162.59C462.626 161.989 468.465 166.882 469.003 172.571C469.567 178.525 463.792 182.856 459.449 184.541Z" fill="#FBE2E8" stroke="#F094A7" stroke-width="5"/>
<path d="M441.371 301.536C433.334 288.087 394.557 237.525 394.557 237.525C394.557 237.525 457.042 225.885 470.752 217.952C475.349 215.292 482.396 215.627 485.815 220.518C489.078 225.185 487.747 229.456 483.831 234.965C477.809 243.436 462.711 251.159 462.711 251.159C462.711 251.159 481.796 254.988 492.375 261.101C499.081 264.976 500.954 268.565 499.343 274.092C497.673 279.821 492.942 280.871 485.753 281.077C473.32 281.434 455.489 271.153 455.489 271.153C455.489 271.153 459.679 286.821 462.818 296.724C464.137 300.883 460.292 307.461 454.775 308.946C448.999 310.501 443.761 305.535 441.371 301.536Z" fill="#FBE2E8" stroke="#F094A7" stroke-width="5"/>
<path d="M481.668 256.394C463.952 248.869 388.139 226.864 388.139 226.864C388.139 226.864 447.471 169.387 456.86 151.407C460.008 145.378 467.812 140.541 474.788 142.913C481.446 145.176 482.896 150.416 482.403 158.788C481.644 171.662 470.621 190.452 470.621 190.452C470.621 190.452 493.726 180.266 509.226 178.603C519.052 177.549 523.486 179.756 525.484 186.455C527.554 193.398 523.175 197.919 515.584 203.401C502.457 212.881 476.347 215.707 476.347 215.707C476.347 215.707 491.425 228.271 501.482 235.85C505.706 239.034 506.011 248.421 501.08 253.953C495.92 259.743 486.936 258.631 481.668 256.394Z" fill="#F7C1CE" stroke="#F094A7" stroke-width="5"/>
<path d="M140.55 185.739C155.158 191.405 211.51 221.148 211.51 221.148C211.51 221.148 212.5 157.596 218.019 142.749C219.87 137.771 218.357 130.88 212.962 128.33C207.813 125.896 203.826 127.925 199.053 132.71C191.712 140.068 186.632 156.249 186.632 156.249C186.632 156.249 179.655 138.076 171.853 128.673C166.908 122.712 163.056 121.468 157.877 123.984C152.51 126.591 152.269 131.432 153.272 138.553C155.007 150.87 168.134 166.722 168.134 166.722C168.134 166.722 151.984 165.221 141.695 163.789C137.374 163.187 131.535 168.081 130.996 173.769C130.433 179.724 136.207 184.054 140.55 185.739Z" fill="#FBE2E8" stroke="#F094A7" stroke-width="5"/>
<path d="M158.628 302.735C166.665 289.286 205.443 238.724 205.443 238.724C205.443 238.724 142.958 227.083 129.248 219.151C124.651 216.491 117.604 216.826 114.185 221.717C110.921 226.384 112.253 230.655 116.169 236.163C122.191 244.635 137.289 252.358 137.289 252.358C137.289 252.358 118.203 256.187 107.625 262.3C100.918 266.175 99.0457 269.764 100.657 275.291C102.326 281.019 107.058 282.07 114.247 282.276C126.679 282.632 144.51 272.351 144.51 272.351C144.51 272.351 140.32 288.02 137.181 297.923C135.863 302.082 139.707 308.66 145.225 310.145C151 311.7 156.238 306.734 158.628 302.735Z" fill="#FBE2E8" stroke="#F094A7" stroke-width="5"/>
<path d="M118.332 257.593C136.048 250.068 211.861 228.063 211.861 228.063C211.861 228.063 152.529 170.585 143.14 152.606C139.992 146.577 132.188 141.74 125.212 144.111C118.554 146.374 117.104 151.615 117.597 159.986C118.356 172.861 129.379 191.651 129.379 191.651C129.379 191.651 106.274 181.465 90.7743 179.802C80.9484 178.747 76.5136 180.955 74.5163 187.654C72.446 194.597 76.8247 199.117 84.4156 204.599C97.5433 214.08 123.653 216.905 123.653 216.905C123.653 216.905 108.575 229.469 98.518 237.049C94.2938 240.233 93.9893 249.619 98.9197 255.151C104.08 260.942 113.064 259.83 118.332 257.593Z" fill="#F7C1CE" stroke="#F094A7" stroke-width="5"/>
<path d="M234.105 481.677C259.276 478.681 300.63 472.088 300.63 472.088C300.63 472.088 278.651 458.806 262.872 455.906C249.981 453.537 238.864 449.785 226.204 453.177C216.015 455.906 207.126 461.813 208.333 472.088C209.586 482.753 223.441 482.947 234.105 481.677Z" fill="#FBE2E8" stroke="#F094A7" stroke-width="5"/>
<path d="M358.655 481.677C333.484 478.681 292.129 472.088 292.129 472.088C292.129 472.088 314.109 458.806 329.887 455.906C342.778 453.537 353.896 449.785 366.556 453.177C376.745 455.906 385.633 461.813 384.426 472.088C383.174 482.753 369.318 482.947 358.655 481.677Z" fill="#FBE2E8" stroke="#F094A7" stroke-width="5"/>
<path d="M231.747 335.245C230.051 339.978 201.359 421.092 224.555 455.885C249.726 493.643 348.618 498.437 368.994 455.885C389.371 413.332 361.805 338.856 360.004 335.245C360.004 335.245 233.177 331.257 231.747 335.245Z" fill="#FBE2E8" stroke="#F094A7" stroke-width="5"/>
<path d="M343.822 413.333C343.822 453.715 322.356 481.787 295.876 481.787C269.396 481.787 247.929 453.715 247.929 413.333C247.929 372.951 273.82 349.233 295.876 340.214C316.972 349.878 343.822 372.951 343.822 413.333Z" fill="#F7C1CE"/>
<path d="M414.393 266.027C414.393 329.579 361.801 359.523 296.924 359.523C232.048 359.523 179.456 329.579 179.456 266.027C179.456 202.475 232.048 150.956 296.924 150.956C361.801 150.956 414.393 202.475 414.393 266.027Z" fill="#FBE2E8" stroke="#F094A7" stroke-width="5"/>
<path d="M281.491 319.716C281.491 319.716 286.431 324.024 290.122 323.672C293.191 323.379 296.954 319.716 296.954 319.716C296.954 319.716 300.709 323.483 303.786 323.672C307.234 323.883 311.698 319.716 311.698 319.716" stroke="#F094A7" stroke-width="5" stroke-linecap="round"/>
<ellipse cx="238.666" cy="298.573" rx="15.908" ry="7.14593" fill="#F7C1CF"/>
<ellipse cx="358.481" cy="298.841" rx="15.908" ry="7.14593" transform="rotate(-2.27638 358.481 298.841)" fill="#F7C1CF"/>
<ellipse cx="21.9025" cy="25.8969" rx="21.9025" ry="25.8969" transform="matrix(-0.953838 0.300322 0.215795 0.976439 361.221 228.637)" fill="black" stroke="#504B4F"/>
<ellipse cx="6.23145" cy="5.3407" rx="6.23145" ry="5.3407" transform="matrix(-0.82516 0.564899 0.575712 0.817653 340.421 243.547)" fill="white" stroke="#504B4F"/>
<ellipse cx="21.9025" cy="25.8969" rx="21.9025" ry="25.8969" transform="matrix(-0.953838 0.300322 0.215795 0.976439 261.424 227.43)" fill="black" stroke="#504B4F"/>
<ellipse cx="6.23145" cy="5.3407" rx="6.23145" ry="5.3407" transform="matrix(-0.82516 0.564899 0.575712 0.817653 240.624 242.34)" fill="white" stroke="#504B4F"/>
<path d="M247.929 409.137C247.908 401.522 248.354 395.66 249.727 390.558C249.727 390.558 276.1 413.932 273.703 418.127C271.648 421.723 247.929 409.137 247.929 409.137Z" fill="#FBE2E8"/>
<path d="M343.822 410.336C343.844 402.721 342.798 398.057 341.425 392.955C341.425 392.955 316.448 415.73 318.845 419.925C320.9 423.521 343.822 410.336 343.822 410.336Z" fill="#FBE2E8"/>
<path d="M242.175 380.969C242.175 380.969 286.074 415.244 274.539 420.525C266.463 424.221 233.784 404.942 233.784 404.942" stroke="#F094A7" stroke-width="5"/>
<path d="M351.747 380.969C351.747 380.969 307.847 415.244 319.383 420.525C327.458 424.221 360.137 404.942 360.137 404.942" stroke="#F094A7" stroke-width="5"/>
</svg>
