<svg width="600" height="600" viewBox="0 0 600 600" fill="none" xmlns="http://www.w3.org/2000/svg">
<path d="M324.608 170.511C321.617 183.303 324.608 204.179 324.608 204.179L342.693 231.726C342.693 231.726 376.311 240.678 394.537 231.726C404.767 226.702 409.62 221.659 416.842 212.749C426.883 200.36 431.452 191.287 433.721 175.408C435.868 160.383 437.056 149.565 428.899 136.842C420.438 123.647 409.849 119.124 394.537 116.641C373.123 113.167 357.974 121.217 342.693 136.842C332.3 147.469 328.015 155.938 324.608 170.511Z" fill="#A09991"/>
<path d="M324.608 170.511C321.617 183.303 324.608 204.179 324.608 204.179L342.693 231.726C342.693 231.726 376.311 240.678 394.537 231.726C404.767 226.702 409.62 221.659 416.842 212.749C426.883 200.36 431.452 191.287 433.721 175.408C435.868 160.383 437.056 149.565 428.899 136.842C420.438 123.647 409.849 119.124 394.537 116.641C373.123 113.167 357.974 121.217 342.693 136.842C332.3 147.469 328.015 155.938 324.608 170.511Z" stroke="#A09991" stroke-width="5"/>
<path d="M324.608 170.511C321.617 183.303 324.608 204.179 324.608 204.179L342.693 231.726C342.693 231.726 376.311 240.678 394.537 231.726C404.767 226.702 409.62 221.659 416.842 212.749C426.883 200.36 431.452 191.287 433.721 175.408C435.868 160.383 437.056 149.565 428.899 136.842C420.438 123.647 409.849 119.124 394.537 116.641C373.123 113.167 357.974 121.217 342.693 136.842C332.3 147.469 328.015 155.938 324.608 170.511Z" stroke="black" stroke-opacity="0.2" stroke-width="5"/>
<path d="M324.276 187.585C322.033 197.034 324.276 212.452 324.276 212.452L337.84 232.798C337.84 232.798 363.053 239.409 376.722 232.798C384.395 229.087 388.035 225.362 393.451 218.782C400.982 209.631 404.409 202.93 406.111 191.202C407.721 180.105 408.612 172.115 402.494 162.718C396.148 152.972 388.206 149.632 376.722 147.798C360.662 145.232 349.3 151.178 337.84 162.718C330.045 170.567 326.831 176.822 324.276 187.585Z" fill="#F3CCAD"/>
<path d="M324.276 187.585C322.033 197.034 324.276 212.452 324.276 212.452L337.84 232.798C337.84 232.798 363.053 239.409 376.722 232.798C384.395 229.087 388.035 225.362 393.451 218.782C400.982 209.631 404.409 202.93 406.111 191.202C407.721 180.105 408.612 172.115 402.494 162.718C396.148 152.972 388.206 149.632 376.722 147.798C360.662 145.232 349.3 151.178 337.84 162.718C330.045 170.567 326.831 176.822 324.276 187.585Z" stroke="#A09991" stroke-width="5"/>
<path d="M324.276 187.585C322.033 197.034 324.276 212.452 324.276 212.452L337.84 232.798C337.84 232.798 363.053 239.409 376.722 232.798C384.395 229.087 388.035 225.362 393.451 218.782C400.982 209.631 404.409 202.93 406.111 191.202C407.721 180.105 408.612 172.115 402.494 162.718C396.148 152.972 388.206 149.632 376.722 147.798C360.662 145.232 349.3 151.178 337.84 162.718C330.045 170.567 326.831 176.822 324.276 187.585Z" stroke="black" stroke-opacity="0.2" stroke-width="5"/>
<path d="M235.693 162.669C238.684 175.462 235.693 196.338 235.693 196.338L217.608 223.885C217.608 223.885 183.99 232.837 165.764 223.885C155.534 218.86 150.68 213.818 143.459 204.908C133.417 192.519 128.849 183.446 126.58 167.566C124.432 152.542 123.245 141.723 131.402 129.001C139.862 115.805 150.452 111.283 165.764 108.799C187.178 105.326 202.327 113.376 217.608 129.001C228.001 139.628 232.286 148.097 235.693 162.669Z" fill="#A09991"/>
<path d="M235.693 162.669C238.684 175.462 235.693 196.338 235.693 196.338L217.608 223.885C217.608 223.885 183.99 232.837 165.764 223.885C155.534 218.86 150.68 213.818 143.459 204.908C133.417 192.519 128.849 183.446 126.58 167.566C124.432 152.542 123.245 141.723 131.402 129.001C139.862 115.805 150.452 111.283 165.764 108.799C187.178 105.326 202.327 113.376 217.608 129.001C228.001 139.628 232.286 148.097 235.693 162.669Z" stroke="#A09991" stroke-width="5"/>
<path d="M235.693 162.669C238.684 175.462 235.693 196.338 235.693 196.338L217.608 223.885C217.608 223.885 183.99 232.837 165.764 223.885C155.534 218.86 150.68 213.818 143.459 204.908C133.417 192.519 128.849 183.446 126.58 167.566C124.432 152.542 123.245 141.723 131.402 129.001C139.862 115.805 150.452 111.283 165.764 108.799C187.178 105.326 202.327 113.376 217.608 129.001C228.001 139.628 232.286 148.097 235.693 162.669Z" stroke="black" stroke-opacity="0.2" stroke-width="5"/>
<path d="M236.025 179.744C238.268 189.192 236.025 204.611 236.025 204.611L222.461 224.956C222.461 224.956 197.248 231.568 183.578 224.956C175.906 221.245 172.266 217.521 166.85 210.94C159.318 201.79 155.892 195.089 154.19 183.361C152.58 172.264 151.689 164.274 157.807 154.877C164.152 145.131 172.095 141.791 183.578 139.957C199.639 137.391 211 143.337 222.461 154.877C230.256 162.726 233.47 168.981 236.025 179.744Z" fill="#F3CCAD"/>
<path d="M236.025 179.744C238.268 189.192 236.025 204.611 236.025 204.611L222.461 224.956C222.461 224.956 197.248 231.568 183.578 224.956C175.906 221.245 172.266 217.521 166.85 210.94C159.318 201.79 155.892 195.089 154.19 183.361C152.58 172.264 151.689 164.274 157.807 154.877C164.152 145.131 172.095 141.791 183.578 139.957C199.639 137.391 211 143.337 222.461 154.877C230.256 162.726 233.47 168.981 236.025 179.744Z" stroke="#A09991" stroke-width="5"/>
<path d="M236.025 179.744C238.268 189.192 236.025 204.611 236.025 204.611L222.461 224.956C222.461 224.956 197.248 231.568 183.578 224.956C175.906 221.245 172.266 217.521 166.85 210.94C159.318 201.79 155.892 195.089 154.19 183.361C152.58 172.264 151.689 164.274 157.807 154.877C164.152 145.131 172.095 141.791 183.578 139.957C199.639 137.391 211 143.337 222.461 154.877C230.256 162.726 233.47 168.981 236.025 179.744Z" stroke="black" stroke-opacity="0.2" stroke-width="5"/>
<path d="M318.945 468.734L298.734 438.287C364.996 424.583 393.542 411.98 459.442 391.749C516.774 374.149 384.484 451.791 318.945 468.734Z" fill="#FEB7EB"/>
<path d="M318.945 468.734L298.734 438.287C364.996 424.583 393.542 411.98 459.442 391.749C516.774 374.149 384.484 451.791 318.945 468.734Z" stroke="#FEB7EB" stroke-width="5"/>
<path d="M318.945 468.734L298.734 438.287C364.996 424.583 393.542 411.98 459.442 391.749C516.774 374.149 384.484 451.791 318.945 468.734Z" stroke="black" stroke-opacity="0.2" stroke-width="5"/>
<path d="M357.586 382.156C348.936 384.838 339.102 396.159 339.102 396.159L334.621 472.333C334.621 472.333 361.83 462.155 377.75 452.73C381.301 450.627 383.622 449.866 386.711 447.129C398.635 436.563 400.355 420.51 396.233 405.12C393.312 394.213 388.102 386.665 377.75 382.156C370.53 379.012 365.107 379.823 357.586 382.156Z" fill="#A09991"/>
<path d="M357.586 382.156C348.936 384.838 339.102 396.159 339.102 396.159L334.621 472.333C334.621 472.333 361.83 462.155 377.75 452.73C381.301 450.627 383.622 449.866 386.711 447.129C398.635 436.563 400.355 420.51 396.233 405.12C393.312 394.213 388.102 386.665 377.75 382.156C370.53 379.012 365.107 379.823 357.586 382.156Z" stroke="#A09991" stroke-width="5"/>
<path d="M357.586 382.156C348.936 384.838 339.102 396.159 339.102 396.159L334.621 472.333C334.621 472.333 361.83 462.155 377.75 452.73C381.301 450.627 383.622 449.866 386.711 447.129C398.635 436.563 400.355 420.51 396.233 405.12C393.312 394.213 388.102 386.665 377.75 382.156C370.53 379.012 365.107 379.823 357.586 382.156Z" stroke="black" stroke-opacity="0.2" stroke-width="5"/>
<path d="M210.616 382.156C219.266 384.838 229.1 396.159 229.1 396.159L233.581 472.333C233.581 472.333 206.372 462.155 190.452 452.73C186.901 450.627 184.58 449.866 181.491 447.129C169.567 436.563 167.847 420.51 171.969 405.12C174.89 394.213 180.1 386.665 190.452 382.156C197.672 379.012 203.095 379.823 210.616 382.156Z" fill="#A09991"/>
<path d="M210.616 382.156C219.266 384.838 229.1 396.159 229.1 396.159L233.581 472.333C233.581 472.333 206.372 462.155 190.452 452.73C186.901 450.627 184.58 449.866 181.491 447.129C169.567 436.563 167.847 420.51 171.969 405.12C174.89 394.213 180.1 386.665 190.452 382.156C197.672 379.012 203.095 379.823 210.616 382.156Z" stroke="#A09991" stroke-width="5"/>
<path d="M210.616 382.156C219.266 384.838 229.1 396.159 229.1 396.159L233.581 472.333C233.581 472.333 206.372 462.155 190.452 452.73C186.901 450.627 184.58 449.866 181.491 447.129C169.567 436.563 167.847 420.51 171.969 405.12C174.89 394.213 180.1 386.665 190.452 382.156C197.672 379.012 203.095 379.823 210.616 382.156Z" stroke="black" stroke-opacity="0.2" stroke-width="5"/>
<path d="M398.278 490.62C362.271 487.859 303.115 481.785 303.115 481.785C303.115 481.785 334.556 469.547 357.126 466.875C375.567 464.691 391.47 461.235 409.58 464.36C424.155 466.875 436.87 472.317 435.143 481.785C433.351 491.612 413.531 491.79 398.278 490.62Z" fill="#A09991"/>
<path d="M398.278 490.62C362.271 487.859 303.115 481.785 303.115 481.785C303.115 481.785 334.556 469.547 357.126 466.875C375.567 464.691 391.47 461.235 409.58 464.36C424.155 466.875 436.87 472.317 435.143 481.785C433.351 491.612 413.531 491.79 398.278 490.62Z" stroke="#A09991" stroke-width="5"/>
<path d="M398.278 490.62C362.271 487.859 303.115 481.785 303.115 481.785C303.115 481.785 334.556 469.547 357.126 466.875C375.567 464.691 391.47 461.235 409.58 464.36C424.155 466.875 436.87 472.317 435.143 481.785C433.351 491.612 413.531 491.79 398.278 490.62Z" stroke="black" stroke-opacity="0.2" stroke-width="5"/>
<path d="M173.225 490.62C209.232 487.859 268.388 481.785 268.388 481.785C268.388 481.785 236.947 469.547 214.376 466.875C195.936 464.691 180.033 461.235 161.923 464.36C147.348 466.875 134.633 472.317 136.36 481.785C138.152 491.612 157.971 491.79 173.225 490.62Z" fill="#A09991"/>
<path d="M173.225 490.62C209.232 487.859 268.388 481.785 268.388 481.785C268.388 481.785 236.947 469.547 214.376 466.875C195.936 464.691 180.033 461.235 161.923 464.36C147.348 466.875 134.633 472.317 136.36 481.785C138.152 491.612 157.971 491.79 173.225 490.62Z" stroke="#A09991" stroke-width="5"/>
<path d="M173.225 490.62C209.232 487.859 268.388 481.785 268.388 481.785C268.388 481.785 236.947 469.547 214.376 466.875C195.936 464.691 180.033 461.235 161.923 464.36C147.348 466.875 134.633 472.317 136.36 481.785C138.152 491.612 157.971 491.79 173.225 490.62Z" stroke="black" stroke-opacity="0.2" stroke-width="5"/>
<path d="M220.919 345.201C219.333 349.624 192.519 425.43 214.197 457.946C237.721 493.233 330.141 497.714 349.184 457.946C368.227 418.178 342.465 348.576 340.782 345.201C340.782 345.201 222.255 341.475 220.919 345.201Z" fill="#A09991"/>
<path d="M220.919 345.201C219.333 349.624 192.519 425.43 214.197 457.946C237.721 493.233 330.141 497.714 349.184 457.946C368.227 418.178 342.465 348.576 340.782 345.201C340.782 345.201 222.255 341.475 220.919 345.201Z" stroke="#A09991" stroke-width="5"/>
<path d="M220.919 345.201C219.333 349.624 192.519 425.43 214.197 457.946C237.721 493.233 330.141 497.714 349.184 457.946C368.227 418.178 342.465 348.576 340.782 345.201C340.782 345.201 222.255 341.475 220.919 345.201Z" stroke="black" stroke-opacity="0.2" stroke-width="5"/>
<path d="M326.639 402.855C326.639 440.595 306.578 466.83 281.831 466.83C257.083 466.83 237.022 440.595 237.022 402.855C237.022 365.116 259.426 377.772 281.831 377.772C304.235 377.772 326.639 365.116 326.639 402.855Z" fill="#FCD8B6"/>
<path d="M326.639 402.855C326.639 440.595 306.578 466.83 281.831 466.83C257.083 466.83 237.022 440.595 237.022 402.855C237.022 365.116 259.426 377.772 281.831 377.772C304.235 377.772 326.639 365.116 326.639 402.855Z" stroke="#A09991" stroke-width="5"/>
<path d="M326.639 402.855C326.639 440.595 306.578 466.83 281.831 466.83C257.083 466.83 237.022 440.595 237.022 402.855C237.022 365.116 259.426 377.772 281.831 377.772C304.235 377.772 326.639 365.116 326.639 402.855Z" stroke="black" stroke-opacity="0.2" stroke-width="5"/>
<path d="M281.308 183.38C228.096 183.38 199.841 222.303 184.512 267.253C179.107 280.308 162.668 307.837 190.112 335.842C214.124 356.187 249.46 357.578 281.308 357.578C313.157 357.578 422.559 361.608 376.238 267.253C360.909 222.303 334.521 183.38 281.308 183.38Z" fill="#A09991"/>
<path d="M281.308 183.38C228.096 183.38 199.841 222.303 184.512 267.253C179.107 280.308 162.668 307.837 190.112 335.842C214.124 356.187 249.46 357.578 281.308 357.578C313.157 357.578 422.559 361.608 376.238 267.253C360.909 222.303 334.521 183.38 281.308 183.38Z" stroke="#A09991" stroke-width="5"/>
<path d="M281.308 183.38C228.096 183.38 199.841 222.303 184.512 267.253C179.107 280.308 162.668 307.837 190.112 335.842C214.124 356.187 249.46 357.578 281.308 357.578C313.157 357.578 422.559 361.608 376.238 267.253C360.909 222.303 334.521 183.38 281.308 183.38Z" stroke="black" stroke-opacity="0.2" stroke-width="5"/>
<path d="M281.858 319.263V330.689M281.858 330.689C281.858 330.689 278.341 334.113 275.473 334.386C272.024 334.715 267.407 330.689 267.407 330.689M281.858 330.689C281.858 330.689 285.368 334.21 288.244 334.386C291.466 334.583 295.637 330.689 295.637 330.689" stroke="black" stroke-width="5" stroke-linecap="round"/>
<path d="M281.598 320.272C280.088 320.272 269.897 316.526 268.849 310.718C267.802 304.91 296.149 304.91 294.346 310.718C292.544 316.526 283.108 320.272 281.598 320.272Z" fill="#27051B"/>
<path d="M285.261 310.156C285.261 310.854 283.562 311.42 281.467 311.42C279.372 311.42 277.673 310.854 277.673 310.156C277.673 309.457 279.372 308.891 281.467 308.891C283.562 308.891 285.261 309.457 285.261 310.156Z" fill="white" fill-opacity="0.5"/>
<ellipse cx="227.385" cy="310.93" rx="14.8669" ry="6.67829" fill="#EADFD7"/>
<ellipse cx="339.36" cy="311.179" rx="14.8669" ry="6.67829" transform="rotate(-2.27638 339.36 311.179)" fill="#EADFD7"/>
<ellipse cx="20.4691" cy="24.2021" rx="20.4691" ry="24.2021" transform="matrix(-0.953838 0.300322 0.215795 0.976439 341.92 245.57)" fill="black" stroke="#504B4F"/>
<ellipse cx="5.82365" cy="4.9912" rx="5.82365" ry="4.9912" transform="matrix(-0.82516 0.564899 0.575712 0.817653 322.481 259.504)" fill="white" stroke="#504B4F"/>
<ellipse cx="20.4691" cy="24.2021" rx="20.4691" ry="24.2021" transform="matrix(-0.953838 0.300322 0.215795 0.976439 248.654 244.442)" fill="black" stroke="#504B4F"/>
<ellipse cx="5.82365" cy="4.9912" rx="5.82365" ry="4.9912" transform="matrix(-0.82516 0.564899 0.575712 0.817653 229.215 258.376)" fill="white" stroke="#504B4F"/>
<path d="M231.421 413.26C231.401 406.143 231.818 396.744 233.101 391.976C233.101 391.976 262.37 418.739 260.13 422.659C258.209 426.02 231.421 413.26 231.421 413.26Z" fill="#A09991"/>
<path d="M329.44 414.38C329.46 407.264 330.723 398.985 329.44 394.216C329.44 394.216 298.866 418.301 302.317 424.34C304.237 427.701 329.44 414.38 329.44 414.38Z" fill="#A09991"/>
<path d="M230.664 387.933C230.664 387.933 271.69 419.965 260.91 424.9C253.362 428.355 222.822 410.337 222.822 410.337" stroke="#A09991" stroke-width="5"/>
<path d="M230.664 387.933C230.664 387.933 271.69 419.965 260.91 424.9C253.362 428.355 222.822 410.337 222.822 410.337" stroke="black" stroke-opacity="0.2" stroke-width="5"/>
<path d="M333.065 387.933C333.065 387.933 292.039 419.965 302.82 424.9C310.367 428.355 340.907 410.337 340.907 410.337" stroke="#A09991" stroke-width="5"/>
<path d="M333.065 387.933C333.065 387.933 292.039 419.965 302.82 424.9C310.367 428.355 340.907 410.337 340.907 410.337" stroke="black" stroke-opacity="0.2" stroke-width="5"/>
<path d="M291.227 206.323C291.227 206.323 256.294 194.717 260.979 187.123C266.522 178.139 273.727 160.98 288.984 159.677C293.588 159.284 297.258 159.67 300.748 160.954C306.633 163.119 301.146 171.062 295.625 177.241C298.537 174.871 301.94 172.735 305.229 172.156C312.285 170.914 318.799 170.386 323.152 176.077C328.784 183.44 321.832 191.893 315.31 198.481C308.352 205.511 291.227 206.323 291.227 206.323Z" fill="#A09991"/>
<path d="M291.227 206.323C291.227 206.323 256.294 194.717 260.979 187.123C266.522 178.139 273.727 160.98 288.984 159.677C293.588 159.284 297.258 159.67 300.748 160.954C306.633 163.119 301.146 171.062 295.625 177.241C298.537 174.871 301.94 172.735 305.229 172.156C312.285 170.914 318.799 170.386 323.152 176.077C328.784 183.44 321.832 191.893 315.31 198.481C308.352 205.511 291.227 206.323 291.227 206.323Z" stroke="#A09991" stroke-width="5"/>
<path d="M291.227 206.323C291.227 206.323 256.294 194.717 260.979 187.123C266.522 178.139 273.727 160.98 288.984 159.677C293.588 159.284 297.258 159.67 300.748 160.954C306.633 163.119 301.146 171.062 295.625 177.241C298.537 174.871 301.94 172.735 305.229 172.156C312.285 170.914 318.799 170.386 323.152 176.077C328.784 183.44 321.832 191.893 315.31 198.481C308.352 205.511 291.227 206.323 291.227 206.323Z" stroke="black" stroke-opacity="0.2" stroke-width="5"/>
</svg>
