<svg width="600" height="600" viewBox="0 0 600 600" fill="none" xmlns="http://www.w3.org/2000/svg">
<ellipse cx="363.902" cy="144.867" rx="35.8671" ry="35.8671" fill="#A2704B" stroke="#825A3C" stroke-width="14"/>
<ellipse cx="363.902" cy="144.867" rx="14.7081" ry="14.7081" fill="#FBE2E8"/>
<ellipse cx="234.781" cy="144.867" rx="35.8671" ry="35.8671" fill="#A2704B" stroke="#825A3C" stroke-width="14"/>
<ellipse cx="234.78" cy="144.867" rx="14.7081" ry="14.7081" fill="#FBE2E8"/>
<path d="M235.378 309.551C233.686 314.271 205.068 395.176 228.204 429.879C253.311 467.54 351.947 472.322 372.271 429.879C392.594 387.437 365.1 313.153 363.304 309.551C363.304 309.551 236.804 305.574 235.378 309.551Z" fill="#A2704B"/>
<path d="M235.378 309.551C233.686 314.271 205.068 395.176 228.204 429.879C253.311 467.54 351.947 472.322 372.271 429.879C392.594 387.437 365.1 313.153 363.304 309.551C363.304 309.551 236.804 305.574 235.378 309.551Z" stroke="#A2704B" stroke-width="5"/>
<path d="M235.378 309.551C233.686 314.271 205.068 395.176 228.204 429.879C253.311 467.54 351.947 472.322 372.271 429.879C392.594 387.437 365.1 313.153 363.304 309.551C363.304 309.551 236.804 305.574 235.378 309.551Z" stroke="black" stroke-opacity="0.2" stroke-width="5"/>
<path d="M347.164 387.437C347.164 427.715 325.753 455.715 299.341 455.715C272.93 455.715 251.519 427.715 251.519 387.437C251.519 347.159 277.343 323.503 299.341 314.507C320.383 324.146 347.164 347.159 347.164 387.437Z" fill="#D1A888"/>
<path d="M299.829 136.846C243.037 136.846 212.882 178.386 196.522 226.36C190.754 240.293 173.209 269.674 202.499 299.563C228.126 321.276 265.838 322.76 299.829 322.76C333.82 322.76 450.581 327.061 401.144 226.36C384.784 178.386 356.621 136.846 299.829 136.846Z" fill="#A2704B"/>
<path d="M299.829 136.846C243.037 136.846 212.882 178.386 196.522 226.36C190.754 240.293 173.209 269.674 202.499 299.563C228.126 321.276 265.838 322.76 299.829 322.76C333.82 322.76 450.581 327.061 401.144 226.36C384.784 178.386 356.621 136.846 299.829 136.846Z" stroke="#A2704B" stroke-width="5"/>
<path d="M299.829 136.846C243.037 136.846 212.882 178.386 196.522 226.36C190.754 240.293 173.209 269.674 202.499 299.563C228.126 321.276 265.838 322.76 299.829 322.76C333.82 322.76 450.581 327.061 401.144 226.36C384.784 178.386 356.621 136.846 299.829 136.846Z" stroke="black" stroke-opacity="0.2" stroke-width="5"/>
<path d="M263.221 200.053C263.221 204.357 252.645 200.053 248.61 200.053C244.575 200.053 235.216 199.436 235.216 195.132C235.216 190.827 237.245 186.108 248.61 186.108C259.974 186.108 263.221 195.749 263.221 200.053Z" fill="#C38F6A"/>
<path d="M336.103 200.053C336.103 204.357 346.679 200.053 350.714 200.053C354.749 200.053 364.108 199.436 364.108 195.132C364.108 190.827 362.079 186.108 350.714 186.108C339.35 186.108 336.103 195.749 336.103 200.053Z" fill="#C38F6A"/>
<ellipse cx="300.985" cy="284.151" rx="34.0737" ry="25.7047" fill="#CDA88B"/>
<path d="M300.417 281.869V294.063M300.417 294.063C300.417 294.063 296.664 297.717 293.602 298.009C289.921 298.36 284.994 294.063 284.994 294.063M300.417 294.063C300.417 294.063 304.162 297.821 307.232 298.009C310.671 298.219 315.122 294.063 315.122 294.063" stroke="black" stroke-width="5" stroke-linecap="round"/>
<path d="M300.139 282.946C298.528 282.946 287.651 278.947 286.533 272.748C285.415 266.55 315.669 266.55 313.745 272.748C311.822 278.947 301.751 282.946 300.139 282.946Z" fill="#27051B"/>
<path d="M304.049 272.149C304.049 272.895 302.236 273.499 300 273.499C297.763 273.499 295.951 272.895 295.951 272.149C295.951 271.404 297.763 270.8 300 270.8C302.236 270.8 304.049 271.404 304.049 272.149Z" fill="white" fill-opacity="0.5"/>
<ellipse cx="242.279" cy="272.974" rx="15.8669" ry="7.12749" fill="#C38F6A"/>
<ellipse cx="361.786" cy="273.241" rx="15.8669" ry="7.12749" transform="rotate(-2.27638 361.786 273.241)" fill="#C38F6A"/>
<ellipse cx="21.8459" cy="25.8301" rx="21.8459" ry="25.8301" transform="matrix(-0.953838 0.300322 0.215795 0.976439 364.519 203.219)" fill="black" stroke="#504B4F"/>
<ellipse cx="6.21536" cy="5.32692" rx="6.21536" ry="5.32692" transform="matrix(-0.82516 0.564899 0.575712 0.817653 343.771 218.09)" fill="white" stroke="#504B4F"/>
<ellipse cx="21.8459" cy="25.8301" rx="21.8459" ry="25.8301" transform="matrix(-0.953838 0.300322 0.215795 0.976439 264.979 202.015)" fill="black" stroke="#504B4F"/>
<ellipse cx="6.21536" cy="5.32692" rx="6.21536" ry="5.32692" transform="matrix(-0.82516 0.564899 0.575712 0.817653 244.232 216.886)" fill="white" stroke="#504B4F"/>
<path d="M251.519 383.253C251.497 375.657 251.943 369.81 253.312 364.721C253.312 364.721 279.617 388.035 277.226 392.219C275.176 395.806 251.519 383.253 251.519 383.253Z" fill="#A2704B"/>
<path d="M347.165 384.448C347.186 376.852 346.143 372.201 344.773 367.112C344.773 367.112 319.861 389.828 322.252 394.012C324.301 397.599 347.165 384.448 347.165 384.448Z" fill="#A2704B"/>
<path d="M245.779 355.157C245.779 355.157 289.565 389.344 278.059 394.611C270.004 398.298 237.41 379.068 237.41 379.068" stroke="#825A3C" stroke-width="5"/>
<path d="M355.069 355.157C355.069 355.157 311.283 389.344 322.788 394.611C330.843 398.298 363.438 379.068 363.438 379.068" stroke="#825A3C" stroke-width="5"/>
<path d="M406.962 450.301C397 472.969 374.223 484.885 356.088 476.915C337.953 468.945 331.328 444.108 341.29 421.44C351.252 398.771 374.029 386.855 392.164 394.825C410.299 402.795 416.924 427.632 406.962 450.301Z" fill="#A2704B" stroke="#825A3C" stroke-width="5"/>
<path d="M394.601 448.518C387.96 463.631 372.775 471.574 360.685 466.261C348.595 460.948 344.178 444.39 350.82 429.277C357.461 414.165 372.646 406.221 384.736 411.534C396.826 416.848 401.243 433.406 394.601 448.518Z" fill="#D1A888"/>
<path d="M193.038 450.3C203 472.969 225.777 484.884 243.912 476.915C262.047 468.945 268.672 444.108 258.71 421.439C248.748 398.771 225.971 386.855 207.836 394.825C189.701 402.794 183.076 427.632 193.038 450.3Z" fill="#A2704B" stroke="#825A3C" stroke-width="5"/>
<path d="M205.399 448.518C212.041 463.631 227.226 471.574 239.316 466.261C251.405 460.948 255.822 444.39 249.181 429.277C242.539 414.165 227.354 406.221 215.265 411.534C203.175 416.848 198.758 433.406 205.399 448.518Z" fill="#D1A888"/>
</svg>
