<svg width="600" height="600" viewBox="0 0 600 600" fill="none" xmlns="http://www.w3.org/2000/svg">
<circle cx="353.177" cy="167.967" r="36.4113" fill="#5C5E62" stroke="#2E333B" stroke-width="14"/>
<ellipse cx="353.177" cy="167.967" rx="14.9312" ry="14.9312" fill="#FFD6CE"/>
<circle cx="161.411" cy="167.967" r="36.4113" fill="#5C5E62" stroke="#2E333B" stroke-width="14"/>
<ellipse cx="161.411" cy="167.967" rx="14.9312" ry="14.9312" fill="#FFD6CE"/>
<path d="M306.456 346.298C296.831 359.878 284.925 361.184 273.354 373.149C270.905 375.681 267.229 378.284 267.229 378.284C267.229 378.284 277.889 399.2 287.867 408.938C299.383 420.177 307.157 426.814 322.714 430.925C331.12 433.147 336.452 435.203 344.876 433.052C353.347 430.888 357.064 426.496 363.383 420.453C370.072 414.057 372.966 409.468 377.397 401.342C380.687 395.308 382.403 391.753 384.253 385.134C386.373 377.546 384.822 372.75 386.787 365.121C389.093 356.17 392.407 351.836 396.007 343.323C398.131 338.303 404.713 334.83 401.444 330.468C398.2 326.139 387.666 331.888 387.666 331.888C387.666 331.888 394.869 319.213 402.647 315.163C410.001 311.334 415.405 311.524 423.67 312.195C435.48 313.154 440.702 319.399 451.615 324.015C463.911 329.216 452.896 300.637 447.377 287.3C442.901 276.483 439.224 270.111 430.049 262.84C421.32 255.921 414.715 253.851 403.781 251.729C394.492 249.926 388.855 249.624 379.555 251.365C361.594 254.728 352.649 263.419 340.391 276.97C329.049 289.51 326.947 299.725 319.694 314.998C314.001 326.987 314.13 335.47 306.456 346.298Z" fill="#5C5E62"/>
<path d="M306.456 346.298C296.831 359.878 284.925 361.184 273.354 373.149C270.905 375.681 267.229 378.284 267.229 378.284C267.229 378.284 277.889 399.2 287.867 408.938C299.383 420.177 307.157 426.814 322.714 430.925C331.12 433.147 336.452 435.203 344.876 433.052C353.347 430.888 357.064 426.496 363.383 420.453C370.072 414.057 372.966 409.468 377.397 401.342C380.687 395.308 382.403 391.753 384.253 385.134C386.373 377.546 384.822 372.75 386.787 365.121C389.093 356.17 392.407 351.836 396.007 343.323C398.131 338.303 404.713 334.83 401.444 330.468C398.2 326.139 387.666 331.888 387.666 331.888C387.666 331.888 394.869 319.213 402.647 315.163C410.001 311.334 415.405 311.524 423.67 312.195C435.48 313.154 440.702 319.399 451.615 324.015C463.911 329.216 452.896 300.637 447.377 287.3C442.901 276.483 439.224 270.111 430.049 262.84C421.32 255.921 414.715 253.851 403.781 251.729C394.492 249.926 388.855 249.624 379.555 251.365C361.594 254.728 352.649 263.419 340.391 276.97C329.049 289.51 326.947 299.725 319.694 314.998C314.001 326.987 314.13 335.47 306.456 346.298Z" stroke="#5C5E62" stroke-width="5"/>
<path d="M306.456 346.298C296.831 359.878 284.925 361.184 273.354 373.149C270.905 375.681 267.229 378.284 267.229 378.284C267.229 378.284 277.889 399.2 287.867 408.938C299.383 420.177 307.157 426.814 322.714 430.925C331.12 433.147 336.452 435.203 344.876 433.052C353.347 430.888 357.064 426.496 363.383 420.453C370.072 414.057 372.966 409.468 377.397 401.342C380.687 395.308 382.403 391.753 384.253 385.134C386.373 377.546 384.822 372.75 386.787 365.121C389.093 356.17 392.407 351.836 396.007 343.323C398.131 338.303 404.713 334.83 401.444 330.468C398.2 326.139 387.666 331.888 387.666 331.888C387.666 331.888 394.869 319.213 402.647 315.163C410.001 311.334 415.405 311.524 423.67 312.195C435.48 313.154 440.702 319.399 451.615 324.015C463.911 329.216 452.896 300.637 447.377 287.3C442.901 276.483 439.224 270.111 430.049 262.84C421.32 255.921 414.715 253.851 403.781 251.729C394.492 249.926 388.855 249.624 379.555 251.365C361.594 254.728 352.649 263.419 340.391 276.97C329.049 289.51 326.947 299.725 319.694 314.998C314.001 326.987 314.13 335.47 306.456 346.298Z" stroke="black" stroke-opacity="0.2" stroke-width="5"/>
<path d="M451.76 312.381L451.826 312.665C454.727 325.129 433.922 305.091 421.645 299.899C412.359 295.971 398.73 292.043 389.251 295.48C377.367 299.788 372.945 302.214 365.566 312.477C360.171 319.981 352.604 339.771 360.816 344.014C365.053 346.203 368.844 340.905 373.004 343.239C380.456 347.42 361.764 351.612 358.259 359.405C355.57 365.383 357.048 369.616 355.229 375.914C351.264 389.643 306.311 419.854 306.311 419.854C289.757 409.013 283.415 401.968 276.279 388.043C276.279 388.043 311.919 372.136 320.769 351.455C325.995 339.244 325.376 328.164 332.269 314.866C339.73 300.472 345.219 292.293 357.932 282.233L358.1 282.101C367.261 274.851 373.019 270.295 384.479 267.764C392.366 266.022 397.174 265.98 405.155 267.226C415.926 268.908 422.098 271.621 430.865 278.101C437.522 283.022 441.159 285.427 445.4 293.532C448.956 300.329 449.933 304.525 451.76 312.381Z" fill="white" fill-opacity="0.6"/>
<path d="M319.373 365.612C310.002 368.519 299.347 380.784 299.347 380.784L294.492 463.316C294.492 463.316 323.971 452.288 341.22 442.076C345.068 439.798 347.583 438.973 350.93 436.007C363.849 424.56 365.712 407.167 361.246 390.493C358.081 378.676 352.437 370.497 341.22 365.612C333.398 362.206 327.522 363.085 319.373 365.612Z" fill="#5C5E62"/>
<path d="M319.373 365.612C310.002 368.519 299.347 380.784 299.347 380.784L294.492 463.316C294.492 463.316 323.971 452.288 341.22 442.076C345.068 439.798 347.583 438.973 350.93 436.007C363.849 424.56 365.712 407.167 361.246 390.493C358.081 378.676 352.437 370.497 341.22 365.612C333.398 362.206 327.522 363.085 319.373 365.612Z" stroke="#5C5E62" stroke-width="5"/>
<path d="M319.373 365.612C310.002 368.519 299.347 380.784 299.347 380.784L294.492 463.316C294.492 463.316 323.971 452.288 341.22 442.076C345.068 439.798 347.583 438.973 350.93 436.007C363.849 424.56 365.712 407.167 361.246 390.493C358.081 378.676 352.437 370.497 341.22 365.612C333.398 362.206 327.522 363.085 319.373 365.612Z" stroke="black" stroke-opacity="0.2" stroke-width="5"/>
<path d="M196.55 365.612C205.921 368.519 216.576 380.784 216.576 380.784L221.431 463.316C221.431 463.316 191.951 452.288 174.703 442.076C170.855 439.798 168.34 438.973 164.993 436.007C152.074 424.56 150.211 407.167 154.677 390.493C157.842 378.676 163.486 370.497 174.703 365.612C182.525 362.206 188.401 363.085 196.55 365.612Z" fill="#5C5E62"/>
<path d="M196.55 365.612C205.921 368.519 216.576 380.784 216.576 380.784L221.431 463.316C221.431 463.316 191.951 452.288 174.703 442.076C170.855 439.798 168.34 438.973 164.993 436.007C152.074 424.56 150.211 407.167 154.677 390.493C157.842 378.676 163.486 370.497 174.703 365.612C182.525 362.206 188.401 363.085 196.55 365.612Z" stroke="#5C5E62" stroke-width="5"/>
<path d="M196.55 365.612C205.921 368.519 216.576 380.784 216.576 380.784L221.431 463.316C221.431 463.316 191.951 452.288 174.703 442.076C170.855 439.798 168.34 438.973 164.993 436.007C152.074 424.56 150.211 407.167 154.677 390.493C157.842 378.676 163.486 370.497 174.703 365.612C182.525 362.206 188.401 363.085 196.55 365.612Z" stroke="black" stroke-opacity="0.2" stroke-width="5"/>
<path d="M190.872 320.585C189.154 325.378 160.102 407.51 183.589 442.74C209.076 480.972 309.21 485.826 329.842 442.74C350.474 399.653 322.562 324.242 320.739 320.585C320.739 320.585 192.319 316.548 190.872 320.585Z" fill="#5C5E62"/>
<path d="M190.872 320.585C189.154 325.378 160.102 407.51 183.589 442.74C209.076 480.972 309.21 485.826 329.842 442.74C350.474 399.653 322.562 324.242 320.739 320.585C320.739 320.585 192.319 316.548 190.872 320.585Z" stroke="#5C5E62" stroke-width="5"/>
<path d="M190.872 320.585C189.154 325.378 160.102 407.51 183.589 442.74C209.076 480.972 309.21 485.826 329.842 442.74C350.474 399.653 322.562 324.242 320.739 320.585C320.739 320.585 192.319 316.548 190.872 320.585Z" stroke="black" stroke-opacity="0.2" stroke-width="5"/>
<path d="M241.411 454.642C235.225 455.324 225.315 456.619 225.315 456.619C225.315 456.619 213.543 454.655 208.399 449.395C204.839 445.755 203.262 443.869 200.85 439.732C198.272 435.31 197.166 432.67 195.61 427.587C194.054 422.503 193.954 419.765 193.767 414.632C193.58 409.498 194.687 402.261 194.687 402.261C194.687 402.261 195.929 396.007 197.406 392.224C199.86 385.935 202.091 382.644 206.464 377.501C210.402 372.87 213.01 370.493 218.081 367.14C224.192 363.099 228.221 361.602 235.285 359.659C243.811 357.315 248.997 356.918 257.823 357.467C264.946 357.91 269.943 358.384 276.684 360.73C283.425 363.076 287.596 364.328 293.465 368.264C298.344 371.537 301.816 374.213 305.793 378.538C310.342 383.484 311.893 387.353 314.355 393.606C316.441 398.905 316.953 404.028 317.437 409.702C317.984 416.12 317.249 418.902 316.067 424.085C314.885 429.269 313.637 431.51 310.757 437.098C307.876 442.686 307.071 443.627 303.919 446.942C301.026 449.986 298.549 451.674 294.916 453.781C291.367 455.839 285.116 457.565 285.116 457.565C285.116 457.565 277.272 456.034 271.205 455.249C265.138 454.464 262.167 454.052 256.479 453.781C250.601 453.502 247.26 453.997 241.411 454.642Z" fill="#F9F6EF"/>
<path d="M256.301 145.26C198.647 145.26 168.034 187.431 151.426 236.132C145.571 250.277 127.759 280.103 157.494 310.446C183.51 332.488 221.794 333.995 256.301 333.995C290.807 333.995 409.34 338.361 359.153 236.132C342.545 187.431 313.954 145.26 256.301 145.26Z" fill="#5C5E62"/>
<path d="M256.301 145.26C198.647 145.26 168.034 187.431 151.426 236.132C145.571 250.277 127.759 280.103 157.494 310.446C183.51 332.488 221.794 333.995 256.301 333.995C290.807 333.995 409.34 338.361 359.153 236.132C342.545 187.431 313.954 145.26 256.301 145.26Z" stroke="#5C5E62" stroke-width="5"/>
<path d="M256.301 145.26C198.647 145.26 168.034 187.431 151.426 236.132C145.571 250.277 127.759 280.103 157.494 310.446C183.51 332.488 221.794 333.995 256.301 333.995C290.807 333.995 409.34 338.361 359.153 236.132C342.545 187.431 313.954 145.26 256.301 145.26Z" stroke="black" stroke-opacity="0.2" stroke-width="5"/>
<path d="M222.11 210.04C222.11 214.41 211.373 210.04 207.277 210.04C203.181 210.04 193.68 209.413 193.68 205.044C193.68 200.674 195.74 195.883 207.277 195.883C218.814 195.883 222.11 205.671 222.11 210.04Z" fill="#C4C3C3" fill-opacity="0.8"/>
<path d="M288.349 211.254C288.349 215.623 299.086 211.254 303.182 211.254C307.278 211.254 316.779 210.626 316.779 206.257C316.779 201.888 314.719 197.097 303.182 197.097C291.645 197.097 288.349 206.884 288.349 211.254Z" fill="#C4C3C3" fill-opacity="0.8"/>
<path d="M232.366 162.185C227.427 156.916 217.242 151.542 217.242 151.542L223.404 147.621C223.404 147.621 219.419 133.318 223.404 125.774C225.288 122.207 226.13 117.379 230.126 117.931C233.732 118.43 232.394 123.415 235.167 125.774C244.698 133.882 241.71 100.517 254.213 100.006C267.117 99.478 266.035 135.127 274.94 125.774C277.773 122.797 275.328 116.628 279.421 116.251C283.717 115.855 283.523 121.728 285.023 125.774C287.988 133.773 285.023 147.621 285.023 147.621L290.064 151.542C290.064 151.542 279.832 156.872 274.94 162.185C267.911 169.816 266.801 176.361 263.736 186.272C259.254 200.767 259.605 209.754 259.815 224.924C259.952 234.807 260.499 240.373 262.056 250.132C263.469 258.989 270.582 264.274 267.097 272.539C264.499 278.702 260.942 283.579 254.26 283.877C247.216 284.191 242.965 279.029 240.209 272.539C236.684 264.237 244.375 259.037 245.811 250.132C247.38 240.392 247.43 234.79 247.491 224.924C247.584 209.773 248.672 200.727 244.13 186.272C240.992 176.285 239.526 169.823 232.366 162.185Z" fill="#F9F6EF"/>
<path d="M232.366 162.185C227.427 156.916 217.242 151.542 217.242 151.542L223.404 147.621C223.404 147.621 219.419 133.318 223.404 125.774C225.288 122.207 226.13 117.379 230.126 117.931C233.732 118.43 232.394 123.415 235.167 125.774C244.698 133.882 241.71 100.517 254.213 100.006C267.117 99.478 266.035 135.127 274.94 125.774C277.773 122.797 275.328 116.628 279.421 116.251C283.717 115.855 283.523 121.728 285.023 125.774C287.988 133.773 285.023 147.621 285.023 147.621L290.064 151.542C290.064 151.542 279.832 156.872 274.94 162.185C267.911 169.816 266.801 176.361 263.736 186.272C259.254 200.767 259.605 209.754 259.815 224.924C259.952 234.807 260.499 240.373 262.056 250.132C263.469 258.989 270.582 264.274 267.097 272.539C264.499 278.702 260.942 283.579 254.26 283.877C247.216 284.191 242.965 279.029 240.209 272.539C236.684 264.237 244.375 259.037 245.811 250.132C247.38 240.392 247.43 234.79 247.491 224.924C247.584 209.773 248.672 200.727 244.13 186.272C240.992 176.285 239.526 169.823 232.366 162.185Z" stroke="#F9F6EF" stroke-width="5"/>
<path d="M232.366 162.185C227.427 156.916 217.242 151.542 217.242 151.542L223.404 147.621C223.404 147.621 219.419 133.318 223.404 125.774C225.288 122.207 226.13 117.379 230.126 117.931C233.732 118.43 232.394 123.415 235.167 125.774C244.698 133.882 241.71 100.517 254.213 100.006C267.117 99.478 266.035 135.127 274.94 125.774C277.773 122.797 275.328 116.628 279.421 116.251C283.717 115.855 283.523 121.728 285.023 125.774C287.988 133.773 285.023 147.621 285.023 147.621L290.064 151.542C290.064 151.542 279.832 156.872 274.94 162.185C267.911 169.816 266.801 176.361 263.736 186.272C259.254 200.767 259.605 209.754 259.815 224.924C259.952 234.807 260.499 240.373 262.056 250.132C263.469 258.989 270.582 264.274 267.097 272.539C264.499 278.702 260.942 283.579 254.26 283.877C247.216 284.191 242.965 279.029 240.209 272.539C236.684 264.237 244.375 259.037 245.811 250.132C247.38 240.392 247.43 234.79 247.491 224.924C247.584 209.773 248.672 200.727 244.13 186.272C240.992 176.285 239.526 169.823 232.366 162.185Z" stroke="black" stroke-opacity="0.2" stroke-width="5"/>
<path d="M266.673 301.386H243.006C243.006 301.386 247.371 317.355 255.143 317.164C262.772 316.976 266.673 301.386 266.673 301.386Z" fill="#F9A4A4"/>
<path d="M254.746 285.11V297.49M254.746 297.49C254.746 297.49 250.935 301.199 247.828 301.495C244.09 301.852 239.089 297.49 239.089 297.49M254.746 297.49C254.746 297.49 258.548 301.305 261.664 301.495C265.155 301.709 269.674 297.49 269.674 297.49" stroke="black" stroke-width="5" stroke-linecap="round"/>
<path d="M254.464 286.204C252.828 286.204 241.786 282.144 240.651 275.852C239.516 269.56 270.229 269.56 268.276 275.852C266.324 282.144 256.1 286.204 254.464 286.204Z" fill="#27051B"/>
<path d="M258.432 275.243C258.432 276 256.592 276.613 254.322 276.613C252.052 276.613 250.211 276 250.211 275.243C250.211 274.486 252.052 273.873 254.322 273.873C256.592 273.873 258.432 274.486 258.432 275.243Z" fill="white" fill-opacity="0.5"/>
<ellipse cx="197.878" cy="283.454" rx="16.1076" ry="7.23563" fill="#F4AC9F"/>
<ellipse cx="319.197" cy="283.725" rx="16.1076" ry="7.23563" transform="rotate(-2.27638 319.197 283.725)" fill="#F4AC9F"/>
<ellipse cx="22.1774" cy="26.222" rx="22.1774" ry="26.222" transform="matrix(-0.953838 0.300322 0.215795 0.976439 321.971 212.64)" fill="black" stroke="#5C5E62"/>
<ellipse cx="6.30967" cy="5.40774" rx="6.30967" ry="5.40774" transform="matrix(-0.82516 0.564899 0.575712 0.817653 300.909 227.737)" fill="white" stroke="#5C5E62"/>
<ellipse cx="22.1774" cy="26.222" rx="22.1774" ry="26.222" transform="matrix(-0.953838 0.300322 0.215795 0.976439 220.922 211.418)" fill="black" stroke="#5C5E62"/>
<ellipse cx="6.30967" cy="5.40774" rx="6.30967" ry="5.40774" transform="matrix(-0.82516 0.564899 0.575712 0.817653 199.86 226.515)" fill="white" stroke="#5C5E62"/>
<path d="M321.726 403.427C317.664 385.322 312.415 378.701 300.486 370.05C287.044 386.186 281.948 397.714 273.178 418.599L282.281 424.667C299.172 418.687 308.271 414.762 321.726 403.427Z" fill="#5C5E62"/>
<path d="M307.499 354.493C307.499 354.493 265.06 414.773 276.212 424.06C284.019 430.562 326.581 404.034 326.581 404.034" stroke="#2E333B" stroke-width="5" stroke-linecap="round"/>
<path d="M192.465 403.812C196.527 385.707 201.064 378.094 212.993 369.443C226.435 385.579 232.244 398.099 241.014 418.983L231.911 425.052C215.019 419.072 205.92 415.147 192.465 403.812Z" fill="#5C5E62"/>
<path d="M206.692 354.879C206.692 354.879 249.131 415.159 237.98 424.446C230.173 430.947 187.611 404.419 187.611 404.419" stroke="#2E333B" stroke-width="5" stroke-linecap="round"/>
<path d="M359.267 457.402C349.153 480.415 326.031 492.511 307.621 484.421C289.211 476.33 282.485 451.116 292.598 428.103C302.712 405.091 325.834 392.994 344.244 401.085C362.654 409.176 369.38 434.39 359.267 457.402Z" fill="#5C5E62"/>
<path d="M359.267 457.402C349.153 480.415 326.031 492.511 307.621 484.421C289.211 476.33 282.485 451.116 292.598 428.103C302.712 405.091 325.834 392.994 344.244 401.085C362.654 409.176 369.38 434.39 359.267 457.402Z" stroke="#5C5E62" stroke-width="5"/>
<path d="M359.267 457.402C349.153 480.415 326.031 492.511 307.621 484.421C289.211 476.33 282.485 451.116 292.598 428.103C302.712 405.091 325.834 392.994 344.244 401.085C362.654 409.176 369.38 434.39 359.267 457.402Z" stroke="#2E333B" stroke-width="5"/>
<path d="M346.719 455.593C339.976 470.935 324.561 478.999 312.288 473.605C300.015 468.211 295.531 451.402 302.273 436.06C309.015 420.719 324.43 412.654 336.704 418.048C348.977 423.442 353.461 440.251 346.719 455.593Z" fill="#FFD6CE"/>
<path d="M159.09 457.402C169.203 480.415 192.326 492.511 210.736 484.421C229.146 476.33 235.872 451.116 225.758 428.103C215.645 405.091 192.522 392.994 174.112 401.085C155.702 409.176 148.976 434.39 159.09 457.402Z" fill="#5C5E62"/>
<path d="M159.09 457.402C169.203 480.415 192.326 492.511 210.736 484.421C229.146 476.33 235.872 451.116 225.758 428.103C215.645 405.091 192.522 392.994 174.112 401.085C155.702 409.176 148.976 434.39 159.09 457.402Z" stroke="#5C5E62" stroke-width="5"/>
<path d="M159.09 457.402C169.203 480.415 192.326 492.511 210.736 484.421C229.146 476.33 235.872 451.116 225.758 428.103C215.645 405.091 192.522 392.994 174.112 401.085C155.702 409.176 148.976 434.39 159.09 457.402Z" stroke="#2E333B" stroke-width="5"/>
<path d="M171.638 455.593C178.381 470.935 193.796 478.999 206.069 473.605C218.342 468.211 222.826 451.402 216.084 436.06C209.342 420.719 193.926 412.654 181.653 418.048C169.38 423.442 164.896 440.251 171.638 455.593Z" fill="#FFD6CE"/>
</svg>
