<svg width="600" height="600" viewBox="0 0 600 600" fill="none" xmlns="http://www.w3.org/2000/svg">
<path d="M231.809 352.878C235.675 339.827 244.751 321.077 244.751 321.077C244.751 321.077 279.763 328.125 302.437 326.993C325.344 325.85 360.492 318.118 360.492 318.118C360.492 318.118 369.469 329.057 371.955 331.8C382.679 343.633 378.259 339.284 385.637 348.81C392.932 358.228 401.168 375.064 401.168 375.064C401.168 375.064 405.733 371.867 407.084 368.778C409.188 363.97 405.236 355.466 405.236 355.466C405.236 355.466 395.971 351.962 393.772 345.112C390.389 334.572 400.266 315.53 400.266 315.53C400.266 315.53 422.409 330.162 419.494 342.894C418.295 348.132 413.371 352.878 413.371 352.878C413.371 352.878 415.978 366.801 413.371 375.064C411.796 380.055 405.236 389.856 405.236 389.856C405.236 389.856 411.495 410.967 407.824 425.724C403.995 441.116 393.743 450.499 386.734 456.416C379.724 462.332 367.862 468.619 343.839 475.645C341.607 475.645 339.248 479.247 334.595 478.973C328.462 478.61 322.333 473.859 318.338 469.358C315.888 466.598 313.147 462.702 313.147 462.702C313.147 462.702 309.327 468.947 304.285 470.837C298.369 473.056 289.494 473.056 283.947 473.056C278.401 473.056 272.1 471.436 267.677 469.358C264.046 467.652 259.912 463.812 259.912 463.812C259.912 463.812 239.575 465.8 233.658 463.812C229.801 462.515 227.058 461.357 224.414 458.265C221.831 455.245 221.455 451.239 221.455 451.239C221.455 451.239 216.649 456.494 209.992 456.786C204.285 457.036 197.929 457.065 191.133 451.239C183.367 444.583 179.557 429.538 183.368 413.521C185.311 405.354 189.085 399.84 192.881 396.881C202.335 389.514 212.211 392.444 222.934 392.444C223.885 377.478 227.549 367.256 231.809 352.878Z" fill="#ACD3F4"/>
<path d="M222.934 392.444C223.885 377.478 227.549 367.256 231.809 352.878C235.675 339.827 244.751 321.077 244.751 321.077C244.751 321.077 279.763 328.125 302.437 326.993C325.344 325.85 360.492 318.118 360.492 318.118C360.492 318.118 369.469 329.057 371.955 331.8C382.679 343.633 378.259 339.284 385.637 348.81C392.932 358.228 401.168 375.064 401.168 375.064M222.934 392.444C212.211 392.444 202.335 389.514 192.881 396.881C189.085 399.84 185.311 405.354 183.368 413.522C179.557 429.538 183.367 444.583 191.133 451.239C197.929 457.065 204.285 457.036 209.992 456.786C216.649 456.494 221.455 451.239 221.455 451.239M222.934 392.444C222.266 404 222.131 409.362 221.455 420.917C220.839 431.457 221.455 451.239 221.455 451.239M221.455 451.239C221.455 451.239 221.831 455.245 224.414 458.265C227.058 461.357 229.801 462.515 233.658 463.812C239.575 465.8 259.912 463.812 259.912 463.812M259.912 463.812C259.912 463.812 264.046 467.652 267.677 469.358C272.1 471.436 278.401 473.056 283.947 473.056C289.494 473.056 298.369 473.056 304.285 470.837C309.327 468.947 313.147 462.702 313.147 462.702M259.912 463.812C259.912 463.812 259.334 453.869 259.912 446.432C260.49 438.995 262.87 425.724 262.87 425.724M313.147 462.702C313.147 462.702 315.888 466.598 318.338 469.358C322.333 473.859 328.462 478.61 334.595 478.973C339.248 479.247 341.608 475.645 343.839 475.645M313.147 462.702C313.147 462.702 308.714 453.517 307.614 446.432C306.638 440.153 306.27 436.372 307.614 430.162C308.845 424.472 310.585 421.274 313.887 416.48M343.839 475.645C367.862 468.619 379.724 462.332 386.734 456.416C393.743 450.499 403.996 441.116 407.824 425.724C411.495 410.967 405.236 389.856 405.236 389.856M343.839 475.645C345.472 465.962 346.225 460.922 344.592 451.239C342.829 440.789 341.371 433.209 333.868 425.724C327.691 419.563 324.227 410.563 313.887 416.48M405.236 389.856C405.236 389.856 411.796 380.055 413.371 375.064C415.978 366.801 413.371 352.878 413.371 352.878C413.371 352.878 418.295 348.132 419.494 342.894C422.409 330.162 400.266 315.53 400.266 315.53C400.266 315.53 390.389 334.572 393.772 345.112C395.971 351.962 405.236 355.466 405.236 355.466C405.236 355.466 409.188 363.97 407.084 368.778C405.733 371.867 401.168 375.064 401.168 375.064M405.236 389.856L401.168 375.064M276.552 375.064C279.88 364.711 271.458 389.948 268.787 399.84C266.115 409.732 262.87 425.724 262.87 425.724M262.87 425.724C262.87 425.724 250.83 409.189 247.339 396.881C242.926 381.322 249.188 342.894 247.339 355.466M313.887 416.48C318.694 412.412 324.143 410.01 326.459 409.454M326.459 409.454C326.459 401.8 323.501 379.872 324.993 389.856M326.459 409.454C335.704 407.235 339.415 407.235 339.415 407.235M352.714 409.454C365.656 411.303 339.415 407.235 339.415 407.235M339.415 407.235C339.415 407.235 347.789 400.715 351.974 398.36C363.807 391.704 376.01 388.007 363.82 392.444" stroke="#7393AE" stroke-width="6"/>
<path d="M422.399 341.847C422.485 347.856 419.718 352.011 412.135 354.415C402.937 357.331 395.111 353.457 392.859 344.674C389.872 333.02 399.866 312.519 399.866 312.519C399.866 312.519 422.196 327.697 422.399 341.847Z" fill="#2E3440" stroke="#0D0D15" stroke-width="5"/>
<path d="M347.907 439.776C353.912 458.516 349.647 476.634 338.38 480.245C327.113 483.856 313.111 471.591 307.105 452.851C301.1 434.111 305.365 415.992 316.632 412.382C327.899 408.771 341.901 421.036 347.907 439.776Z" fill="#DDEDFA" stroke="#7393AE" stroke-width="7"/>
<path d="M215.381 425.787C216.223 443.32 213.176 458.259 200.832 458.852C191.91 459.28 180.512 445.524 179.671 427.991C178.829 410.458 186.463 392.93 195.385 392.502C205.682 390.076 214.539 408.253 215.381 425.787Z" fill="#DDEDFA" stroke="#7393AE" stroke-width="7"/>
<ellipse cx="376.576" cy="146.841" rx="22.1868" ry="24.0357" transform="rotate(26.198 376.576 146.841)" fill="#ACD3F4" stroke="#7393AE" stroke-width="6"/>
<ellipse cx="221.944" cy="146.693" rx="22.1868" ry="24.0357" transform="rotate(-44.5543 221.944 146.693)" fill="#ACD3F4" stroke="#7393AE" stroke-width="6"/>
<ellipse cx="223.993" cy="148.707" rx="11.0964" ry="14.2836" transform="rotate(-44.5543 223.993 148.707)" fill="#FCBED1"/>
<ellipse cx="374.358" cy="148.216" rx="11.0964" ry="14.2836" transform="rotate(45 374.358 148.216)" fill="#FCBED1"/>
<path d="M392.28 229.001C392.28 285.367 346.133 333.686 296.507 333.686C246.881 333.686 206.651 287.993 206.651 231.627C206.651 207.406 208.563 186.477 222.551 163.92C252.503 125.13 281.021 125.615 310.253 126.165C334.918 126.63 362.581 140.69 377.183 163.92C385.318 176.862 389.322 185.367 392.28 229.001Z" fill="#ACD3F4" stroke="#7393AE" stroke-width="6"/>
<path d="M397.21 277.812C397.21 310.284 353.172 336.607 298.848 336.607C244.525 336.607 200.487 310.284 200.487 277.812C200.487 245.341 244.525 219.017 298.848 219.017C353.172 219.017 397.21 245.341 397.21 277.812Z" fill="#DDEDFA" stroke="#AAC0D1" stroke-width="6"/>
<ellipse cx="258.037" cy="204.596" rx="18.8588" ry="20.3379" fill="#111111" stroke="black"/>
<ellipse cx="264.694" cy="200.158" rx="7.02582" ry="8.50494" fill="#FFFEFF"/>
<ellipse cx="341.608" cy="204.596" rx="18.8588" ry="20.3379" fill="#111111" stroke="black"/>
<ellipse cx="348.264" cy="200.158" rx="7.02582" ry="8.50494" fill="#FFFEFF"/>
<ellipse cx="264.626" cy="250.758" rx="5.25994" ry="8.13516" transform="rotate(-23.3655 264.626 250.758)" fill="#111111"/>
<ellipse cx="332.459" cy="250.965" rx="5.25994" ry="8.13516" transform="rotate(21.6054 332.459 250.965)" fill="#111111"/>
<ellipse cx="298.319" cy="286.578" rx="18.1192" ry="17.7494" fill="#111111" stroke="black" stroke-width="3"/>
<ellipse cx="298.319" cy="293.973" rx="12.2027" ry="7.3956" fill="#FC6C69"/>
</svg>
