<svg width="600" height="600" viewBox="0 0 600 600" fill="none" xmlns="http://www.w3.org/2000/svg">
<path d="M382.346 358.961C356.054 387.435 336.036 398.972 290.183 411.341" stroke="#653D27" stroke-width="10" stroke-linecap="round"/>
<path d="M372.095 343.204C369.76 350.914 368.477 356.819 372.445 363.829C376.242 370.536 381.363 373.274 388.945 374.66C396.742 376.085 401.725 373.772 408.701 370.008C415.052 366.58 422.418 357.622 422.418 357.622L431.219 349.606L417.754 346.162C417.754 346.162 425.352 338.735 428.732 332.935C432.764 326.016 435.381 313.538 435.381 313.538C435.381 313.538 426.746 319.787 420.301 321.355C415.984 322.405 413.235 321.042 408.96 322.252C403.094 323.911 395.63 330.376 395.63 330.376L395.949 320.33C395.949 320.33 375.834 330.851 372.095 343.204Z" fill="#B07A5C"/>
<path d="M372.095 343.204C369.76 350.914 368.477 356.819 372.445 363.829C376.242 370.536 381.363 373.274 388.945 374.66C396.742 376.085 401.725 373.772 408.701 370.008C415.052 366.58 422.418 357.622 422.418 357.622L431.219 349.606L417.754 346.162C417.754 346.162 425.352 338.735 428.732 332.935C432.764 326.016 435.381 313.538 435.381 313.538C435.381 313.538 426.746 319.787 420.301 321.355C415.984 322.405 413.235 321.042 408.96 322.252C403.094 323.911 395.63 330.376 395.63 330.376L395.949 320.33C395.949 320.33 375.834 330.851 372.095 343.204Z" stroke="#B07A5C" stroke-width="5"/>
<path d="M372.095 343.204C369.76 350.914 368.477 356.819 372.445 363.829C376.242 370.536 381.363 373.274 388.945 374.66C396.742 376.085 401.725 373.772 408.701 370.008C415.052 366.58 422.418 357.622 422.418 357.622L431.219 349.606L417.754 346.162C417.754 346.162 425.352 338.735 428.732 332.935C432.764 326.016 435.381 313.538 435.381 313.538C435.381 313.538 426.746 319.787 420.301 321.355C415.984 322.405 413.235 321.042 408.96 322.252C403.094 323.911 395.63 330.376 395.63 330.376L395.949 320.33C395.949 320.33 375.834 330.851 372.095 343.204Z" stroke="black" stroke-opacity="0.2" stroke-width="5"/>
<path d="M366.109 225.537C375.914 196.502 387.015 157.33 371.284 148.902C356.676 141.077 321.261 155.548 297.202 171.09L366.109 225.537Z" fill="#B07A5C" stroke="#653D27" stroke-width="5" stroke-linecap="round"/>
<path d="M356.582 213.18C363.304 193.274 370.915 166.419 360.13 160.641C350.115 155.276 325.835 165.197 309.341 175.852L356.582 213.18Z" fill="#E7D6DA" stroke="#653D27" stroke-width="5" stroke-linecap="round"/>
<path d="M163.045 232.279C153.239 203.244 142.138 164.072 157.87 155.645C172.478 147.819 207.893 162.291 231.951 177.832L163.045 232.279Z" fill="#B07A5C" stroke="#653D27" stroke-width="5" stroke-linecap="round"/>
<path d="M172.572 219.922C165.849 200.016 158.239 173.16 169.024 167.383C179.039 162.018 203.318 171.939 219.813 182.594L172.572 219.922Z" fill="#E7D6DA" stroke="#653D27" stroke-width="5" stroke-linecap="round"/>
<path d="M224.908 163.986C210.3 180.279 286.149 167.499 286.149 167.499C286.149 167.499 291.43 161.098 298.324 153.437C304.505 146.569 319.568 126.904 308.999 126.904C301.522 126.904 289.147 128.893 282.025 130.214C273.632 131.77 273.603 133.084 260.601 143.194C256.16 146.647 267.506 130.259 273.603 117.589C277.502 109.487 264.614 113.982 260.119 116.947C247.213 125.463 232.297 155.744 224.908 163.986Z" fill="#B07A5C" stroke="#653D27" stroke-width="5"/>
<path d="M205.764 332.957C204.173 337.393 177.277 413.434 199.021 446.051C222.618 481.447 315.324 485.942 334.426 446.051C353.528 406.16 327.686 336.342 325.998 332.957C325.998 332.957 207.104 329.219 205.764 332.957Z" fill="#B07A5C" stroke="#653D27" stroke-width="5"/>
<path d="M310.828 406.16C310.828 444.016 290.704 470.332 265.881 470.332C241.057 470.332 220.933 444.016 220.933 406.16C220.933 368.303 245.205 346.07 265.881 337.615C285.657 346.674 310.828 368.303 310.828 406.16Z" fill="#E7D6DA"/>
<path d="M376.985 268.069C376.985 327.646 327.682 355.716 266.864 355.716C206.046 355.716 156.743 327.646 156.743 268.069C156.743 208.492 206.046 160.195 266.864 160.195C327.682 160.195 376.985 208.492 376.985 268.069Z" fill="#B07A5C" stroke="#653D27" stroke-width="5"/>
<ellipse cx="20.5325" cy="24.277" rx="20.5325" ry="24.277" transform="matrix(-0.953838 0.300322 0.215795 0.976439 327.138 233.017)" fill="black" stroke="#504B4F"/>
<ellipse cx="5.84167" cy="5.00664" rx="5.84167" ry="5.00664" transform="matrix(-0.82516 0.564899 0.575712 0.817653 307.639 246.994)" fill="white" stroke="#504B4F"/>
<ellipse cx="20.5325" cy="24.277" rx="20.5325" ry="24.277" transform="matrix(-0.953838 0.300322 0.215795 0.976439 233.584 231.886)" fill="black" stroke="#504B4F"/>
<ellipse cx="5.84167" cy="5.00664" rx="5.84167" ry="5.00664" transform="matrix(-0.82516 0.564899 0.575712 0.817653 214.085 245.863)" fill="white" stroke="#504B4F"/>
<path d="M220.569 396.731C220.548 389.592 220.967 384.096 222.254 379.313C222.254 379.313 246.977 401.225 244.73 405.158C242.804 408.529 220.569 396.731 220.569 396.731Z" fill="#B07A5C"/>
<path d="M215.174 370.324C215.174 370.324 256.327 402.456 245.513 407.406C237.943 410.871 207.308 392.798 207.308 392.798" stroke="#653D27" stroke-width="5"/>
<path d="M215.174 370.324C215.174 370.324 256.327 402.456 245.513 407.406C237.943 410.871 207.308 392.798 207.308 392.798" stroke="#653D27" stroke-width="5"/>
<path d="M311.598 400.102C311.618 392.964 311.2 387.468 309.913 382.685C309.913 382.685 285.189 404.597 287.436 408.53C289.363 411.901 311.598 400.102 311.598 400.102Z" fill="#B07A5C"/>
<path d="M316.993 373.695C316.993 373.695 275.839 405.827 286.653 410.777C294.224 414.243 324.858 396.169 324.858 396.169" stroke="#653D27" stroke-width="5"/>
<path d="M316.993 373.695C316.993 373.695 275.839 405.827 286.653 410.777C294.224 414.243 324.858 396.169 324.858 396.169" stroke="#653D27" stroke-width="5"/>
<path d="M237.15 313.638C240.148 313.202 244.324 311.462 244.324 311.462L259.56 310.207C259.56 310.207 250.96 320.159 244.324 321.797C238.176 323.314 233.414 323.815 227.585 321.797C222.252 319.951 219.272 317.628 218.02 313.638L218.01 313.607C217.428 311.755 217.041 310.523 218.02 308.742C220.821 303.644 229.346 314.772 237.15 313.638Z" fill="#FFFFFD"/>
<path d="M237.15 313.638C240.148 313.202 244.324 311.462 244.324 311.462L259.56 310.207C259.56 310.207 250.96 320.159 244.324 321.797C238.176 323.314 233.414 323.815 227.585 321.797C222.252 319.951 219.272 317.628 218.02 313.638L218.01 313.607C217.428 311.755 217.041 310.523 218.02 308.742C220.821 303.644 229.346 314.772 237.15 313.638Z" stroke="#FFFFFD" stroke-width="2"/>
<path d="M237.15 313.638C240.148 313.202 244.324 311.462 244.324 311.462L259.56 310.207C259.56 310.207 250.96 320.159 244.324 321.797C238.176 323.314 233.414 323.815 227.585 321.797C222.252 319.951 219.272 317.628 218.02 313.638L218.01 313.607C217.428 311.755 217.041 310.523 218.02 308.742C220.821 303.644 229.346 314.772 237.15 313.638Z" stroke="black" stroke-opacity="0.2" stroke-width="2"/>
<path d="M297.139 313.638C294.141 313.202 289.966 311.462 289.966 311.462L274.729 310.207C274.729 310.207 283.329 320.159 289.966 321.797C296.113 323.314 300.875 323.815 306.704 321.797C312.037 319.951 315.017 317.628 316.27 313.638L316.279 313.607C316.861 311.755 317.248 310.523 316.27 308.742C313.468 303.644 304.943 314.772 297.139 313.638Z" fill="#FFFFFD"/>
<path d="M297.139 313.638C294.141 313.202 289.966 311.462 289.966 311.462L274.729 310.207C274.729 310.207 283.329 320.159 289.966 321.797C296.113 323.314 300.875 323.815 306.704 321.797C312.037 319.951 315.017 317.628 316.27 313.638L316.279 313.607C316.861 311.755 317.248 310.523 316.27 308.742C313.468 303.644 304.943 314.772 297.139 313.638Z" stroke="#FFFFFD" stroke-width="2"/>
<path d="M297.139 313.638C294.141 313.202 289.966 311.462 289.966 311.462L274.729 310.207C274.729 310.207 283.329 320.159 289.966 321.797C296.113 323.314 300.875 323.815 306.704 321.797C312.037 319.951 315.017 317.628 316.27 313.638L316.279 313.607C316.861 311.755 317.248 310.523 316.27 308.742C313.468 303.644 304.943 314.772 297.139 313.638Z" stroke="black" stroke-opacity="0.2" stroke-width="2"/>
<path d="M299.45 302.436C299.45 318.635 285.615 310.769 268.549 310.769C251.482 310.769 237.647 318.073 237.647 302.436C237.647 293.49 251.482 277.62 268.549 277.62C285.615 277.62 299.45 293.49 299.45 302.436Z" fill="#F688AB"/>
<path d="M299.45 302.436C299.45 318.635 285.615 310.769 268.549 310.769C251.482 310.769 237.647 318.073 237.647 302.436C237.647 293.49 251.482 277.62 268.549 277.62C285.615 277.62 299.45 293.49 299.45 302.436Z" stroke="#F688AB" stroke-width="5"/>
<path d="M299.45 302.436C299.45 318.635 285.615 310.769 268.549 310.769C251.482 310.769 237.647 318.073 237.647 302.436C237.647 293.49 251.482 277.62 268.549 277.62C285.615 277.62 299.45 293.49 299.45 302.436Z" stroke="black" stroke-opacity="0.2" stroke-width="5"/>
<ellipse cx="279.746" cy="296.044" rx="3.38752" ry="5.87189" transform="rotate(-17.7481 279.746 296.044)" fill="#4D4D4D" fill-opacity="0.6"/>
<ellipse cx="3.38752" cy="5.87189" rx="3.38752" ry="5.87189" transform="matrix(-0.952406 -0.304833 -0.304833 0.952406 262.288 291.484)" fill="#4D4D4D" fill-opacity="0.6"/>
<path d="M205.622 389.427C216.267 389.427 226.518 394.047 234.314 402.358C242.111 410.67 246.875 422.057 247.649 434.231C248.423 446.406 245.15 458.465 238.488 467.985C231.826 477.506 222.268 483.782 211.735 485.553C201.202 487.324 190.476 484.458 181.71 477.531C172.945 470.604 166.791 460.13 164.485 448.213C162.178 436.297 163.891 423.821 169.278 413.293C174.666 402.765 183.328 394.965 193.525 391.461L205.622 437.745V389.427Z" fill="#542F1C"/>
<path d="M205.622 389.427C216.267 389.427 226.518 394.047 234.314 402.358C242.111 410.67 246.875 422.057 247.649 434.231C248.423 446.406 245.15 458.465 238.488 467.985C231.826 477.506 222.268 483.782 211.735 485.553C201.202 487.324 190.476 484.458 181.71 477.531C172.945 470.604 166.791 460.13 164.485 448.213C162.178 436.297 163.891 423.821 169.278 413.293C174.666 402.765 183.328 394.965 193.525 391.461L205.622 437.745V389.427Z" stroke="#542F1C" stroke-width="5"/>
<path d="M205.622 389.427C216.267 389.427 226.518 394.047 234.314 402.358C242.111 410.67 246.875 422.057 247.649 434.231C248.423 446.406 245.15 458.465 238.488 467.985C231.826 477.506 222.268 483.782 211.735 485.553C201.202 487.324 190.476 484.458 181.71 477.531C172.945 470.604 166.791 460.13 164.485 448.213C162.178 436.297 163.891 423.821 169.278 413.293C174.666 402.765 183.328 394.965 193.525 391.461L205.622 437.745V389.427Z" stroke="black" stroke-opacity="0.2" stroke-width="5"/>
<path d="M326.98 389.427C316.335 389.427 306.084 394.047 298.288 402.358C290.492 410.67 285.728 422.057 284.954 434.231C284.18 446.406 287.452 458.465 294.115 467.985C300.777 477.506 310.335 483.782 320.867 485.553C331.4 487.324 342.127 484.458 350.892 477.531C359.658 470.604 365.812 460.13 368.118 448.213C370.424 436.297 368.712 423.821 363.324 413.293C357.937 402.765 349.274 394.965 339.077 391.461L326.98 437.745V389.427Z" fill="#542F1C"/>
<path d="M326.98 389.427C316.335 389.427 306.084 394.047 298.288 402.358C290.492 410.67 285.728 422.057 284.954 434.231C284.18 446.406 287.452 458.465 294.115 467.985C300.777 477.506 310.335 483.782 320.867 485.553C331.4 487.324 342.127 484.458 350.892 477.531C359.658 470.604 365.812 460.13 368.118 448.213C370.424 436.297 368.712 423.821 363.324 413.293C357.937 402.765 349.274 394.965 339.077 391.461L326.98 437.745V389.427Z" stroke="#542F1C" stroke-width="5"/>
<path d="M326.98 389.427C316.335 389.427 306.084 394.047 298.288 402.358C290.492 410.67 285.728 422.057 284.954 434.231C284.18 446.406 287.452 458.465 294.115 467.985C300.777 477.506 310.335 483.782 320.867 485.553C331.4 487.324 342.127 484.458 350.892 477.531C359.658 470.604 365.812 460.13 368.118 448.213C370.424 436.297 368.712 423.821 363.324 413.293C357.937 402.765 349.274 394.965 339.077 391.461L326.98 437.745V389.427Z" stroke="black" stroke-opacity="0.2" stroke-width="5"/>
</svg>
