<svg width="600" height="600" viewBox="0 0 600 600" fill="none" xmlns="http://www.w3.org/2000/svg">
<path d="M403.861 336.603C389.377 371.264 374.98 388.418 337.335 414.91" stroke="#CA9C29" stroke-width="10" stroke-linecap="round"/>
<path d="M389.293 325.66C389.728 333.456 390.521 339.259 396.463 344.324C402.148 349.171 407.72 349.963 415.084 348.707C422.658 347.415 426.427 343.654 431.529 337.909C436.174 332.679 439.906 322.076 439.906 322.076L445.258 311.853L431.852 313.189C431.852 313.189 436.305 303.902 437.456 297.498C438.83 289.859 437.069 277.627 437.069 277.627C437.069 277.627 431.282 286.186 425.933 289.754C422.351 292.144 419.395 291.816 415.904 294.337C411.113 297.797 406.464 306.162 406.464 306.162L403.418 296.909C403.418 296.909 388.596 313.17 389.293 325.66Z" fill="#F08542"/>
<path d="M389.293 325.66C389.728 333.456 390.521 339.259 396.463 344.324C402.148 349.171 407.72 349.963 415.084 348.707C422.658 347.415 426.427 343.654 431.529 337.909C436.174 332.679 439.906 322.076 439.906 322.076L445.258 311.853L431.852 313.189C431.852 313.189 436.305 303.902 437.456 297.498C438.83 289.859 437.069 277.627 437.069 277.627C437.069 277.627 431.282 286.186 425.933 289.754C422.351 292.144 419.395 291.816 415.904 294.337C411.113 297.797 406.464 306.162 406.464 306.162L403.418 296.909C403.418 296.909 388.596 313.17 389.293 325.66Z" stroke="#F08542" stroke-width="5"/>
<path d="M389.293 325.66C389.728 333.456 390.521 339.259 396.463 344.324C402.148 349.171 407.72 349.963 415.084 348.707C422.658 347.415 426.427 343.654 431.529 337.909C436.174 332.679 439.906 322.076 439.906 322.076L445.258 311.853L431.852 313.189C431.852 313.189 436.305 303.902 437.456 297.498C438.83 289.859 437.069 277.627 437.069 277.627C437.069 277.627 431.282 286.186 425.933 289.754C422.351 292.144 419.395 291.816 415.904 294.337C411.113 297.797 406.464 306.162 406.464 306.162L403.418 296.909C403.418 296.909 388.596 313.17 389.293 325.66Z" stroke="black" stroke-opacity="0.2" stroke-width="5"/>
<path d="M254.559 184.811L279.609 180.454L269.262 141.789C269.262 141.789 278.671 124.376 273.619 115.105C270.881 110.08 268.125 107.202 262.727 105.302C254.845 102.528 247.341 104.281 240.944 109.659C236.338 113.533 234.954 117.283 234.954 123.818C234.954 134.377 249.113 146.146 249.113 146.146L254.559 184.811Z" fill="#FCC233"/>
<path d="M254.559 184.811L279.609 180.454L269.262 141.789C269.262 141.789 278.671 124.376 273.619 115.105C270.881 110.08 268.125 107.202 262.727 105.302C254.845 102.528 247.341 104.281 240.944 109.659C236.338 113.533 234.954 117.283 234.954 123.818C234.954 134.377 249.113 146.146 249.113 146.146L254.559 184.811Z" stroke="#FBC431" stroke-width="5"/>
<path d="M254.559 184.811L279.609 180.454L269.262 141.789C269.262 141.789 278.671 124.376 273.619 115.105C270.881 110.08 268.125 107.202 262.727 105.302C254.845 102.528 247.341 104.281 240.944 109.659C236.338 113.533 234.954 117.283 234.954 123.818C234.954 134.377 249.113 146.146 249.113 146.146L254.559 184.811Z" stroke="black" stroke-opacity="0.2" stroke-width="5"/>
<ellipse cx="255.103" cy="123.818" rx="17.971" ry="17.4265" fill="#F29056"/>
<path d="M332.978 184.811L307.928 180.454L318.275 141.789C318.275 141.789 308.866 124.376 313.918 115.105C316.656 110.08 319.412 107.202 324.809 105.302C332.692 102.528 340.196 104.281 346.592 109.659C351.199 113.533 352.583 117.283 352.583 123.818C352.583 134.377 338.424 146.146 338.424 146.146L332.978 184.811Z" fill="#FCC233"/>
<path d="M332.978 184.811L307.928 180.454L318.275 141.789C318.275 141.789 308.866 124.376 313.918 115.105C316.656 110.08 319.412 107.202 324.809 105.302C332.692 102.528 340.196 104.281 346.592 109.659C351.199 113.533 352.583 117.283 352.583 123.818C352.583 134.377 338.424 146.146 338.424 146.146L332.978 184.811Z" stroke="#FBC431" stroke-width="5"/>
<path d="M332.978 184.811L307.928 180.454L318.275 141.789C318.275 141.789 308.866 124.376 313.918 115.105C316.656 110.08 319.412 107.202 324.809 105.302C332.692 102.528 340.196 104.281 346.592 109.659C351.199 113.533 352.583 117.283 352.583 123.818C352.583 134.377 338.424 146.146 338.424 146.146L332.978 184.811Z" stroke="black" stroke-opacity="0.2" stroke-width="5"/>
<ellipse cx="17.971" cy="17.4265" rx="17.971" ry="17.4265" transform="matrix(-1 0 0 1 350.404 106.392)" fill="#F29056"/>
<path d="M347.681 360.87C339.272 363.478 329.71 374.484 329.71 374.484L325.354 448.547C325.354 448.547 351.808 438.651 367.286 429.487C370.739 427.442 372.996 426.702 375.999 424.041C387.593 413.768 389.265 398.16 385.257 383.198C382.417 372.593 377.352 365.254 367.286 360.87C360.267 357.813 354.994 358.602 347.681 360.87Z" fill="#FDC333"/>
<path d="M347.681 360.87C339.272 363.478 329.71 374.484 329.71 374.484L325.354 448.547C325.354 448.547 351.808 438.651 367.286 429.487C370.739 427.442 372.996 426.702 375.999 424.041C387.593 413.768 389.265 398.16 385.257 383.198C382.417 372.593 377.352 365.254 367.286 360.87C360.267 357.813 354.994 358.602 347.681 360.87Z" stroke="#FDC333" stroke-width="5"/>
<path d="M347.681 360.87C339.272 363.478 329.71 374.484 329.71 374.484L325.354 448.547C325.354 448.547 351.808 438.651 367.286 429.487C370.739 427.442 372.996 426.702 375.999 424.041C387.593 413.768 389.265 398.16 385.257 383.198C382.417 372.593 377.352 365.254 367.286 360.87C360.267 357.813 354.994 358.602 347.681 360.87Z" stroke="black" stroke-opacity="0.2" stroke-width="5"/>
<path d="M240.73 357.602C249.139 360.21 258.701 371.217 258.701 371.217L263.058 445.279C263.058 445.279 236.604 435.383 221.125 426.219C217.672 424.175 215.415 423.435 212.412 420.773C200.819 410.5 199.146 394.893 203.154 379.93C205.995 369.325 211.06 361.986 221.125 357.602C228.144 354.545 233.417 355.335 240.73 357.602Z" fill="#FDC333"/>
<path d="M240.73 357.602C249.139 360.21 258.701 371.217 258.701 371.217L263.058 445.279C263.058 445.279 236.604 435.383 221.125 426.219C217.672 424.175 215.415 423.435 212.412 420.773C200.819 410.5 199.146 394.893 203.154 379.93C205.995 369.325 211.06 361.986 221.125 357.602C228.144 354.545 233.417 355.335 240.73 357.602Z" stroke="#FDC333" stroke-width="5"/>
<path d="M240.73 357.602C249.139 360.21 258.701 371.217 258.701 371.217L263.058 445.279C263.058 445.279 236.604 435.383 221.125 426.219C217.672 424.175 215.415 423.435 212.412 420.773C200.819 410.5 199.146 394.893 203.154 379.93C205.995 369.325 211.06 361.986 221.125 357.602C228.144 354.545 233.417 355.335 240.73 357.602Z" stroke="black" stroke-opacity="0.2" stroke-width="5"/>
<path d="M233.73 322.25C232.189 326.55 206.118 400.254 227.195 431.868C250.067 466.177 339.924 470.533 358.439 431.868C376.953 393.203 351.906 325.531 350.27 322.25C350.27 322.25 235.029 318.627 233.73 322.25Z" fill="#FDC333"/>
<path d="M233.73 322.25C232.189 326.55 206.118 400.254 227.195 431.868C250.067 466.177 339.924 470.533 358.439 431.868C376.953 393.203 351.906 325.531 350.27 322.25C350.27 322.25 235.029 318.627 233.73 322.25Z" stroke="#FDC333" stroke-width="5"/>
<path d="M233.73 322.25C232.189 326.55 206.118 400.254 227.195 431.868C250.067 466.177 339.924 470.533 358.439 431.868C376.953 393.203 351.906 325.531 350.27 322.25C350.27 322.25 235.029 318.627 233.73 322.25Z" stroke="black" stroke-opacity="0.2" stroke-width="5"/>
<path d="M243.183 442.879H284.113C283.695 446.691 283.695 449.414 283.15 453.226H243.941C243.941 449.414 243.396 446.691 243.183 442.879Z" fill="#FDC333"/>
<path d="M243.372 376.985C238.28 412.699 238.363 432.755 243.372 468.474H284.572C288.93 428.206 288.014 409.129 284.572 376.985" stroke="#FDC333" stroke-width="5"/>
<path d="M243.372 376.985C238.28 412.699 238.363 432.755 243.372 468.474H284.572C288.93 428.206 288.014 409.129 284.572 376.985" stroke="black" stroke-opacity="0.2" stroke-width="5"/>
<path d="M344.143 442.879H303.3C303.717 446.691 303.59 449.414 304.135 453.226H343.598C343.599 449.414 344.143 446.691 344.143 442.879Z" fill="#FDC333"/>
<path d="M303.275 376.985C298.184 412.699 298.266 432.755 303.275 468.474H344.476C348.833 428.206 347.917 409.129 344.476 376.985" stroke="#FDC333" stroke-width="5"/>
<path d="M303.275 376.985C298.184 412.699 298.266 432.755 303.275 468.474H344.476C348.833 428.206 347.917 409.129 344.476 376.985" stroke="black" stroke-opacity="0.2" stroke-width="5"/>
<path d="M363.474 148.344C351.452 161.062 343.869 188.643 343.869 188.643L363.474 204.435C363.474 204.435 386.904 197.044 399.961 188.643C415.015 178.957 427.624 174.074 433.18 157.057C436.811 145.938 433.18 127.105 433.18 127.105C433.18 127.105 412.588 124.13 399.961 127.105C383.913 130.887 374.8 136.363 363.474 148.344Z" fill="#FBC431"/>
<path d="M363.474 148.344C351.452 161.062 343.869 188.643 343.869 188.643L363.474 204.435C363.474 204.435 386.904 197.044 399.961 188.643C415.015 178.957 427.624 174.074 433.18 157.057C436.811 145.938 433.18 127.105 433.18 127.105C433.18 127.105 412.588 124.13 399.961 127.105C383.913 130.887 374.8 136.363 363.474 148.344Z" stroke="#FBC431" stroke-width="5"/>
<path d="M363.474 148.344C351.452 161.062 343.869 188.643 343.869 188.643L363.474 204.435C363.474 204.435 386.904 197.044 399.961 188.643C415.015 178.957 427.624 174.074 433.18 157.057C436.811 145.938 433.18 127.105 433.18 127.105C433.18 127.105 412.588 124.13 399.961 127.105C383.913 130.887 374.8 136.363 363.474 148.344Z" stroke="black" stroke-opacity="0.2" stroke-width="5"/>
<path d="M364.944 164.732C358.031 171.953 347.681 191.132 347.681 191.132L360.207 201.479C360.207 201.479 378.415 192.381 385.923 187.612C394.579 182.113 401.829 179.34 405.023 169.679C407.111 163.366 405.023 152.674 405.023 152.674C405.023 152.674 393.183 150.984 385.923 152.674C376.696 154.82 371.456 157.93 364.944 164.732Z" fill="#FFE4B5"/>
<path d="M364.944 164.732C358.031 171.953 347.681 191.132 347.681 191.132L360.207 201.479C360.207 201.479 378.415 192.381 385.923 187.612C394.579 182.113 401.829 179.34 405.023 169.679C407.111 163.366 405.023 152.674 405.023 152.674C405.023 152.674 393.183 150.984 385.923 152.674C376.696 154.82 371.456 157.93 364.944 164.732Z" stroke="#FBC431" stroke-width="5"/>
<path d="M364.944 164.732C358.031 171.953 347.681 191.132 347.681 191.132L360.207 201.479C360.207 201.479 378.415 192.381 385.923 187.612C394.579 182.113 401.829 179.34 405.023 169.679C407.111 163.366 405.023 152.674 405.023 152.674C405.023 152.674 393.183 150.984 385.923 152.674C376.696 154.82 371.456 157.93 364.944 164.732Z" stroke="black" stroke-opacity="0.2" stroke-width="5"/>
<path d="M221.319 146.166C233.342 158.884 240.924 186.464 240.924 186.464L221.319 202.257C221.319 202.257 197.89 194.865 184.833 186.464C169.778 176.779 157.17 171.896 151.613 154.879C147.983 143.76 151.613 124.927 151.613 124.927C151.613 124.927 172.205 121.952 184.833 124.927C200.88 128.708 209.993 134.185 221.319 146.166Z" fill="#FBC431"/>
<path d="M221.319 146.166C233.342 158.884 240.924 186.464 240.924 186.464L221.319 202.257C221.319 202.257 197.89 194.865 184.833 186.464C169.778 176.779 157.17 171.896 151.613 154.879C147.983 143.76 151.613 124.927 151.613 124.927C151.613 124.927 172.205 121.952 184.833 124.927C200.88 128.708 209.993 134.185 221.319 146.166Z" stroke="#FBC431" stroke-width="5"/>
<path d="M221.319 146.166C233.342 158.884 240.924 186.464 240.924 186.464L221.319 202.257C221.319 202.257 197.89 194.865 184.833 186.464C169.778 176.779 157.17 171.896 151.613 154.879C147.983 143.76 151.613 124.927 151.613 124.927C151.613 124.927 172.205 121.952 184.833 124.927C200.88 128.708 209.993 134.185 221.319 146.166Z" stroke="black" stroke-opacity="0.2" stroke-width="5"/>
<path d="M219.849 162.554C226.762 169.774 237.112 188.954 237.112 188.954L224.587 199.301C224.587 199.301 206.378 190.203 198.87 185.434C190.215 179.934 182.965 177.162 179.77 167.501C177.683 161.188 179.77 150.495 179.77 150.495C179.77 150.495 191.61 148.806 198.87 150.495C208.097 152.642 213.337 155.751 219.849 162.554Z" fill="#FFE4B5"/>
<path d="M219.849 162.554C226.762 169.774 237.112 188.954 237.112 188.954L224.587 199.301C224.587 199.301 206.378 190.203 198.87 185.434C190.215 179.934 182.965 177.162 179.77 167.501C177.683 161.188 179.77 150.495 179.77 150.495C179.77 150.495 191.61 148.806 198.87 150.495C208.097 152.642 213.337 155.751 219.849 162.554Z" stroke="#FBC431" stroke-width="5"/>
<path d="M219.849 162.554C226.762 169.774 237.112 188.954 237.112 188.954L224.587 199.301C224.587 199.301 206.378 190.203 198.87 185.434C190.215 179.934 182.965 177.162 179.77 167.501C177.683 161.188 179.77 150.495 179.77 150.495C179.77 150.495 191.61 148.806 198.87 150.495C208.097 152.642 213.337 155.751 219.849 162.554Z" stroke="black" stroke-opacity="0.2" stroke-width="5"/>
<path d="M292.444 164.917C240.708 164.917 213.236 202.76 198.332 246.464C193.078 259.156 177.094 285.922 203.777 313.151C227.123 332.931 261.479 334.283 292.444 334.283C323.41 334.283 429.778 338.201 384.741 246.464C369.837 202.76 344.181 164.917 292.444 164.917Z" fill="#FDC333"/>
<path d="M292.444 164.917C240.708 164.917 213.236 202.76 198.332 246.464C193.078 259.156 177.094 285.922 203.777 313.151C227.123 332.931 261.479 334.283 292.444 334.283C323.41 334.283 429.778 338.201 384.741 246.464C369.837 202.76 344.181 164.917 292.444 164.917Z" stroke="#FDC333" stroke-width="5"/>
<path d="M292.444 164.917C240.708 164.917 213.236 202.76 198.332 246.464C193.078 259.156 177.094 285.922 203.777 313.151C227.123 332.931 261.479 334.283 292.444 334.283C323.41 334.283 429.778 338.201 384.741 246.464C369.837 202.76 344.181 164.917 292.444 164.917Z" stroke="black" stroke-opacity="0.2" stroke-width="5"/>
<path d="M259.095 222.499C259.095 226.42 249.459 222.499 245.784 222.499C242.108 222.499 233.582 221.936 233.582 218.015C233.582 214.094 235.431 209.794 245.784 209.794C256.137 209.794 259.095 218.578 259.095 222.499Z" fill="#AE6A3C" fill-opacity="0.8"/>
<path d="M325.489 222.499C325.489 226.42 335.124 222.499 338.8 222.499C342.475 222.499 351.001 221.936 351.001 218.015C351.001 214.094 349.152 209.794 338.8 209.794C328.447 209.794 325.489 218.578 325.489 222.499Z" fill="#AE6A3C" fill-opacity="0.8"/>
<path d="M243.481 262.624C236.009 262.624 192.419 263.454 192.419 285.267C192.419 321.438 243.481 334.508 293.758 334.508C344.035 334.508 394.721 321.983 394.721 285.267C394.721 263.454 351.131 262.624 343.659 262.624C336.186 262.624 335.315 276.086 328.714 273.165C316.033 267.553 311.564 263.795 295.374 263.795C279.184 263.795 271.067 267.571 258.426 273.165C251.825 276.086 250.954 262.624 243.481 262.624Z" fill="#FFE5B4"/>
<path d="M274.437 308.369C274.437 308.369 281.027 311.908 285.951 311.619C290.046 311.379 295.066 308.369 295.066 308.369C295.066 308.369 300.076 311.464 304.181 311.619C308.781 311.793 314.736 308.369 314.736 308.369" stroke="black" stroke-width="5" stroke-linecap="round"/>
<path d="M296.288 288.177C296.288 288.856 294.636 289.406 292.599 289.406C290.562 289.406 288.91 288.856 288.91 288.177C288.91 287.498 290.562 286.947 292.599 286.947C294.636 286.947 296.288 287.498 296.288 288.177Z" fill="white" fill-opacity="0.5"/>
<ellipse cx="19.9015" cy="23.531" rx="19.9015" ry="23.531" transform="matrix(-0.953838 0.300322 0.215795 0.976439 351.375 225.381)" fill="black" stroke="#504B4F"/>
<ellipse cx="5.66215" cy="4.85278" rx="5.66215" ry="4.85278" transform="matrix(-0.82516 0.564899 0.575712 0.817653 332.475 238.929)" fill="white" stroke="#504B4F"/>
<path d="M273.405 292.319C273.939 294.761 267.867 293.53 265.754 293.992C263.642 294.454 258.664 295.175 258.13 292.733C257.596 290.291 258.073 287.381 264.024 286.08C269.975 284.779 272.871 289.877 273.405 292.319Z" fill="#71645C" fill-opacity="0.8"/>
<path d="M273.405 292.319C273.939 294.761 267.867 293.53 265.754 293.992C263.642 294.454 258.664 295.175 258.13 292.733C257.596 290.291 258.073 287.381 264.024 286.08C269.975 284.779 272.871 289.877 273.405 292.319Z" fill="#71645C" fill-opacity="0.8"/>
<path d="M317.151 292.319C316.617 294.761 322.69 293.53 324.802 293.992C326.915 294.454 331.893 295.175 332.427 292.733C332.961 290.291 332.483 287.381 326.533 286.08C320.582 284.779 317.685 289.877 317.151 292.319Z" fill="#71645C" fill-opacity="0.8"/>
<path d="M317.151 292.319C316.617 294.761 322.69 293.53 324.802 293.992C326.915 294.454 331.893 295.175 332.427 292.733C332.961 290.291 332.483 287.381 326.533 286.08C320.582 284.779 317.685 289.877 317.151 292.319Z" fill="#71645C" fill-opacity="0.8"/>
<ellipse cx="19.9015" cy="23.531" rx="19.9015" ry="23.531" transform="matrix(-0.953838 0.300322 0.215795 0.976439 260.696 224.285)" fill="black" stroke="#504B4F"/>
<ellipse cx="5.66215" cy="4.85278" rx="5.66215" ry="4.85278" transform="matrix(-0.82516 0.564899 0.575712 0.817653 241.796 237.833)" fill="white" stroke="#504B4F"/>
<path d="M287.454 449.262C271.334 453.294 258.616 452.748 238.701 442.727C238.701 442.727 231.236 464.363 238.702 474.375C243.885 481.324 250.473 487.494 258.583 484.552C263.815 482.654 267.878 473.942 267.878 473.942C267.878 473.942 266.048 484.122 270.286 487.659C276.599 492.929 283.191 482.897 287.454 476.006C292.949 467.124 287.454 449.262 287.454 449.262Z" fill="#C8855D"/>
<path d="M287.454 449.262C271.334 453.294 258.616 452.748 238.701 442.727C238.701 442.727 231.236 464.363 238.702 474.375C243.885 481.324 250.473 487.494 258.583 484.552C263.815 482.654 267.878 473.942 267.878 473.942C267.878 473.942 266.048 484.122 270.286 487.659C276.599 492.929 283.191 482.897 287.454 476.006C292.949 467.124 287.454 449.262 287.454 449.262Z" stroke="#C8855D" stroke-width="5"/>
<path d="M287.454 449.262C271.334 453.294 258.616 452.748 238.701 442.727C238.701 442.727 231.236 464.363 238.702 474.375C243.885 481.324 250.473 487.494 258.583 484.552C263.815 482.654 267.878 473.942 267.878 473.942C267.878 473.942 266.048 484.122 270.286 487.659C276.599 492.929 283.191 482.897 287.454 476.006C292.949 467.124 287.454 449.262 287.454 449.262Z" stroke="black" stroke-opacity="0.2" stroke-width="5"/>
<path d="M299.759 448.717C315.88 452.749 329.037 452.638 348.951 442.618C348.951 442.618 356.416 464.253 348.95 474.265C343.767 481.215 337.179 487.384 329.069 484.442C323.837 482.544 319.774 473.833 319.774 473.833C319.774 473.833 321.604 484.013 317.366 487.55C311.053 492.82 304.461 482.787 300.198 475.896C294.704 467.014 299.759 448.717 299.759 448.717Z" fill="#C8855D"/>
<path d="M299.759 448.717C315.88 452.749 329.037 452.638 348.951 442.618C348.951 442.618 356.416 464.253 348.95 474.265C343.767 481.215 337.179 487.384 329.069 484.442C323.837 482.544 319.774 473.833 319.774 473.833C319.774 473.833 321.604 484.013 317.366 487.55C311.053 492.82 304.461 482.787 300.198 475.896C294.704 467.014 299.759 448.717 299.759 448.717Z" stroke="#C8855D" stroke-width="5"/>
<path d="M299.759 448.717C315.88 452.749 329.037 452.638 348.951 442.618C348.951 442.618 356.416 464.253 348.95 474.265C343.767 481.215 337.179 487.384 329.069 484.442C323.837 482.544 319.774 473.833 319.774 473.833C319.774 473.833 321.604 484.013 317.366 487.55C311.053 492.82 304.461 482.787 300.198 475.896C294.704 467.014 299.759 448.717 299.759 448.717Z" stroke="black" stroke-opacity="0.2" stroke-width="5"/>
<path d="M220.126 385.385C228.007 386.54 235.194 390.534 240.336 396.615C245.479 402.697 248.224 410.447 248.054 418.41C247.884 426.373 244.812 433.999 239.415 439.856C234.018 445.713 226.667 449.397 218.745 450.215C210.822 451.034 202.874 448.931 196.393 444.301C189.912 439.671 185.346 432.834 183.552 425.074C181.758 417.314 182.86 409.166 186.651 402.162C190.441 395.157 196.66 389.779 204.138 387.037L215.387 417.714L220.126 385.385Z" fill="#C8855D"/>
<path d="M220.126 385.385C228.007 386.54 235.194 390.534 240.336 396.615C245.479 402.697 248.224 410.447 248.054 418.41C247.884 426.373 244.812 433.999 239.415 439.856C234.018 445.713 226.667 449.397 218.745 450.215C210.822 451.034 202.874 448.931 196.393 444.301C189.912 439.671 185.346 432.834 183.552 425.074C181.758 417.314 182.86 409.166 186.651 402.162C190.441 395.157 196.66 389.779 204.138 387.037L215.387 417.714L220.126 385.385Z" stroke="#C8855D" stroke-width="5"/>
<path d="M220.126 385.385C228.007 386.54 235.194 390.534 240.336 396.615C245.479 402.697 248.224 410.447 248.054 418.41C247.884 426.373 244.812 433.999 239.415 439.856C234.018 445.713 226.667 449.397 218.745 450.215C210.822 451.034 202.874 448.931 196.393 444.301C189.912 439.671 185.346 432.834 183.552 425.074C181.758 417.314 182.86 409.166 186.651 402.162C190.441 395.157 196.66 389.779 204.138 387.037L215.387 417.714L220.126 385.385Z" stroke="black" stroke-opacity="0.2" stroke-width="5"/>
<path d="M364.218 388.652C356.338 389.807 349.151 393.801 344.008 399.882C338.865 405.964 336.121 413.714 336.291 421.677C336.46 429.64 339.532 437.266 344.93 443.123C350.327 448.98 357.678 452.664 365.6 453.483C373.522 454.301 381.471 452.198 387.951 447.568C394.432 442.938 398.999 436.101 400.793 428.341C402.587 420.581 401.485 412.433 397.694 405.429C393.903 398.424 387.684 393.046 380.207 390.304L368.958 420.981L364.218 388.652Z" fill="#C8855D"/>
<path d="M364.218 388.652C356.338 389.807 349.151 393.801 344.008 399.882C338.865 405.964 336.121 413.714 336.291 421.677C336.46 429.64 339.532 437.266 344.93 443.123C350.327 448.98 357.678 452.664 365.6 453.483C373.522 454.301 381.471 452.198 387.951 447.568C394.432 442.938 398.999 436.101 400.793 428.341C402.587 420.581 401.485 412.433 397.694 405.429C393.903 398.424 387.684 393.046 380.207 390.304L368.958 420.981L364.218 388.652Z" stroke="#C8855D" stroke-width="5"/>
<path d="M364.218 388.652C356.338 389.807 349.151 393.801 344.008 399.882C338.865 405.964 336.121 413.714 336.291 421.677C336.46 429.64 339.532 437.266 344.93 443.123C350.327 448.98 357.678 452.664 365.6 453.483C373.522 454.301 381.471 452.198 387.951 447.568C394.432 442.938 398.999 436.101 400.793 428.341C402.587 420.581 401.485 412.433 397.694 405.429C393.903 398.424 387.684 393.046 380.207 390.304L368.958 420.981L364.218 388.652Z" stroke="black" stroke-opacity="0.2" stroke-width="5"/>
<path d="M273.122 201.13C273.444 198.098 275.749 195.768 278.798 195.77C280.2 195.77 280.931 196.317 282.204 196.905C284.313 197.878 285.65 198.495 287.06 200.342C290.443 204.774 290.467 213.482 284.978 214.468C282.972 214.829 281.207 215.065 279.839 213.554C278.858 212.47 279.476 211.254 278.798 209.959C277.781 208.015 276.149 207.31 274.825 205.986C273.394 204.554 272.91 203.128 273.122 201.13Z" fill="#FC934D" fill-opacity="0.8"/>
<path d="M273.122 201.13C273.444 198.098 275.749 195.768 278.798 195.77C280.2 195.77 280.931 196.317 282.204 196.905C284.313 197.878 285.65 198.495 287.06 200.342C290.443 204.774 290.467 213.482 284.978 214.468C282.972 214.829 281.207 215.065 279.839 213.554C278.858 212.47 279.476 211.254 278.798 209.959C277.781 208.015 276.149 207.31 274.825 205.986C273.394 204.554 272.91 203.128 273.122 201.13Z" fill="#FC934D" fill-opacity="0.8"/>
<path d="M273.122 201.13C273.444 198.098 275.749 195.768 278.798 195.77C280.2 195.77 280.931 196.317 282.204 196.905C284.313 197.878 285.65 198.495 287.06 200.342C290.443 204.774 290.467 213.482 284.978 214.468C282.972 214.829 281.207 215.065 279.839 213.554C278.858 212.47 279.476 211.254 278.798 209.959C277.781 208.015 276.149 207.31 274.825 205.986C273.394 204.554 272.91 203.128 273.122 201.13Z" fill="#FC934D" fill-opacity="0.8"/>
<path d="M300.553 179.893C301.476 178.027 305.374 178.114 304.446 176.25C303.779 174.91 302.227 174.559 300.844 174.938C298.814 175.495 297.63 176.251 296.004 177.697C293.756 179.694 292.644 181.318 291.954 184.245C291.583 185.818 291.268 186.821 291.704 188.377C292.009 189.464 292.367 190.049 293.099 190.907C294.338 192.358 295.582 192.597 297.346 193.322C298.743 193.896 299.692 194.426 301.052 194.426C301.869 194.426 302.876 193.929 303.467 193.01C304.527 191.364 302.792 189.788 301.656 188.336C300.735 187.159 300.264 186.372 299.949 184.911C299.532 182.982 299.678 181.662 300.553 179.893Z" fill="#FC934D" fill-opacity="0.8"/>
<path d="M300.553 179.893C301.476 178.027 305.374 178.114 304.446 176.25C303.779 174.91 302.227 174.559 300.844 174.938C298.814 175.495 297.63 176.251 296.004 177.697C293.756 179.694 292.644 181.318 291.954 184.245C291.583 185.818 291.268 186.821 291.704 188.377C292.009 189.464 292.367 190.049 293.099 190.907C294.338 192.358 295.582 192.597 297.346 193.322C298.743 193.896 299.692 194.426 301.052 194.426C301.869 194.426 302.876 193.929 303.467 193.01C304.527 191.364 302.792 189.788 301.656 188.336C300.735 187.159 300.264 186.372 299.949 184.911C299.532 182.982 299.678 181.662 300.553 179.893Z" fill="#FC934D" fill-opacity="0.8"/>
<path d="M300.553 179.893C301.476 178.027 305.374 178.114 304.446 176.25C303.779 174.91 302.227 174.559 300.844 174.938C298.814 175.495 297.63 176.251 296.004 177.697C293.756 179.694 292.644 181.318 291.954 184.245C291.583 185.818 291.268 186.821 291.704 188.377C292.009 189.464 292.367 190.049 293.099 190.907C294.338 192.358 295.582 192.597 297.346 193.322C298.743 193.896 299.692 194.426 301.052 194.426C301.869 194.426 302.876 193.929 303.467 193.01C304.527 191.364 302.792 189.788 301.656 188.336C300.735 187.159 300.264 186.372 299.949 184.911C299.532 182.982 299.678 181.662 300.553 179.893Z" fill="#FC934D" fill-opacity="0.8"/>
<path d="M309.901 200.599C311.025 198.724 313.29 197.367 315.314 196.674C316.259 198.093 316.641 200.313 316.641 202.529C316.641 203.496 316.641 203.914 316.087 204.745C315.589 205.491 314.702 205.814 313.919 205.814C312.14 205.814 310.468 205.413 309.713 204.065C309.206 203.159 309.375 201.474 309.901 200.599Z" fill="#FC934D" fill-opacity="0.8"/>
<path d="M309.901 200.599C311.025 198.724 313.29 197.367 315.314 196.674C316.259 198.093 316.641 200.313 316.641 202.529C316.641 203.496 316.641 203.914 316.087 204.745C315.589 205.491 314.702 205.814 313.919 205.814C312.14 205.814 310.468 205.413 309.713 204.065C309.206 203.159 309.375 201.474 309.901 200.599Z" fill="#FC934D" fill-opacity="0.8"/>
<path d="M309.901 200.599C311.025 198.724 313.29 197.367 315.314 196.674C316.259 198.093 316.641 200.313 316.641 202.529C316.641 203.496 316.641 203.914 316.087 204.745C315.589 205.491 314.702 205.814 313.919 205.814C312.14 205.814 310.468 205.413 309.713 204.065C309.206 203.159 309.375 201.474 309.901 200.599Z" fill="#FC934D" fill-opacity="0.8"/>
<path d="M241.536 364.222C241.858 361.191 244.163 358.861 247.212 358.862C248.614 358.862 249.345 359.41 250.618 359.997C252.727 360.97 254.064 361.587 255.474 363.434C258.857 367.867 258.881 376.574 253.393 377.56C251.386 377.921 249.621 378.157 248.253 376.646C247.272 375.563 247.89 374.346 247.212 373.051C246.195 371.107 244.564 370.403 243.239 369.078C241.808 367.647 241.324 366.221 241.536 364.222Z" fill="#FC934D" fill-opacity="0.8"/>
<path d="M241.536 364.222C241.858 361.191 244.163 358.861 247.212 358.862C248.614 358.862 249.345 359.41 250.618 359.997C252.727 360.97 254.064 361.587 255.474 363.434C258.857 367.867 258.881 376.574 253.393 377.56C251.386 377.921 249.621 378.157 248.253 376.646C247.272 375.563 247.89 374.346 247.212 373.051C246.195 371.107 244.564 370.403 243.239 369.078C241.808 367.647 241.324 366.221 241.536 364.222Z" fill="#FC934D" fill-opacity="0.8"/>
<path d="M241.536 364.222C241.858 361.191 244.163 358.861 247.212 358.862C248.614 358.862 249.345 359.41 250.618 359.997C252.727 360.97 254.064 361.587 255.474 363.434C258.857 367.867 258.881 376.574 253.393 377.56C251.386 377.921 249.621 378.157 248.253 376.646C247.272 375.563 247.89 374.346 247.212 373.051C246.195 371.107 244.564 370.403 243.239 369.078C241.808 367.647 241.324 366.221 241.536 364.222Z" fill="#FC934D" fill-opacity="0.8"/>
<path d="M277.778 354.158C278.701 352.292 282.599 352.379 281.671 350.515C281.004 349.175 279.452 348.824 278.069 349.203C276.039 349.76 274.855 350.516 273.229 351.962C270.982 353.959 269.869 355.583 269.179 358.509C268.808 360.083 268.493 361.085 268.929 362.642C269.234 363.728 269.592 364.314 270.324 365.172C271.563 366.623 272.807 366.862 274.572 367.587C275.968 368.161 276.917 368.69 278.277 368.69C279.094 368.69 280.101 368.194 280.693 367.274C281.752 365.629 280.017 364.052 278.881 362.6C277.96 361.423 277.49 360.636 277.174 359.176C276.757 357.247 276.903 355.927 277.778 354.158Z" fill="#FC934D" fill-opacity="0.8"/>
<path d="M277.778 354.158C278.701 352.292 282.599 352.379 281.671 350.515C281.004 349.175 279.452 348.824 278.069 349.203C276.039 349.76 274.855 350.516 273.229 351.962C270.982 353.959 269.869 355.583 269.179 358.509C268.808 360.083 268.493 361.085 268.929 362.642C269.234 363.728 269.592 364.314 270.324 365.172C271.563 366.623 272.807 366.862 274.572 367.587C275.968 368.161 276.917 368.69 278.277 368.69C279.094 368.69 280.101 368.194 280.693 367.274C281.752 365.629 280.017 364.052 278.881 362.6C277.96 361.423 277.49 360.636 277.174 359.176C276.757 357.247 276.903 355.927 277.778 354.158Z" fill="#FC934D" fill-opacity="0.8"/>
<path d="M277.778 354.158C278.701 352.292 282.599 352.379 281.671 350.515C281.004 349.175 279.452 348.824 278.069 349.203C276.039 349.76 274.855 350.516 273.229 351.962C270.982 353.959 269.869 355.583 269.179 358.509C268.808 360.083 268.493 361.085 268.929 362.642C269.234 363.728 269.592 364.314 270.324 365.172C271.563 366.623 272.807 366.862 274.572 367.587C275.968 368.161 276.917 368.69 278.277 368.69C279.094 368.69 280.101 368.194 280.693 367.274C281.752 365.629 280.017 364.052 278.881 362.6C277.96 361.423 277.49 360.636 277.174 359.176C276.757 357.247 276.903 355.927 277.778 354.158Z" fill="#FC934D" fill-opacity="0.8"/>
<path d="M235.446 342.092C236.571 340.218 238.836 338.861 240.859 338.168C241.805 339.587 242.187 341.807 242.187 344.022C242.187 344.99 242.187 345.407 241.633 346.238C241.135 346.984 240.248 347.308 239.464 347.308C237.686 347.308 236.014 346.907 235.259 345.559C234.751 344.652 234.921 342.968 235.446 342.092Z" fill="#FC934D" fill-opacity="0.8"/>
<path d="M235.446 342.092C236.571 340.218 238.836 338.861 240.859 338.168C241.805 339.587 242.187 341.807 242.187 344.022C242.187 344.99 242.187 345.407 241.633 346.238C241.135 346.984 240.248 347.308 239.464 347.308C237.686 347.308 236.014 346.907 235.259 345.559C234.751 344.652 234.921 342.968 235.446 342.092Z" fill="#FC934D" fill-opacity="0.8"/>
<path d="M235.446 342.092C236.571 340.218 238.836 338.861 240.859 338.168C241.805 339.587 242.187 341.807 242.187 344.022C242.187 344.99 242.187 345.407 241.633 346.238C241.135 346.984 240.248 347.308 239.464 347.308C237.686 347.308 236.014 346.907 235.259 345.559C234.751 344.652 234.921 342.968 235.446 342.092Z" fill="#FC934D" fill-opacity="0.8"/>
<path d="M323.63 340.109C326.679 340.086 329.255 342.112 329.599 345.141C329.757 346.534 329.296 347.322 328.857 348.653C328.129 350.86 327.667 352.258 325.992 353.867C321.971 357.731 313.323 358.741 311.721 353.4C311.135 351.447 310.701 349.721 312.047 348.19C313.012 347.092 314.291 347.568 315.501 346.748C317.317 345.518 317.833 343.817 318.998 342.351C320.258 340.767 321.621 340.125 323.63 340.109Z" fill="#FC934D" fill-opacity="0.8"/>
<path d="M323.63 340.109C326.679 340.086 329.255 342.112 329.599 345.141C329.757 346.534 329.296 347.322 328.857 348.653C328.129 350.86 327.667 352.258 325.992 353.867C321.971 357.731 313.323 358.741 311.721 353.4C311.135 351.447 310.701 349.721 312.047 348.19C313.012 347.092 314.291 347.568 315.501 346.748C317.317 345.518 317.833 343.817 318.998 342.351C320.258 340.767 321.621 340.125 323.63 340.109Z" fill="#FC934D" fill-opacity="0.8"/>
<path d="M323.63 340.109C326.679 340.086 329.255 342.112 329.599 345.141C329.757 346.534 329.296 347.322 328.857 348.653C328.129 350.86 327.667 352.258 325.992 353.867C321.971 357.731 313.323 358.741 311.721 353.4C311.135 351.447 310.701 349.721 312.047 348.19C313.012 347.092 314.291 347.568 315.501 346.748C317.317 345.518 317.833 343.817 318.998 342.351C320.258 340.767 321.621 340.125 323.63 340.109Z" fill="#FC934D" fill-opacity="0.8"/>
<path d="M347.837 364.957C349.796 365.663 350.151 369.546 351.898 368.413C353.154 367.598 353.327 366.017 352.793 364.686C352.01 362.732 351.125 361.641 349.504 360.189C347.265 358.182 345.526 357.261 342.54 356.907C340.934 356.717 339.903 356.517 338.406 357.127C337.361 357.553 336.82 357.975 336.05 358.799C334.749 360.195 334.652 361.457 334.132 363.293C333.72 364.746 333.301 365.748 333.455 367.1C333.548 367.911 334.155 368.855 335.135 369.339C336.891 370.206 338.26 368.303 339.574 367.01C340.639 365.962 341.368 365.405 342.784 364.926C344.653 364.293 345.981 364.288 347.837 364.957Z" fill="#FC934D" fill-opacity="0.8"/>
<path d="M347.837 364.957C349.796 365.663 350.151 369.546 351.898 368.413C353.154 367.598 353.327 366.017 352.793 364.686C352.01 362.732 351.125 361.641 349.504 360.189C347.265 358.182 345.526 357.261 342.54 356.907C340.934 356.717 339.903 356.517 338.406 357.127C337.361 357.553 336.82 357.975 336.05 358.799C334.749 360.195 334.652 361.457 334.132 363.293C333.72 364.746 333.301 365.748 333.455 367.1C333.548 367.911 334.155 368.855 335.135 369.339C336.891 370.206 338.26 368.303 339.574 367.01C340.639 365.962 341.368 365.405 342.784 364.926C344.653 364.293 345.981 364.288 347.837 364.957Z" fill="#FC934D" fill-opacity="0.8"/>
<path d="M347.837 364.957C349.796 365.663 350.151 369.546 351.898 368.413C353.154 367.598 353.327 366.017 352.793 364.686C352.01 362.732 351.125 361.641 349.504 360.189C347.265 358.182 345.526 357.261 342.54 356.907C340.934 356.717 339.903 356.517 338.406 357.127C337.361 357.553 336.82 357.975 336.05 358.799C334.749 360.195 334.652 361.457 334.132 363.293C333.72 364.746 333.301 365.748 333.455 367.1C333.548 367.911 334.155 368.855 335.135 369.339C336.891 370.206 338.26 368.303 339.574 367.01C340.639 365.962 341.368 365.405 342.784 364.926C344.653 364.293 345.981 364.288 347.837 364.957Z" fill="#FC934D" fill-opacity="0.8"/>
<path d="M328.324 376.59C330.314 377.496 331.919 379.592 332.836 381.524C331.534 382.625 329.372 383.255 327.17 383.506C326.209 383.616 325.794 383.663 324.906 383.207C324.108 382.797 323.686 381.952 323.597 381.174C323.396 379.406 323.605 377.699 324.859 376.797C325.702 376.19 327.395 376.168 328.324 376.59Z" fill="#FC934D" fill-opacity="0.8"/>
<path d="M328.324 376.59C330.314 377.496 331.919 379.592 332.836 381.524C331.534 382.625 329.372 383.255 327.17 383.506C326.209 383.616 325.794 383.663 324.906 383.207C324.108 382.797 323.686 381.952 323.597 381.174C323.396 379.406 323.605 377.699 324.859 376.797C325.702 376.19 327.395 376.168 328.324 376.59Z" fill="#FC934D" fill-opacity="0.8"/>
<path d="M328.324 376.59C330.314 377.496 331.919 379.592 332.836 381.524C331.534 382.625 329.372 383.255 327.17 383.506C326.209 383.616 325.794 383.663 324.906 383.207C324.108 382.797 323.686 381.952 323.597 381.174C323.396 379.406 323.605 377.699 324.859 376.797C325.702 376.19 327.395 376.168 328.324 376.59Z" fill="#FC934D" fill-opacity="0.8"/>
</svg>
