<svg width="600" height="600" viewBox="0 0 600 600" fill="none" xmlns="http://www.w3.org/2000/svg">
<path d="M294.699 431.502C305.544 425.234 325.817 423.722 325.817 423.722C325.817 423.722 327.433 399.929 325.817 384.825C324.082 368.616 321.078 359.79 316.664 344.097C311.906 327.177 310.058 317.17 302.021 301.539C294.222 286.37 289.289 277.516 276.852 265.845C268.535 258.04 253.056 248.913 253.056 248.913C253.056 248.913 227.537 262.747 209.582 265.845C194.261 268.488 175.719 272.227 169.77 265.845C166.656 262.504 164.978 258.533 162.655 254.602C157.622 255.487 154.258 255.517 151.215 248.913C144.559 234.467 167.017 232.405 175.719 216.422C184.433 200.416 181.198 180.061 189.42 163.796C198.656 145.525 207.039 133.263 225.608 122.598C243.344 112.412 254.011 109.972 273.429 108.381C289.08 107.098 312.202 108.381 312.202 108.381C369.07 94.8101 481.447 124.343 441.655 156.932C435.097 162.303 428.131 159.117 421.063 163.796C413.45 168.836 411.859 174.674 405.961 181.643C422.758 225.113 426.195 252.844 416.245 298.371C403.872 354.978 358.308 431.502 358.308 431.502C358.308 431.502 362.363 450.896 358.308 462.162C355.303 470.511 352.119 475.022 345.494 480.924C338.333 487.304 329.626 499.31 323.529 491.907C319.552 487.079 318.703 480.017 318.703 473.762C318.703 464.469 323.529 452.095 323.529 452.095C323.529 452.095 306.533 464.971 294.699 466.44C287.782 467.299 281.273 467.55 276.852 462.162C273.224 457.741 278.006 451.064 281.178 446.305C286.669 438.068 286.591 436.188 294.699 431.502Z" fill="#2AB3D7"/>
<path d="M405.961 181.643C422.758 225.113 426.195 252.844 416.245 298.371C403.872 354.978 358.308 431.502 358.308 431.502C358.308 431.502 362.363 450.896 358.308 462.162C355.303 470.511 352.119 475.022 345.494 480.924C338.333 487.304 329.626 499.31 323.529 491.907C319.552 487.079 318.703 480.017 318.703 473.762C318.703 464.469 323.529 452.095 323.529 452.095C323.529 452.095 306.533 464.971 294.699 466.44C287.782 467.299 281.273 467.55 276.852 462.162C273.224 457.741 278.006 451.064 281.178 446.305C286.669 438.068 286.591 436.188 294.699 431.502C305.544 425.234 325.817 423.722 325.817 423.722C325.817 423.722 327.433 399.929 325.817 384.825C324.082 368.616 321.078 359.79 316.664 344.097C311.906 327.177 310.058 317.17 302.021 301.539C294.222 286.37 289.289 277.516 276.852 265.845C268.535 258.04 253.056 248.913 253.056 248.913C253.056 248.913 227.537 262.747 209.582 265.845C194.261 268.488 175.719 272.227 169.77 265.845C166.656 262.504 164.978 258.533 162.655 254.602M405.961 181.643C411.859 174.674 413.45 168.836 421.063 163.796C428.131 159.117 435.097 162.303 441.655 156.932C481.447 124.343 369.07 94.8101 312.202 108.381M405.961 181.643C398.796 151.032 330.297 108.381 312.202 108.381M312.202 108.381C312.202 108.381 289.08 107.098 273.429 108.381C254.011 109.972 243.344 112.412 225.608 122.598C207.039 133.263 198.656 145.525 189.42 163.796C181.198 180.061 184.433 200.416 175.719 216.422C167.017 232.405 144.559 234.467 151.215 248.913C154.258 255.517 157.622 255.487 162.655 254.602M162.655 254.602C183.06 251.011 207.502 241.331 209.582 237.93" stroke="#2AB3D7" stroke-width="5"/>
<path d="M405.961 181.643C422.758 225.113 426.195 252.844 416.245 298.371C403.872 354.978 358.308 431.502 358.308 431.502C358.308 431.502 362.363 450.896 358.308 462.162C355.303 470.511 352.119 475.022 345.494 480.924C338.333 487.304 329.626 499.31 323.529 491.907C319.552 487.079 318.703 480.017 318.703 473.762C318.703 464.469 323.529 452.095 323.529 452.095C323.529 452.095 306.533 464.971 294.699 466.44C287.782 467.299 281.273 467.55 276.852 462.162C273.224 457.741 278.006 451.064 281.178 446.305C286.669 438.068 286.591 436.188 294.699 431.502C305.544 425.234 325.817 423.722 325.817 423.722C325.817 423.722 327.433 399.929 325.817 384.825C324.082 368.616 321.078 359.79 316.664 344.097C311.906 327.177 310.058 317.17 302.021 301.539C294.222 286.37 289.289 277.516 276.852 265.845C268.535 258.04 253.056 248.913 253.056 248.913C253.056 248.913 227.537 262.747 209.582 265.845C194.261 268.488 175.719 272.227 169.77 265.845C166.656 262.504 164.978 258.533 162.655 254.602M405.961 181.643C411.859 174.674 413.45 168.836 421.063 163.796C428.131 159.117 435.097 162.303 441.655 156.932C481.447 124.343 369.07 94.8101 312.202 108.381M405.961 181.643C398.796 151.032 330.297 108.381 312.202 108.381M312.202 108.381C312.202 108.381 289.08 107.098 273.429 108.381C254.011 109.972 243.344 112.412 225.608 122.598C207.039 133.263 198.656 145.525 189.42 163.796C181.198 180.061 184.433 200.416 175.719 216.422C167.017 232.405 144.559 234.467 151.215 248.913C154.258 255.517 157.622 255.487 162.655 254.602M162.655 254.602C183.06 251.011 207.502 241.331 209.582 237.93" stroke="black" stroke-opacity="0.2" stroke-width="5"/>
<ellipse cx="212.537" cy="180.672" rx="11.4404" ry="11.1862" fill="white"/>
<ellipse cx="207.452" cy="180.821" rx="6.35579" ry="6.21455" fill="black"/>
<ellipse cx="213.394" cy="178.066" rx="4.86218" ry="2.8601" fill="white" fill-opacity="0.6"/>
<path d="M318.4 301.622C333.664 288.038 362.841 274.967 362.841 274.967C378.764 242.795 342.575 218.239 310.91 237.626C310.91 237.626 278.769 272.131 276.375 294.319C274.19 314.563 272.743 356.872 286.421 343.064C304.448 324.866 303.086 315.252 318.4 301.622Z" fill="#2AB3D7"/>
<path d="M318.4 301.622C333.664 288.038 362.841 274.967 362.841 274.967C378.764 242.795 342.575 218.239 310.91 237.626C310.91 237.626 278.769 272.131 276.375 294.319C274.19 314.563 272.743 356.872 286.421 343.064C304.448 324.866 303.086 315.252 318.4 301.622Z" stroke="#2AB3D7" stroke-width="5"/>
<path d="M318.4 301.622C333.664 288.038 362.841 274.967 362.841 274.967C378.764 242.795 342.575 218.239 310.91 237.626C310.91 237.626 278.769 272.131 276.375 294.319C274.19 314.563 272.743 356.872 286.421 343.064C304.448 324.866 303.086 315.252 318.4 301.622Z" stroke="black" stroke-opacity="0.2" stroke-width="5"/>
<path d="M249.036 124.974C249.036 124.974 253.586 123.989 256.463 123.634C259.38 123.273 262.712 122.979 263.611 124.722C265.604 128.587 259.88 134.879 245.017 136.172" stroke="#2AB3D7" stroke-width="5" stroke-linecap="round"/>
<path d="M249.036 124.974C249.036 124.974 253.586 123.989 256.463 123.634C259.38 123.273 262.712 122.979 263.611 124.722C265.604 128.587 259.88 134.879 245.017 136.172" stroke="black" stroke-opacity="0.2" stroke-width="5" stroke-linecap="round"/>
</svg>
