<svg width="600" height="600" viewBox="0 0 600 600" fill="none" xmlns="http://www.w3.org/2000/svg">
<path d="M249.56 305.813C228.956 313.534 219.431 317.869 200.129 305.813C200.129 305.813 205.832 294.733 205.199 270.567C204.565 246.4 200.797 228.489 179.85 199.255C168.235 188.519 161.212 186.486 147.53 191.878C147.53 191.878 156.345 210.863 153.233 226.304C153.233 226.304 137.514 257.848 142.46 280.403C147.405 302.957 157.444 305.813 157.444 305.813C157.444 305.813 137.907 309.832 129.151 318.108C115.458 331.05 116.719 349.107 117.111 364.829C112.742 372.432 108.962 375.818 100 380.403C111.512 392.288 116.125 395.848 129.151 396.796C144.154 397.888 154.03 388.243 164.006 380.403C175.103 369.451 180.125 362.158 184.919 345.157C216.029 369.983 235.555 380.074 279.978 380.403C279.978 380.403 293.92 386.323 279.978 403.536C268.649 417.523 309.969 406.39 328.018 401.191C344.53 396.435 366.799 380.403 366.799 380.403C366.799 380.403 448.449 394.457 483.937 350.195C519.426 305.933 493.155 264.882 434.113 264.882C393.583 264.882 353.809 270.567 317.467 280.403C281.125 290.239 249.56 305.813 249.56 305.813Z" fill="#697478"/>
<path d="M249.56 305.813C228.956 313.534 219.431 317.869 200.129 305.813C200.129 305.813 205.832 294.733 205.199 270.567C204.565 246.4 200.797 228.489 179.85 199.255C168.235 188.519 161.212 186.486 147.53 191.878C147.53 191.878 156.345 210.863 153.233 226.304C153.233 226.304 137.514 257.848 142.46 280.403C147.405 302.957 157.444 305.813 157.444 305.813C157.444 305.813 137.907 309.832 129.151 318.108C115.458 331.05 116.719 349.107 117.111 364.829C112.742 372.432 108.962 375.818 100 380.403C111.512 392.288 116.125 395.848 129.151 396.796C144.154 397.888 154.03 388.243 164.006 380.403C175.103 369.451 180.125 362.158 184.919 345.157C216.029 369.983 235.555 380.074 279.978 380.403C279.978 380.403 293.92 386.323 279.978 403.536C268.649 417.523 309.969 406.39 328.018 401.191C344.53 396.435 366.799 380.403 366.799 380.403C366.799 380.403 448.449 394.457 483.937 350.195C519.426 305.933 493.155 264.882 434.113 264.882C393.583 264.882 353.809 270.567 317.467 280.403C281.125 290.239 249.56 305.813 249.56 305.813Z" stroke="#697478" stroke-width="5"/>
<path d="M249.56 305.813C228.956 313.534 219.431 317.869 200.129 305.813C200.129 305.813 205.832 294.733 205.199 270.567C204.565 246.4 200.797 228.489 179.85 199.255C168.235 188.519 161.212 186.486 147.53 191.878C147.53 191.878 156.345 210.863 153.233 226.304C153.233 226.304 137.514 257.848 142.46 280.403C147.405 302.957 157.444 305.813 157.444 305.813C157.444 305.813 137.907 309.832 129.151 318.108C115.458 331.05 116.719 349.107 117.111 364.829C112.742 372.432 108.962 375.818 100 380.403C111.512 392.288 116.125 395.848 129.151 396.796C144.154 397.888 154.03 388.243 164.006 380.403C175.103 369.451 180.125 362.158 184.919 345.157C216.029 369.983 235.555 380.074 279.978 380.403C279.978 380.403 293.92 386.323 279.978 403.536C268.649 417.523 309.969 406.39 328.018 401.191C344.53 396.435 366.799 380.403 366.799 380.403C366.799 380.403 448.449 394.457 483.937 350.195C519.426 305.933 493.155 264.882 434.113 264.882C393.583 264.882 353.809 270.567 317.467 280.403C281.125 290.239 249.56 305.813 249.56 305.813Z" stroke="black" stroke-opacity="0.2" stroke-width="5"/>
<ellipse cx="459.904" cy="304.474" rx="12.8956" ry="11.1371" fill="black"/>
<ellipse cx="459.904" cy="304.474" rx="12.8956" ry="11.1371" stroke="#697478"/>
<ellipse cx="459.904" cy="304.474" rx="12.8956" ry="11.1371" stroke="black" stroke-opacity="0.2"/>
<circle cx="462.836" cy="302.13" r="2.93082" fill="white"/>
<circle cx="462.836" cy="302.13" r="2.93082" stroke="#697478"/>
<circle cx="462.836" cy="302.13" r="2.93082" stroke="black" stroke-opacity="0.2"/>
<path d="M310.877 246.347C309.991 261.531 300.468 283.819 300.468 283.819L359.085 269.278C359.085 269.278 352.498 240.748 340.459 227.891C329.475 216.16 304.851 207.757 304.851 207.757C304.851 207.757 311.765 231.114 310.877 246.347Z" fill="#697478"/>
<path d="M310.877 246.347C309.991 261.531 300.468 283.819 300.468 283.819L359.085 269.278C359.085 269.278 352.498 240.748 340.459 227.891C329.475 216.16 304.851 207.757 304.851 207.757C304.851 207.757 311.765 231.114 310.877 246.347Z" stroke="#697478" stroke-width="5"/>
<path d="M310.877 246.347C309.991 261.531 300.468 283.819 300.468 283.819L359.085 269.278C359.085 269.278 352.498 240.748 340.459 227.891C329.475 216.16 304.851 207.757 304.851 207.757C304.851 207.757 311.765 231.114 310.877 246.347Z" stroke="black" stroke-opacity="0.2" stroke-width="5"/>
<path d="M468.111 332.024C478.707 338.332 483.177 338.22 492.73 332.024M471.818 344.068C471.818 344.068 469.056 340.912 468.697 338.849C468.296 336.545 469.199 332.358 469.199 332.358L475.706 336.239C475.706 336.239 473.782 338.221 473.009 339.778C472.238 341.332 471.818 344.068 471.818 344.068ZM490.903 332.886C490.903 332.886 492.324 336.795 491.956 338.748C491.328 342.073 488.569 344.023 488.569 344.023C488.569 344.023 487.969 341.715 487.151 339.92C486.332 338.125 484.806 336.403 484.806 336.403C484.806 336.403 486.362 336.177 487.737 335.231C489.439 334.059 490.903 332.886 490.903 332.886Z" stroke="white" stroke-width="5"/>
<path d="M422.39 314.439C422.39 314.439 416.528 324.416 416.528 331.438C416.528 338.46 422.39 348.436 422.39 348.436" stroke="#545D60" stroke-width="5" stroke-linecap="round"/>
<path d="M405.977 321.473C405.977 321.473 402.46 327.459 402.46 331.672C402.46 335.886 405.977 341.872 405.977 341.872" stroke="#545D60" stroke-width="5" stroke-linecap="round"/>
</svg>
