<svg width="600" height="600" viewBox="0 0 600 600" fill="none" xmlns="http://www.w3.org/2000/svg">
<path d="M307.182 356.741C297.598 370.262 285.744 371.562 274.223 383.476C271.784 385.998 268.124 388.59 268.124 388.59C268.124 388.59 278.738 409.415 288.673 419.111C300.139 430.302 307.88 436.91 323.37 441.004C331.74 443.216 337.049 445.263 345.437 443.121C353.872 440.967 359.195 437.722 365.487 431.706C372.147 425.338 374.369 421.065 378.78 412.975C382.056 406.967 382.802 402 384.644 395.41C386.754 387.855 385.211 383.079 387.167 375.483C389.463 366.571 392.762 362.255 396.347 353.779C398.462 348.781 405.016 345.323 401.761 340.98C398.531 336.669 388.042 342.393 388.042 342.393C388.042 342.393 395.215 329.773 402.959 325.74C410.281 321.927 415.662 322.116 423.891 322.785C435.65 323.74 440.849 329.958 451.716 334.554C463.959 339.733 452.991 311.277 447.496 297.998C443.04 287.227 439.378 280.883 430.243 273.642C421.552 266.753 414.975 264.692 404.087 262.579C394.839 260.784 389.226 260.484 379.966 262.217C362.082 265.566 353.176 274.219 340.971 287.712C329.678 300.197 327.585 310.369 320.363 325.576C314.695 337.513 314.823 345.96 307.182 356.741Z" fill="#FFAE5E"/>
<path d="M307.182 356.741C297.598 370.262 285.744 371.562 274.223 383.476C271.784 385.998 268.124 388.59 268.124 388.59C268.124 388.59 278.738 409.415 288.673 419.111C300.139 430.302 307.88 436.91 323.37 441.004C331.74 443.216 337.049 445.263 345.437 443.121C353.872 440.967 359.195 437.722 365.487 431.706C372.147 425.338 374.369 421.065 378.78 412.975C382.056 406.967 382.802 402 384.644 395.41C386.754 387.855 385.211 383.079 387.167 375.483C389.463 366.571 392.762 362.255 396.347 353.779C398.462 348.781 405.016 345.323 401.761 340.98C398.531 336.669 388.042 342.393 388.042 342.393C388.042 342.393 395.215 329.773 402.959 325.74C410.281 321.927 415.662 322.116 423.891 322.785C435.65 323.74 440.849 329.958 451.716 334.554C463.959 339.733 452.991 311.277 447.496 297.998C443.04 287.227 439.378 280.883 430.243 273.642C421.552 266.753 414.975 264.692 404.087 262.579C394.839 260.784 389.226 260.484 379.966 262.217C362.082 265.566 353.176 274.219 340.971 287.712C329.678 300.197 327.585 310.369 320.363 325.576C314.695 337.513 314.823 345.96 307.182 356.741Z" stroke="#FFAE5E" stroke-width="5"/>
<path d="M307.182 356.741C297.598 370.262 285.744 371.562 274.223 383.476C271.784 385.998 268.124 388.59 268.124 388.59C268.124 388.59 278.738 409.415 288.673 419.111C300.139 430.302 307.88 436.91 323.37 441.004C331.74 443.216 337.049 445.263 345.437 443.121C353.872 440.967 359.195 437.722 365.487 431.706C372.147 425.338 374.369 421.065 378.78 412.975C382.056 406.967 382.802 402 384.644 395.41C386.754 387.855 385.211 383.079 387.167 375.483C389.463 366.571 392.762 362.255 396.347 353.779C398.462 348.781 405.016 345.323 401.761 340.98C398.531 336.669 388.042 342.393 388.042 342.393C388.042 342.393 395.215 329.773 402.959 325.74C410.281 321.927 415.662 322.116 423.891 322.785C435.65 323.74 440.849 329.958 451.716 334.554C463.959 339.733 452.991 311.277 447.496 297.998C443.04 287.227 439.378 280.883 430.243 273.642C421.552 266.753 414.975 264.692 404.087 262.579C394.839 260.784 389.226 260.484 379.966 262.217C362.082 265.566 353.176 274.219 340.971 287.712C329.678 300.197 327.585 310.369 320.363 325.576C314.695 337.513 314.823 345.96 307.182 356.741Z" stroke="black" stroke-opacity="0.2" stroke-width="5"/>
<path d="M192.096 331.14C190.386 335.912 161.459 417.69 184.845 452.768C210.223 490.835 309.924 495.669 330.467 452.768C351.01 409.867 323.219 334.781 321.404 331.14C321.404 331.14 193.537 327.12 192.096 331.14Z" fill="#FFAE5E"/>
<path d="M192.096 331.14C190.386 335.912 161.459 417.69 184.845 452.768C210.223 490.835 309.924 495.669 330.467 452.768C351.01 409.867 323.219 334.781 321.404 331.14C321.404 331.14 193.537 327.12 192.096 331.14Z" stroke="#FFAE5E" stroke-width="5"/>
<path d="M192.096 331.14C190.386 335.912 161.459 417.69 184.845 452.768C210.223 490.835 309.924 495.669 330.467 452.768C351.01 409.867 323.219 334.781 321.404 331.14C321.404 331.14 193.537 327.12 192.096 331.14Z" stroke="black" stroke-opacity="0.2" stroke-width="5"/>
<path d="M242.417 464.618C236.259 465.297 226.391 466.587 226.391 466.587C226.391 466.587 214.669 464.631 209.548 459.394C206.004 455.77 204.433 453.892 202.032 449.773C199.465 445.369 198.363 442.741 196.814 437.679C195.265 432.618 195.165 429.892 194.979 424.78C194.793 419.669 195.895 412.463 195.895 412.463C195.895 412.463 197.132 406.236 198.602 402.47C201.046 396.208 203.267 392.931 207.621 387.81C211.542 383.199 214.139 380.832 219.188 377.493C225.273 373.47 229.284 371.979 236.318 370.045C244.808 367.71 249.971 367.315 258.759 367.862C265.851 368.304 270.827 368.775 277.539 371.111C284.25 373.447 288.403 374.693 294.247 378.613C299.105 381.871 302.562 384.536 306.522 388.842C311.052 393.767 312.596 397.619 315.047 403.845C317.124 409.121 317.634 414.222 318.116 419.872C318.661 426.262 317.929 429.032 316.752 434.193C315.575 439.354 314.333 441.586 311.465 447.149C308.597 452.713 307.795 453.65 304.657 456.951C301.776 459.982 299.309 461.664 295.692 463.761C292.158 465.81 285.934 467.529 285.934 467.529C285.934 467.529 278.124 466.005 272.083 465.223C266.042 464.441 263.084 464.03 257.421 463.761C251.568 463.483 248.241 463.976 242.417 464.618Z" fill="#FEFFFB"/>
<path d="M192.31 404.515C192.288 396.838 200.354 392.136 201.738 386.992C201.738 386.992 231.711 414.183 229.294 418.413C227.223 422.038 192.31 404.515 192.31 404.515Z" fill="#FFAE5E"/>
<path d="M197.509 380.95C197.509 380.95 241.767 415.506 230.138 420.83C221.996 424.557 189.049 405.12 189.049 405.12" stroke="#653D27" stroke-width="5"/>
<path d="M197.509 380.95C197.509 380.95 241.767 415.506 230.138 420.83C221.996 424.557 189.049 405.12 189.049 405.12" stroke="#CC8B4B" stroke-width="5"/>
<path d="M317.752 407.537C317.774 399.86 310.447 395.762 309.063 390.618C309.063 390.618 282.474 414.183 284.891 418.413C286.962 422.039 317.752 407.537 317.752 407.537Z" fill="#FFAE5E"/>
<path d="M316.679 380.95C316.679 380.95 272.42 415.506 284.05 420.83C292.192 424.557 325.138 405.12 325.138 405.12" stroke="#653D27" stroke-width="5"/>
<path d="M316.679 380.95C316.679 380.95 272.42 415.506 284.05 420.83C292.192 424.557 325.138 405.12 325.138 405.12" stroke="#CC8B4B" stroke-width="5"/>
<path d="M365.399 107.703C326.197 86.2024 304.393 143.458 274.847 177.762C274.847 177.762 319.327 194.951 338.71 216.842C348.429 227.819 359.203 248.297 359.203 248.297C359.203 248.297 391.484 234.281 387.799 225.898C386.422 222.765 372.567 229.71 371.595 227.804C370.623 225.898 403.406 212.699 393.995 208.264C389.786 206.28 377.791 208.264 377.791 208.264C372.951 168.992 400.092 126.73 365.399 107.703Z" fill="#FFAE5E"/>
<path d="M365.399 107.703C326.197 86.2024 304.393 143.458 274.847 177.762C274.847 177.762 319.327 194.951 338.71 216.842C348.429 227.819 359.203 248.297 359.203 248.297C359.203 248.297 391.484 234.281 387.799 225.898C386.422 222.765 372.567 229.71 371.595 227.804C370.623 225.898 403.406 212.699 393.995 208.264C389.786 206.28 377.791 208.264 377.791 208.264C372.951 168.992 400.092 126.73 365.399 107.703Z" stroke="#FFAE5E" stroke-width="5"/>
<path d="M365.399 107.703C326.197 86.2024 304.393 143.458 274.847 177.762C274.847 177.762 319.327 194.951 338.71 216.842C348.429 227.819 359.203 248.297 359.203 248.297C359.203 248.297 391.484 234.281 387.799 225.898C386.422 222.765 372.567 229.71 371.595 227.804C370.623 225.898 403.406 212.699 393.995 208.264C389.786 206.28 377.791 208.264 377.791 208.264C372.951 168.992 400.092 126.73 365.399 107.703Z" stroke="black" stroke-opacity="0.2" stroke-width="5"/>
<path d="M357.777 127.56C359.72 128.914 360.508 130.162 361.96 132.147C374.575 149.402 364.274 202.7 345.543 193.032C343.585 192.022 335.046 186.926 335.046 186.926C335.046 186.926 308.517 170.972 317.509 162.404C320.187 159.852 323.228 161.241 325.615 158.338C328.179 155.219 326.414 151.64 328.52 148.121C331.277 143.512 340.033 145.119 338.87 140.022C338.378 137.864 336.558 137.702 335.702 135.724C331.915 126.971 350.483 122.476 357.777 127.56Z" fill="#FEFFFB"/>
<path d="M357.777 127.56C359.72 128.914 360.508 130.162 361.96 132.147C374.575 149.402 364.274 202.7 345.543 193.032C343.585 192.022 335.046 186.926 335.046 186.926C335.046 186.926 308.517 170.972 317.509 162.404C320.187 159.852 323.228 161.241 325.615 158.338C328.179 155.219 326.414 151.64 328.52 148.121C331.277 143.512 340.033 145.119 338.87 140.022C338.378 137.864 336.558 137.702 335.702 135.724C331.915 126.971 350.483 122.476 357.777 127.56Z" stroke="#FFAE5E" stroke-width="5"/>
<path d="M357.777 127.56C359.72 128.914 360.508 130.162 361.96 132.147C374.575 149.402 364.274 202.7 345.543 193.032C343.585 192.022 335.046 186.926 335.046 186.926C335.046 186.926 308.517 170.972 317.509 162.404C320.187 159.852 323.228 161.241 325.615 158.338C328.179 155.219 326.414 151.64 328.52 148.121C331.277 143.512 340.033 145.119 338.87 140.022C338.378 137.864 336.558 137.702 335.702 135.724C331.915 126.971 350.483 122.476 357.777 127.56Z" stroke="black" stroke-opacity="0.2" stroke-width="5"/>
<path d="M155.295 107.703C194.498 86.2024 216.302 143.458 245.848 177.762C245.848 177.762 201.367 194.951 181.985 216.842C172.266 227.819 161.491 248.297 161.491 248.297C161.491 248.297 129.211 234.281 132.896 225.898C134.273 222.765 148.128 229.71 149.1 227.804C150.072 225.898 117.288 212.699 126.7 208.264C130.909 206.28 142.904 208.264 142.904 208.264C147.743 168.992 120.602 126.73 155.295 107.703Z" fill="#FFAE5E"/>
<path d="M155.295 107.703C194.498 86.2024 216.302 143.458 245.848 177.762C245.848 177.762 201.367 194.951 181.985 216.842C172.266 227.819 161.491 248.297 161.491 248.297C161.491 248.297 129.211 234.281 132.896 225.898C134.273 222.765 148.128 229.71 149.1 227.804C150.072 225.898 117.288 212.699 126.7 208.264C130.909 206.28 142.904 208.264 142.904 208.264C147.743 168.992 120.602 126.73 155.295 107.703Z" stroke="#FFAE5E" stroke-width="5"/>
<path d="M155.295 107.703C194.498 86.2024 216.302 143.458 245.848 177.762C245.848 177.762 201.367 194.951 181.985 216.842C172.266 227.819 161.491 248.297 161.491 248.297C161.491 248.297 129.211 234.281 132.896 225.898C134.273 222.765 148.128 229.71 149.1 227.804C150.072 225.898 117.288 212.699 126.7 208.264C130.909 206.28 142.904 208.264 142.904 208.264C147.743 168.992 120.602 126.73 155.295 107.703Z" stroke="black" stroke-opacity="0.2" stroke-width="5"/>
<path d="M163.577 127.453C161.634 128.807 160.845 130.055 159.394 132.04C146.779 149.295 157.08 202.593 175.811 192.925C177.769 191.915 186.308 186.819 186.308 186.819C186.308 186.819 212.837 170.865 203.845 162.297C201.167 159.745 198.126 161.134 195.739 158.231C193.175 155.112 194.939 151.533 192.834 148.014C190.077 143.405 181.321 145.012 182.484 139.915C182.976 137.757 184.796 137.595 185.651 135.617C189.439 126.864 170.871 122.369 163.577 127.453Z" fill="#FEFFFB"/>
<path d="M163.577 127.453C161.634 128.807 160.845 130.055 159.394 132.04C146.779 149.295 157.08 202.593 175.811 192.925C177.769 191.915 186.308 186.819 186.308 186.819C186.308 186.819 212.837 170.865 203.845 162.297C201.167 159.745 198.126 161.134 195.739 158.231C193.175 155.112 194.939 151.533 192.834 148.014C190.077 143.405 181.321 145.012 182.484 139.915C182.976 137.757 184.796 137.595 185.651 135.617C189.439 126.864 170.871 122.369 163.577 127.453Z" stroke="#FFAE5E" stroke-width="5"/>
<path d="M163.577 127.453C161.634 128.807 160.845 130.055 159.394 132.04C146.779 149.295 157.08 202.593 175.811 192.925C177.769 191.915 186.308 186.819 186.308 186.819C186.308 186.819 212.837 170.865 203.845 162.297C201.167 159.745 198.126 161.134 195.739 158.231C193.175 155.112 194.939 151.533 192.834 148.014C190.077 143.405 181.321 145.012 182.484 139.915C182.976 137.757 184.796 137.595 185.651 135.617C189.439 126.864 170.871 122.369 163.577 127.453Z" stroke="black" stroke-opacity="0.2" stroke-width="5"/>
<path d="M152.711 291.566C152.481 290.338 136.765 289.519 137.582 283.787C138.4 278.055 152.711 276.008 158.435 259.222C174.972 210.731 203.438 168.741 260.844 168.741C318.249 168.741 346.715 210.731 363.252 259.222C368.976 276.008 383.287 278.055 384.105 283.787C384.922 289.519 369.206 290.338 368.976 291.566C368.746 292.794 380.834 299.345 380.834 303.439C380.834 307.533 365.296 312.856 354.665 321.863C328.762 343.811 295.201 356.663 260.844 356.663C226.486 356.663 192.925 343.811 167.022 321.863C156.391 312.856 140.853 307.533 140.853 303.439C140.853 299.345 152.941 292.794 152.711 291.566Z" fill="#FFAE5E"/>
<path d="M152.711 291.566C152.481 290.338 136.765 289.519 137.582 283.787C138.4 278.055 152.711 276.008 158.435 259.222C174.972 210.731 203.438 168.741 260.844 168.741C318.249 168.741 346.715 210.731 363.252 259.222C368.976 276.008 383.287 278.055 384.105 283.787C384.922 289.519 369.206 290.338 368.976 291.566C368.746 292.794 380.834 299.345 380.834 303.439C380.834 307.533 365.296 312.856 354.665 321.863C328.762 343.811 295.201 356.663 260.844 356.663C226.486 356.663 192.925 343.811 167.022 321.863C156.391 312.856 140.853 307.533 140.853 303.439C140.853 299.345 152.941 292.794 152.711 291.566Z" stroke="#FFAE5E" stroke-width="5"/>
<path d="M152.711 291.566C152.481 290.338 136.765 289.519 137.582 283.787C138.4 278.055 152.711 276.008 158.435 259.222C174.972 210.731 203.438 168.741 260.844 168.741C318.249 168.741 346.715 210.731 363.252 259.222C368.976 276.008 383.287 278.055 384.105 283.787C384.922 289.519 369.206 290.338 368.976 291.566C368.746 292.794 380.834 299.345 380.834 303.439C380.834 307.533 365.296 312.856 354.665 321.863C328.762 343.811 295.201 356.663 260.844 356.663C226.486 356.663 192.925 343.811 167.022 321.863C156.391 312.856 140.853 307.533 140.853 303.439C140.853 299.345 152.941 292.794 152.711 291.566Z" stroke="black" stroke-opacity="0.2" stroke-width="5"/>
<path d="M211.381 280.949C204.017 280.949 167.307 283.869 161.065 304.692C154.822 325.514 219.866 354.364 260.954 354.364C302.042 354.364 363.07 327.778 360.41 304.692C355.279 283.567 317.458 280.949 310.094 280.949C302.731 280.949 301.872 295.065 295.368 292.002C282.872 286.118 278.469 282.177 262.515 282.177C246.561 282.177 238.563 286.136 226.107 292.002C219.603 295.065 218.744 280.949 211.381 280.949Z" fill="#FEFFFB"/>
<path d="M223.84 232.631C223.84 236.982 213.149 232.631 209.071 232.631C204.992 232.631 195.532 232.007 195.532 227.656C195.532 223.306 197.584 218.535 209.071 218.535C220.558 218.535 223.84 228.281 223.84 232.631Z" fill="#FEFFFB"/>
<path d="M297.508 232.631C297.508 236.982 308.199 232.631 312.277 232.631C316.355 232.631 325.815 232.007 325.815 227.656C325.815 223.306 323.764 218.535 312.277 218.535C300.79 218.535 297.508 228.281 297.508 232.631Z" fill="#FEFFFB"/>
<path d="M261.156 316.418C259.528 316.418 248.533 312.376 247.403 306.111C246.273 299.846 276.854 299.846 274.909 306.111C272.965 312.376 262.785 316.418 261.156 316.418Z" fill="#27051B"/>
<path d="M265.107 305.505C265.107 306.258 263.275 306.869 261.015 306.869C258.754 306.869 256.922 306.258 256.922 305.505C256.922 304.751 258.754 304.141 261.015 304.141C263.275 304.141 265.107 304.751 265.107 305.505Z" fill="white" fill-opacity="0.5"/>
<path d="M261.437 315.33V327.657M261.437 327.657C261.437 327.657 257.643 331.35 254.549 331.645C250.828 331.999 245.848 327.657 245.848 327.657M261.437 327.657C261.437 327.657 265.223 331.455 268.325 331.645C271.801 331.857 276.301 327.657 276.301 327.657" stroke="black" stroke-width="5" stroke-linecap="round"/>
<ellipse cx="17.8744" cy="24.0073" rx="17.8744" ry="24.0073" transform="matrix(-0.998648 0.0519817 0.0519817 0.998648 328.702 239.805)" fill="black" stroke="#504B4F"/>
<circle cx="5.02718" cy="5.02718" r="5.02718" transform="matrix(-0.923252 0.384195 0.384195 0.923252 309.839 248.218)" fill="white" stroke="#504B4F"/>
<ellipse cx="17.8744" cy="24.0073" rx="17.8744" ry="24.0073" transform="matrix(-0.998648 0.0519817 0.0519817 0.998648 229.606 239.805)" fill="black" stroke="#504B4F"/>
<path d="M203.392 256.722C204.458 259.285 207.401 260.499 209.964 259.432C212.528 258.365 213.741 255.422 212.674 252.859C211.608 250.296 208.665 249.082 206.102 250.149C203.538 251.216 202.325 254.159 203.392 256.722Z" fill="white" stroke="#504B4F"/>
<path d="M273.4 490.738C275.348 490.29 278.779 487.556 278.779 487.556C278.779 487.556 281.484 489.724 283.017 490.49C284.973 491.468 285.625 491.794 287.815 492.127C290.751 492.572 291.412 492.228 293.776 491.794C296.015 491.383 296.945 490.239 298.761 488.965C300.118 488.012 301.219 486.208 301.219 486.208C301.219 486.208 304.882 487.831 307.465 487.944C310.099 488.059 311.754 487.797 314.155 486.716C316.41 485.7 317.6 484.769 319.059 482.934C320.814 480.728 321.26 478.99 321.808 476.378C322.465 473.244 322.456 471.384 321.649 468.338C320.779 465.054 319.898 462.951 316.979 460.839C315.286 459.613 314.078 459.145 311.956 458.591C308.893 457.791 303.685 458.38 303.685 458.38L298.269 459.374C298.269 459.374 295.415 457.231 292.876 456.906C290.649 456.621 286.937 456.844 286.937 456.844C284.573 457.278 283.751 457.429 281.624 458.395C279.496 459.362 277.254 461.503 277.254 461.503L275.32 465.316L268.641 464.813C266.402 465.224 264.818 465.514 263.009 466.423C261.2 467.331 258.91 469.033 257.723 471.715C256.617 474.216 256.486 476.192 256.721 478.815C257.064 482.625 257.703 484.899 260.64 487.605C262.753 489.553 264.517 490.277 267.512 490.955C269.764 491.464 271.097 491.268 273.4 490.738Z" fill="#FFAE5E"/>
<path d="M273.4 490.738C275.348 490.29 278.779 487.556 278.779 487.556C278.779 487.556 281.484 489.724 283.017 490.49C284.973 491.468 285.625 491.794 287.815 492.127C290.751 492.572 291.412 492.228 293.776 491.794C296.015 491.383 296.945 490.239 298.761 488.965C300.118 488.012 301.219 486.208 301.219 486.208C301.219 486.208 304.882 487.831 307.465 487.944C310.099 488.059 311.754 487.797 314.155 486.716C316.41 485.7 317.6 484.769 319.059 482.934C320.814 480.728 321.26 478.99 321.808 476.378C322.465 473.244 322.456 471.384 321.649 468.338C320.779 465.054 319.898 462.951 316.979 460.839C315.286 459.613 314.078 459.145 311.956 458.591C308.893 457.791 303.685 458.38 303.685 458.38L298.269 459.374C298.269 459.374 295.415 457.231 292.876 456.906C290.649 456.621 286.937 456.844 286.937 456.844C284.573 457.278 283.751 457.429 281.624 458.395C279.496 459.362 277.254 461.503 277.254 461.503L275.32 465.316L268.641 464.813C266.402 465.224 264.818 465.514 263.009 466.423C261.2 467.331 258.91 469.033 257.723 471.715C256.617 474.216 256.486 476.192 256.721 478.815C257.064 482.625 257.703 484.899 260.64 487.605C262.753 489.553 264.517 490.277 267.512 490.955C269.764 491.464 271.097 491.268 273.4 490.738Z" stroke="#FFAE5E" stroke-width="5"/>
<path d="M273.4 490.738C275.348 490.29 278.779 487.556 278.779 487.556C278.779 487.556 281.484 489.724 283.017 490.49C284.973 491.468 285.625 491.794 287.815 492.127C290.751 492.572 291.412 492.228 293.776 491.794C296.015 491.383 296.945 490.239 298.761 488.965C300.118 488.012 301.219 486.208 301.219 486.208C301.219 486.208 304.882 487.831 307.465 487.944C310.099 488.059 311.754 487.797 314.155 486.716C316.41 485.7 317.6 484.769 319.059 482.934C320.814 480.728 321.26 478.99 321.808 476.378C322.465 473.244 322.456 471.384 321.649 468.338C320.779 465.054 319.898 462.951 316.979 460.839C315.286 459.613 314.078 459.145 311.956 458.591C308.893 457.791 303.685 458.38 303.685 458.38L298.269 459.374C298.269 459.374 295.415 457.231 292.876 456.906C290.649 456.621 286.937 456.844 286.937 456.844C284.573 457.278 283.751 457.429 281.624 458.395C279.496 459.362 277.254 461.503 277.254 461.503L275.32 465.316L268.641 464.813C266.402 465.224 264.818 465.514 263.009 466.423C261.2 467.331 258.91 469.033 257.723 471.715C256.617 474.216 256.486 476.192 256.721 478.815C257.064 482.625 257.703 484.899 260.64 487.605C262.753 489.553 264.517 490.277 267.512 490.955C269.764 491.464 271.097 491.268 273.4 490.738Z" stroke="black" stroke-opacity="0.2" stroke-width="5"/>
<path d="M203.793 485.6C205.789 485.491 209.987 482.666 209.987 482.666C209.987 482.666 210.639 484.622 211.617 486.116C212.681 487.742 213.573 488.86 215.53 489.512C218.381 490.463 219.39 490.357 221.78 490.106C224.332 489.838 224.934 489.48 226.94 488.534C228.44 487.827 230.527 485.274 230.527 485.274C230.527 485.274 231.061 486.223 232.239 487.23C233.383 488.208 234.825 489.24 236.069 489.512C237.354 489.793 239.321 489.981 240.959 489.838C242.604 489.695 244.246 489.515 245.524 489.186C247.919 488.57 248.87 487.364 250.414 485.6C252.696 482.992 252.751 482.164 253.674 479.405C254.687 476.38 254.805 474.36 254.529 471.222C254.232 467.837 253.722 465.615 251.207 463.036C249.747 461.539 248.637 460.872 246.641 459.964C243.759 458.653 238.526 458.346 238.526 458.346L233.02 458.402C233.02 458.402 230.574 455.803 228.127 455.05C225.982 454.389 222.286 453.976 222.286 453.976C219.883 454 219.047 454.009 216.786 454.598C214.524 455.188 213.53 455.54 211.95 456.915C210.691 458.011 209.394 460.342 209.394 460.342C209.394 460.342 205.417 458.517 203.141 458.54C200.864 458.563 199.536 458.605 197.598 459.192C195.661 459.778 194.334 460.663 192.708 463.104C191.191 465.38 190.426 467.838 190.426 470.472C190.426 474.189 190.687 476.504 192.382 479.802C193.017 481.039 193.659 481.935 194.338 482.666C195.051 483.433 195.819 484.018 197.272 484.622C199.404 485.508 201.434 485.729 203.793 485.6Z" fill="#FFAE5E"/>
<path d="M203.793 485.6C205.789 485.491 209.987 482.666 209.987 482.666C209.987 482.666 210.639 484.622 211.617 486.116C212.681 487.742 213.573 488.86 215.53 489.512C218.381 490.463 219.39 490.357 221.78 490.106C224.332 489.838 224.934 489.48 226.94 488.534C228.44 487.827 230.527 485.274 230.527 485.274C230.527 485.274 231.061 486.223 232.239 487.23C233.383 488.208 234.825 489.24 236.069 489.512C237.354 489.793 239.321 489.981 240.959 489.838C242.604 489.695 244.246 489.515 245.524 489.186C247.919 488.57 248.87 487.364 250.414 485.6C252.696 482.992 252.751 482.164 253.674 479.405C254.687 476.38 254.805 474.36 254.529 471.222C254.232 467.837 253.722 465.615 251.207 463.036C249.747 461.539 248.637 460.872 246.641 459.964C243.759 458.653 238.526 458.346 238.526 458.346L233.02 458.402C233.02 458.402 230.574 455.803 228.127 455.05C225.982 454.389 222.286 453.976 222.286 453.976C219.883 454 219.047 454.009 216.786 454.598C214.524 455.188 213.53 455.54 211.95 456.915C210.691 458.011 209.394 460.342 209.394 460.342C209.394 460.342 205.417 458.517 203.141 458.54C200.864 458.563 199.536 458.605 197.598 459.192C195.661 459.778 194.334 460.663 192.708 463.104C191.191 465.38 190.426 467.838 190.426 470.472C190.426 474.189 190.687 476.504 192.382 479.802C193.017 481.039 193.659 481.935 194.338 482.666C195.051 483.433 195.819 484.018 197.272 484.622C199.404 485.508 201.434 485.729 203.793 485.6Z" stroke="#FFAE5E" stroke-width="5"/>
<path d="M203.793 485.6C205.789 485.491 209.987 482.666 209.987 482.666C209.987 482.666 210.639 484.622 211.617 486.116C212.681 487.742 213.573 488.86 215.53 489.512C218.381 490.463 219.39 490.357 221.78 490.106C224.332 489.838 224.934 489.48 226.94 488.534C228.44 487.827 230.527 485.274 230.527 485.274C230.527 485.274 231.061 486.223 232.239 487.23C233.383 488.208 234.825 489.24 236.069 489.512C237.354 489.793 239.321 489.981 240.959 489.838C242.604 489.695 244.246 489.515 245.524 489.186C247.919 488.57 248.87 487.364 250.414 485.6C252.696 482.992 252.751 482.164 253.674 479.405C254.687 476.38 254.805 474.36 254.529 471.222C254.232 467.837 253.722 465.615 251.207 463.036C249.747 461.539 248.637 460.872 246.641 459.964C243.759 458.653 238.526 458.346 238.526 458.346L233.02 458.402C233.02 458.402 230.574 455.803 228.127 455.05C225.982 454.389 222.286 453.976 222.286 453.976C219.883 454 219.047 454.009 216.786 454.598C214.524 455.188 213.53 455.54 211.95 456.915C210.691 458.011 209.394 460.342 209.394 460.342C209.394 460.342 205.417 458.517 203.141 458.54C200.864 458.563 199.536 458.605 197.598 459.192C195.661 459.778 194.334 460.663 192.708 463.104C191.191 465.38 190.426 467.838 190.426 470.472C190.426 474.189 190.687 476.504 192.382 479.802C193.017 481.039 193.659 481.935 194.338 482.666C195.051 483.433 195.819 484.018 197.272 484.622C199.404 485.508 201.434 485.729 203.793 485.6Z" stroke="black" stroke-opacity="0.2" stroke-width="5"/>
</svg>
