<svg width="600" height="600" viewBox="0 0 600 600" fill="none" xmlns="http://www.w3.org/2000/svg">
<path d="M304.682 313.931C308.118 320.961 424.986 347.309 456.457 333.39C487.927 319.471 468.289 258.294 464.562 250.667C456.997 235.186 407.434 241.592 375.633 251.293C329.091 265.49 303.417 302.429 304.682 313.931Z" fill="#A116AE"/>
<path d="M304.682 313.931C308.118 320.961 424.986 347.309 456.457 333.39C487.927 319.471 468.289 258.294 464.562 250.667C456.997 235.186 407.434 241.592 375.633 251.293C329.091 265.49 303.417 302.429 304.682 313.931Z" stroke="#A116AE" stroke-width="5"/>
<path d="M304.682 313.931C308.118 320.961 424.986 347.309 456.457 333.39C487.927 319.471 468.289 258.294 464.562 250.667C456.997 235.186 407.434 241.592 375.633 251.293C329.091 265.49 303.417 302.429 304.682 313.931Z" stroke="black" stroke-opacity="0.2" stroke-width="5"/>
<path d="M305.267 313.926C308.702 320.956 452.339 413.626 462.476 394.931C477.424 367.363 472.788 333.678 472.723 325.267C472.573 306.091 416.222 321.717 383.117 325.897C334.565 332.028 304.002 302.424 305.267 313.926Z" fill="#386CEF"/>
<path d="M305.267 313.926C308.702 320.956 452.339 413.626 462.476 394.931C477.424 367.363 472.788 333.678 472.723 325.267C472.573 306.091 416.222 321.717 383.117 325.897C334.565 332.028 304.002 302.424 305.267 313.926Z" stroke="#386CEF" stroke-width="5"/>
<path d="M305.267 313.926C308.702 320.956 452.339 413.626 462.476 394.931C477.424 367.363 472.788 333.678 472.723 325.267C472.573 306.091 416.222 321.717 383.117 325.897C334.565 332.028 304.002 302.424 305.267 313.926Z" stroke="black" stroke-opacity="0.2" stroke-width="5"/>
<path d="M302.962 316.714C306.398 323.744 307.743 369.944 397.603 414.529C430.074 430.639 468.606 398.072 460.3 395.19C440.711 388.392 391.133 366.787 361.84 351.53C320.852 330.181 301.697 305.212 302.962 316.714Z" fill="#0029FF"/>
<path d="M302.962 316.714C306.398 323.744 307.743 369.944 397.603 414.529C430.074 430.639 468.606 398.072 460.3 395.19C440.711 388.392 391.133 366.787 361.84 351.53C320.852 330.181 301.697 305.212 302.962 316.714Z" stroke="#0029FF" stroke-width="5"/>
<path d="M302.962 316.714C306.398 323.744 307.743 369.944 397.603 414.529C430.074 430.639 468.606 398.072 460.3 395.19C440.711 388.392 391.133 366.787 361.84 351.53C320.852 330.181 301.697 305.212 302.962 316.714Z" stroke="black" stroke-opacity="0.2" stroke-width="5"/>
<path d="M304.143 309.773C310.106 315.058 373.993 233.747 464.673 251.5C491.547 224.053 449.782 183.28 443.313 177.547C430.182 165.91 382.36 194.111 353.658 217.619C311.649 252.025 298.789 299.194 304.143 309.773Z" fill="#EB00FF"/>
<path d="M304.143 309.773C310.106 315.058 373.993 233.747 464.673 251.5C491.547 224.053 449.782 183.28 443.313 177.547C430.182 165.91 382.36 194.111 353.658 217.619C311.649 252.025 298.789 299.194 304.143 309.773Z" stroke="#EB00FF" stroke-width="5"/>
<path d="M304.143 309.773C310.106 315.058 373.993 233.747 464.673 251.5C491.547 224.053 449.782 183.28 443.313 177.547C430.182 165.91 382.36 194.111 353.658 217.619C311.649 252.025 298.789 299.194 304.143 309.773Z" stroke="black" stroke-opacity="0.2" stroke-width="5"/>
<path d="M295.317 314.094C291.882 321.125 175.013 347.473 143.543 333.554C112.073 319.635 131.71 258.458 135.437 250.831C143.002 235.349 192.566 241.756 224.366 251.457C270.908 265.654 296.582 302.592 295.317 314.094Z" fill="#A116AE"/>
<path d="M295.317 314.094C291.882 321.125 175.013 347.473 143.543 333.554C112.073 319.635 131.71 258.458 135.437 250.831C143.002 235.349 192.566 241.756 224.366 251.457C270.908 265.654 296.582 302.592 295.317 314.094Z" stroke="#A116AE" stroke-width="5"/>
<path d="M295.317 314.094C291.882 321.125 175.013 347.473 143.543 333.554C112.073 319.635 131.71 258.458 135.437 250.831C143.002 235.349 192.566 241.756 224.366 251.457C270.908 265.654 296.582 302.592 295.317 314.094Z" stroke="black" stroke-opacity="0.2" stroke-width="5"/>
<path d="M294.733 314.089C291.297 321.119 147.661 413.789 137.524 395.094C122.576 367.526 127.211 333.841 127.277 325.43C127.426 306.254 183.777 321.88 216.882 326.061C265.434 332.191 295.998 302.587 294.733 314.089Z" fill="#386CEF"/>
<path d="M294.733 314.089C291.297 321.119 147.661 413.789 137.524 395.094C122.576 367.526 127.211 333.841 127.277 325.43C127.426 306.254 183.777 321.88 216.882 326.061C265.434 332.191 295.998 302.587 294.733 314.089Z" stroke="#386CEF" stroke-width="5"/>
<path d="M294.733 314.089C291.297 321.119 147.661 413.789 137.524 395.094C122.576 367.526 127.211 333.841 127.277 325.43C127.426 306.254 183.777 321.88 216.882 326.061C265.434 332.191 295.998 302.587 294.733 314.089Z" stroke="black" stroke-opacity="0.2" stroke-width="5"/>
<path d="M297.038 316.878C293.603 323.908 292.257 370.107 202.397 414.692C169.926 430.803 131.395 398.235 139.7 395.353C159.289 388.556 208.868 366.951 238.16 351.693C279.148 330.344 298.303 305.375 297.038 316.878Z" fill="#0029FF"/>
<path d="M297.038 316.878C293.603 323.908 292.257 370.107 202.397 414.692C169.926 430.803 131.395 398.235 139.7 395.353C159.289 388.556 208.868 366.951 238.16 351.693C279.148 330.344 298.303 305.375 297.038 316.878Z" stroke="#0029FF" stroke-width="5"/>
<path d="M297.038 316.878C293.603 323.908 292.257 370.107 202.397 414.692C169.926 430.803 131.395 398.235 139.7 395.353C159.289 388.556 208.868 366.951 238.16 351.693C279.148 330.344 298.303 305.375 297.038 316.878Z" stroke="black" stroke-opacity="0.2" stroke-width="5"/>
<path d="M295.857 309.937C289.894 315.221 226.007 233.91 135.327 251.663C108.453 224.216 150.217 183.444 156.687 177.711C169.817 166.074 217.64 194.275 246.342 217.783C288.351 252.188 301.211 299.358 295.857 309.937Z" fill="#EB00FF"/>
<path d="M295.857 309.937C289.894 315.221 226.007 233.91 135.327 251.663C108.453 224.216 150.217 183.444 156.687 177.711C169.817 166.074 217.64 194.275 246.342 217.783C288.351 252.188 301.211 299.358 295.857 309.937Z" stroke="#EB00FF" stroke-width="5"/>
<path d="M295.857 309.937C289.894 315.221 226.007 233.91 135.327 251.663C108.453 224.216 150.217 183.444 156.687 177.711C169.817 166.074 217.64 194.275 246.342 217.783C288.351 252.188 301.211 299.358 295.857 309.937Z" stroke="black" stroke-opacity="0.2" stroke-width="5"/>
<path d="M282.684 337.198C280.196 295.603 277.225 236.031 298.616 234.592C320.246 233.136 319.281 295.193 316.539 337.198C314.527 368.025 314.483 410.027 298.616 408.633C283.075 407.267 284.493 367.429 282.684 337.198Z" fill="#554D52"/>
<path d="M282.684 337.198C280.196 295.603 277.225 236.031 298.616 234.592C320.246 233.136 319.281 295.193 316.539 337.198C314.527 368.025 314.483 410.027 298.616 408.633C283.075 407.267 284.493 367.429 282.684 337.198Z" stroke="#020202" stroke-width="3"/>
<path d="M282.684 337.198C280.196 295.603 277.225 236.031 298.616 234.592C320.246 233.136 319.281 295.193 316.539 337.198C314.527 368.025 314.483 410.027 298.616 408.633C283.075 407.267 284.493 367.429 282.684 337.198Z" stroke="black" stroke-opacity="0.2" stroke-width="3"/>
<path d="M307.954 224.689C307.954 226.035 309.1 227.086 310.513 227.035C311.926 226.984 313.072 225.851 313.072 224.505L307.954 224.689ZM335.045 169.651L336.666 167.706L332.706 164.76L331.086 166.705L335.045 169.651ZM313.072 224.505C313.072 197.226 328.819 177.123 335.045 169.651L331.086 166.705C324.7 174.368 307.954 195.636 307.954 224.689L313.072 224.505Z" fill="#020202"/>
<path d="M307.954 224.689C307.954 226.035 309.1 227.086 310.513 227.035C311.926 226.984 313.072 225.851 313.072 224.505L307.954 224.689ZM335.045 169.651L336.666 167.706L332.706 164.76L331.086 166.705L335.045 169.651ZM313.072 224.505C313.072 197.226 328.819 177.123 335.045 169.651L331.086 166.705C324.7 174.368 307.954 195.636 307.954 224.689L313.072 224.505Z" fill="black" fill-opacity="0.2"/>
<path d="M343.66 171.526C343.66 177.973 338.013 183.199 331.048 183.199C324.082 183.199 318.435 177.973 318.435 171.526C318.435 165.08 324.082 159.854 331.048 159.854C338.013 159.854 343.66 165.08 343.66 171.526Z" fill="#554D52"/>
<path d="M343.66 171.526C343.66 177.973 338.013 183.199 331.048 183.199C324.082 183.199 318.435 177.973 318.435 171.526C318.435 165.08 324.082 159.854 331.048 159.854C338.013 159.854 343.66 165.08 343.66 171.526Z" stroke="#020202" stroke-width="3"/>
<path d="M343.66 171.526C343.66 177.973 338.013 183.199 331.048 183.199C324.082 183.199 318.435 177.973 318.435 171.526C318.435 165.08 324.082 159.854 331.048 159.854C338.013 159.854 343.66 165.08 343.66 171.526Z" stroke="black" stroke-opacity="0.2" stroke-width="3"/>
<path d="M291.3 224.689C291.3 226.035 290.154 227.086 288.741 227.035C287.328 226.984 286.182 225.851 286.182 224.505L291.3 224.689ZM264.208 169.651L262.588 167.706L266.548 164.76L268.168 166.705L264.208 169.651ZM286.182 224.505C286.182 197.226 270.435 177.123 264.208 169.651L268.168 166.705C274.554 174.368 291.3 195.636 291.3 224.689L286.182 224.505Z" fill="#020202"/>
<path d="M291.3 224.689C291.3 226.035 290.154 227.086 288.741 227.035C287.328 226.984 286.182 225.851 286.182 224.505L291.3 224.689ZM264.208 169.651L262.588 167.706L266.548 164.76L268.168 166.705L264.208 169.651ZM286.182 224.505C286.182 197.226 270.435 177.123 264.208 169.651L268.168 166.705C274.554 174.368 291.3 195.636 291.3 224.689L286.182 224.505Z" fill="black" fill-opacity="0.2"/>
<path d="M255.594 171.526C255.594 177.973 261.241 183.199 268.206 183.199C275.172 183.199 280.819 177.973 280.819 171.526C280.819 165.08 275.172 159.854 268.206 159.854C261.241 159.854 255.594 165.08 255.594 171.526Z" fill="#554D52"/>
<path d="M255.594 171.526C255.594 177.973 261.241 183.199 268.206 183.199C275.172 183.199 280.819 177.973 280.819 171.526C280.819 165.08 275.172 159.854 268.206 159.854C261.241 159.854 255.594 165.08 255.594 171.526Z" stroke="#020202" stroke-width="3"/>
<path d="M255.594 171.526C255.594 177.973 261.241 183.199 268.206 183.199C275.172 183.199 280.819 177.973 280.819 171.526C280.819 165.08 275.172 159.854 268.206 159.854C261.241 159.854 255.594 165.08 255.594 171.526Z" stroke="black" stroke-opacity="0.2" stroke-width="3"/>
<ellipse cx="299.461" cy="228.397" rx="20.563" ry="20.563" fill="#554D52"/>
<ellipse cx="299.461" cy="228.397" rx="20.563" ry="20.563" stroke="#020202" stroke-width="3"/>
<ellipse cx="299.461" cy="228.397" rx="20.563" ry="20.563" stroke="black" stroke-opacity="0.2" stroke-width="3"/>
</svg>
