<svg width="600" height="600" viewBox="0 0 600 600" fill="none" xmlns="http://www.w3.org/2000/svg">
<path d="M210.63 335.421C215.015 320.62 225.309 299.355 225.309 299.355C225.309 299.355 265.017 307.348 290.732 306.065C316.711 304.768 356.574 296 356.574 296C356.574 296 366.755 308.406 369.574 311.517C381.736 324.937 376.723 320.005 385.092 330.808C393.365 341.489 402.705 360.584 402.705 360.584C402.705 360.584 407.536 355.87 410.5 353.455C416.5 348.564 424.415 345.5 427.5 344C430.585 342.5 435.891 340.901 444 340C460.5 338.167 465 336.564 465 336.564C465 336.564 480.806 331.626 477.5 346.064C476.14 352.006 447 355 447 355C447 355 428 356.11 417.5 366.11C413.203 370.203 408.5 377.359 408.5 377.359C408.5 377.359 414.417 401.302 410.254 418.039C405.912 435.496 394.285 446.137 386.335 452.847C378.385 459.557 364.932 466.686 337.687 474.655C335.156 474.655 332.48 478.741 327.203 478.429C320.247 478.018 313.296 472.63 308.765 467.525C305.987 464.395 302.879 459.976 302.879 459.976C302.879 459.976 298.546 467.059 292.828 469.203C286.118 471.719 276.053 471.719 269.762 471.719C263.472 471.719 256.326 469.882 251.31 467.525C247.191 465.59 242.503 461.235 242.503 461.235C242.503 461.235 220 463.678 212.728 461.235C205.563 458.827 205.251 458.462 202.374 455.097L202.244 454.944C199.315 451.519 198.888 446.976 198.888 446.976C198.888 446.976 193.437 452.936 185.888 453.266C179.415 453.55 172.207 453.583 164.499 446.976C155.692 439.427 151.371 422.364 155.692 404.199C157.896 394.936 162.177 388.682 166.482 385.327C177.204 376.971 188.404 380.295 200.566 380.295C201.645 363.321 205.8 351.729 210.63 335.421Z" fill="#D9D9D9"/>
<path d="M200.566 380.295C201.645 363.321 205.8 351.729 210.63 335.421C215.015 320.62 225.309 299.355 225.309 299.355C225.309 299.355 265.017 307.348 290.732 306.065C316.711 304.768 356.574 296 356.574 296C356.574 296 366.755 308.406 369.574 311.517C381.736 324.937 376.723 320.005 385.092 330.808C393.365 341.489 402.705 360.584 402.705 360.584M200.566 380.295C188.404 380.295 177.204 376.971 166.482 385.327C162.177 388.682 157.896 394.936 155.692 404.199C151.371 422.364 155.692 439.427 164.499 446.976C172.207 453.583 179.415 453.55 185.888 453.266C193.437 452.936 198.888 446.976 198.888 446.976M200.566 380.295C199.808 393.401 199.654 399.482 198.888 412.587C198.189 424.54 198.888 446.976 198.888 446.976M198.888 446.976C198.888 446.976 199.315 451.519 202.244 454.944C205.243 458.451 205.456 458.791 212.728 461.235C220 463.678 242.503 461.235 242.503 461.235M242.503 461.235C242.503 461.235 247.191 465.59 251.31 467.525C256.326 469.882 263.472 471.719 269.762 471.719C276.053 471.719 286.118 471.719 292.828 469.203C298.546 467.059 302.879 459.976 302.879 459.976M242.503 461.235C242.503 461.235 241.848 449.958 242.503 441.524C243.158 433.089 242.503 415.5 242.503 415.5M302.879 459.976C302.879 459.976 305.987 464.395 308.765 467.525C313.296 472.63 320.247 478.018 327.203 478.429C332.48 478.741 335.156 474.655 337.687 474.655M302.879 459.976C302.879 459.976 297.851 449.559 296.603 441.524C295.497 434.403 295.079 430.114 296.603 423.071C297.999 416.619 299.973 412.991 303.718 407.554M337.687 474.655C364.932 466.686 378.385 459.557 386.335 452.847C394.285 446.137 405.912 435.496 410.254 418.039C414.417 401.302 408.5 377.359 408.5 377.359M337.687 474.655C339.54 463.673 340.394 457.957 338.541 446.976C336.542 435.124 334.889 426.527 326.379 418.039C319.373 411.051 315.445 400.844 303.718 407.554M408.5 377.359C408.5 377.359 413.203 370.203 417.5 366.11C428 356.11 447 355 447 355C447 355 476.14 352.006 477.5 346.064C480.806 331.626 465 336.564 465 336.564C465 336.564 460.5 338.167 444 340C435.891 340.901 430.585 342.5 427.5 344C424.415 345.5 416.5 348.564 410.5 353.455C407.536 355.87 402.705 360.584 402.705 360.584M408.5 377.359L402.705 360.584M261.375 360.584C265.149 348.842 255.598 377.464 252.568 388.682C249.538 399.901 242.503 415.5 242.503 415.5M242.503 415.5C242.503 415.5 230.842 399.602 228.244 385.327C225 367.5 230.341 324.098 228.244 338.357M303.718 407.554C309.17 402.941 315.349 400.217 317.977 399.586M317.977 399.586C317.977 390.906 314.621 366.036 316.314 377.359M317.977 399.586C328.461 397.07 332.67 397.07 332.67 397.07M347.752 399.586C362.43 401.683 332.67 397.07 332.67 397.07M332.67 397.07C332.67 397.07 342.167 389.675 346.914 387.005C360.334 379.456 374.173 375.262 360.348 380.295" stroke="#C1C1C1" stroke-width="6"/>
<path d="M458.5 331C454.599 335.369 452.938 339.444 453 344.5C453.062 349.556 456.96 352.791 461 355C465.155 357.272 469.637 356.094 475 355C479.883 354.004 486.331 350 486.331 350L493.185 345.569L486.331 341.035C486.331 341.035 493.259 337.779 497.156 334.782C501.805 331.207 507.431 323.93 507.431 323.93C507.431 323.93 500.273 326.271 495.942 326.096C493.041 325.98 491.857 324.645 488.929 324.635C484.911 324.62 478.377 327.303 478.377 327.303L481.847 321.127C481.847 321.127 465.5 323.161 458.5 331Z" fill="#2E3440"/>
<path d="M458.5 331C454.599 335.369 452.938 339.444 453 344.5C453.062 349.556 456.96 352.791 461 355C465.155 357.272 469.637 356.094 475 355C479.883 354.004 486.331 350 486.331 350L493.185 345.569L486.331 341.035C486.331 341.035 493.259 337.779 497.156 334.782C501.805 331.207 507.431 323.93 507.431 323.93C507.431 323.93 500.273 326.271 495.942 326.096C493.041 325.98 491.857 324.645 488.929 324.635C484.911 324.62 478.377 327.303 478.377 327.303L481.847 321.127C481.847 321.127 465.5 323.161 458.5 331Z" stroke="#0D0D15" stroke-width="5"/>
<path d="M458.5 331C454.599 335.369 452.938 339.444 453 344.5C453.062 349.556 456.96 352.791 461 355C465.155 357.272 469.637 356.094 475 355C479.883 354.004 486.331 350 486.331 350L493.185 345.569L486.331 341.035C486.331 341.035 493.259 337.779 497.156 334.782C501.805 331.207 507.431 323.93 507.431 323.93C507.431 323.93 500.273 326.271 495.942 326.096C493.041 325.98 491.857 324.645 488.929 324.635C484.911 324.62 478.377 327.303 478.377 327.303L481.847 321.127C481.847 321.127 465.5 323.161 458.5 331Z" stroke="black" stroke-opacity="0.2" stroke-width="5"/>
<path d="M341.606 434.483C348.417 455.736 343.579 476.285 330.801 480.38C318.023 484.475 302.143 470.565 295.332 449.312C288.521 428.058 293.359 407.51 306.137 403.415C318.915 399.32 334.795 413.229 341.606 434.483Z" fill="#B7B7B7" stroke="#ACACAC" stroke-width="7"/>
<path d="M190.394 418.906C191.349 438.791 187.895 455.734 173.894 456.406C163.775 456.892 150.849 441.291 149.895 421.406C148.94 401.521 157.598 381.642 167.717 381.156C179.394 378.406 189.44 399.021 190.394 418.906Z" fill="#B7B7B7" stroke="#ACACAC" stroke-width="7"/>
<path d="M226.395 162.392C226.395 162.392 235.711 152.58 242.895 147.892C258.169 137.923 269.68 134.465 287.895 135.392C303.312 136.176 312.225 139.839 325.395 147.892C335.895 154.312 348.895 168.892 348.895 168.892C348.895 168.892 365.267 170.099 370.895 166.72C378.395 162.218 389.334 143.52 394.895 135.392C401.395 125.892 411.895 118.173 419.895 116.221C430.895 113.537 449.109 116.296 462.395 126.22C475.681 136.145 483.198 153.721 483.895 168.892C484.646 185.24 472.395 198.721 465.895 208.892C461.895 215.151 448.425 229.99 439.895 248.22C432.902 263.166 432.395 275.686 427.895 293.186C424.65 305.805 424.288 312.319 412.5 320.392C405.5 325.186 395.895 323.426 392.895 322.22C379.895 316.997 382.895 309.72 382.895 309.72C377.008 313.949 376.166 314.133 369.395 316.72C364.084 318.75 357.991 319.381 352.395 320.392C346.799 321.402 329.395 320.392 322.395 320.392C319.445 339.895 312.561 358.721 303.895 371.392C293.917 385.981 284.25 394.439 271.395 402.892C258.54 411.345 245.395 417.979 235.395 418.892C221.704 420.142 210.395 418.892 200.895 411.892C190.552 404.271 192.395 393.221 180.395 387.892C176.469 386.148 171.395 387.892 171.395 387.892C165.234 389.373 159.803 399.181 153.895 396.892C147.158 394.282 156.961 387.644 154.895 380.721C153.143 374.848 137.395 373.22 145.895 364.892C148.126 362.705 155.317 363.254 158.395 362.72C164.338 361.691 165.406 357.935 171.395 357.22C185.395 355.549 190.652 361.587 200.895 371.392C204.895 375.221 217.592 389.435 230.395 386.221C239.505 383.933 243.861 378.203 247.895 369.721C250.986 363.221 251.395 350.945 251.395 343.72C251.395 336.496 247.395 320.392 247.395 320.392C247.395 320.392 232.064 321.747 222.395 320.392C207.895 318.359 194.895 311.892 194.895 311.892C194.895 311.892 177.781 328.08 166.069 327.22C159.069 326.707 151 323.186 145.569 314.22C140.806 306.358 142.966 302.331 139.205 285.392C134.283 263.219 124.349 248.221 118.895 237.719C109.559 219.744 91.8948 191.72 88.8945 177.219C85.8943 162.717 90.7885 140.606 98.3947 131.392C113.395 113.22 131.5 111.186 142.895 112.219C155.636 113.374 168.5 120.686 176.5 127.686C196.196 144.92 197.395 154.221 209.895 162.392C216.106 166.452 226.395 162.392 226.395 162.392Z" fill="#D9D9D9"/>
<path d="M382.895 309.72C382.895 309.72 379.895 316.997 392.895 322.22C395.895 323.426 405.5 325.186 412.5 320.392C424.288 312.319 424.65 305.805 427.895 293.186C432.395 275.686 432.902 263.166 439.895 248.22C448.425 229.99 461.895 215.151 465.895 208.892C472.395 198.721 484.646 185.24 483.895 168.892C483.198 153.721 475.681 136.145 462.395 126.22C449.109 116.296 430.895 113.537 419.895 116.221C411.895 118.173 401.395 125.892 394.895 135.392C389.334 143.52 378.395 162.218 370.895 166.72C365.267 170.099 348.895 168.892 348.895 168.892C348.895 168.892 335.895 154.312 325.395 147.892C312.225 139.839 303.312 136.176 287.895 135.392C269.68 134.465 258.169 137.923 242.895 147.892C235.711 152.58 226.395 162.392 226.395 162.392C226.395 162.392 216.106 166.452 209.895 162.392C197.395 154.221 196.196 144.92 176.5 127.686C168.5 120.686 155.636 113.374 142.895 112.219C131.5 111.186 113.395 113.22 98.3947 131.392C90.7885 140.606 85.8943 162.717 88.8945 177.219C91.8948 191.72 109.559 219.744 118.895 237.719C124.349 248.221 134.283 263.219 139.205 285.392C142.966 302.331 140.806 306.358 145.569 314.22C151 323.186 159.069 326.707 166.069 327.22C177.781 328.08 194.895 311.892 194.895 311.892M382.895 309.72C377.008 313.949 376.166 314.133 369.395 316.72C364.084 318.75 357.991 319.381 352.395 320.392C346.799 321.402 329.395 320.392 322.395 320.392M382.895 309.72C385.68 307.72 388.895 301.892 388.895 301.892M322.395 320.392C319.445 339.895 312.561 358.721 303.895 371.392C293.917 385.981 284.25 394.439 271.395 402.892C258.54 411.345 245.395 417.979 235.395 418.892C221.704 420.142 210.395 418.892 200.895 411.892C190.552 404.271 192.395 393.221 180.395 387.892C176.469 386.148 171.395 387.892 171.395 387.892C165.234 389.373 159.803 399.181 153.895 396.892C147.158 394.282 156.961 387.644 154.895 380.721C153.143 374.848 137.395 373.22 145.895 364.892C148.126 362.705 155.317 363.254 158.395 362.72C164.338 361.691 165.406 357.935 171.395 357.22C185.395 355.549 190.652 361.587 200.895 371.392C204.895 375.221 217.592 389.435 230.395 386.221C239.505 383.933 243.861 378.203 247.895 369.721C250.986 363.221 251.395 350.945 251.395 343.72C251.395 336.496 247.395 320.392 247.395 320.392M322.395 320.392C324.895 272.22 322.895 318.507 322.895 309.72M194.895 311.892C194.895 311.892 207.895 318.359 222.395 320.392C232.064 321.747 247.395 320.392 247.395 320.392M194.895 311.892C194.895 311.892 189.895 309.169 183.895 301.892M247.395 320.392C247.395 320.392 240.895 289.72 244.395 305.892M183.895 301.892C178.395 295.22 176.073 290.224 174.895 279.72C173.48 267.108 174.411 258.942 178.395 246.892C185.395 225.72 216.395 181.392 216.395 181.392C216.395 181.392 205.079 185.22 196.895 183.256C179.992 179.201 180.294 165.549 171.771 150.399C168.377 144.364 158.749 134.175 148.377 132.07C139.377 130.245 125.808 131.769 117.5 138.892C110.605 144.803 106 155.98 106 165.186C106 174.392 107.077 182.961 112 194.892C117.279 207.686 133.095 230.13 142 251.014C148.302 265.793 148.056 268.827 153 288.186C156.5 301.892 162.5 309.686 169.895 308.72C175.274 308.018 179.105 306.797 183.895 301.892ZM388.895 301.892C388.895 301.892 391.895 295.22 392.895 291.22C394.895 283.22 394.276 273.615 392.895 261.392C389.117 227.959 359.395 185.221 359.395 185.221C359.395 185.221 370.387 185.961 374.895 183.256C381.395 179.356 386.34 173.482 389.895 168.892C396.611 160.221 402.257 146.929 409 140.686C422.5 128.186 437.5 130.186 444.395 132.721C456.012 136.991 461.316 144.721 464.395 151.001C470.412 163.274 470.596 174.8 465.895 186.392C460.895 198.721 438.554 219.302 427.895 244.22C418.934 265.17 418.895 281.72 409.895 299.72C406.887 305.737 400.395 307.615 394.895 305.892L388.895 301.892Z" stroke="#C1C1C1" stroke-width="6"/>
<path d="M217.062 216.513C213.617 220.697 219.036 213.095 226.358 211.626C233.68 210.157 244.822 217.729 238.042 213.814" stroke="#AFAFAF" stroke-width="4"/>
<path d="M325.331 213.679C320.977 216.907 328.073 210.841 335.532 211.185C342.992 211.529 351.974 221.569 346.341 216.132" stroke="#AFAFAF" stroke-width="4"/>
<ellipse cx="15.5154" cy="20.8388" rx="15.5154" ry="20.8388" transform="matrix(-0.998648 0.0519817 0.0519817 0.998648 252.989 221.186)" fill="black" stroke="#504B4F"/>
<path d="M229.185 235.87C230.111 238.095 232.666 239.148 234.891 238.222C237.116 237.296 238.169 234.742 237.243 232.517C236.317 230.292 233.763 229.239 231.538 230.165C229.313 231.091 228.259 233.645 229.185 235.87Z" fill="white" stroke="#504B4F"/>
<ellipse cx="6.41588" cy="3.69444" rx="6.41588" ry="3.69444" transform="matrix(-0.999999 0.00127736 0.00127736 0.999999 248.448 246.147)" fill="white" fill-opacity="0.4"/>
<ellipse cx="15.5154" cy="20.8388" rx="15.5154" ry="20.8388" transform="matrix(-0.999893 -0.014646 -0.014646 0.999893 346.638 222.64)" fill="black" stroke="#504B4F"/>
<path d="M321.909 235.707C322.685 237.988 325.163 239.209 327.445 238.434C329.727 237.658 330.948 235.179 330.172 232.898C329.396 230.616 326.918 229.395 324.636 230.171C322.354 230.946 321.133 233.425 321.909 235.707Z" fill="white" stroke="#504B4F"/>
<ellipse cx="6.41588" cy="3.69444" rx="6.41588" ry="3.69444" transform="matrix(-0.997864 -0.0653278 -0.0653278 0.997864 340.445 247.244)" fill="white" fill-opacity="0.4"/>
<path d="M172 280.686C173.146 290.916 175.151 295.188 180.5 301.686C175.842 306.463 169.72 306.622 167.5 305.686C158.261 301.79 156.199 294.044 154.22 282.907C150.843 263.896 149.669 261.14 143.664 247.035L143.523 246.705C134.863 226.364 120.183 207.746 114.835 194.765C110.047 183.145 109 175.682 109 163.111C109 157.101 112.64 146.7 120.183 140.223C128.263 133.286 135.272 131.567 145.702 133.686C155.789 135.735 166.731 147.019 170.5 153.186C176 162.186 179.352 183.247 196 186.186C204.5 187.686 210 186.186 210 186.186C210 186.186 187 218.186 178 240.186C173.32 251.625 170.624 268.401 172 280.686Z" fill="#FFCAE3"/>
<path d="M396.047 261.815C397.424 273.298 397.848 282.148 396.047 289.686C395.146 293.454 392.5 301.186 392.5 301.186C392.5 301.186 397.5 307.151 404 303.186C410.5 299.22 412.734 286.746 414.5 280.686C420 261.815 417.587 263.681 425.769 243.916C435.501 220.408 459.6 195.736 462.505 187.236C466.434 175.736 467.532 168.517 464 156.186C461.996 149.186 452 136.686 439.5 134.686C431.867 133.464 416.434 134.234 406.934 147.736C401.976 154.783 398.879 161.511 392.693 169.714C389.419 174.057 384.193 180.216 378.193 184.716C374.268 187.66 365 187.686 365 187.686C365 187.686 392.279 230.408 396.047 261.815Z" fill="#FFCAE3"/>
<path d="M264.821 349.708C257.186 353.073 270.061 346.564 279.983 348.254C289.906 349.944 296.679 364.199 291.969 356.351" stroke="#AFAFAF" stroke-width="4"/>
<path d="M268.137 278.234C261.162 284.666 270.5 272.686 285.5 272.686C302.054 272.686 314.105 285.943 303.937 277.895" stroke="#AFAFAF" stroke-width="4"/>
<path d="M266.599 358.267C261.323 360.494 270.229 356.165 277.02 357.432C283.812 358.698 288.308 368.554 285.159 363.117" stroke="#AFAFAF" stroke-width="4"/>
</svg>
