<svg width="600" height="600" viewBox="0 0 600 600" fill="none" xmlns="http://www.w3.org/2000/svg">
<path d="M328.745 87.688C328.3 92.2335 321.728 97.0442 321.728 97.0442C321.728 97.0442 364.469 114.879 379.268 138.211C389.139 153.775 389.952 165.091 393.77 183.121C399.079 208.194 407.967 225.01 397.98 248.614C391.363 264.254 369.912 281.828 369.912 281.828L386.711 307.558C386.711 307.558 405.891 324.681 418.564 339.369C433.732 356.948 440.14 370.723 447.994 393.448C452.757 407.231 448.927 418.844 437.702 422.92C424.529 427.703 398.271 388.992 387.619 372.176C396.28 386.841 414.001 419.99 413.886 445.561C413.797 465.198 416.561 480.358 403.126 494.681C389.837 508.847 375.831 507.35 356.834 511.398C320.488 519.142 296.42 517.642 259.787 511.398C239.052 507.863 224.24 513.374 208.986 498.891C197.786 488.258 194.917 478.674 190.742 463.805C183.655 438.573 196.121 396.909 196.121 396.909C196.121 396.909 187.107 418.784 176.707 429.188C172.498 433.398 164.077 433.866 154.722 429.188C145.366 424.51 150.653 389.845 164.076 364.63C178.829 341.62 188.597 329.078 208.986 307.558L220.213 281.828C220.213 281.828 190.572 262.372 185.128 242.532C180.45 225.488 186.883 214.871 190.742 197.623C197.414 167.793 198.787 146.913 220.213 125.113C235.923 109.129 252.219 110.328 270.269 97.0442C281.744 88.599 283.79 71.0023 297.869 73.186C302.161 73.8515 305.364 74.0748 308.161 77.3963C312.045 82.0075 308.161 92.8339 308.161 92.8339C308.161 92.8339 329.552 79.4417 328.745 87.688Z" fill="#4E6B93"/>
<path d="M275.9 516.269C247.797 513.075 251.025 509.524 251.025 509.524C251.025 509.524 247.696 504.548 241.135 493.999C236.595 486.699 234.576 482.923 231.455 474.67C228.12 465.847 226.668 460.592 224.59 450.487C222.512 440.383 222.315 434.96 221.944 424.793C221.574 414.627 222.762 400.331 222.762 400.331C222.762 400.331 224.146 387.984 225.888 380.535C228.783 368.152 231.481 361.696 236.802 351.632C241.594 342.57 244.785 337.933 251.025 331.432C258.546 323.597 262.973 320.748 272.3 317.083C282.594 313.038 289.263 313.345 300.373 313.345L300.374 313.345C308.874 313.345 317.117 313.345 326.484 317.083C335.964 320.866 341.814 323.483 349.244 331.432C355.422 338.041 360.188 345.143 365.078 355.148C370.791 366.837 373.577 374.177 374.852 386.998C376.178 400.331 376.231 406.086 376.178 418.335C376.13 429.452 376.483 435.774 374.852 446.771C373.341 456.959 372.018 461.403 368.572 472.387C365.125 483.372 364.145 485.213 360.3 491.692C356.769 497.639 353.722 500.917 349.244 504.99C344.869 508.969 341.098 516.269 341.098 516.269C341.098 516.269 329.107 518.517 320.489 518.517C311.871 518.517 309.313 518.743 302.878 518.517C294.073 518.208 304.002 519.462 275.9 516.269Z" fill="#E6E7E9"/>
<path d="M250.176 494.265C255.121 499.032 266.929 513.292 266.929 513.292C266.929 513.292 250.282 520.189 242.77 521.578C226.616 524.566 218.223 525.29 206.499 523.792C195.008 522.323 192.134 521.503 183.471 518.364C176.695 515.91 174.663 513.471 172.16 508.598C170.623 505.604 170.334 501.782 171.219 495.948C172.309 488.754 176.462 483.013 178.843 480.894C183.74 476.537 185.392 475.707 191.454 473.64C201.121 470.344 209.397 471.791 218.519 475.055C225.759 477.645 229.279 479.074 236.155 483.517C241.426 486.923 245.231 489.499 250.176 494.265Z" fill="#504B4F"/>
<path d="M353.892 495.401C349.516 500.335 339.3 514.854 339.3 514.854C339.3 514.854 355.909 520.048 363.263 520.754C379.076 522.274 386.795 522.213 398.94 520.85C410.001 519.609 410.148 519.542 419.802 515.139L419.95 515.071C426.279 512.184 429.346 507.158 431.359 502.322C432.597 499.351 432.657 495.2 431.328 489.728C429.688 482.98 424.017 478.401 421.549 476.582C416.533 472.885 414.853 472.475 409.015 471.049L408.801 470.996C399.216 468.654 391.357 470.706 382.832 474.554C376.066 477.608 372.79 479.254 366.526 484.039C361.725 487.707 358.268 490.466 353.892 495.401Z" fill="#504B4F"/>
<path d="M218.907 245.95C222.151 251.181 224.336 254.279 228.617 258.649C233.087 263.212 235.956 264.977 240.411 269.089C240.411 269.089 249.285 274.603 254.286 277.261C262.609 281.685 263.99 281.725 271.402 284.423C278.206 286.901 282.513 287.628 288.439 287.955C295.52 288.347 299.333 288.023 305.13 287.752C310.926 287.48 318.972 286.244 318.972 286.244C318.972 286.244 326.583 284.73 331.789 283.185C336.995 281.639 340.357 280.467 346.102 276.873C351.776 273.324 354.397 271.028 359.257 266.368C362.807 262.964 364.686 260.283 367.65 256.337L367.774 256.172C371.604 251.073 373.894 248.025 376.719 241.882C378.843 237.263 379.485 234.71 380.881 229.826C382.084 225.616 382.712 223.368 383.085 219.02C383.526 213.885 383.807 212.188 383.265 205.849C382.723 199.51 382.52 196.193 381.122 189.461C379.356 183.612 378.542 180.035 376.599 174.485C376.599 174.485 372.32 164.995 369.277 161.088L369.276 161.087C366.233 157.18 364.929 155.506 361.043 151.927C361.043 151.927 356.376 148.746 353.46 147.365C350.324 145.88 348.196 145.068 344.775 144.445C339.947 143.566 337.063 143.231 332.176 144.023C327.242 144.823 324.239 145.566 320.092 148.495C315.526 151.719 313.43 154.663 310.535 159.501C308.186 163.425 307.346 165.981 306.21 170.407C305.202 174.336 305.369 176.684 305.27 180.721C305.152 185.469 305.28 188.156 305.919 192.84C306.477 196.928 308.091 203.152 308.091 203.152C308.091 203.152 311.998 209.928 312.411 214.81C312.692 218.146 312.538 220.148 311.579 223.383C310.858 225.818 310.317 227.545 309.009 229.723C307.803 231.731 307.09 232.644 305.27 234.093C303.177 235.76 301.939 236.457 299.384 237.117C296.844 237.773 294.88 237.849 292.317 237.448C289.887 237.068 288.53 236.459 286.473 235.118C283.284 233.038 281.492 231.246 279.829 227.764C278.163 224.276 277.873 221.491 278.227 217.714C278.582 213.937 279.112 212.032 280.595 208.057C282.077 204.082 285.367 198.432 285.367 198.432L287.273 186.771C287.273 186.771 287.601 181.549 287.371 176.786C287.141 172.024 286.618 170.764 285.769 166.737C284.921 162.709 282.723 159.709 279.914 156.163C277.488 153.101 275.808 151.716 272.576 149.564C269.715 147.659 267.474 146.211 264.15 145.331C260.621 144.396 258.606 144.22 254.936 144.316C249.423 144.46 246.127 145.384 240.99 147.573C235.326 149.987 232.572 152.6 228.293 157.136C224.151 161.526 221.901 163.948 218.948 169.237C216.223 174.118 214.093 178.778 212.149 184.019C210.587 188.231 209.75 191.032 208.651 195.383C207.27 200.845 207.805 202.544 207.595 208.151L207.59 208.276C207.441 212.242 207.408 213.125 208.353 218.529C209.309 223.99 210.58 226.976 212.006 232.388C212.006 232.388 215.784 240.914 218.907 245.95Z" fill="#EEEEEE"/>
<path d="M273.302 222.848C273.078 223.879 272.966 224.484 273.039 225.537C273.129 226.837 273.62 227.833 274.336 228.921C275.092 230.07 275.91 230.419 277.109 231.093C279.022 232.167 282.528 232.574 282.528 232.574L284.216 236.132C285.247 237.505 285.045 237.927 286.077 239.3C287.108 240.673 288.218 241.719 289.672 242.774C291.427 244.047 292.623 244.581 294.743 245.035C296.5 245.412 298.15 245.386 299.904 244.998C301.761 244.587 303.268 243.567 304.201 242.704C305.133 241.842 305.676 241.492 306.762 240.105C307.848 238.719 308.146 237.907 308.892 236.378C309.554 235.02 310.067 232.693 310.067 232.693C310.067 232.693 312.323 231.829 313.625 231.006C315.158 230.038 315.468 229.793 316.577 228.581C317.489 227.585 318.021 226.355 318.317 224.68C318.612 223.005 318.458 222.099 317.758 220.689C317.26 219.687 316.169 218.481 315.333 217.738C314.451 216.954 312.386 215.956 312.386 215.956C312.386 215.956 312.07 214.031 311.479 212.746C310.782 211.23 310.093 209.849 309.185 208.449C308.251 207.008 307.602 206.52 306.37 205.323C305.15 204.138 304.336 203.57 302.817 202.804C301.32 202.049 300.376 201.83 298.742 201.455C297.044 201.065 296.058 200.801 294.319 200.886C292.419 200.978 291.332 201.287 289.59 202.051C287.468 202.982 286.421 203.886 284.772 205.515C283.092 207.175 282.391 208.369 281.206 210.388L281.167 210.454C279.816 212.756 278.384 216.696 278.384 216.696C278.384 216.696 276.493 217.72 275.606 218.731C274.396 220.111 273.693 221.056 273.302 222.848Z" fill="black"/>
<path d="M280.517 219.553C278.795 221.588 276.484 224.816 276.484 224.816C276.484 224.816 281.13 228.428 284.878 229.631C288.113 230.67 290.613 231.523 294.008 231.622C297.507 231.725 298.783 231.65 302.187 230.853C304.882 230.223 306.222 229.657 308.722 228.477C311.249 227.284 314.333 223.869 314.333 223.869C314.333 223.869 312.055 221.5 309.955 218.816C308.373 216.793 308.374 214.573 307.056 212.176C306.14 210.512 305.38 208.579 302.596 206.446C300.798 205.069 297.982 204.138 295.496 204.032C293.011 203.926 290.797 204.424 288.631 206.3C286.466 208.176 285.23 209.902 283.766 213.016C282.302 216.13 282.414 217.311 280.517 219.553Z" fill="#F9B026"/>
<ellipse cx="11.8322" cy="15.1638" rx="11.8322" ry="15.1638" transform="matrix(0.998166 0.0605347 -0.0665132 0.997786 333.962 176.417)" fill="black"/>
<ellipse cx="11.8322" cy="15.1638" rx="11.8322" ry="15.1638" transform="matrix(0.998166 0.0605347 -0.0665132 0.997786 239.697 176.708)" fill="black"/>
<ellipse cx="3.30493" cy="3.19915" rx="3.30493" ry="3.19915" transform="matrix(0.925305 0.379223 -0.410731 0.911756 248.55 196.373)" fill="white"/>
<ellipse cx="3.30493" cy="3.19915" rx="3.30493" ry="3.19915" transform="matrix(0.925305 0.379223 -0.410731 0.911756 342.952 195.901)" fill="white"/>
</svg>
