<svg width="600" height="600" viewBox="0 0 600 600" fill="none" xmlns="http://www.w3.org/2000/svg">
<path d="M262.575 306.914C246.11 316.438 236.875 317.198 220.41 306.914C220.41 306.914 225.275 297.463 224.735 276.849C224.194 256.235 220.98 240.957 203.112 216.02C193.204 206.862 187.214 205.128 175.543 209.727C175.543 209.727 183.063 225.921 180.408 239.093C180.408 239.093 167 266 171.218 285.239C175.437 304.478 184 306.914 184 306.914C184 306.914 167.334 310.343 159.866 317.401C148.186 328.442 149.262 343.844 149.595 357.255C145.869 363.74 142.645 366.628 135 370.539C144.82 380.678 148.755 383.714 159.866 384.523C172.663 385.454 181.088 377.227 189.598 370.539C199.063 361.197 203.347 354.977 207.437 340.475C233.973 361.651 250.629 370.259 288.522 370.539C288.522 370.539 277.711 393.613 265.818 408.296C256.154 420.227 272.846 422.978 299.874 412.49C326.903 402.003 362.581 370.539 362.581 370.539C362.581 370.539 414.475 384.523 444.747 346.767C475.02 309.011 471.306 230.204 433.936 196.443C405.899 171.113 366.905 178.21 346.363 196.443C325.822 214.675 262.575 306.914 262.575 306.914Z" fill="#4ACBF3"/>
<path d="M262.575 306.914C246.11 316.438 236.875 317.198 220.41 306.914C220.41 306.914 225.275 297.463 224.735 276.849C224.194 256.235 220.98 240.957 203.112 216.02C193.204 206.862 187.214 205.128 175.543 209.727C175.543 209.727 183.063 225.921 180.408 239.093C180.408 239.093 167 266 171.218 285.239C175.437 304.478 184 306.914 184 306.914C184 306.914 167.334 310.343 159.866 317.401C148.186 328.442 149.262 343.844 149.595 357.255C145.869 363.74 142.645 366.628 135 370.539C144.82 380.678 148.755 383.714 159.866 384.523C172.663 385.454 181.088 377.227 189.598 370.539C199.063 361.197 203.347 354.977 207.437 340.475C233.973 361.651 250.629 370.259 288.522 370.539C288.522 370.539 277.711 393.613 265.818 408.296C256.154 420.227 272.846 422.978 299.874 412.49C326.903 402.003 362.581 370.539 362.581 370.539C362.581 370.539 414.475 384.523 444.747 346.767C475.02 309.011 471.306 230.204 433.936 196.443C405.899 171.113 366.905 178.21 346.363 196.443C325.822 214.675 262.575 306.914 262.575 306.914Z" stroke="#4ACBF3" stroke-width="5"/>
<path d="M262.575 306.914C246.11 316.438 236.875 317.198 220.41 306.914C220.41 306.914 225.275 297.463 224.735 276.849C224.194 256.235 220.98 240.957 203.112 216.02C193.204 206.862 187.214 205.128 175.543 209.727C175.543 209.727 183.063 225.921 180.408 239.093C180.408 239.093 167 266 171.218 285.239C175.437 304.478 184 306.914 184 306.914C184 306.914 167.334 310.343 159.866 317.401C148.186 328.442 149.262 343.844 149.595 357.255C145.869 363.74 142.645 366.628 135 370.539C144.82 380.678 148.755 383.714 159.866 384.523C172.663 385.454 181.088 377.227 189.598 370.539C199.063 361.197 203.347 354.977 207.437 340.475C233.973 361.651 250.629 370.259 288.522 370.539C288.522 370.539 277.711 393.613 265.818 408.296C256.154 420.227 272.846 422.978 299.874 412.49C326.903 402.003 362.581 370.539 362.581 370.539C362.581 370.539 414.475 384.523 444.747 346.767C475.02 309.011 471.306 230.204 433.936 196.443C405.899 171.113 366.905 178.21 346.363 196.443C325.822 214.675 262.575 306.914 262.575 306.914Z" stroke="black" stroke-opacity="0.2" stroke-width="5"/>
<path d="M404 194C404 196.209 398.18 198 391 198C383.82 198 378 196.209 378 194C378 191.791 383.82 190 391 190C398.18 190 404 191.791 404 194Z" fill="black"/>
<path d="M404 194C404 196.209 398.18 198 391 198C383.82 198 378 196.209 378 194C378 191.791 383.82 190 391 190C398.18 190 404 191.791 404 194Z" stroke="#4ACBF3"/>
<path d="M404 194C404 196.209 398.18 198 391 198C383.82 198 378 196.209 378 194C378 191.791 383.82 190 391 190C398.18 190 404 191.791 404 194Z" stroke="black" stroke-opacity="0.2"/>
<ellipse cx="402" cy="323.5" rx="11" ry="9.5" fill="black"/>
<ellipse cx="402" cy="323.5" rx="11" ry="9.5" stroke="#4ACBF3"/>
<ellipse cx="402" cy="323.5" rx="11" ry="9.5" stroke="black" stroke-opacity="0.2"/>
<circle cx="404.5" cy="320.5" r="2.5" fill="white"/>
<circle cx="404.5" cy="320.5" r="2.5" stroke="#4ACBF3"/>
<circle cx="404.5" cy="320.5" r="2.5" stroke="black" stroke-opacity="0.2"/>
</svg>
