<svg width="600" height="600" viewBox="0 0 600 600" fill="none" xmlns="http://www.w3.org/2000/svg">
<ellipse cx="385.109" cy="163.941" rx="25.9201" ry="36.7502" transform="rotate(26.198 385.109 163.941)" fill="#A7ADB1"/>
<ellipse cx="385.109" cy="163.941" rx="25.9201" ry="36.7502" transform="rotate(26.198 385.109 163.941)" stroke="#A7ADB1" stroke-width="6"/>
<ellipse cx="385.109" cy="163.941" rx="25.9201" ry="36.7502" transform="rotate(26.198 385.109 163.941)" stroke="black" stroke-opacity="0.2" stroke-width="6"/>
<ellipse cx="381.915" cy="166.804" rx="10.4134" ry="21.8394" transform="rotate(35.6493 381.915 166.804)" fill="#DDEDFA"/>
<ellipse cx="25.9201" cy="36.7502" rx="25.9201" ry="36.7502" transform="matrix(-0.897273 0.441475 0.441475 0.897273 197.787 116.804)" fill="#A7ADB1"/>
<ellipse cx="25.9201" cy="36.7502" rx="25.9201" ry="36.7502" transform="matrix(-0.897273 0.441475 0.441475 0.897273 197.787 116.804)" stroke="#A7ADB1" stroke-width="6"/>
<ellipse cx="25.9201" cy="36.7502" rx="25.9201" ry="36.7502" transform="matrix(-0.897273 0.441475 0.441475 0.897273 197.787 116.804)" stroke="black" stroke-opacity="0.2" stroke-width="6"/>
<ellipse cx="10.4134" cy="21.8394" rx="10.4134" ry="21.8394" transform="matrix(-0.8126 0.582822 0.582822 0.8126 189.681 140.269)" fill="#DDEDFA"/>
<path d="M397.881 341.88C393.544 372.348 361.246 348.647 323.746 418.587" stroke="#A7ADB1" stroke-width="10" stroke-linecap="round"/>
<path d="M397.881 341.88C393.544 372.348 361.246 348.647 323.746 418.587" stroke="black" stroke-opacity="0.2" stroke-width="10" stroke-linecap="round"/>
<path d="M383.516 329.573C383.448 337.679 383.883 343.744 389.702 349.388C395.271 354.787 400.99 355.978 408.704 355.167C416.637 354.333 420.793 350.686 426.46 345.074C431.621 339.963 436.193 329.226 436.193 329.226L442.418 318.99L428.44 319.483C428.44 319.483 433.671 310.157 435.29 303.599C437.221 295.775 436.21 282.985 436.21 282.985C436.21 282.985 429.645 291.467 423.866 294.808C419.995 297.046 416.955 296.51 413.17 298.89C407.977 302.156 402.603 310.514 402.603 310.514L400.062 300.724C400.062 300.724 383.624 316.586 383.516 329.573Z" fill="#A7ADB1"/>
<path d="M383.516 329.573C383.448 337.679 383.883 343.744 389.702 349.388C395.271 354.787 400.99 355.978 408.704 355.167C416.637 354.333 420.793 350.686 426.46 345.074C431.621 339.963 436.193 329.226 436.193 329.226L442.418 318.99L428.44 319.483C428.44 319.483 433.671 310.157 435.29 303.599C437.221 295.775 436.21 282.985 436.21 282.985C436.21 282.985 429.645 291.467 423.866 294.808C419.995 297.046 416.955 296.51 413.17 298.89C407.977 302.156 402.603 310.514 402.603 310.514L400.062 300.724C400.062 300.724 383.624 316.586 383.516 329.573Z" stroke="#A7ADB1" stroke-width="5"/>
<path d="M383.516 329.573C383.448 337.679 383.883 343.744 389.702 349.388C395.271 354.787 400.99 355.978 408.704 355.167C416.637 354.333 420.793 350.686 426.46 345.074C431.621 339.963 436.193 329.226 436.193 329.226L442.418 318.99L428.44 319.483C428.44 319.483 433.671 310.157 435.29 303.599C437.221 295.775 436.21 282.985 436.21 282.985C436.21 282.985 429.645 291.467 423.866 294.808C419.995 297.046 416.955 296.51 413.17 298.89C407.977 302.156 402.603 310.514 402.603 310.514L400.062 300.724C400.062 300.724 383.624 316.586 383.516 329.573Z" stroke="black" stroke-opacity="0.2" stroke-width="5"/>
<path d="M225.342 308.075C223.741 312.54 196.675 389.06 218.556 421.883C242.302 457.502 335.593 462.025 354.816 421.883C374.038 381.74 348.033 311.482 346.335 308.075C346.335 308.075 226.69 304.314 225.342 308.075Z" fill="#A7ADB1"/>
<path d="M225.342 308.075C223.741 312.54 196.675 389.06 218.556 421.883C242.302 457.502 335.593 462.025 354.816 421.883C374.038 381.74 348.033 311.482 346.335 308.075C346.335 308.075 226.69 304.314 225.342 308.075Z" stroke="#A7ADB1" stroke-width="5"/>
<path d="M225.342 308.075C223.741 312.54 196.675 389.06 218.556 421.883C242.302 457.502 335.593 462.025 354.816 421.883C374.038 381.74 348.033 311.482 346.335 308.075C346.335 308.075 226.69 304.314 225.342 308.075Z" stroke="black" stroke-opacity="0.2" stroke-width="5"/>
<path d="M331.069 381.74C331.069 419.835 310.818 446.317 285.838 446.317C260.857 446.317 240.607 419.835 240.607 381.74C240.607 343.644 265.031 321.27 285.838 312.762C305.739 321.878 331.069 343.644 331.069 381.74Z" fill="#E0EDF7"/>
<path d="M397.643 242.778C397.643 302.731 348.029 330.978 286.827 330.978C225.625 330.978 176.011 302.731 176.011 242.778C176.011 182.825 225.625 134.223 286.827 134.223C348.029 134.223 397.643 182.825 397.643 242.778Z" fill="#A7ADB1"/>
<path d="M397.643 242.778C397.643 302.731 348.029 330.978 286.827 330.978C225.625 330.978 176.011 302.731 176.011 242.778C176.011 182.825 225.625 134.223 286.827 134.223C348.029 134.223 397.643 182.825 397.643 242.778Z" stroke="#A7ADB1" stroke-width="5"/>
<path d="M397.643 242.778C397.643 302.731 348.029 330.978 286.827 330.978C225.625 330.978 176.011 302.731 176.011 242.778C176.011 182.825 225.625 134.223 286.827 134.223C348.029 134.223 397.643 182.825 397.643 242.778Z" stroke="black" stroke-opacity="0.2" stroke-width="5"/>
<ellipse cx="20.662" cy="24.4302" rx="20.662" ry="24.4302" transform="matrix(-0.953838 0.300322 0.215795 0.976439 347.341 179.07)" fill="black" stroke="#504B4F"/>
<ellipse cx="5.87853" cy="5.03823" rx="5.87853" ry="5.03823" transform="matrix(-0.82516 0.564899 0.575712 0.817653 327.718 193.136)" fill="white" stroke="#504B4F"/>
<ellipse cx="20.662" cy="24.4302" rx="20.662" ry="24.4302" transform="matrix(-0.953838 0.300322 0.215795 0.976439 253.196 177.932)" fill="black" stroke="#504B4F"/>
<ellipse cx="5.87853" cy="5.03823" rx="5.87853" ry="5.03823" transform="matrix(-0.82516 0.564899 0.575712 0.817653 233.574 191.997)" fill="white" stroke="#504B4F"/>
<path d="M240.24 372.252C240.219 365.068 240.64 359.538 241.936 354.725C241.936 354.725 266.815 376.775 264.554 380.732C262.615 384.125 240.24 372.252 240.24 372.252Z" fill="#A7ADB1"/>
<path d="M234.811 345.678C234.811 345.678 276.224 378.012 265.342 382.994C257.723 386.481 226.896 368.294 226.896 368.294" stroke="#A7ADB1" stroke-width="5"/>
<path d="M234.811 345.678C234.811 345.678 276.224 378.012 265.342 382.994C257.723 386.481 226.896 368.294 226.896 368.294" stroke="black" stroke-opacity="0.2" stroke-width="5"/>
<path d="M331.843 375.644C331.864 368.46 331.443 362.93 330.147 358.117C330.147 358.117 305.268 380.167 307.529 384.125C309.468 387.517 331.843 375.644 331.843 375.644Z" fill="#A7ADB1"/>
<path d="M337.272 349.071C337.272 349.071 295.859 381.405 306.741 386.386C314.36 389.874 345.188 371.686 345.188 371.686" stroke="#A7ADB1" stroke-width="5"/>
<path d="M337.272 349.071C337.272 349.071 295.859 381.405 306.741 386.386C314.36 389.874 345.188 371.686 345.188 371.686" stroke="black" stroke-opacity="0.2" stroke-width="5"/>
<path d="M376.177 445.719C366.755 467.159 345.212 478.429 328.06 470.891C310.908 463.353 304.642 439.862 314.064 418.422C323.487 396.982 345.03 385.712 362.182 393.25C379.334 400.788 385.6 424.279 376.177 445.719Z" fill="#A7ADB1"/>
<path d="M376.177 445.719C366.755 467.159 345.212 478.429 328.06 470.891C310.908 463.353 304.642 439.862 314.064 418.422C323.487 396.982 345.03 385.712 362.182 393.25C379.334 400.788 385.6 424.279 376.177 445.719Z" stroke="#A7ADB1" stroke-width="5"/>
<path d="M376.177 445.719C366.755 467.159 345.212 478.429 328.06 470.891C310.908 463.353 304.642 439.862 314.064 418.422C323.487 396.982 345.03 385.712 362.182 393.25C379.334 400.788 385.6 424.279 376.177 445.719Z" stroke="black" stroke-opacity="0.2" stroke-width="5"/>
<path d="M364.486 444.034C358.204 458.327 343.843 465.84 332.408 460.815C320.973 455.79 316.796 440.129 323.077 425.835C329.359 411.542 343.721 404.029 355.156 409.054C366.59 414.079 370.768 429.74 364.486 444.034Z" fill="#E0EDF7" stroke="#A7ADB1"/>
<path d="M195.333 445.719C204.755 467.159 226.298 478.429 243.45 470.891C260.602 463.353 266.868 439.862 257.446 418.422C248.024 396.982 226.481 385.712 209.329 393.25C192.177 400.788 185.911 424.279 195.333 445.719Z" fill="#A7ADB1"/>
<path d="M195.333 445.719C204.755 467.159 226.298 478.429 243.45 470.891C260.602 463.353 266.868 439.862 257.446 418.422C248.024 396.982 226.481 385.712 209.329 393.25C192.177 400.788 185.911 424.279 195.333 445.719Z" stroke="#A7ADB1" stroke-width="5"/>
<path d="M195.333 445.719C204.755 467.159 226.298 478.429 243.45 470.891C260.602 463.353 266.868 439.862 257.446 418.422C248.024 396.982 226.481 385.712 209.329 393.25C192.177 400.788 185.911 424.279 195.333 445.719Z" stroke="black" stroke-opacity="0.2" stroke-width="5"/>
<path d="M207.024 444.034C213.306 458.327 227.668 465.84 239.102 460.815C250.537 455.79 254.715 440.129 248.433 425.835C242.151 411.542 227.79 404.029 216.355 409.054C204.92 414.079 200.743 429.74 207.024 444.034Z" fill="#E0EDF7" stroke="#A7ADB1"/>
<ellipse cx="289.085" cy="293.097" rx="79.1543" ry="54.8426" fill="#A7ADB1"/>
<ellipse cx="289.085" cy="293.097" rx="79.1543" ry="54.8426" stroke="#A7ADB1" stroke-width="5"/>
<ellipse cx="289.085" cy="293.097" rx="79.1543" ry="54.8426" stroke="black" stroke-opacity="0.2" stroke-width="5"/>
<path d="M267.429 312.762C267.429 312.762 274.035 318.523 278.971 318.052C283.075 317.661 288.108 312.762 288.108 312.762C288.108 312.762 293.13 317.8 297.245 318.052C301.856 318.334 307.825 312.762 307.825 312.762" stroke="#636567" stroke-width="5" stroke-linecap="round"/>
<path d="M284.946 281.562C285.732 285.156 276.795 283.344 273.685 284.024C270.575 284.704 263.25 285.766 262.464 282.172C261.678 278.578 262.38 274.295 271.138 272.379C279.897 270.464 284.16 277.968 284.946 281.562Z" fill="#636567"/>
<path d="M290.563 281.562C289.777 285.156 298.714 283.344 301.823 284.024C304.933 284.704 312.259 285.766 313.045 282.172C313.831 278.578 313.128 274.295 304.37 272.379C295.612 270.464 291.349 277.968 290.563 281.562Z" fill="#636567"/>
<path d="M278.782 203.227C281.37 194.721 293.414 194.721 296.002 203.227L311.342 253.639C312.267 256.679 311.542 260.005 309.304 262.262C293.297 278.406 282.66 278.584 265.681 262.281C263.329 260.023 262.538 256.611 263.487 253.491L278.782 203.227Z" fill="#F8EAEA"/>
<path d="M278.782 203.227C281.37 194.721 293.414 194.721 296.002 203.227L311.342 253.639C312.267 256.679 311.542 260.005 309.304 262.262C293.297 278.406 282.66 278.584 265.681 262.281C263.329 260.023 262.538 256.611 263.487 253.491L278.782 203.227Z" stroke="#F8EAEA" stroke-width="2"/>
<path d="M278.782 203.227C281.37 194.721 293.414 194.721 296.002 203.227L311.342 253.639C312.267 256.679 311.542 260.005 309.304 262.262C293.297 278.406 282.66 278.584 265.681 262.281C263.329 260.023 262.538 256.611 263.487 253.491L278.782 203.227Z" stroke="black" stroke-opacity="0.2" stroke-width="2"/>
<path d="M251.119 174.552C251.119 178.622 241.115 174.552 237.299 174.552C233.483 174.552 224.631 173.967 224.631 169.896C224.631 165.826 226.551 161.362 237.299 161.362C248.048 161.362 251.119 170.481 251.119 174.552Z" fill="#8D9195"/>
<path d="M320.05 174.552C320.05 178.622 330.054 174.552 333.87 174.552C337.686 174.552 346.538 173.967 346.538 169.896C346.538 165.826 344.618 161.362 333.87 161.362C323.121 161.362 320.05 170.481 320.05 174.552Z" fill="#8D9195"/>
</svg>
