<svg width="600" height="600" viewBox="0 0 600 600" fill="none" xmlns="http://www.w3.org/2000/svg">
<path d="M342.165 174.166C339.286 186.48 342.165 206.574 342.165 206.574L359.573 233.09C359.573 233.09 391.932 241.707 409.476 233.09C419.323 228.254 424.002 223.366 430.946 214.824C440.662 202.87 445.004 194.128 447.193 178.88C449.27 164.419 450.403 154.005 442.551 141.758C434.407 129.057 424.214 124.704 409.476 122.313C388.863 118.97 374.282 126.718 359.573 141.758C349.569 151.987 345.444 160.14 342.165 174.166Z" fill="#565656"/>
<path d="M342.165 174.166C339.286 186.48 342.165 206.574 342.165 206.574L359.573 233.09C359.573 233.09 391.932 241.707 409.476 233.09C419.323 228.254 424.002 223.366 430.946 214.824C440.662 202.87 445.004 194.128 447.193 178.88C449.27 164.419 450.403 154.005 442.551 141.758C434.407 129.057 424.214 124.704 409.476 122.313C388.863 118.97 374.282 126.718 359.573 141.758C349.569 151.987 345.444 160.14 342.165 174.166Z" stroke="#565656" stroke-width="5"/>
<path d="M342.165 174.166C339.286 186.48 342.165 206.574 342.165 206.574L359.573 233.09C359.573 233.09 391.932 241.707 409.476 233.09C419.323 228.254 424.002 223.366 430.946 214.824C440.662 202.87 445.004 194.128 447.193 178.88C449.27 164.419 450.403 154.005 442.551 141.758C434.407 129.057 424.214 124.704 409.476 122.313C388.863 118.97 374.282 126.718 359.573 141.758C349.569 151.987 345.444 160.14 342.165 174.166Z" stroke="black" stroke-opacity="0.2" stroke-width="5"/>
<path d="M341.845 190.601C339.686 199.696 341.845 214.537 341.845 214.537L354.901 234.121C354.901 234.121 379.17 240.485 392.328 234.121C399.713 230.549 403.217 226.964 408.431 220.63C415.68 211.822 418.978 205.372 420.616 194.083C422.166 183.401 423.024 175.71 417.135 166.665C411.027 157.284 403.382 154.069 392.328 152.304C376.869 149.834 365.933 155.557 354.901 166.665C347.398 174.22 344.305 180.241 341.845 190.601Z" fill="#E8A89F"/>
<path d="M341.845 190.601C339.686 199.696 341.845 214.537 341.845 214.537L354.901 234.121C354.901 234.121 379.17 240.485 392.328 234.121C399.713 230.549 403.217 226.964 408.431 220.63C415.68 211.822 418.978 205.372 420.616 194.083C422.166 183.401 423.024 175.71 417.135 166.665C411.027 157.284 403.382 154.069 392.328 152.304C376.869 149.834 365.933 155.557 354.901 166.665C347.398 174.22 344.305 180.241 341.845 190.601Z" stroke="#565656" stroke-width="5"/>
<path d="M341.845 190.601C339.686 199.696 341.845 214.537 341.845 214.537L354.901 234.121C354.901 234.121 379.17 240.485 392.328 234.121C399.713 230.549 403.217 226.964 408.431 220.63C415.68 211.822 418.978 205.372 420.616 194.083C422.166 183.401 423.024 175.71 417.135 166.665C411.027 157.284 403.382 154.069 392.328 152.304C376.869 149.834 365.933 155.557 354.901 166.665C347.398 174.22 344.305 180.241 341.845 190.601Z" stroke="black" stroke-opacity="0.2" stroke-width="5"/>
<path d="M256.578 166.618C259.457 178.932 256.578 199.026 256.578 199.026L239.17 225.542C239.17 225.542 206.811 234.159 189.267 225.542C179.42 220.706 174.741 215.818 167.798 207.276C158.082 195.322 153.734 186.617 151.55 171.332C149.483 156.87 148.239 146.465 156.192 134.21C164.349 121.641 174.475 117.151 189.267 114.765C209.916 111.435 224.461 119.17 239.17 134.21C249.174 144.439 253.299 152.591 256.578 166.618Z" fill="#565656"/>
<path d="M256.578 166.618C259.457 178.932 256.578 199.026 256.578 199.026L239.17 225.542C239.17 225.542 206.811 234.159 189.267 225.542C179.42 220.706 174.741 215.818 167.798 207.276C158.082 195.322 153.734 186.617 151.55 171.332C149.483 156.87 148.239 146.465 156.192 134.21C164.349 121.641 174.475 117.151 189.267 114.765C209.916 111.435 224.461 119.17 239.17 134.21C249.174 144.439 253.299 152.591 256.578 166.618Z" stroke="#565656" stroke-width="5"/>
<path d="M256.578 166.618C259.457 178.932 256.578 199.026 256.578 199.026L239.17 225.542C239.17 225.542 206.811 234.159 189.267 225.542C179.42 220.706 174.741 215.818 167.798 207.276C158.082 195.322 153.734 186.617 151.55 171.332C149.483 156.87 148.239 146.465 156.192 134.21C164.349 121.641 174.475 117.151 189.267 114.765C209.916 111.435 224.461 119.17 239.17 134.21C249.174 144.439 253.299 152.591 256.578 166.618Z" stroke="black" stroke-opacity="0.2" stroke-width="5"/>
<path d="M256.898 183.053C259.057 192.148 256.898 206.989 256.898 206.989L243.842 226.573C243.842 226.573 219.573 232.937 206.415 226.573C199.03 223.001 195.526 219.416 190.313 213.082C183.063 204.274 179.765 197.824 178.127 186.535C176.577 175.854 175.72 168.162 181.609 159.117C187.716 149.737 195.361 146.522 206.415 144.756C221.874 142.286 232.81 148.009 243.842 159.117C251.345 166.672 254.439 172.694 256.898 183.053Z" fill="#E8A89F"/>
<path d="M256.898 183.053C259.057 192.148 256.898 206.989 256.898 206.989L243.842 226.573C243.842 226.573 219.573 232.937 206.415 226.573C199.03 223.001 195.526 219.416 190.313 213.082C183.063 204.274 179.765 197.824 178.127 186.535C176.577 175.854 175.72 168.162 181.609 159.117C187.716 149.737 195.361 146.522 206.415 144.756C221.874 142.286 232.81 148.009 243.842 159.117C251.345 166.672 254.439 172.694 256.898 183.053Z" stroke="#565656" stroke-width="5"/>
<path d="M256.898 183.053C259.057 192.148 256.898 206.989 256.898 206.989L243.842 226.573C243.842 226.573 219.573 232.937 206.415 226.573C199.03 223.001 195.526 219.416 190.313 213.082C183.063 204.274 179.765 197.824 178.127 186.535C176.577 175.854 175.72 168.162 181.609 159.117C187.716 149.737 195.361 146.522 206.415 144.756C221.874 142.286 232.81 148.009 243.842 159.117C251.345 166.672 254.439 172.694 256.898 183.053Z" stroke="black" stroke-opacity="0.2" stroke-width="5"/>
<path d="M319.835 462.359C319.043 460.381 321.726 460.541 321.726 460.541L319.835 462.359C320.268 463.439 321.734 465.154 325.234 467.879L333.18 469.907C349.037 470.125 378.683 458.135 384.172 452.856C390.843 446.44 404.921 447.006 413.413 437.233C419.88 429.789 422.136 424.037 424.173 414.389C425.795 406.707 426.328 401.961 424.653 394.29C421.042 377.76 408.198 373.323 395.114 362.594C392.628 360.555 388.617 357.536 388.617 357.536C388.617 357.536 402.385 359.279 410.428 362.744C422.241 367.833 430.397 371.61 436.418 382.976C439.332 388.479 441.182 391.987 442.243 398.122C444.133 409.046 443.629 416.194 439.903 426.635C437.67 432.891 435.331 436.037 431.388 441.34L431.311 441.442C425.511 449.243 421.584 453.498 413.37 458.696C408.449 461.81 405.329 462.987 399.902 465.102C391.804 468.256 386.859 468.841 378.412 470.891C371.842 472.486 368.256 474.154 361.513 474.646C350.667 475.437 334.037 470.125 334.037 470.125L333.18 469.907C329.766 469.86 326.991 469.247 325.234 467.879L316.432 465.633L319.835 462.359Z" fill="#FEB7EB"/>
<path d="M321.726 460.541C321.726 460.541 315.318 460.159 325.234 467.879C335.151 475.599 377.501 459.271 384.172 452.856C390.843 446.44 404.921 447.006 413.413 437.233C419.88 429.789 422.136 424.037 424.173 414.389C425.795 406.707 426.328 401.961 424.653 394.29C421.042 377.76 408.198 373.323 395.114 362.594C392.628 360.555 388.617 357.536 388.617 357.536C388.617 357.536 402.385 359.279 410.428 362.744C422.241 367.833 430.397 371.61 436.418 382.976C439.332 388.479 441.182 391.987 442.243 398.122C444.133 409.046 443.629 416.194 439.903 426.635C437.656 432.931 435.301 436.077 431.311 441.442C425.511 449.243 421.584 453.498 413.37 458.696C408.449 461.81 405.329 462.987 399.902 465.102C391.804 468.256 386.859 468.841 378.412 470.891C371.842 472.486 368.256 474.154 361.513 474.646C350.667 475.437 334.037 470.125 334.037 470.125L316.432 465.633L321.726 460.541Z" stroke="#FEB7EB" stroke-width="5"/>
<path d="M321.726 460.541C321.726 460.541 315.318 460.159 325.234 467.879C335.151 475.599 377.501 459.271 384.172 452.856C390.843 446.44 404.921 447.006 413.413 437.233C419.88 429.789 422.136 424.037 424.173 414.389C425.795 406.707 426.328 401.961 424.653 394.29C421.042 377.76 408.198 373.323 395.114 362.594C392.628 360.555 388.617 357.536 388.617 357.536C388.617 357.536 402.385 359.279 410.428 362.744C422.241 367.833 430.397 371.61 436.418 382.976C439.332 388.479 441.182 391.987 442.243 398.122C444.133 409.046 443.629 416.194 439.903 426.635C437.656 432.931 435.301 436.077 431.311 441.442C425.511 449.243 421.584 453.498 413.37 458.696C408.449 461.81 405.329 462.987 399.902 465.102C391.804 468.256 386.859 468.841 378.412 470.891C371.842 472.486 368.256 474.154 361.513 474.646C350.667 475.437 334.037 470.125 334.037 470.125L316.432 465.633L321.726 460.541Z" stroke="black" stroke-opacity="0.2" stroke-width="5"/>
<path d="M373.907 377.887C365.582 380.469 356.116 391.366 356.116 391.366L351.803 464.689C351.803 464.689 377.993 454.891 393.316 445.819C396.735 443.795 398.969 443.062 401.943 440.427C413.42 430.257 415.076 414.805 411.108 399.992C408.296 389.493 403.282 382.227 393.316 377.887C386.367 374.861 381.147 375.642 373.907 377.887Z" fill="#565656"/>
<path d="M373.907 377.887C365.582 380.469 356.116 391.366 356.116 391.366L351.803 464.689C351.803 464.689 377.993 454.891 393.316 445.819C396.735 443.795 398.969 443.062 401.943 440.427C413.42 430.257 415.076 414.805 411.108 399.992C408.296 389.493 403.282 382.227 393.316 377.887C386.367 374.861 381.147 375.642 373.907 377.887Z" stroke="#565656" stroke-width="5"/>
<path d="M373.907 377.887C365.582 380.469 356.116 391.366 356.116 391.366L351.803 464.689C351.803 464.689 377.993 454.891 393.316 445.819C396.735 443.795 398.969 443.062 401.943 440.427C413.42 430.257 415.076 414.805 411.108 399.992C408.296 389.493 403.282 382.227 393.316 377.887C386.367 374.861 381.147 375.642 373.907 377.887Z" stroke="black" stroke-opacity="0.2" stroke-width="5"/>
<path d="M232.441 377.887C240.766 380.469 250.232 391.366 250.232 391.366L254.545 464.689C254.545 464.689 228.356 454.891 213.032 445.819C209.613 443.795 207.379 443.062 204.405 440.427C192.928 430.257 191.272 414.805 195.24 399.992C198.052 389.493 203.067 382.227 213.032 377.887C219.981 374.861 225.201 375.642 232.441 377.887Z" fill="#565656"/>
<path d="M232.441 377.887C240.766 380.469 250.232 391.366 250.232 391.366L254.545 464.689C254.545 464.689 228.356 454.891 213.032 445.819C209.613 443.795 207.379 443.062 204.405 440.427C192.928 430.257 191.272 414.805 195.24 399.992C198.052 389.493 203.067 382.227 213.032 377.887C219.981 374.861 225.201 375.642 232.441 377.887Z" stroke="#565656" stroke-width="5"/>
<path d="M232.441 377.887C240.766 380.469 250.232 391.366 250.232 391.366L254.545 464.689C254.545 464.689 228.356 454.891 213.032 445.819C209.613 443.795 207.379 443.062 204.405 440.427C192.928 430.257 191.272 414.805 195.24 399.992C198.052 389.493 203.067 382.227 213.032 377.887C219.981 374.861 225.201 375.642 232.441 377.887Z" stroke="black" stroke-opacity="0.2" stroke-width="5"/>
<path d="M413.077 482.291C378.417 479.633 321.476 473.786 321.476 473.786C321.476 473.786 351.74 462.007 373.466 459.434C391.216 457.333 406.523 454.006 423.955 457.014C437.984 459.434 450.223 464.673 448.561 473.786C446.837 483.245 427.759 483.417 413.077 482.291Z" fill="#565656"/>
<path d="M413.077 482.291C378.417 479.633 321.476 473.786 321.476 473.786C321.476 473.786 351.74 462.007 373.466 459.434C391.216 457.333 406.523 454.006 423.955 457.014C437.984 459.434 450.223 464.673 448.561 473.786C446.837 483.245 427.759 483.417 413.077 482.291Z" stroke="#565656" stroke-width="5"/>
<path d="M413.077 482.291C378.417 479.633 321.476 473.786 321.476 473.786C321.476 473.786 351.74 462.007 373.466 459.434C391.216 457.333 406.523 454.006 423.955 457.014C437.984 459.434 450.223 464.673 448.561 473.786C446.837 483.245 427.759 483.417 413.077 482.291Z" stroke="black" stroke-opacity="0.2" stroke-width="5"/>
<path d="M196.449 482.291C231.108 479.633 288.049 473.786 288.049 473.786C288.049 473.786 257.785 462.007 236.06 459.434C218.31 457.333 203.003 454.006 185.57 457.014C171.541 459.434 159.302 464.673 160.964 473.786C162.689 483.245 181.767 483.417 196.449 482.291Z" fill="#565656"/>
<path d="M196.449 482.291C231.108 479.633 288.049 473.786 288.049 473.786C288.049 473.786 257.785 462.007 236.06 459.434C218.31 457.333 203.003 454.006 185.57 457.014C171.541 459.434 159.302 464.673 160.964 473.786C162.689 483.245 181.767 483.417 196.449 482.291Z" stroke="#565656" stroke-width="5"/>
<path d="M196.449 482.291C231.108 479.633 288.049 473.786 288.049 473.786C288.049 473.786 257.785 462.007 236.06 459.434C218.31 457.333 203.003 454.006 185.57 457.014C171.541 459.434 159.302 464.673 160.964 473.786C162.689 483.245 181.767 483.417 196.449 482.291Z" stroke="black" stroke-opacity="0.2" stroke-width="5"/>
<path d="M242.358 342.316C240.832 346.573 215.022 419.541 235.887 450.84C258.531 484.806 347.491 489.119 365.821 450.84C384.151 412.561 359.354 345.564 357.734 342.316C357.734 342.316 243.644 338.729 242.358 342.316Z" fill="#565656"/>
<path d="M242.358 342.316C240.832 346.573 215.022 419.541 235.887 450.84C258.531 484.806 347.491 489.119 365.821 450.84C384.151 412.561 359.354 345.564 357.734 342.316C357.734 342.316 243.644 338.729 242.358 342.316Z" stroke="#565656" stroke-width="5"/>
<path d="M242.358 342.316C240.832 346.573 215.022 419.541 235.887 450.84C258.531 484.806 347.491 489.119 365.821 450.84C384.151 412.561 359.354 345.564 357.734 342.316C357.734 342.316 243.644 338.729 242.358 342.316Z" stroke="black" stroke-opacity="0.2" stroke-width="5"/>
<path d="M300.486 186.554C249.265 186.554 222.068 224.019 207.313 267.287C202.111 279.853 186.287 306.351 212.704 333.308C235.817 352.891 269.83 354.23 300.486 354.23C331.142 354.23 436.448 358.108 391.861 267.287C377.106 224.019 351.706 186.554 300.486 186.554Z" fill="#565656"/>
<path d="M300.486 186.554C249.265 186.554 222.068 224.019 207.313 267.287C202.111 279.853 186.287 306.351 212.704 333.308C235.817 352.891 269.83 354.23 300.486 354.23C331.142 354.23 436.448 358.108 391.861 267.287C377.106 224.019 351.706 186.554 300.486 186.554Z" stroke="#565656" stroke-width="5"/>
<path d="M300.486 186.554C249.265 186.554 222.068 224.019 207.313 267.287C202.111 279.853 186.287 306.351 212.704 333.308C235.817 352.891 269.83 354.23 300.486 354.23C331.142 354.23 436.448 358.108 391.861 267.287C377.106 224.019 351.706 186.554 300.486 186.554Z" stroke="black" stroke-opacity="0.2" stroke-width="5"/>
<path d="M301.016 317.349V328.348M301.016 328.348C301.016 328.348 297.63 331.643 294.869 331.906C291.549 332.222 287.106 328.348 287.106 328.348M301.016 328.348C301.016 328.348 304.393 331.736 307.162 331.906C310.263 332.096 314.278 328.348 314.278 328.348" stroke="black" stroke-width="5" stroke-linecap="round"/>
<path d="M300.765 318.321C299.312 318.321 289.502 314.714 288.493 309.124C287.485 303.534 314.771 303.534 313.036 309.124C311.301 314.714 302.218 318.321 300.765 318.321Z" fill="#27051B"/>
<path d="M304.291 308.583C304.291 309.255 302.656 309.8 300.639 309.8C298.622 309.8 296.987 309.255 296.987 308.583C296.987 307.911 298.622 307.366 300.639 307.366C302.656 307.366 304.291 307.911 304.291 308.583Z" fill="white" fill-opacity="0.5"/>
<ellipse cx="19.7028" cy="23.296" rx="19.7028" ry="23.296" transform="matrix(-0.953838 0.300322 0.215795 0.976439 358.828 246.416)" fill="black" stroke="#504B4F"/>
<ellipse cx="5.60561" cy="4.80433" rx="5.60561" ry="4.80433" transform="matrix(-0.82516 0.564899 0.575712 0.817653 340.117 259.828)" fill="white" stroke="#504B4F"/>
<ellipse cx="19.7028" cy="23.296" rx="19.7028" ry="23.296" transform="matrix(-0.953838 0.300322 0.215795 0.976439 269.054 245.329)" fill="black" stroke="#504B4F"/>
<ellipse cx="5.60561" cy="4.80433" rx="5.60561" ry="4.80433" transform="matrix(-0.82516 0.564899 0.575712 0.817653 250.343 258.741)" fill="white" stroke="#504B4F"/>
<path d="M252.466 407.827C252.447 400.977 252.848 391.93 254.084 387.34C254.084 387.34 282.257 413.101 280.1 416.875C278.252 420.11 252.466 407.827 252.466 407.827Z" fill="#565656"/>
<path d="M346.816 408.905C346.835 402.055 345.355 395.164 344.12 390.574C344.12 390.574 318.551 414.718 320.708 418.492C322.556 421.727 346.816 408.905 346.816 408.905Z" fill="#565656"/>
<path d="M251.738 383.447C251.738 383.447 291.228 414.28 280.851 419.03C273.586 422.356 244.19 405.013 244.19 405.013" stroke="#565656" stroke-width="5"/>
<path d="M251.738 383.447C251.738 383.447 291.228 414.28 280.851 419.03C273.586 422.356 244.19 405.013 244.19 405.013" stroke="black" stroke-opacity="0.2" stroke-width="5"/>
<path d="M350.305 383.447C350.305 383.447 310.815 414.28 321.192 419.03C328.457 422.356 357.853 405.013 357.853 405.013" stroke="#565656" stroke-width="5"/>
<path d="M350.305 383.447C350.305 383.447 310.815 414.28 321.192 419.03C328.457 422.356 357.853 405.013 357.853 405.013" stroke="black" stroke-opacity="0.2" stroke-width="5"/>
<path d="M332.944 311.956C347.109 306.896 354.009 307.177 365.01 311.651" stroke="black" stroke-opacity="0.6" stroke-linecap="round"/>
<path d="M332.208 326.552C347.072 324.238 353.796 325.808 363.764 332.265" stroke="black" stroke-opacity="0.6" stroke-linecap="round"/>
<path d="M330.103 320.083C344.659 316.29 351.507 317.178 362.072 322.602" stroke="black" stroke-opacity="0.6" stroke-linecap="round"/>
<path d="M269.437 310.877C255.271 305.818 248.372 306.099 237.37 310.572" stroke="black" stroke-opacity="0.6" stroke-linecap="round"/>
<path d="M270.173 325.473C255.309 323.16 248.585 324.73 238.617 331.187" stroke="black" stroke-opacity="0.6" stroke-linecap="round"/>
<path d="M272.278 319.004C257.722 315.212 250.874 316.099 240.309 321.524" stroke="black" stroke-opacity="0.6" stroke-linecap="round"/>
</svg>
