<svg width="600" height="600" viewBox="0 0 600 600" fill="none" xmlns="http://www.w3.org/2000/svg">
<path d="M176.062 143.435C189.45 137.031 201.591 135.392 214.062 143.435C227.47 152.082 234.988 166.622 229.062 181.435C200.062 253.935 176.062 328.435 205.062 375.435C211.603 386.035 226.799 396.665 244.562 391.435C266.337 385.023 270.224 354.167 285.562 337.435C296.562 325.435 304.702 322.091 320.562 318.435C336.79 314.694 347.435 316.179 363.062 321.935C394.871 333.65 383.26 389.11 416.562 395.435C425.77 397.184 431.388 397.352 440.562 395.435C450.908 393.272 453.621 376.345 463.562 379.935C476.785 384.71 478.178 399.045 473.062 411.935C467.686 425.48 460.268 432.983 446.562 437.935C428.932 444.304 407.97 442.504 391.062 436.435C366.025 427.448 363.062 404.935 354.062 379.935C350.623 370.381 334.308 372.346 327.562 379.935C299.562 411.435 286.594 442.657 251.062 452.435C228.659 458.6 213.275 460.709 191.562 452.435C166.919 443.043 152.92 429.591 143.562 404.935C112.062 321.935 121.562 268.935 151.062 181.435C156.737 164.602 160.037 151.099 176.062 143.435Z" fill="#F7B1BC" stroke="#E068A0" stroke-width="5"/>
<ellipse cx="174.965" cy="172.349" rx="7.5" ry="9.5" transform="rotate(12.6802 174.965 172.349)" fill="#C94C86"/>
<ellipse cx="201.306" cy="178.276" rx="7.5" ry="9.5" transform="rotate(12.6802 201.306 178.276)" fill="#C94C86"/>
<path d="M165.1 202.435C175.91 209.935 182.642 210.509 195.695 206.077" stroke="#E66CA4" stroke-width="5" stroke-linecap="round"/>
<path d="M138.1 234.435C162.417 243.543 176.998 245.051 204.507 242.34" stroke="#E068A0" stroke-width="5" stroke-linecap="round"/>
<path d="M125.1 302.435C149.417 311.543 163.998 313.051 191.507 310.34" stroke="#E068A0" stroke-width="5" stroke-linecap="round"/>
<path d="M126.1 338.435C150.417 347.543 164.998 349.051 192.507 346.34" stroke="#E068A0" stroke-width="5" stroke-linecap="round"/>
<path d="M136.063 378.435C160.921 389.17 179.101 385.538 207.563 381.435" stroke="#E068A0" stroke-width="5" stroke-linecap="round"/>
<path d="M154.062 424.435C183.563 428.934 219.477 417.935 232.062 394.435" stroke="#E068A0" stroke-width="5" stroke-linecap="round"/>
<path d="M225.562 457.074C250.688 440.975 264.627 410.894 258.562 384.935" stroke="#E068A0" stroke-width="5" stroke-linecap="round"/>
<path d="M290.062 426.435C299.908 398.264 296.349 370.625 275.562 353.935" stroke="#E068A0" stroke-width="5" stroke-linecap="round"/>
<path d="M324.562 383.435C334.408 355.264 332.849 337.625 312.063 320.935" stroke="#E068A0" stroke-width="5" stroke-linecap="round"/>
<path d="M351.562 374.999C369.563 364.935 379.423 350.202 369.563 325.435" stroke="#E068A0" stroke-width="5" stroke-linecap="round"/>
<path d="M366.562 413.435C385.81 406.029 398.305 394.851 392.062 368.935" stroke="#E068A0" stroke-width="5" stroke-linecap="round"/>
<path d="M401.062 438.935C420.31 431.529 429.805 422.851 423.562 396.935" stroke="#E068A0" stroke-width="5" stroke-linecap="round"/>
<path d="M460.062 429.935C464.563 416.435 460.063 400.935 447.062 391.935" stroke="#E068A0" stroke-width="5" stroke-linecap="round"/>
<path d="M131.1 266.435C155.417 275.543 169.998 277.051 197.507 274.34" stroke="#E068A0" stroke-width="5" stroke-linecap="round"/>
<path d="M197.682 198.435C196.84 202.621 197.537 204.7 200.539 208.018" stroke="#E66CA4" stroke-width="5" stroke-linecap="round"/>
</svg>
