<svg width="600" height="600" viewBox="0 0 600 600" fill="none" xmlns="http://www.w3.org/2000/svg">
<path d="M120.125 335.684C152.103 357.384 214.458 351.823 214.458 351.823V325.424C214.458 325.424 152.136 336.429 124.091 314.593C107.974 302.045 124.091 275.869 89.6999 278.832C73.3567 280.24 95.7314 319.131 120.125 335.684Z" fill="#FF6051"/>
<path d="M120.125 335.684C152.103 357.384 214.458 351.823 214.458 351.823V325.424C214.458 325.424 152.136 336.429 124.091 314.593C107.974 302.045 124.091 275.869 89.6999 278.832C73.3567 280.24 95.7314 319.131 120.125 335.684Z" stroke="#FF6051" stroke-width="5" stroke-linecap="round"/>
<path d="M120.125 335.684C152.103 357.384 214.458 351.823 214.458 351.823V325.424C214.458 325.424 152.136 336.429 124.091 314.593C107.974 302.045 124.091 275.869 89.6999 278.832C73.3567 280.24 95.7314 319.131 120.125 335.684Z" stroke="black" stroke-opacity="0.2" stroke-width="5" stroke-linecap="round"/>
<path d="M113.239 251.693C120.435 251.455 125.42 250.455 130.581 245.435C134.405 241.717 135.574 238.519 136.994 233.378C138.887 226.528 138.551 222.004 136.548 215.185C134.095 206.836 130.948 201.892 123.828 196.889C117.711 192.591 113.75 190.629 106.37 189.434C102.903 188.872 99.1469 188.46 94.3352 190.196C90.3179 191.645 97.0148 197.622 100.623 199.143C105.862 201.353 107.24 206.243 107.611 211.917C107.914 216.552 106.485 219.255 104.25 223.326C101.446 228.434 95.2537 228.35 93.8255 233.999C92.4723 239.351 93.5669 243.632 97.2968 247.702C101.633 252.433 106.824 251.904 113.239 251.693Z" fill="#FF5F50"/>
<path d="M113.239 251.693C120.435 251.455 125.42 250.455 130.581 245.435C134.405 241.717 135.574 238.519 136.994 233.378C138.887 226.528 138.551 222.004 136.548 215.185C134.095 206.836 130.948 201.892 123.828 196.889C117.711 192.591 113.75 190.629 106.37 189.434C102.903 188.872 99.1469 188.46 94.3352 190.196C90.3179 191.645 97.0148 197.622 100.623 199.143C105.862 201.353 107.24 206.243 107.611 211.917C107.914 216.552 106.485 219.255 104.25 223.326C101.446 228.434 95.2537 228.35 93.8255 233.999C92.4723 239.351 93.5669 243.632 97.2968 247.702C101.633 252.433 106.824 251.904 113.239 251.693Z" stroke="#FF5F50" stroke-width="5" stroke-linecap="round"/>
<path d="M113.239 251.693C120.435 251.455 125.42 250.455 130.581 245.435C134.405 241.717 135.574 238.519 136.994 233.378C138.887 226.528 138.551 222.004 136.548 215.185C134.095 206.836 130.948 201.892 123.828 196.889C117.711 192.591 113.75 190.629 106.37 189.434C102.903 188.872 99.1469 188.46 94.3352 190.196C90.3179 191.645 97.0148 197.622 100.623 199.143C105.862 201.353 107.24 206.243 107.611 211.917C107.914 216.552 106.485 219.255 104.25 223.326C101.446 228.434 95.2537 228.35 93.8255 233.999C92.4723 239.351 93.5669 243.632 97.2968 247.702C101.633 252.433 106.824 251.904 113.239 251.693Z" stroke="black" stroke-opacity="0.2" stroke-width="5" stroke-linecap="round"/>
<path d="M107.622 302.182C91.1828 307.507 79.1146 309.31 63.3732 302.182C51.7132 296.902 46.4683 290.634 39.0749 280.185C29.2224 266.262 26.295 255.776 25.2632 238.75C23.9997 217.903 27.0757 204.179 39.0749 187.084C49.3827 172.399 56.7285 164.744 72.4137 156.034C79.7828 151.942 87.9273 147.951 100.204 147.951C110.454 147.951 100.204 166.899 93.2985 173.273C83.2699 182.528 84.1424 194.691 87.9273 207.802C91.0191 218.512 96.4455 223.45 104.808 230.821C115.298 240.067 129.21 234.835 137.036 246.423C144.45 257.403 145.466 267.96 140.361 280.185C134.425 294.399 122.275 297.434 107.622 302.182Z" fill="#FF5F50"/>
<path d="M107.622 302.182C91.1828 307.507 79.1146 309.31 63.3732 302.182C51.7132 296.902 46.4683 290.634 39.0749 280.185C29.2224 266.262 26.295 255.776 25.2632 238.75C23.9997 217.903 27.0757 204.179 39.0749 187.084C49.3827 172.399 56.7285 164.744 72.4137 156.034C79.7828 151.942 87.9273 147.951 100.204 147.951C110.454 147.951 100.204 166.899 93.2985 173.273C83.2699 182.528 84.1424 194.691 87.9273 207.802C91.0191 218.512 96.4455 223.45 104.808 230.821C115.298 240.067 129.21 234.835 137.036 246.423C144.45 257.403 145.466 267.96 140.361 280.185C134.425 294.399 122.275 297.434 107.622 302.182Z" stroke="#FF5F50" stroke-width="5" stroke-linecap="round"/>
<path d="M107.622 302.182C91.1828 307.507 79.1146 309.31 63.3732 302.182C51.7132 296.902 46.4683 290.634 39.0749 280.185C29.2224 266.262 26.295 255.776 25.2632 238.75C23.9997 217.903 27.0757 204.179 39.0749 187.084C49.3827 172.399 56.7285 164.744 72.4137 156.034C79.7828 151.942 87.9273 147.951 100.204 147.951C110.454 147.951 100.204 166.899 93.2985 173.273C83.2699 182.528 84.1424 194.691 87.9273 207.802C91.0191 218.512 96.4455 223.45 104.808 230.821C115.298 240.067 129.21 234.835 137.036 246.423C144.45 257.403 145.466 267.96 140.361 280.185C134.425 294.399 122.275 297.434 107.622 302.182Z" stroke="black" stroke-opacity="0.2" stroke-width="5" stroke-linecap="round"/>
<path d="M479.875 331.733C447.897 353.433 385.542 347.872 385.542 347.872V321.473C385.542 321.473 447.864 332.478 475.909 310.642C492.026 298.094 475.909 271.918 510.3 274.881C526.643 276.289 504.269 315.18 479.875 331.733Z" fill="#FF6051"/>
<path d="M479.875 331.733C447.897 353.433 385.542 347.872 385.542 347.872V321.473C385.542 321.473 447.864 332.478 475.909 310.642C492.026 298.094 475.909 271.918 510.3 274.881C526.643 276.289 504.269 315.18 479.875 331.733Z" stroke="#FF6051" stroke-width="5" stroke-linecap="round"/>
<path d="M479.875 331.733C447.897 353.433 385.542 347.872 385.542 347.872V321.473C385.542 321.473 447.864 332.478 475.909 310.642C492.026 298.094 475.909 271.918 510.3 274.881C526.643 276.289 504.269 315.18 479.875 331.733Z" stroke="black" stroke-opacity="0.2" stroke-width="5" stroke-linecap="round"/>
<path d="M486.761 247.742C479.565 247.504 474.58 246.504 469.418 241.484C465.595 237.766 464.426 234.567 463.006 229.427C461.113 222.576 461.449 218.053 463.452 211.234C465.905 202.884 469.051 197.94 476.172 192.937C482.288 188.64 486.25 186.678 493.629 185.482C497.096 184.921 500.853 184.508 505.665 186.245C509.682 187.694 502.985 193.671 499.377 195.192C494.138 197.401 492.76 202.292 492.389 207.966C492.086 212.601 493.515 215.303 495.75 219.375C498.553 224.483 504.746 224.399 506.174 230.048C507.527 235.4 506.433 239.681 502.703 243.75C498.366 248.482 493.175 247.953 486.761 247.742Z" fill="#FF5F50"/>
<path d="M486.761 247.742C479.565 247.504 474.58 246.504 469.418 241.484C465.595 237.766 464.426 234.567 463.006 229.427C461.113 222.576 461.449 218.053 463.452 211.234C465.905 202.884 469.051 197.94 476.172 192.937C482.288 188.64 486.25 186.678 493.629 185.482C497.096 184.921 500.853 184.508 505.665 186.245C509.682 187.694 502.985 193.671 499.377 195.192C494.138 197.401 492.76 202.292 492.389 207.966C492.086 212.601 493.515 215.303 495.75 219.375C498.553 224.483 504.746 224.399 506.174 230.048C507.527 235.4 506.433 239.681 502.703 243.75C498.366 248.482 493.175 247.953 486.761 247.742Z" stroke="#FF5F50" stroke-width="5" stroke-linecap="round"/>
<path d="M486.761 247.742C479.565 247.504 474.58 246.504 469.418 241.484C465.595 237.766 464.426 234.567 463.006 229.427C461.113 222.576 461.449 218.053 463.452 211.234C465.905 202.884 469.051 197.94 476.172 192.937C482.288 188.64 486.25 186.678 493.629 185.482C497.096 184.921 500.853 184.508 505.665 186.245C509.682 187.694 502.985 193.671 499.377 195.192C494.138 197.401 492.76 202.292 492.389 207.966C492.086 212.601 493.515 215.303 495.75 219.375C498.553 224.483 504.746 224.399 506.174 230.048C507.527 235.4 506.433 239.681 502.703 243.75C498.366 248.482 493.175 247.953 486.761 247.742Z" stroke="black" stroke-opacity="0.2" stroke-width="5" stroke-linecap="round"/>
<path d="M492.378 298.23C508.817 303.556 520.885 305.359 536.627 298.23C548.287 292.951 553.532 286.683 560.925 276.234C570.778 262.311 573.705 251.824 574.737 234.799C576 213.952 572.924 200.227 560.925 183.133C550.617 168.448 543.272 160.793 527.586 152.083C520.217 147.99 512.073 144 499.796 144C489.546 144 499.796 162.948 506.701 169.321C516.73 178.577 515.858 190.739 512.073 203.851C508.981 214.561 503.554 219.499 495.192 226.87C484.702 236.116 470.79 230.884 462.964 242.472C455.55 253.452 454.534 264.009 459.639 276.234C465.575 290.447 477.725 293.483 492.378 298.23Z" fill="#FF5F50"/>
<path d="M492.378 298.23C508.817 303.556 520.885 305.359 536.627 298.23C548.287 292.951 553.532 286.683 560.925 276.234C570.778 262.311 573.705 251.824 574.737 234.799C576 213.952 572.924 200.227 560.925 183.133C550.617 168.448 543.272 160.793 527.586 152.083C520.217 147.99 512.073 144 499.796 144C489.546 144 499.796 162.948 506.701 169.321C516.73 178.577 515.858 190.739 512.073 203.851C508.981 214.561 503.554 219.499 495.192 226.87C484.702 236.116 470.79 230.884 462.964 242.472C455.55 253.452 454.534 264.009 459.639 276.234C465.575 290.447 477.725 293.483 492.378 298.23Z" stroke="#FF5F50" stroke-width="5" stroke-linecap="round"/>
<path d="M492.378 298.23C508.817 303.556 520.885 305.359 536.627 298.23C548.287 292.951 553.532 286.683 560.925 276.234C570.778 262.311 573.705 251.824 574.737 234.799C576 213.952 572.924 200.227 560.925 183.133C550.617 168.448 543.272 160.793 527.586 152.083C520.217 147.99 512.073 144 499.796 144C489.546 144 499.796 162.948 506.701 169.321C516.73 178.577 515.858 190.739 512.073 203.851C508.981 214.561 503.554 219.499 495.192 226.87C484.702 236.116 470.79 230.884 462.964 242.472C455.55 253.452 454.534 264.009 459.639 276.234C465.575 290.447 477.725 293.483 492.378 298.23Z" stroke="black" stroke-opacity="0.2" stroke-width="5" stroke-linecap="round"/>
<path d="M153.709 358.335C185.688 336.635 248.043 342.196 248.043 342.196V368.596C248.043 368.596 190.482 365.749 157.676 379.426C136.66 388.188 139.306 409.041 124.076 415.133C108.845 421.225 129.316 374.888 153.709 358.335Z" fill="#FF6051"/>
<path d="M153.709 358.335C185.688 336.635 248.043 342.196 248.043 342.196V368.596C248.043 368.596 190.482 365.749 157.676 379.426C136.66 388.188 139.306 409.041 124.076 415.133C108.845 421.225 129.316 374.888 153.709 358.335Z" stroke="#FF6051" stroke-width="5" stroke-linecap="round"/>
<path d="M153.709 358.335C185.688 336.635 248.043 342.196 248.043 342.196V368.596C248.043 368.596 190.482 365.749 157.676 379.426C136.66 388.188 139.306 409.041 124.076 415.133C108.845 421.225 129.316 374.888 153.709 358.335Z" stroke="black" stroke-opacity="0.2" stroke-width="5" stroke-linecap="round"/>
<path d="M195.944 387.6C212.717 352.784 269.444 326.306 269.444 326.306L282.691 349.141C282.691 349.141 231.472 375.561 209.958 403.853C196.176 421.977 208.928 438.687 198.811 451.599C188.693 464.511 183.15 414.158 195.944 387.6Z" fill="#FF6051"/>
<path d="M195.944 387.6C212.717 352.784 269.444 326.306 269.444 326.306L282.691 349.141C282.691 349.141 231.472 375.561 209.958 403.853C196.176 421.977 208.928 438.687 198.811 451.599C188.693 464.511 183.15 414.158 195.944 387.6Z" stroke="#FF6051" stroke-width="5" stroke-linecap="round"/>
<path d="M195.944 387.6C212.717 352.784 269.444 326.306 269.444 326.306L282.691 349.141C282.691 349.141 231.472 375.561 209.958 403.853C196.176 421.977 208.928 438.687 198.811 451.599C188.693 464.511 183.15 414.158 195.944 387.6Z" stroke="black" stroke-opacity="0.2" stroke-width="5" stroke-linecap="round"/>
<path d="M259.287 391.479C262.021 352.93 304.967 307.38 304.967 307.38L325.708 323.712C325.708 323.712 287.861 367.174 278.311 401.411C272.193 423.342 290.214 434.164 285.578 449.899C280.942 465.634 257.201 420.884 259.287 391.479Z" fill="#FF6051"/>
<path d="M259.287 391.479C262.021 352.93 304.967 307.38 304.967 307.38L325.708 323.712C325.708 323.712 287.861 367.174 278.311 401.411C272.193 423.342 290.214 434.164 285.578 449.899C280.942 465.634 257.201 420.884 259.287 391.479Z" stroke="#FF6051" stroke-width="5" stroke-linecap="round"/>
<path d="M259.287 391.479C262.021 352.93 304.967 307.38 304.967 307.38L325.708 323.712C325.708 323.712 287.861 367.174 278.311 401.411C272.193 423.342 290.214 434.164 285.578 449.899C280.942 465.634 257.201 420.884 259.287 391.479Z" stroke="black" stroke-opacity="0.2" stroke-width="5" stroke-linecap="round"/>
<path d="M360.544 392.466C357.809 353.917 314.864 308.367 314.864 308.367L294.123 324.699C294.123 324.699 331.97 368.162 341.52 402.398C347.638 424.329 329.617 435.151 334.253 450.886C338.889 466.621 362.63 421.872 360.544 392.466Z" fill="#FF6051"/>
<path d="M360.544 392.466C357.809 353.917 314.864 308.367 314.864 308.367L294.123 324.699C294.123 324.699 331.97 368.162 341.52 402.398C347.638 424.329 329.617 435.151 334.253 450.886C338.889 466.621 362.63 421.872 360.544 392.466Z" stroke="#FF6051" stroke-width="5" stroke-linecap="round"/>
<path d="M360.544 392.466C357.809 353.917 314.864 308.367 314.864 308.367L294.123 324.699C294.123 324.699 331.97 368.162 341.52 402.398C347.638 424.329 329.617 435.151 334.253 450.886C338.889 466.621 362.63 421.872 360.544 392.466Z" stroke="black" stroke-opacity="0.2" stroke-width="5" stroke-linecap="round"/>
<path d="M421.831 387.6C405.058 352.784 348.331 326.306 348.331 326.306L335.084 349.141C335.084 349.141 386.303 375.561 407.817 403.853C421.599 421.977 408.847 438.687 418.964 451.599C429.082 464.511 434.625 414.158 421.831 387.6Z" fill="#FF6051"/>
<path d="M421.831 387.6C405.058 352.784 348.331 326.306 348.331 326.306L335.084 349.141C335.084 349.141 386.303 375.561 407.817 403.853C421.599 421.977 408.847 438.687 418.964 451.599C429.082 464.511 434.625 414.158 421.831 387.6Z" stroke="#FF6051" stroke-width="5" stroke-linecap="round"/>
<path d="M421.831 387.6C405.058 352.784 348.331 326.306 348.331 326.306L335.084 349.141C335.084 349.141 386.303 375.561 407.817 403.853C421.599 421.977 408.847 438.687 418.964 451.599C429.082 464.511 434.625 414.158 421.831 387.6Z" stroke="black" stroke-opacity="0.2" stroke-width="5" stroke-linecap="round"/>
<path d="M467.034 358.335C435.056 336.635 372.701 342.196 372.701 342.196V368.596C372.701 368.596 430.262 365.749 463.068 379.426C484.083 388.188 481.437 409.041 496.668 415.133C511.898 421.225 491.427 374.888 467.034 358.335Z" fill="#FF6051"/>
<path d="M467.034 358.335C435.056 336.635 372.701 342.196 372.701 342.196V368.596C372.701 368.596 430.262 365.749 463.068 379.426C484.083 388.188 481.437 409.041 496.668 415.133C511.898 421.225 491.427 374.888 467.034 358.335Z" stroke="#FF6051" stroke-width="5" stroke-linecap="round"/>
<path d="M467.034 358.335C435.056 336.635 372.701 342.196 372.701 342.196V368.596C372.701 368.596 430.262 365.749 463.068 379.426C484.083 388.188 481.437 409.041 496.668 415.133C511.898 421.225 491.427 374.888 467.034 358.335Z" stroke="black" stroke-opacity="0.2" stroke-width="5" stroke-linecap="round"/>
<path d="M419.127 343.464C419.127 392.525 368.932 415.641 307.013 415.641C245.094 415.641 194.899 392.525 194.899 343.464C194.899 294.404 245.094 254.632 307.013 254.632C368.932 254.632 419.127 294.404 419.127 343.464Z" fill="#FF6050"/>
<path d="M419.127 343.464C419.127 392.525 368.932 415.641 307.013 415.641C245.094 415.641 194.899 392.525 194.899 343.464C194.899 294.404 245.094 254.632 307.013 254.632C368.932 254.632 419.127 294.404 419.127 343.464Z" stroke="#FF6050" stroke-width="5"/>
<path d="M419.127 343.464C419.127 392.525 368.932 415.641 307.013 415.641C245.094 415.641 194.899 392.525 194.899 343.464C194.899 294.404 245.094 254.632 307.013 254.632C368.932 254.632 419.127 294.404 419.127 343.464Z" stroke="black" stroke-opacity="0.2" stroke-width="5"/>
<path d="M414.682 370.203C414.682 391.272 378.133 415.641 307.013 415.641C235.892 415.641 198.356 391.272 198.356 370.203C198.356 349.134 245.094 362.301 307.013 362.301C368.932 362.301 414.682 349.134 414.682 370.203Z" fill="#FEDCB9"/>
<path d="M414.682 370.203C414.682 391.272 378.133 415.641 307.013 415.641C235.892 415.641 198.356 391.272 198.356 370.203C198.356 349.134 245.094 362.301 307.013 362.301C368.932 362.301 414.682 349.134 414.682 370.203Z" stroke="#FEDCB9" stroke-width="5"/>
<path d="M414.682 370.203C414.682 391.272 378.133 415.641 307.013 415.641C235.892 415.641 198.356 391.272 198.356 370.203C198.356 349.134 245.094 362.301 307.013 362.301C368.932 362.301 414.682 349.134 414.682 370.203Z" stroke="black" stroke-opacity="0.2" stroke-width="5"/>
<path d="M299.834 373.584C299.834 373.584 302.966 376.315 305.306 376.092C307.251 375.906 309.637 373.584 309.637 373.584C309.637 373.584 312.017 375.972 313.968 376.092C316.154 376.225 318.983 373.584 318.983 373.584" stroke="#313131" stroke-width="5" stroke-linecap="round"/>
<ellipse cx="272.687" cy="360.18" rx="10.0845" ry="4.53001" fill="#F7C1CF"/>
<ellipse cx="348.641" cy="360.35" rx="10.0845" ry="4.53001" transform="rotate(-2.27638 348.641 360.35)" fill="#F7C1CF"/>
<ellipse cx="13.8846" cy="16.4168" rx="13.8846" ry="16.4168" transform="matrix(-0.953838 0.300322 0.215795 0.976439 350.378 315.847)" fill="black" stroke="#504B4F"/>
<ellipse cx="3.9503" cy="3.38563" rx="3.9503" ry="3.38563" transform="matrix(-0.82516 0.564899 0.575712 0.817653 337.192 325.298)" fill="white" stroke="#504B4F"/>
<ellipse cx="13.8846" cy="16.4168" rx="13.8846" ry="16.4168" transform="matrix(-0.953838 0.300322 0.215795 0.976439 287.114 315.08)" fill="black" stroke="#504B4F"/>
<ellipse cx="3.9503" cy="3.38563" rx="3.9503" ry="3.38563" transform="matrix(-0.82516 0.564899 0.575712 0.817653 273.927 324.531)" fill="white" stroke="#504B4F"/>
</svg>
