<svg width="600" height="600" viewBox="0 0 600 600" fill="none" xmlns="http://www.w3.org/2000/svg">
<path d="M266.522 488.378L288.053 522.977" stroke="#FF553B" stroke-width="20" stroke-linecap="round"/>
<path d="M263.984 492.074L258.849 525.328" stroke="#FF553B" stroke-width="20" stroke-linecap="round"/>
<path d="M263.403 488.159L234.956 507.989" stroke="#FF553B" stroke-width="20" stroke-linecap="round"/>
<path d="M341.443 489.706L319.911 524.306" stroke="#FF553B" stroke-width="20" stroke-linecap="round"/>
<path d="M343.98 493.402L349.116 526.656" stroke="#FF553B" stroke-width="20" stroke-linecap="round"/>
<path d="M344.562 489.487L373.009 509.317" stroke="#FF553B" stroke-width="20" stroke-linecap="round"/>
<path d="M227.821 335.165C225.942 340.406 194.168 430.234 219.855 468.765C247.732 510.579 357.247 515.889 379.812 468.765C402.378 421.641 371.851 339.164 369.856 335.165C369.856 335.165 229.404 330.749 227.821 335.165Z" fill="#FAD8B9"/>
<path d="M227.821 335.165C225.942 340.406 194.168 430.234 219.855 468.765C247.732 510.579 357.247 515.889 379.812 468.765C402.378 421.641 371.851 339.164 369.856 335.165C369.856 335.165 229.404 330.749 227.821 335.165Z" stroke="#FAD8B9" stroke-width="5"/>
<path d="M227.821 335.165C225.942 340.406 194.168 430.234 219.855 468.765C247.732 510.579 357.247 515.889 379.812 468.765C402.378 421.641 371.851 339.164 369.856 335.165C369.856 335.165 229.404 330.749 227.821 335.165Z" stroke="black" stroke-opacity="0.2" stroke-width="5"/>
<path d="M351.935 421.64C351.935 466.361 328.163 497.449 298.838 497.449C269.513 497.449 245.741 466.361 245.741 421.64C245.741 376.92 274.413 350.655 298.838 340.667C322.201 351.368 351.935 376.92 351.935 421.64Z" fill="#F9F7F7"/>
<path d="M430.088 258.511C430.088 328.89 371.846 362.051 300 362.051C228.154 362.051 169.911 328.89 169.911 258.511C169.911 188.131 228.154 131.077 300 131.077C371.846 131.077 430.088 188.131 430.088 258.511Z" fill="#FAD8B9"/>
<path d="M430.088 258.511C430.088 328.89 371.846 362.051 300 362.051C228.154 362.051 169.911 328.89 169.911 258.511C169.911 188.131 228.154 131.077 300 131.077C371.846 131.077 430.088 188.131 430.088 258.511Z" stroke="#FAD8B9" stroke-width="5"/>
<path d="M430.088 258.511C430.088 328.89 371.846 362.051 300 362.051C228.154 362.051 169.911 328.89 169.911 258.511C169.911 188.131 228.154 131.077 300 131.077C371.846 131.077 430.088 188.131 430.088 258.511Z" stroke="black" stroke-opacity="0.2" stroke-width="5"/>
<ellipse cx="235.482" cy="294.552" rx="17.6169" ry="7.91361" fill="#F7C1CF"/>
<ellipse cx="368.17" cy="294.849" rx="17.6169" ry="7.91361" transform="rotate(-2.27638 368.17 294.849)" fill="#F7C1CF"/>
<ellipse cx="24.2554" cy="28.679" rx="24.2554" ry="28.679" transform="matrix(-0.953838 0.300322 0.215795 0.976439 371.204 217.104)" fill="black" stroke="#504B4F"/>
<ellipse cx="6.90089" cy="5.91445" rx="6.90089" ry="5.91445" transform="matrix(-0.82516 0.564899 0.575712 0.817653 348.168 233.615)" fill="#F9F7F7" stroke="#504B4F"/>
<ellipse cx="24.2554" cy="28.679" rx="24.2554" ry="28.679" transform="matrix(-0.953838 0.300322 0.215795 0.976439 260.521 215.913)" fill="black" stroke="#504B4F"/>
<ellipse cx="6.90089" cy="5.91445" rx="6.90089" ry="5.91445" transform="matrix(-0.82516 0.564899 0.575712 0.817653 237.485 232.424)" fill="#F9F7F7" stroke="#504B4F"/>
<path d="M278.189 290.371C278.189 290.371 273.016 292.628 271.077 295.561C266.492 302.496 272.614 309.868 278.189 315.921C284.539 322.815 291.219 323.822 300.276 323.506C308.503 323.22 314.247 322.075 320.116 315.921C325.827 309.934 332.261 302.509 327.603 295.561C325.575 292.536 320.116 290.371 320.116 290.371H278.189Z" fill="#CF9C01"/>
<path d="M278.189 290.371C278.189 290.371 273.016 292.628 271.077 295.561C266.492 302.496 272.614 309.868 278.189 315.921C284.539 322.815 291.219 323.822 300.276 323.506C308.503 323.22 314.247 322.075 320.116 315.921C325.827 309.934 332.261 302.509 327.603 295.561C325.575 292.536 320.116 290.371 320.116 290.371H278.189Z" stroke="#CF9C01" stroke-width="5" stroke-linecap="round"/>
<path d="M278.189 290.371C278.189 290.371 273.016 292.628 271.077 295.561C266.492 302.496 272.614 309.868 278.189 315.921C284.539 322.815 291.219 323.822 300.276 323.506C308.503 323.22 314.247 322.075 320.116 315.921C325.827 309.934 332.261 302.509 327.603 295.561C325.575 292.536 320.116 290.371 320.116 290.371H278.189Z" stroke="black" stroke-opacity="0.2" stroke-width="5" stroke-linecap="round"/>
<path d="M278.036 281.079C278.036 281.079 272.811 283.216 270.852 285.995C266.22 292.563 272.404 299.546 278.036 305.279C284.45 311.809 291.198 312.763 300.346 312.464C308.656 312.192 314.458 311.108 320.387 305.279C326.156 299.608 332.654 292.575 327.949 285.995C325.901 283.129 320.387 281.079 320.387 281.079H278.036Z" fill="#F5B903"/>
<path d="M278.036 281.079C278.036 281.079 272.811 283.216 270.852 285.995C266.22 292.563 272.404 299.546 278.036 305.279C284.45 311.809 291.198 312.763 300.346 312.464C308.656 312.192 314.458 311.108 320.387 305.279C326.156 299.608 332.654 292.575 327.949 285.995C325.901 283.129 320.387 281.079 320.387 281.079H278.036Z" stroke="#F5B903" stroke-width="5" stroke-linecap="round"/>
<path d="M278.036 281.079C278.036 281.079 272.811 283.216 270.852 285.995C266.22 292.563 272.404 299.546 278.036 305.279C284.45 311.809 291.198 312.763 300.346 312.464C308.656 312.192 314.458 311.108 320.387 305.279C326.156 299.608 332.654 292.575 327.949 285.995C325.901 283.129 320.387 281.079 320.387 281.079H278.036Z" stroke="black" stroke-opacity="0.2" stroke-width="5" stroke-linecap="round"/>
<path d="M221.477 421.757L224.336 350.106C224.336 350.106 210.612 353.071 204.194 356.72C186.729 366.646 187.264 391.383 170.862 404.17C165.974 407.98 161.173 407.527 156.76 412.529C152.638 417.202 150.563 419.664 150.122 426.402C149.691 432.984 150.268 437.152 154.082 441.321C156.597 444.07 161.064 442.712 163.208 445.98C166.46 450.937 160.777 454.517 163.208 462.902C164.937 468.867 166.24 469.985 170.862 471.53C174.511 472.749 179.573 470.228 183.207 471.53C187.962 473.233 188.749 479.873 193.577 481.153C202.452 483.505 208.263 474.234 213.889 464.714C221.649 451.583 221.477 421.757 221.477 421.757Z" fill="#FAD8B9"/>
<path d="M221.477 421.757L224.336 350.106C224.336 350.106 210.612 353.071 204.194 356.72C186.729 366.646 187.264 391.383 170.862 404.17C165.974 407.98 161.173 407.527 156.76 412.529C152.638 417.202 150.563 419.664 150.122 426.402C149.691 432.984 150.268 437.152 154.082 441.321C156.597 444.07 161.064 442.712 163.208 445.98C166.46 450.937 160.777 454.517 163.208 462.902C164.937 468.867 166.24 469.985 170.862 471.53C174.511 472.749 179.573 470.228 183.207 471.53C187.962 473.233 188.749 479.873 193.577 481.153C202.452 483.505 208.263 474.234 213.889 464.714C221.649 451.583 221.477 421.757 221.477 421.757Z" stroke="#FAD8B9" stroke-width="5" stroke-linecap="round"/>
<path d="M221.477 421.757L224.336 350.106C224.336 350.106 210.612 353.071 204.194 356.72C186.729 366.646 187.264 391.383 170.862 404.17C165.974 407.98 161.173 407.527 156.76 412.529C152.638 417.202 150.563 419.664 150.122 426.402C149.691 432.984 150.268 437.152 154.082 441.321C156.597 444.07 161.064 442.712 163.208 445.98C166.46 450.937 160.777 454.517 163.208 462.902C164.937 468.867 166.24 469.985 170.862 471.53C174.511 472.749 179.573 470.228 183.207 471.53C187.962 473.233 188.749 479.873 193.577 481.153C202.452 483.505 208.263 474.234 213.889 464.714C221.649 451.583 221.477 421.757 221.477 421.757Z" stroke="black" stroke-opacity="0.2" stroke-width="5" stroke-linecap="round"/>
<path d="M378.523 421.757L375.664 350.106C375.664 350.106 389.388 353.071 395.806 356.72C413.271 366.646 412.736 391.383 429.138 404.17C434.026 407.98 438.827 407.527 443.24 412.529C447.362 417.202 449.437 419.664 449.878 426.402C450.309 432.984 449.732 437.152 445.918 441.321C443.403 444.07 438.936 442.712 436.792 445.98C433.54 450.937 439.223 454.517 436.792 462.902C435.063 468.867 433.76 469.985 429.138 471.53C425.489 472.749 420.427 470.228 416.793 471.53C412.038 473.233 411.251 479.873 406.423 481.153C397.548 483.505 391.737 474.234 386.111 464.714C378.351 451.583 378.523 421.757 378.523 421.757Z" fill="#FAD8B9"/>
<path d="M378.523 421.757L375.664 350.106C375.664 350.106 389.388 353.071 395.806 356.72C413.271 366.646 412.736 391.383 429.138 404.17C434.026 407.98 438.827 407.527 443.24 412.529C447.362 417.202 449.437 419.664 449.878 426.402C450.309 432.984 449.732 437.152 445.918 441.321C443.403 444.07 438.936 442.712 436.792 445.98C433.54 450.937 439.223 454.517 436.792 462.902C435.063 468.867 433.76 469.985 429.138 471.53C425.489 472.749 420.427 470.228 416.793 471.53C412.038 473.233 411.251 479.873 406.423 481.153C397.548 483.505 391.737 474.234 386.111 464.714C378.351 451.583 378.523 421.757 378.523 421.757Z" stroke="#FAD8B9" stroke-width="5" stroke-linecap="round"/>
<path d="M378.523 421.757L375.664 350.106C375.664 350.106 389.388 353.071 395.806 356.72C413.271 366.646 412.736 391.383 429.138 404.17C434.026 407.98 438.827 407.527 443.24 412.529C447.362 417.202 449.437 419.664 449.878 426.402C450.309 432.984 449.732 437.152 445.918 441.321C443.403 444.07 438.936 442.712 436.792 445.98C433.54 450.937 439.223 454.517 436.792 462.902C435.063 468.867 433.76 469.985 429.138 471.53C425.489 472.749 420.427 470.228 416.793 471.53C412.038 473.233 411.251 479.873 406.423 481.153C397.548 483.505 391.737 474.234 386.111 464.714C378.351 451.583 378.523 421.757 378.523 421.757Z" stroke="black" stroke-opacity="0.2" stroke-width="5" stroke-linecap="round"/>
<path d="M259.479 104.064C226.504 101.604 268.263 179.357 301.288 177.696C333.593 176.071 369.682 97.5065 337.875 103.389C328.805 105.066 316.247 112.881 316.247 112.881C316.247 112.881 312.581 92.0787 302.517 90.8448C291.504 89.4946 284.782 113.04 284.782 113.04C284.782 113.04 269.935 104.844 259.479 104.064Z" fill="#FF553B"/>
<path d="M259.479 104.064C226.504 101.604 268.263 179.357 301.288 177.696C333.593 176.071 369.682 97.5065 337.875 103.389C328.805 105.066 316.247 112.881 316.247 112.881C316.247 112.881 312.581 92.0787 302.517 90.8448C291.504 89.4946 284.782 113.04 284.782 113.04C284.782 113.04 269.935 104.844 259.479 104.064Z" stroke="#FF553B" stroke-width="5"/>
<path d="M259.479 104.064C226.504 101.604 268.263 179.357 301.288 177.696C333.593 176.071 369.682 97.5065 337.875 103.389C328.805 105.066 316.247 112.881 316.247 112.881C316.247 112.881 312.581 92.0787 302.517 90.8448C291.504 89.4946 284.782 113.04 284.782 113.04C284.782 113.04 269.935 104.844 259.479 104.064Z" stroke="black" stroke-opacity="0.2" stroke-width="5"/>
</svg>
