<svg width="600" height="600" viewBox="0 0 600 600" fill="none" xmlns="http://www.w3.org/2000/svg">
<path d="M311.42 95.7883C306.898 103.766 305.333 108.357 304.526 116.866M311.42 95.7883C306.898 103.766 305.333 108.357 304.526 116.866" stroke="#8D6550" stroke-width="5" stroke-linecap="round"/>
<path d="M296.913 95.0236C295.977 104.146 296.388 108.979 299.068 117.095M296.913 95.0236C295.977 104.146 296.388 108.979 299.068 117.095" stroke="#8D6550" stroke-width="5" stroke-linecap="round"/>
<path d="M428.593 212.144C429.458 174.352 434.564 116.724 412.943 112.588C392.866 108.748 356.494 138.812 333.885 165.96L428.593 212.144Z" fill="#E4A77A"/>
<path d="M428.593 212.144C429.458 174.352 434.564 116.724 412.943 112.588C392.866 108.748 356.494 138.812 333.885 165.96L428.593 212.144Z" stroke="#E4A77A" stroke-width="5" stroke-linecap="round"/>
<path d="M428.593 212.144C429.458 174.352 434.564 116.724 412.943 112.588C392.866 108.748 356.494 138.812 333.885 165.96L428.593 212.144Z" stroke="black" stroke-opacity="0.2" stroke-width="5" stroke-linecap="round"/>
<path d="M419.276 193.674C419.869 167.765 418.951 133.347 404.128 130.512C390.363 127.879 365.427 148.491 349.927 167.102L419.276 193.674Z" fill="#DBA88D"/>
<path d="M419.276 193.674C419.869 167.765 418.951 133.347 404.128 130.512C390.363 127.879 365.427 148.491 349.927 167.102L419.276 193.674Z" stroke="#E4A77A" stroke-width="5" stroke-linecap="round"/>
<path d="M419.276 193.674C419.869 167.765 418.951 133.347 404.128 130.512C390.363 127.879 365.427 148.491 349.927 167.102L419.276 193.674Z" stroke="black" stroke-opacity="0.2" stroke-width="5" stroke-linecap="round"/>
<path d="M171.407 211.925C170.542 174.134 165.436 116.505 187.057 112.369C207.134 108.529 243.506 138.594 266.115 165.741L171.407 211.925Z" fill="#E4A77A"/>
<path d="M171.407 211.925C170.542 174.134 165.436 116.505 187.057 112.369C207.134 108.529 243.506 138.594 266.115 165.741L171.407 211.925Z" stroke="#E4A77A" stroke-width="5" stroke-linecap="round"/>
<path d="M171.407 211.925C170.542 174.134 165.436 116.505 187.057 112.369C207.134 108.529 243.506 138.594 266.115 165.741L171.407 211.925Z" stroke="black" stroke-opacity="0.2" stroke-width="5" stroke-linecap="round"/>
<path d="M180.724 193.454C180.131 167.545 181.049 133.127 195.872 130.292C209.637 127.659 234.573 148.271 250.073 166.883L180.724 193.454Z" fill="#DBA88D"/>
<path d="M180.724 193.454C180.131 167.545 181.049 133.127 195.872 130.292C209.637 127.659 234.573 148.271 250.073 166.883L180.724 193.454Z" stroke="#E4A77A" stroke-width="5" stroke-linecap="round"/>
<path d="M180.724 193.454C180.131 167.545 181.049 133.127 195.872 130.292C209.637 127.659 234.573 148.271 250.073 166.883L180.724 193.454Z" stroke="black" stroke-opacity="0.2" stroke-width="5" stroke-linecap="round"/>
<path d="M224.327 349.704C222.365 355.177 189.189 448.971 216.01 489.202C245.117 532.862 359.467 538.407 383.028 489.202C406.589 439.998 374.715 353.88 372.633 349.704C372.633 349.704 225.98 345.094 224.327 349.704Z" fill="#E4A77A"/>
<path d="M224.327 349.704C222.365 355.177 189.189 448.971 216.01 489.202C245.117 532.862 359.467 538.407 383.028 489.202C406.589 439.998 374.715 353.88 372.633 349.704C372.633 349.704 225.98 345.094 224.327 349.704Z" stroke="#E4A77A" stroke-width="5"/>
<path d="M224.327 349.704C222.365 355.177 189.189 448.971 216.01 489.202C245.117 532.862 359.467 538.407 383.028 489.202C406.589 439.998 374.715 353.88 372.633 349.704C372.633 349.704 225.98 345.094 224.327 349.704Z" stroke="black" stroke-opacity="0.2" stroke-width="5"/>
<path d="M435.522 262.212C435.522 340.767 374.708 377.778 299.691 377.778C224.674 377.778 163.86 340.767 163.86 262.212C163.86 183.658 224.674 119.977 299.691 119.977C374.708 119.977 435.522 183.658 435.522 262.212Z" fill="#E4A77A"/>
<path d="M435.522 262.212C435.522 340.767 374.708 377.778 299.691 377.778C224.674 377.778 163.86 340.767 163.86 262.212C163.86 183.658 224.674 119.977 299.691 119.977C374.708 119.977 435.522 183.658 435.522 262.212Z" stroke="#E4A77A" stroke-width="5"/>
<path d="M435.522 262.212C435.522 340.767 374.708 377.778 299.691 377.778C224.674 377.778 163.86 340.767 163.86 262.212C163.86 183.658 224.674 119.977 299.691 119.977C374.708 119.977 435.522 183.658 435.522 262.212Z" stroke="black" stroke-opacity="0.2" stroke-width="5"/>
<ellipse cx="25.3262" cy="29.945" rx="25.3262" ry="29.945" transform="matrix(-0.953838 0.300322 0.215795 0.976439 372.479 205.441)" fill="black" stroke="#504B4F"/>
<ellipse cx="7.20552" cy="6.17553" rx="7.20552" ry="6.17553" transform="matrix(-0.82516 0.564899 0.575712 0.817653 348.427 222.681)" fill="white" stroke="#504B4F"/>
<ellipse cx="25.3262" cy="29.945" rx="25.3262" ry="29.945" transform="matrix(-0.953838 0.300322 0.215795 0.976439 257.083 204.043)" fill="black" stroke="#504B4F"/>
<ellipse cx="7.20552" cy="6.17553" rx="7.20552" ry="6.17553" transform="matrix(-0.82516 0.564899 0.575712 0.817653 233.031 221.282)" fill="white" stroke="#504B4F"/>
<path d="M242.588 432.525C242.563 423.72 243.079 416.942 244.667 411.042C244.667 411.042 275.162 438.07 272.39 442.921C270.014 447.079 242.588 432.525 242.588 432.525Z" fill="#DBA88D"/>
<path d="M235.934 399.954C235.934 399.954 286.695 439.587 273.357 445.693C264.018 449.968 226.231 427.675 226.231 427.675" stroke="#E4A77A" stroke-width="5"/>
<path d="M235.934 399.954C235.934 399.954 286.695 439.587 273.357 445.693C264.018 449.968 226.231 427.675 226.231 427.675" stroke="black" stroke-opacity="0.2" stroke-width="5"/>
<path d="M354.87 432.525C354.895 423.72 354.378 416.942 352.791 411.042C352.791 411.042 322.295 438.07 325.067 442.921C327.443 447.079 354.87 432.525 354.87 432.525Z" fill="#DBA88D"/>
<path d="M361.524 399.954C361.524 399.954 310.763 439.587 324.101 445.693C333.439 449.968 371.226 427.675 371.226 427.675" stroke="#E4A77A" stroke-width="5"/>
<path d="M361.524 399.954C361.524 399.954 310.763 439.587 324.101 445.693C333.439 449.968 371.226 427.675 371.226 427.675" stroke="black" stroke-opacity="0.2" stroke-width="5"/>
<path d="M338.326 291.064C338.326 311.044 334.168 341.537 300.21 341.537C266.253 341.537 262.094 310.351 262.094 291.064C262.094 280.029 279.159 260.454 300.21 260.454C321.261 260.454 338.326 280.029 338.326 291.064Z" fill="#DBA88D"/>
<path d="M338.326 291.064C338.326 311.044 334.168 341.537 300.21 341.537C266.253 341.537 262.094 310.351 262.094 291.064C262.094 280.029 279.159 260.454 300.21 260.454C321.261 260.454 338.326 280.029 338.326 291.064Z" stroke="#DBA88D" stroke-width="5"/>
<path d="M338.326 291.064C338.326 311.044 334.168 341.537 300.21 341.537C266.253 341.537 262.094 310.351 262.094 291.064C262.094 280.029 279.159 260.454 300.21 260.454C321.261 260.454 338.326 280.029 338.326 291.064Z" stroke="black" stroke-opacity="0.2" stroke-width="5"/>
<ellipse cx="314.02" cy="283.179" rx="4.1784" ry="7.2428" transform="rotate(-17.7481 314.02 283.179)" fill="#4D4D4D" fill-opacity="0.6"/>
<ellipse cx="4.1784" cy="7.2428" rx="4.1784" ry="7.2428" transform="matrix(-0.952406 -0.304833 -0.304833 0.952406 292.487 277.555)" fill="#4D4D4D" fill-opacity="0.6"/>
<path d="M359.817 456.779C362.118 462.397 362.194 465.428 359.817 470.64M359.817 456.779C362.118 462.397 362.194 465.428 359.817 470.64" stroke="#8D6550" stroke-opacity="0.8" stroke-width="5" stroke-linecap="round"/>
<path d="M349.956 456.779C347.656 462.397 347.579 465.428 349.956 470.64M349.956 456.779C347.656 462.397 347.579 465.428 349.956 470.64" stroke="#8D6550" stroke-opacity="0.8" stroke-width="5" stroke-linecap="round"/>
<path d="M268.339 388.863C270.64 394.481 270.716 397.512 268.339 402.724M268.339 388.863C270.64 394.481 270.716 397.512 268.339 402.724" stroke="#8D6550" stroke-opacity="0.8" stroke-width="5" stroke-linecap="round"/>
<path d="M258.478 388.863C256.178 394.481 256.101 397.512 258.478 402.724M258.478 388.863C256.178 394.481 256.101 397.512 258.478 402.724" stroke="#8D6550" stroke-opacity="0.8" stroke-width="5" stroke-linecap="round"/>
<path d="M274.568 311.043C274.568 311.043 282.955 315.548 289.221 315.18C294.431 314.874 300.82 311.043 300.82 311.043C300.82 311.043 307.196 314.983 312.42 315.18C318.274 315.4 325.852 311.043 325.852 311.043" stroke="#AF8671" stroke-width="5" stroke-linecap="round"/>
<ellipse cx="227.821" cy="287.841" rx="18.3946" ry="8.26295" fill="#F7C1CF" fill-opacity="0.8"/>
<ellipse cx="366.366" cy="288.151" rx="18.3946" ry="8.26295" transform="rotate(-2.27638 366.366 288.151)" fill="#F7C1CF" fill-opacity="0.8"/>
<path d="M320.203 531.415C322.438 530.901 326.372 527.765 326.372 527.765C326.372 527.765 329.475 530.251 331.233 531.13C333.476 532.252 334.224 532.626 336.736 533.007C340.104 533.518 340.861 533.124 343.572 532.626C346.141 532.154 347.207 530.843 349.29 529.381C350.847 528.288 352.109 526.219 352.109 526.219C352.109 526.219 356.311 528.08 359.273 528.21C362.294 528.342 364.192 528.041 366.946 526.801C369.533 525.637 370.897 524.568 372.571 522.464C374.583 519.934 375.095 517.941 375.723 514.945C376.476 511.35 376.467 509.217 375.541 505.724C374.543 501.957 373.533 499.545 370.185 497.122C368.243 495.716 366.858 495.18 364.424 494.544C360.911 493.626 354.938 494.303 354.938 494.303L348.726 495.443C348.726 495.443 345.453 492.985 342.541 492.612C339.987 492.285 335.729 492.54 335.729 492.54C333.018 493.038 332.075 493.211 329.635 494.32C327.195 495.429 324.624 497.884 324.624 497.884L322.405 502.257L314.745 501.68C312.176 502.152 310.36 502.485 308.285 503.527C306.21 504.569 303.584 506.521 302.223 509.597C300.955 512.465 300.804 514.732 301.074 517.74C301.467 522.11 302.2 524.717 305.568 527.822C307.992 530.055 310.015 530.886 313.45 531.663C316.033 532.248 317.562 532.022 320.203 531.415Z" fill="#DBA88D"/>
<path d="M320.203 531.415C322.438 530.901 326.372 527.765 326.372 527.765C326.372 527.765 329.475 530.251 331.233 531.13C333.476 532.252 334.224 532.626 336.736 533.007C340.104 533.518 340.861 533.124 343.572 532.626C346.141 532.154 347.207 530.843 349.29 529.381C350.847 528.288 352.109 526.219 352.109 526.219C352.109 526.219 356.311 528.08 359.273 528.21C362.294 528.342 364.192 528.041 366.946 526.801C369.533 525.637 370.897 524.568 372.571 522.464C374.583 519.934 375.095 517.941 375.723 514.945C376.476 511.35 376.467 509.217 375.541 505.724C374.543 501.957 373.533 499.545 370.185 497.122C368.243 495.716 366.858 495.18 364.424 494.544C360.911 493.626 354.938 494.303 354.938 494.303L348.726 495.443C348.726 495.443 345.453 492.985 342.541 492.612C339.987 492.285 335.729 492.54 335.729 492.54C333.018 493.038 332.075 493.211 329.635 494.32C327.195 495.429 324.624 497.884 324.624 497.884L322.405 502.257L314.745 501.68C312.176 502.152 310.36 502.485 308.285 503.527C306.21 504.569 303.584 506.521 302.223 509.597C300.955 512.465 300.804 514.732 301.074 517.74C301.467 522.11 302.2 524.717 305.568 527.822C307.992 530.055 310.015 530.886 313.45 531.663C316.033 532.248 317.562 532.022 320.203 531.415Z" stroke="#E4A77A" stroke-width="5"/>
<path d="M320.203 531.415C322.438 530.901 326.372 527.765 326.372 527.765C326.372 527.765 329.475 530.251 331.233 531.13C333.476 532.252 334.224 532.626 336.736 533.007C340.104 533.518 340.861 533.124 343.572 532.626C346.141 532.154 347.207 530.843 349.29 529.381C350.847 528.288 352.109 526.219 352.109 526.219C352.109 526.219 356.311 528.08 359.273 528.21C362.294 528.342 364.192 528.041 366.946 526.801C369.533 525.637 370.897 524.568 372.571 522.464C374.583 519.934 375.095 517.941 375.723 514.945C376.476 511.35 376.467 509.217 375.541 505.724C374.543 501.957 373.533 499.545 370.185 497.122C368.243 495.716 366.858 495.18 364.424 494.544C360.911 493.626 354.938 494.303 354.938 494.303L348.726 495.443C348.726 495.443 345.453 492.985 342.541 492.612C339.987 492.285 335.729 492.54 335.729 492.54C333.018 493.038 332.075 493.211 329.635 494.32C327.195 495.429 324.624 497.884 324.624 497.884L322.405 502.257L314.745 501.68C312.176 502.152 310.36 502.485 308.285 503.527C306.21 504.569 303.584 506.521 302.223 509.597C300.955 512.465 300.804 514.732 301.074 517.74C301.467 522.11 302.2 524.717 305.568 527.822C307.992 530.055 310.015 530.886 313.45 531.663C316.033 532.248 317.562 532.022 320.203 531.415Z" stroke="black" stroke-opacity="0.2" stroke-width="5"/>
<path d="M240.369 525.521C242.658 525.395 247.473 522.155 247.473 522.155C247.473 522.155 248.221 524.399 249.343 526.113C250.563 527.977 251.586 529.26 253.83 530.008C257.1 531.098 258.257 530.977 260.998 530.689C263.926 530.382 264.616 529.971 266.917 528.886C268.637 528.075 271.031 525.147 271.031 525.147C271.031 525.147 271.644 526.235 272.994 527.39C274.306 528.512 275.96 529.696 277.387 530.008C278.861 530.33 281.117 530.545 282.996 530.382C284.882 530.217 286.766 530.011 288.231 529.634C290.978 528.927 292.069 527.544 293.84 525.521C296.457 522.529 296.52 521.58 297.579 518.416C298.74 514.946 298.876 512.629 298.559 509.03C298.218 505.148 297.634 502.599 294.749 499.641C293.075 497.924 291.801 497.16 289.512 496.118C286.206 494.615 280.206 494.262 280.206 494.262L273.89 494.326C273.89 494.326 271.084 491.346 268.279 490.482C265.818 489.724 261.579 489.25 261.579 489.25C258.823 489.278 257.864 489.288 255.271 489.964C252.677 490.641 251.537 491.045 249.725 492.621C248.28 493.878 246.793 496.552 246.793 496.552C246.793 496.552 242.232 494.458 239.621 494.485C237.009 494.511 235.486 494.56 233.264 495.233C231.042 495.905 229.52 496.92 227.655 499.72C225.916 502.33 225.038 505.15 225.038 508.17C225.038 512.433 225.337 515.088 227.281 518.871C228.01 520.29 228.747 521.318 229.525 522.155C230.343 523.036 231.224 523.706 232.89 524.399C235.336 525.415 237.663 525.668 240.369 525.521Z" fill="#DBA88D"/>
<path d="M240.369 525.521C242.658 525.395 247.473 522.155 247.473 522.155C247.473 522.155 248.221 524.399 249.343 526.113C250.563 527.977 251.586 529.26 253.83 530.008C257.1 531.098 258.257 530.977 260.998 530.689C263.926 530.382 264.616 529.971 266.917 528.886C268.637 528.075 271.031 525.147 271.031 525.147C271.031 525.147 271.644 526.235 272.994 527.39C274.306 528.512 275.96 529.696 277.387 530.008C278.861 530.33 281.117 530.545 282.996 530.382C284.882 530.217 286.766 530.011 288.231 529.634C290.978 528.927 292.069 527.544 293.84 525.521C296.457 522.529 296.52 521.58 297.579 518.416C298.74 514.946 298.876 512.629 298.559 509.03C298.218 505.148 297.634 502.599 294.749 499.641C293.075 497.924 291.801 497.16 289.512 496.118C286.206 494.615 280.206 494.262 280.206 494.262L273.89 494.326C273.89 494.326 271.084 491.346 268.279 490.482C265.818 489.724 261.579 489.25 261.579 489.25C258.823 489.278 257.864 489.288 255.271 489.964C252.677 490.641 251.537 491.045 249.725 492.621C248.28 493.878 246.793 496.552 246.793 496.552C246.793 496.552 242.232 494.458 239.621 494.485C237.009 494.511 235.486 494.56 233.264 495.233C231.042 495.905 229.52 496.92 227.655 499.72C225.916 502.33 225.038 505.15 225.038 508.17C225.038 512.433 225.337 515.088 227.281 518.871C228.01 520.29 228.747 521.318 229.525 522.155C230.343 523.036 231.224 523.706 232.89 524.399C235.336 525.415 237.663 525.668 240.369 525.521Z" stroke="#E4A77A" stroke-width="5"/>
<path d="M240.369 525.521C242.658 525.395 247.473 522.155 247.473 522.155C247.473 522.155 248.221 524.399 249.343 526.113C250.563 527.977 251.586 529.26 253.83 530.008C257.1 531.098 258.257 530.977 260.998 530.689C263.926 530.382 264.616 529.971 266.917 528.886C268.637 528.075 271.031 525.147 271.031 525.147C271.031 525.147 271.644 526.235 272.994 527.39C274.306 528.512 275.96 529.696 277.387 530.008C278.861 530.33 281.117 530.545 282.996 530.382C284.882 530.217 286.766 530.011 288.231 529.634C290.978 528.927 292.069 527.544 293.84 525.521C296.457 522.529 296.52 521.58 297.579 518.416C298.74 514.946 298.876 512.629 298.559 509.03C298.218 505.148 297.634 502.599 294.749 499.641C293.075 497.924 291.801 497.16 289.512 496.118C286.206 494.615 280.206 494.262 280.206 494.262L273.89 494.326C273.89 494.326 271.084 491.346 268.279 490.482C265.818 489.724 261.579 489.25 261.579 489.25C258.823 489.278 257.864 489.288 255.271 489.964C252.677 490.641 251.537 491.045 249.725 492.621C248.28 493.878 246.793 496.552 246.793 496.552C246.793 496.552 242.232 494.458 239.621 494.485C237.009 494.511 235.486 494.56 233.264 495.233C231.042 495.905 229.52 496.92 227.655 499.72C225.916 502.33 225.038 505.15 225.038 508.17C225.038 512.433 225.337 515.088 227.281 518.871C228.01 520.29 228.747 521.318 229.525 522.155C230.343 523.036 231.224 523.706 232.89 524.399C235.336 525.415 237.663 525.668 240.369 525.521Z" stroke="black" stroke-opacity="0.2" stroke-width="5"/>
<path d="M274.743 156.011L274.743 174.029" stroke="#654433" stroke-opacity="0.8" stroke-width="5" stroke-linecap="round"/>
<path d="M324.64 156.011L324.64 174.029" stroke="#654433" stroke-opacity="0.8" stroke-width="5" stroke-linecap="round"/>
<path d="M299.691 147.694L299.691 165.713" stroke="#654433" stroke-opacity="0.8" stroke-width="5" stroke-linecap="round"/>
<path d="M389.08 444.48C394.795 446.526 397.1 448.497 399.384 453.75M389.08 444.48C394.795 446.526 397.1 448.497 399.384 453.75" stroke="#8D6550" stroke-opacity="0.8" stroke-width="5" stroke-linecap="round"/>
<path d="M388.397 434.769C394.439 435.354 397.156 436.7 400.657 441.234M388.397 434.769C394.439 435.354 397.156 436.7 400.657 441.234" stroke="#8D6550" stroke-opacity="0.8" stroke-width="5" stroke-linecap="round"/>
<path d="M418.186 323.895C423.901 325.942 426.206 327.912 428.491 333.165M418.186 323.895C423.901 325.942 426.206 327.912 428.491 333.165" stroke="#8D6550" stroke-opacity="0.8" stroke-width="5" stroke-linecap="round"/>
<path d="M417.504 314.184C423.546 314.769 426.263 316.115 429.764 320.649M417.504 314.184C423.546 314.769 426.263 316.115 429.764 320.649" stroke="#8D6550" stroke-opacity="0.8" stroke-width="5" stroke-linecap="round"/>
<path d="M169.326 282.315C163.611 284.361 161.306 286.332 159.022 291.585M169.326 282.315C163.611 284.361 161.306 286.332 159.022 291.585" stroke="#8D6550" stroke-opacity="0.8" stroke-width="5" stroke-linecap="round"/>
<path d="M170.009 272.603C163.967 273.188 161.249 274.534 157.749 279.068M170.009 272.603C163.967 273.188 161.249 274.534 157.749 279.068" stroke="#8D6550" stroke-opacity="0.8" stroke-width="5" stroke-linecap="round"/>
<path d="M210.907 405.671C205.192 407.718 202.887 409.689 200.603 414.941M210.907 405.671C205.192 407.718 202.887 409.689 200.603 414.941" stroke="#8D6550" stroke-opacity="0.8" stroke-width="5" stroke-linecap="round"/>
<path d="M211.589 395.96C205.547 396.545 202.83 397.892 199.329 402.425M211.589 395.96C205.547 396.545 202.83 397.892 199.329 402.425" stroke="#8D6550" stroke-opacity="0.8" stroke-width="5" stroke-linecap="round"/>
</svg>
