<svg width="600" height="600" viewBox="0 0 600 600" fill="none" xmlns="http://www.w3.org/2000/svg">
<path d="M405.169 219.117C392.362 231.823 370.412 246.123 370.412 246.123C370.412 246.123 370.287 251.939 369.989 255.728C369.625 260.357 368.552 267.693 368.552 267.693C368.552 267.693 396.901 256.255 413.704 242.357C427.384 231.043 439.901 215.873 446.306 207.434C452.712 198.995 452.404 192.298 452.042 182.363C451.746 174.228 449.685 158.974 444.597 166.155C421.059 199.379 422.597 201.826 405.169 219.117Z" fill="#544E4E" stroke="#544E4E" stroke-width="2"/>
<path d="M405.169 219.117C392.362 231.823 370.412 246.123 370.412 246.123C370.412 246.123 370.287 251.939 369.989 255.728C369.625 260.357 368.552 267.693 368.552 267.693C368.552 267.693 396.901 256.255 413.704 242.357C427.384 231.043 439.901 215.873 446.306 207.434C452.712 198.995 452.404 192.298 452.042 182.363C451.746 174.228 449.685 158.974 444.597 166.155C421.059 199.379 422.597 201.826 405.169 219.117Z" fill="#544E4E" stroke="#544E4E" stroke-width="2"/>
<path d="M194.831 215.992C207.638 228.698 229.588 242.998 229.588 242.998C229.588 242.998 229.713 248.814 230.011 252.603C230.375 257.232 231.448 264.568 231.448 264.568C231.448 264.568 203.099 253.13 186.296 239.232C172.616 227.918 160.099 212.748 153.694 204.309C147.288 195.87 147.596 189.173 147.958 179.238C148.254 171.103 150.315 155.849 155.403 163.03C178.941 196.254 177.403 198.701 194.831 215.992Z" fill="#544E4E" stroke="#544E4E" stroke-width="2"/>
<path d="M218.892 436.376C220.015 430.781 223.658 422.835 223.658 422.835C223.658 422.835 222.361 421.529 221.585 420.631C220.636 419.533 219.29 417.685 219.29 417.685C219.29 417.685 213.657 426.656 210.86 433.132C208.484 438.632 206.012 445.172 205.929 448.429C205.846 451.686 206.94 455.269 209.337 457.374C211.299 459.098 217.473 464.752 217.429 462.06C217.226 449.606 217.364 443.989 218.892 436.376Z" fill="#544E4E" stroke="#544E4E" stroke-width="2"/>
<path d="M382.864 434.689C381.705 428.844 377.92 420.538 377.92 420.538C377.92 420.538 379.277 419.177 380.09 418.241C381.083 417.097 382.494 415.17 382.494 415.17C382.494 415.17 388.366 424.546 391.26 431.32C394.201 438.207 396.294 443.906 396.373 447.307C396.452 450.708 395.301 454.447 392.793 456.64C390.74 458.436 384.279 464.325 384.331 461.514C384.574 448.509 384.442 442.644 382.864 434.689Z" fill="#544E4E" stroke="#544E4E" stroke-width="2"/>
<path d="M189.742 354.719C193.787 350.32 200.981 343.839 200.981 343.839C200.981 343.839 199.885 342.253 199.282 341.203C198.546 339.921 197.634 337.852 197.634 337.852C197.634 337.852 185.706 343.511 179.491 348.084C175.685 350.885 174.833 352.163 174.407 353.441C173.981 354.719 172.278 357.7 174.407 364.09C175.297 366.76 178.212 371.901 179.491 369.627C185.482 358.978 184.631 360.278 189.742 354.719Z" fill="#544E4E" stroke="#544E4E" stroke-width="2"/>
<path d="M410.073 354.312C405.805 350.072 398.274 343.882 398.274 343.882C398.274 343.882 399.304 342.236 399.862 341.153C400.544 339.83 401.368 337.708 401.368 337.708C401.368 337.708 413.621 342.856 420.08 347.172C424.035 349.815 424.95 351.062 425.437 352.328C425.924 353.594 426.585 358.715 425.923 363.038C425.493 365.838 422.442 371.073 421.062 368.838C415.499 359.831 416.487 360.683 410.073 354.312Z" fill="#544E4E" stroke="#544E4E" stroke-width="2"/>
<path d="M371.826 257.175C410.537 257.175 412.092 358.126 389.942 402C383.075 415.602 350.955 467.171 301.118 467.171C257.67 467.171 222.744 426.262 210.815 402C189.663 358.979 188.512 257.175 235.093 257.175C299.412 257.175 300.264 257.175 371.826 257.175Z" fill="#696261" stroke="#544E4E" stroke-width="8"/>
<path d="M298.799 349.309C299.039 392.707 303.299 460.356 303.299 460.356C303.299 460.356 306.307 392.691 306.449 349.309C306.557 316.153 305.099 264.416 305.099 264.416H300.599C300.599 264.416 298.616 316.15 298.799 349.309Z" fill="#544E4E" stroke="#544E4E" stroke-width="2"/>
<path d="M370.637 257.175C368.934 257.175 344.08 257.175 302.911 257.175C261.743 257.175 235.609 257.175 231.775 257.175C231.775 255.839 233.371 244.553 239.869 243.479C252.817 241.337 270.811 240.497 298.225 240.497C325.638 240.497 348.743 240.977 361.692 243.118C368.19 244.193 371.489 255.897 370.637 257.175Z" fill="#1D1008" stroke="#1D1008" stroke-width="6"/>
<path d="M376.738 252.532C376.738 269.289 338.539 265.585 301.712 265.585C262.5 265.585 224.711 269.199 223.295 255.096C221.201 234.262 230.518 222.578 243.124 210.223C259.252 194.417 284.081 188 300.725 188C317.8 188 345.577 197.829 361.157 216.206C373.958 229.251 378.154 243.984 376.738 252.532Z" fill="#696261"/>
<path d="M376.738 252.532C376.738 269.289 338.539 265.585 301.712 265.585C262.5 265.585 224.711 269.199 223.295 255.096C221.201 234.262 230.518 222.578 243.124 210.223C259.252 194.417 284.081 188 300.725 188C317.8 188 345.577 197.829 361.157 216.206C373.958 229.251 378.154 243.984 376.738 252.532Z" stroke="#696261" stroke-width="8"/>
<path d="M376.738 252.532C376.738 269.289 338.539 265.585 301.712 265.585C262.5 265.585 224.711 269.199 223.295 255.096C221.201 234.262 230.518 222.578 243.124 210.223C259.252 194.417 284.081 188 300.725 188C317.8 188 345.577 197.829 361.157 216.206C373.958 229.251 378.154 243.984 376.738 252.532Z" stroke="black" stroke-opacity="0.2" stroke-width="8"/>
<path d="M298.012 301.893C298.252 345.291 302.512 412.94 302.512 412.94C302.512 412.94 305.52 345.275 305.661 301.893C305.77 268.737 304.312 217 304.312 217H299.812C299.812 217 297.829 268.734 298.012 301.893Z" fill="#544E4E" stroke="#544E4E" stroke-width="2"/>
<path d="M266.514 144.5C270.904 149.165 281.517 154 281.517 154L291.517 151.5C291.517 151.5 284.424 144.052 281.517 139.5C278.412 134.637 276.46 131.514 274.017 126C271.191 119.62 271.251 115.639 268.517 109C268.517 109 257.721 118.095 257.517 126C257.305 134.235 260.869 138.501 266.514 144.5Z" fill="#696261"/>
<path d="M266.514 144.5C270.904 149.165 281.517 154 281.517 154L291.517 151.5C291.517 151.5 284.424 144.052 281.517 139.5C278.412 134.637 276.46 131.514 274.017 126C271.191 119.62 271.251 115.639 268.517 109C268.517 109 257.721 118.095 257.517 126C257.305 134.235 260.869 138.501 266.514 144.5Z" stroke="#696261" stroke-width="5"/>
<path d="M266.514 144.5C270.904 149.165 281.517 154 281.517 154L291.517 151.5C291.517 151.5 284.424 144.052 281.517 139.5C278.412 134.637 276.46 131.514 274.017 126C271.191 119.62 271.251 115.639 268.517 109C268.517 109 257.721 118.095 257.517 126C257.305 134.235 260.869 138.501 266.514 144.5Z" stroke="black" stroke-opacity="0.2" stroke-width="5"/>
<path d="M333.517 145.5C329.128 150.165 318.514 155 318.514 155L308.514 152.5C308.514 152.5 315.608 145.052 318.514 140.5C321.619 135.637 323.571 132.514 326.014 127C328.841 120.62 328.78 116.639 331.514 110C331.514 110 342.31 119.095 342.514 127C342.726 135.235 339.163 139.501 333.517 145.5Z" fill="#696261"/>
<path d="M333.517 145.5C329.128 150.165 318.514 155 318.514 155L308.514 152.5C308.514 152.5 315.608 145.052 318.514 140.5C321.619 135.637 323.571 132.514 326.014 127C328.841 120.62 328.78 116.639 331.514 110C331.514 110 342.31 119.095 342.514 127C342.726 135.235 339.163 139.501 333.517 145.5Z" stroke="#696261" stroke-width="5"/>
<path d="M333.517 145.5C329.128 150.165 318.514 155 318.514 155L308.514 152.5C308.514 152.5 315.608 145.052 318.514 140.5C321.619 135.637 323.571 132.514 326.014 127C328.841 120.62 328.78 116.639 331.514 110C331.514 110 342.31 119.095 342.514 127C342.726 135.235 339.163 139.501 333.517 145.5Z" stroke="black" stroke-opacity="0.2" stroke-width="5"/>
<path d="M370.702 208.617C370.702 225.32 336.239 221.628 303.014 221.628C267.637 221.628 233.544 225.23 232.266 211.173C230.377 190.408 238.782 178.763 250.156 166.448C264.706 150.694 287.107 144.298 302.123 144.298C317.528 144.298 342.589 154.095 356.645 172.411C368.194 185.413 371.98 200.098 370.702 208.617Z" fill="#696261"/>
<path d="M370.702 208.617C370.702 225.32 336.239 221.628 303.014 221.628C267.637 221.628 233.544 225.23 232.266 211.173C230.377 190.408 238.782 178.763 250.156 166.448C264.706 150.694 287.107 144.298 302.123 144.298C317.528 144.298 342.589 154.095 356.645 172.411C368.194 185.413 371.98 200.098 370.702 208.617Z" stroke="#696261" stroke-width="8"/>
<path d="M370.702 208.617C370.702 225.32 336.239 221.628 303.014 221.628C267.637 221.628 233.544 225.23 232.266 211.173C230.377 190.408 238.782 178.763 250.156 166.448C264.706 150.694 287.107 144.298 302.123 144.298C317.528 144.298 342.589 154.095 356.645 172.411C368.194 185.413 371.98 200.098 370.702 208.617Z" stroke="black" stroke-opacity="0.2" stroke-width="8"/>
<path d="M326.915 257.147C326.915 263.158 314.513 261.829 302.556 261.829C289.825 261.829 277.556 263.125 277.096 258.066C276.416 250.594 279.441 246.403 283.534 241.971C288.77 236.302 296.831 234 302.235 234C307.779 234 316.798 237.526 321.856 244.117C326.012 248.796 327.375 254.081 326.915 257.147Z" fill="#696261"/>
<path d="M326.915 257.147C326.915 263.158 314.513 261.829 302.556 261.829C289.825 261.829 277.556 263.125 277.096 258.066C276.416 250.594 279.441 246.403 283.534 241.971C288.77 236.302 296.831 234 302.235 234C307.779 234 316.798 237.526 321.856 244.117C326.012 248.796 327.375 254.081 326.915 257.147Z" stroke="#696261" stroke-width="8"/>
<path d="M326.915 257.147C326.915 263.158 314.513 261.829 302.556 261.829C289.825 261.829 277.556 263.125 277.096 258.066C276.416 250.594 279.441 246.403 283.534 241.971C288.77 236.302 296.831 234 302.235 234C307.779 234 316.798 237.526 321.856 244.117C326.012 248.796 327.375 254.081 326.915 257.147Z" stroke="black" stroke-opacity="0.2" stroke-width="8"/>
<ellipse cx="349.014" cy="165.25" rx="12.5" ry="12.25" fill="white"/>
<ellipse cx="347.514" cy="163" rx="9.5" ry="9" fill="black" stroke="black"/>
<ellipse cx="342.514" cy="158.5" rx="1.5" ry="1.5" fill="white"/>
<ellipse cx="258.014" cy="164.25" rx="12.5" ry="12.25" fill="white"/>
<ellipse cx="256.514" cy="162" rx="9.5" ry="9" fill="black" stroke="black"/>
<ellipse cx="261.014" cy="157.5" rx="1.5" ry="1.5" fill="white"/>
<path d="M299.012 181.761C299.263 197.487 303.707 222 303.707 222C303.707 222 306.846 197.481 306.994 181.761C307.107 169.747 305.585 151 305.585 151H300.89C300.89 151 298.821 169.746 299.012 181.761Z" fill="#544E4E" stroke="#544E4E" stroke-width="2"/>
</svg>
