<svg width="600" height="600" viewBox="0 0 600 600" fill="none" xmlns="http://www.w3.org/2000/svg">
<path d="M323.308 161.37L325.012 162.222C325.012 162.222 328.89 152.187 333.105 146.887C336.622 142.464 339.699 139.468 344.606 136.664C347.587 134.96 351.281 133.345 353.977 136.238C357.81 140.353 357.529 140.427 359.514 142.908C361.218 145.038 362.07 145.89 364.626 146.461C367.347 147.069 369.402 146.18 371.015 143.905C372.555 141.734 372.293 139.501 371.441 137.371C370.589 135.241 369.251 132.967 366.755 131.408C363.348 129.278 361.218 128 356.532 128C349.717 128 348.013 128.426 342.902 130.982C336.379 134.243 333.451 138.21 329.271 144.186C325.263 149.918 321.604 160.944 321.604 160.944L323.308 161.37Z" fill="black" stroke="black"/>
<path d="M267.145 160.419L265.505 161.225C265.505 161.225 261.771 151.732 257.713 146.719C254.327 142.535 251.364 139.7 246.641 137.048C243.77 135.436 241.034 135.03 237.619 136.645C234.283 138.223 233.857 139.927 232.288 142.286L232.231 142.372C230.826 144.486 229.916 145.854 227.367 146.316C224.727 146.793 222.769 146.338 221.216 144.186C219.734 142.132 220.07 139.703 221.216 137.451C222.362 135.199 223.885 133.453 226.19 131.833C229.239 129.691 231.409 128.834 235.135 128.426C240.539 127.834 245.006 128.899 249.617 131.833C255.519 135.589 257.946 138.533 261.97 144.186C265.829 149.608 268.785 160.016 268.785 160.016L267.145 160.419Z" fill="black" stroke="black"/>
<path d="M200.634 231.934C206.182 235.313 213.413 242.583 213.413 242.583C213.413 242.583 215.201 241.491 216.395 240.879C217.853 240.132 220.228 239.175 220.228 239.175C220.228 239.175 213.032 228.397 206.598 223.415C201.36 219.359 195.099 216.6 191.689 215.322C188.28 214.043 186.48 214.998 183.5 217.128C181.06 218.872 176.483 223.346 179.337 224.267C192.541 228.526 193.085 227.335 200.634 231.934Z" fill="black" stroke="black" stroke-width="2"/>
<path d="M388.241 231.529C383.158 234.865 376.629 241.88 376.629 241.88C376.629 241.88 374.916 240.924 373.778 240.394C372.387 239.748 370.129 238.937 370.129 238.937C370.129 238.937 376.508 228.655 382.368 223.796C387.139 219.842 392.911 217.059 396.062 215.754C399.214 214.448 401.137 215.745 404 217.628C406.344 219.169 410.579 222.713 407.936 223.667C395.709 228.081 395.159 226.991 388.241 231.529Z" fill="black" stroke="black" stroke-width="2"/>
<path d="M211.892 418.376C213.015 412.781 216.658 404.835 216.658 404.835C216.658 404.835 215.361 403.529 214.585 402.631C213.636 401.533 212.29 399.685 212.29 399.685C212.29 399.685 206.657 408.656 203.86 415.132C201.484 420.632 199.012 427.172 198.929 430.429C198.846 433.686 199.94 437.269 202.337 439.374C204.299 441.098 210.473 446.752 210.429 444.06C210.226 431.606 210.364 425.989 211.892 418.376Z" fill="black" stroke="black" stroke-width="2"/>
<path d="M375.864 416.689C374.705 410.844 370.92 402.538 370.92 402.538C370.92 402.538 372.277 401.177 373.09 400.241C374.083 399.097 375.494 397.17 375.494 397.17C375.494 397.17 381.366 406.546 384.26 413.32C387.201 420.207 389.294 425.906 389.373 429.307C389.452 432.708 388.301 436.447 385.793 438.64C383.74 440.436 377.279 446.325 377.331 443.514C377.574 430.509 377.442 424.644 375.864 416.689Z" fill="black" stroke="black" stroke-width="2"/>
<path d="M182.742 336.719C186.787 332.32 193.981 325.839 193.981 325.839C193.981 325.839 192.885 324.253 192.282 323.203C191.546 321.921 190.634 319.852 190.634 319.852C190.634 319.852 178.706 325.511 172.491 330.084C168.685 332.885 167.833 334.163 167.407 335.441C166.981 336.719 165.278 339.7 167.407 346.09C168.297 348.76 171.212 353.901 172.491 351.627C178.482 340.978 177.631 342.278 182.742 336.719Z" fill="black" stroke="black" stroke-width="2"/>
<path d="M403.073 336.312C398.805 332.072 391.274 325.882 391.274 325.882C391.274 325.882 392.304 324.236 392.862 323.153C393.544 321.83 394.368 319.708 394.368 319.708C394.368 319.708 406.622 324.856 413.08 329.172C417.035 331.815 417.95 333.062 418.437 334.328C418.924 335.594 419.585 340.715 418.923 345.038C418.494 347.838 415.442 353.073 414.062 350.838C408.499 341.831 409.487 342.683 403.073 336.312Z" fill="black" stroke="black" stroke-width="2"/>
<path d="M364.826 239.175C403.537 239.175 405.092 340.126 382.942 384C376.075 397.602 343.955 449.171 294.118 449.171C250.67 449.171 215.744 408.262 203.815 384C182.663 340.979 181.512 239.175 228.093 239.175C292.412 239.175 293.264 239.175 364.826 239.175Z" fill="#E41E13" stroke="#A4150D" stroke-width="8"/>
<path d="M291.799 331.309C292.039 374.707 296.299 442.356 296.299 442.356C296.299 442.356 299.307 374.691 299.449 331.309C299.557 298.153 298.099 246.416 298.099 246.416H293.599C293.599 246.416 291.616 298.15 291.799 331.309Z" fill="black" stroke="black" stroke-width="2"/>
<path d="M363.637 239.175C361.934 239.175 337.08 239.175 295.911 239.175C254.743 239.175 228.609 239.175 224.775 239.175C224.775 237.839 226.371 226.553 232.869 225.479C245.817 223.337 263.811 222.497 291.225 222.497C318.638 222.497 341.743 222.977 354.692 225.118C361.19 226.193 364.489 237.897 363.637 239.175Z" fill="#1D1008" stroke="#1D1008" stroke-width="6"/>
<path d="M363.188 213.617C363.188 230.32 328.725 226.628 295.5 226.628C260.122 226.628 226.03 230.23 224.752 216.173C222.863 195.408 231.268 183.763 242.642 171.448C257.192 155.694 279.593 149.298 294.609 149.298C310.014 149.298 335.074 159.095 349.131 177.411C360.68 190.413 364.465 205.098 363.188 213.617Z" fill="#6D4F4D" stroke="#604442" stroke-width="8"/>
<path d="M316.067 281.345C316.067 295.93 306.531 307.754 294.769 307.754C283.006 307.754 273.471 295.93 273.471 281.345C273.471 266.759 283.006 254.936 294.769 254.936C306.531 254.936 316.067 266.759 316.067 281.345Z" fill="black"/>
<ellipse cx="242.168" cy="336.43" rx="18.6406" ry="22.8902" transform="rotate(-11.3878 242.168 336.43)" fill="black"/>
<ellipse cx="346.54" cy="336.125" rx="18.6406" ry="22.8902" transform="rotate(7.53279 346.54 336.125)" fill="black"/>
<ellipse cx="213.831" cy="277.343" rx="12.5688" ry="19.3138" transform="rotate(19.5613 213.831 277.343)" fill="black"/>
<ellipse cx="244.672" cy="406.505" rx="12.5688" ry="19.3138" transform="rotate(-38.7437 244.672 406.505)" fill="black"/>
<ellipse cx="341.413" cy="406.588" rx="12.5688" ry="19.3138" transform="rotate(35.9421 341.413 406.588)" fill="black"/>
<ellipse cx="374.109" cy="276.647" rx="12.5688" ry="19.3138" transform="rotate(-13.481 374.109 276.647)" fill="black"/>
<ellipse cx="333.531" cy="194.875" rx="21.2978" ry="20.8719" fill="white"/>
<ellipse cx="330.975" cy="191.041" rx="16.1864" ry="15.3344" fill="black" stroke="black"/>
<circle cx="322.456" cy="183.374" r="2.55574" fill="white"/>
<circle cx="336.087" cy="197.857" r="5.11148" fill="white"/>
<ellipse cx="253.451" cy="194.875" rx="21.2978" ry="20.8719" fill="white"/>
<ellipse cx="250.895" cy="191.041" rx="16.1864" ry="15.3344" fill="black" stroke="black"/>
<circle cx="258.563" cy="183.374" r="2.55574" fill="white"/>
<circle cx="244.08" cy="197.857" r="5.11148" fill="white"/>
<ellipse cx="288.548" cy="175.225" rx="1.70383" ry="3.40765" transform="rotate(-19.0845 288.548 175.225)" fill="#0B0909"/>
<ellipse cx="300.353" cy="175.199" rx="1.70383" ry="3.40765" transform="rotate(18.5685 300.353 175.199)" fill="#0B0909"/>
</svg>
