<svg width="600" height="600" viewBox="0 0 600 600" fill="none" xmlns="http://www.w3.org/2000/svg">
<path d="M461.243 397.272C453.541 409.832 342.221 433.302 356.126 424.773C387.614 405.459 406.975 280.898 443.21 341.085C444.739 343.625 452.087 353.334 451.988 362.299C451.853 374.554 434.751 387.053 434.857 388.593C435.023 391.007 447.583 387.409 454.839 387.61C460.67 387.771 465.534 390.274 461.243 397.272Z" fill="#E2E1E1"/>
<path d="M461.243 397.272C453.541 409.832 342.221 433.302 356.126 424.773C387.614 405.459 406.975 280.898 443.21 341.085C444.739 343.625 452.087 353.334 451.988 362.299C451.853 374.554 434.751 387.053 434.857 388.593C435.023 391.007 447.583 387.409 454.839 387.61C460.67 387.771 465.534 390.274 461.243 397.272Z" stroke="#E2E1E1" stroke-width="5"/>
<path d="M461.243 397.272C453.541 409.832 342.221 433.302 356.126 424.773C387.614 405.459 406.975 280.898 443.21 341.085C444.739 343.625 452.087 353.334 451.988 362.299C451.853 374.554 434.751 387.053 434.857 388.593C435.023 391.007 447.583 387.409 454.839 387.61C460.67 387.771 465.534 390.274 461.243 397.272Z" stroke="black" stroke-opacity="0.2" stroke-width="5"/>
<path d="M201.477 275.607C199.406 281.384 164.387 380.388 192.698 422.855C223.422 468.941 344.124 474.793 368.995 422.855C393.865 370.917 360.22 280.015 358.022 275.607C358.022 275.607 203.222 270.741 201.477 275.607Z" fill="white"/>
<path d="M201.477 275.607C199.406 281.384 164.387 380.388 192.698 422.855C223.422 468.941 344.124 474.793 368.995 422.855C393.865 370.917 360.22 280.015 358.022 275.607C358.022 275.607 203.222 270.741 201.477 275.607Z" stroke="white" stroke-width="5"/>
<path d="M201.477 275.607C199.406 281.384 164.387 380.388 192.698 422.855C223.422 468.941 344.124 474.793 368.995 422.855C393.865 370.917 360.22 280.015 358.022 275.607C358.022 275.607 203.222 270.741 201.477 275.607Z" stroke="black" stroke-opacity="0.2" stroke-width="5"/>
<path d="M262.398 437.201C254.942 438.023 242.996 439.584 242.996 439.584C242.996 439.584 228.806 437.217 222.605 430.877C218.315 426.489 216.413 424.216 213.506 419.229C210.399 413.898 209.065 410.716 207.189 404.588C205.314 398.46 205.193 395.16 204.968 388.972C204.742 382.784 206.077 374.061 206.077 374.061C206.077 374.061 207.574 366.522 209.354 361.962C212.312 354.381 215.002 350.414 220.273 344.214C225.02 338.632 228.163 335.766 234.276 331.725C241.643 326.854 246.499 325.049 255.014 322.707C265.292 319.881 271.543 319.403 282.182 320.065C290.768 320.599 296.792 321.17 304.918 323.998C313.043 326.826 318.071 328.335 325.145 333.08C331.027 337.025 335.212 340.251 340.006 345.464C345.49 351.426 347.359 356.09 350.327 363.628C352.841 370.015 353.458 376.19 354.042 383.03C354.702 390.766 353.815 394.119 352.391 400.368C350.966 406.616 349.462 409.317 345.99 416.053C342.518 422.789 341.547 423.923 337.748 427.92C334.26 431.588 331.274 433.624 326.895 436.164C322.617 438.645 315.082 440.725 315.082 440.725C315.082 440.725 305.626 438.88 298.313 437.933C290.999 436.987 287.418 436.49 280.562 436.164C273.477 435.827 269.449 436.424 262.398 437.201Z" fill="#E2E1E1"/>
<path d="M401.955 465.23C371.231 461.573 356.159 443.497 356.159 443.497C356.159 443.497 352.994 329.263 372.252 325.724C387.987 322.832 396.145 426.304 411.598 430.444C424.034 433.775 434.883 440.984 433.41 453.526C431.881 466.543 414.97 466.78 401.955 465.23Z" fill="white"/>
<path d="M401.955 465.23C371.231 461.573 356.159 443.497 356.159 443.497C356.159 443.497 352.994 329.263 372.252 325.724C387.987 322.832 396.145 426.304 411.598 430.444C424.034 433.775 434.883 440.984 433.41 453.526C431.881 466.543 414.97 466.78 401.955 465.23Z" stroke="white" stroke-width="5"/>
<path d="M401.955 465.23C371.231 461.573 356.159 443.497 356.159 443.497C356.159 443.497 352.994 329.263 372.252 325.724C387.987 322.832 396.145 426.304 411.598 430.444C424.034 433.775 434.883 440.984 433.41 453.526C431.881 466.543 414.97 466.78 401.955 465.23Z" stroke="black" stroke-opacity="0.2" stroke-width="5"/>
<path d="M156.59 459.437C187.313 455.78 202.385 437.704 202.385 437.704C202.385 437.704 205.55 323.47 186.292 319.931C170.558 317.039 162.399 420.511 146.946 424.651C134.51 427.982 123.661 435.191 125.134 447.733C126.663 460.75 143.575 460.987 156.59 459.437Z" fill="white"/>
<path d="M156.59 459.437C187.313 455.78 202.385 437.704 202.385 437.704C202.385 437.704 205.55 323.47 186.292 319.931C170.558 317.039 162.399 420.511 146.946 424.651C134.51 427.982 123.661 435.191 125.134 447.733C126.663 460.75 143.575 460.987 156.59 459.437Z" stroke="white" stroke-width="5"/>
<path d="M156.59 459.437C187.313 455.78 202.385 437.704 202.385 437.704C202.385 437.704 205.55 323.47 186.292 319.931C170.558 317.039 162.399 420.511 146.946 424.651C134.51 427.982 123.661 435.191 125.134 447.733C126.663 460.75 143.575 460.987 156.59 459.437Z" stroke="black" stroke-opacity="0.2" stroke-width="5"/>
<path d="M280.773 135C226.322 135 197.409 174.829 181.723 220.826C176.193 234.185 159.37 262.355 187.454 291.012C212.025 311.831 248.183 313.254 280.773 313.254C313.364 313.254 425.313 317.377 377.913 220.826C362.227 174.829 335.225 135 280.773 135Z" fill="white"/>
<path d="M280.773 135C226.322 135 197.409 174.829 181.723 220.826C176.193 234.185 159.37 262.355 187.454 291.012C212.025 311.831 248.183 313.254 280.773 313.254C313.364 313.254 425.313 317.377 377.913 220.826C362.227 174.829 335.225 135 280.773 135Z" stroke="white" stroke-width="5"/>
<path d="M280.773 135C226.322 135 197.409 174.829 181.723 220.826C176.193 234.185 159.37 262.355 187.454 291.012C212.025 311.831 248.183 313.254 280.773 313.254C313.364 313.254 425.313 317.377 377.913 220.826C362.227 174.829 335.225 135 280.773 135Z" stroke="black" stroke-opacity="0.2" stroke-width="5"/>
<path d="M227.483 238.98C219.528 238.98 179.869 241.867 173.125 262.451C178.714 308.332 257.226 313.49 281.005 313.49C304.811 313.49 388.485 311.198 388.485 262.451C382.941 241.569 342.081 238.98 334.127 238.98C326.172 238.98 325.244 252.934 318.217 249.906C304.718 244.09 298.241 256.175 281.005 256.175C263.77 256.175 256.849 244.108 243.393 249.906C236.365 252.934 235.438 238.98 227.483 238.98Z" fill="#DBD9D9" fill-opacity="0.8"/>
<path d="M292.601 289.418H270.249C270.249 289.418 274.372 304.501 281.712 304.32C288.917 304.143 292.601 289.418 292.601 289.418Z" fill="#F9A4A4"/>
<path d="M281.336 274.047V285.739M281.336 285.739C281.336 285.739 277.737 289.242 274.802 289.522C271.273 289.858 266.549 285.739 266.549 285.739M281.336 285.739C281.336 285.739 284.927 289.342 287.87 289.522C291.167 289.724 295.436 285.739 295.436 285.739" stroke="black" stroke-width="5" stroke-linecap="round"/>
<path d="M281.07 275.08C279.525 275.08 269.096 271.245 268.024 265.302C266.953 259.359 295.96 259.359 294.115 265.302C292.271 271.245 282.615 275.08 281.07 275.08Z" fill="#27051B"/>
<path d="M284.818 264.728C284.818 265.442 283.08 266.022 280.936 266.022C278.792 266.022 277.054 265.442 277.054 264.728C277.054 264.013 278.792 263.434 280.936 263.434C283.08 263.434 284.818 264.013 284.818 264.728Z" fill="white" fill-opacity="0.5"/>
<ellipse cx="225.595" cy="265.519" rx="15.2131" ry="6.83379" fill="#D2C5BC"/>
<ellipse cx="340.177" cy="265.775" rx="15.2131" ry="6.83379" transform="rotate(-2.27638 340.177 265.775)" fill="#D2C5BC"/>
<ellipse cx="20.9457" cy="24.7657" rx="20.9457" ry="24.7657" transform="matrix(-0.953838 0.300322 0.215795 0.976439 342.796 198.639)" fill="black" stroke="#504B4F"/>
<ellipse cx="5.95925" cy="5.10741" rx="5.95925" ry="5.10741" transform="matrix(-0.82516 0.564899 0.575712 0.817653 322.905 212.897)" fill="white" stroke="#504B4F"/>
<ellipse cx="20.9457" cy="24.7657" rx="20.9457" ry="24.7657" transform="matrix(-0.953838 0.300322 0.215795 0.976439 247.359 197.484)" fill="black" stroke="#504B4F"/>
<ellipse cx="5.95925" cy="5.10741" rx="5.95925" ry="5.10741" transform="matrix(-0.82516 0.564899 0.575712 0.817653 227.467 211.742)" fill="white" stroke="#504B4F"/>
<circle cx="0.573152" cy="0.573152" r="0.573152" transform="matrix(-0.945 0.327071 0.327071 0.945 256.679 275.48)" fill="#504B4F" stroke="#504B4F"/>
<circle cx="0.573152" cy="0.573152" r="0.573152" transform="matrix(-0.945 0.327071 0.327071 0.945 259.637 280.522)" fill="#504B4F" stroke="#504B4F"/>
<circle cx="0.573152" cy="0.573152" r="0.573152" transform="matrix(-0.945 0.327071 0.327071 0.945 255.345 285.646)" fill="#504B4F" stroke="#504B4F"/>
<circle cx="311.672" cy="276.188" r="0.573152" transform="rotate(16.1887 311.672 276.188)" fill="#504B4F" stroke="#504B4F"/>
<circle cx="308.973" cy="281.373" r="0.573152" transform="rotate(16.1887 308.973 281.373)" fill="#504B4F" stroke="#504B4F"/>
<circle cx="313.519" cy="286.273" r="0.573152" transform="rotate(16.1887 313.519 286.273)" fill="#504B4F" stroke="#504B4F"/>
<path d="M319.74 275.435C329.013 271.927 333.563 272.028 340.868 274.842" stroke="black" stroke-opacity="0.6" stroke-linecap="round"/>
<path d="M319.433 285.062C329.2 283.356 333.651 284.309 340.298 288.442" stroke="black" stroke-opacity="0.6" stroke-linecap="round"/>
<path d="M317.967 280.825C327.514 278.148 332.037 278.649 339.066 282.095" stroke="black" stroke-opacity="0.6" stroke-linecap="round"/>
<path d="M250.337 276.209C241.064 272.7 236.514 272.8 229.209 275.613" stroke="black" stroke-opacity="0.6" stroke-linecap="round"/>
<path d="M250.641 285.837C240.875 284.129 236.424 285.081 229.776 289.213" stroke="black" stroke-opacity="0.6" stroke-linecap="round"/>
<path d="M252.109 281.601C242.563 278.921 238.039 279.422 231.01 282.866" stroke="black" stroke-opacity="0.6" stroke-linecap="round"/>
<ellipse cx="2.40265" cy="2.40265" rx="2.40265" ry="2.40265" transform="matrix(-1 0 0 1 328.93 186.25)" fill="#504B4F" stroke="#504B4F"/>
<ellipse cx="2.40265" cy="2.40265" rx="2.40265" ry="2.40265" transform="matrix(-1 0 0 1 244.104 186.25)" fill="#504B4F" stroke="#504B4F"/>
</svg>
