<svg width="600" height="600" viewBox="0 0 600 600" fill="none" xmlns="http://www.w3.org/2000/svg">
<path d="M381.397 417.771L310.109 377.299L322.442 374.656C322.442 374.656 387.298 403.05 409.062 417.771C418.907 424.43 404.2 426.1 397.764 427.514C357.913 436.269 313.551 446.69 313.551 446.69C313.551 446.69 317.597 449.538 325.526 453.943C327.728 455.166 329.091 457.568 323.323 460.99C318.478 463.865 309.668 464.074 300.859 458.347C293.741 453.721 286.529 447.364 289.847 440.728C293.371 433.68 305.262 432.699 313.551 430.771C345.498 423.342 381.397 417.771 381.397 417.771Z" fill="#FE9F45"/>
<path d="M381.397 417.771L310.109 377.299L322.442 374.656C322.442 374.656 387.298 403.05 409.062 417.771C418.907 424.43 404.2 426.1 397.764 427.514C357.913 436.269 313.551 446.69 313.551 446.69C313.551 446.69 317.597 449.538 325.526 453.943C327.728 455.166 329.091 457.568 323.323 460.99C318.478 463.865 309.668 464.074 300.859 458.347C293.741 453.721 286.529 447.364 289.847 440.728C293.371 433.68 305.262 432.699 313.551 430.771C345.498 423.342 381.397 417.771 381.397 417.771Z" stroke="#FF9C3E" stroke-width="5"/>
<path d="M381.397 417.771L310.109 377.299L322.442 374.656C322.442 374.656 387.298 403.05 409.062 417.771C418.907 424.43 404.2 426.1 397.764 427.514C357.913 436.269 313.551 446.69 313.551 446.69C313.551 446.69 317.597 449.538 325.526 453.943C327.728 455.166 329.091 457.568 323.323 460.99C318.478 463.865 309.668 464.074 300.859 458.347C293.741 453.721 286.529 447.364 289.847 440.728C293.371 433.68 305.262 432.699 313.551 430.771C345.498 423.342 381.397 417.771 381.397 417.771Z" stroke="black" stroke-opacity="0.2" stroke-width="5"/>
<path d="M336.838 403.742V368.931H349.995V403.742C349.995 403.742 355.567 408.292 355.477 412.24C355.37 416.934 347.254 421.011 347.254 421.011V496.665C347.254 496.665 328.908 498.858 317.102 498.858C310.549 498.858 305.318 498.353 303.122 492.827C300.272 485.652 308.347 480.812 317.102 478.848C323.885 477.326 334.645 475.833 334.645 475.833L336.838 421.011C336.838 421.011 329.366 416.721 329.437 412.24C329.506 407.84 336.838 403.742 336.838 403.742Z" fill="#FF9C3E"/>
<path d="M336.838 403.742V368.931H349.995V403.742C349.995 403.742 355.567 408.292 355.477 412.24C355.37 416.934 347.254 421.011 347.254 421.011V496.665C347.254 496.665 328.908 498.858 317.102 498.858C310.549 498.858 305.318 498.353 303.122 492.827C300.272 485.652 308.347 480.812 317.102 478.848C323.885 477.326 334.645 475.833 334.645 475.833L336.838 421.011C336.838 421.011 329.366 416.721 329.437 412.24C329.506 407.84 336.838 403.742 336.838 403.742Z" stroke="#FF9C3E" stroke-width="5"/>
<path d="M336.838 403.742V368.931H349.995V403.742C349.995 403.742 355.567 408.292 355.477 412.24C355.37 416.934 347.254 421.011 347.254 421.011V496.665C347.254 496.665 328.908 498.858 317.102 498.858C310.549 498.858 305.318 498.353 303.122 492.827C300.272 485.652 308.347 480.812 317.102 478.848C323.885 477.326 334.645 475.833 334.645 475.833L336.838 421.011C336.838 421.011 329.366 416.721 329.437 412.24C329.506 407.84 336.838 403.742 336.838 403.742Z" stroke="black" stroke-opacity="0.2" stroke-width="5"/>
<path d="M344.336 384.86C337.223 382.975 329.049 368.519 329.049 368.519L374.693 368.12C374.693 368.12 367.649 376.647 361.621 380.001C355.494 383.411 351.114 386.657 344.336 384.86Z" fill="#FFA4A0"/>
<path d="M344.336 384.86C337.223 382.975 329.049 368.519 329.049 368.519L374.693 368.12C374.693 368.12 367.649 376.647 361.621 380.001C355.494 383.411 351.114 386.657 344.336 384.86Z" stroke="#FEA69E" stroke-width="5"/>
<path d="M344.336 384.86C337.223 382.975 329.049 368.519 329.049 368.519L374.693 368.12C374.693 368.12 367.649 376.647 361.621 380.001C355.494 383.411 351.114 386.657 344.336 384.86Z" stroke="black" stroke-opacity="0.2" stroke-width="5"/>
<path d="M328.578 386.889C321.239 387.433 308.787 376.444 308.787 376.444L351.791 361.141C351.791 361.141 347.922 371.503 343.323 376.644C338.648 381.87 335.57 386.37 328.578 386.889Z" fill="#FFA4A0"/>
<path d="M328.578 386.889C321.239 387.433 308.787 376.444 308.787 376.444L351.791 361.141C351.791 361.141 347.922 371.503 343.323 376.644C338.648 381.87 335.57 386.37 328.578 386.889Z" stroke="#FEA69E" stroke-width="5"/>
<path d="M328.578 386.889C321.239 387.433 308.787 376.444 308.787 376.444L351.791 361.141C351.791 361.141 347.922 371.503 343.323 376.644C338.648 381.87 335.57 386.37 328.578 386.889Z" stroke="black" stroke-opacity="0.2" stroke-width="5"/>
<path d="M226.336 175.635C222.943 192.938 238.311 261.013 238.311 261.013L185.131 285.239C181.829 285.874 182.518 259.017 185.131 247.798C188.828 231.925 185.131 214.322 185.131 198.024C185.131 189.916 226.336 175.635 226.336 175.635Z" fill="#FEA69E"/>
<path d="M226.336 175.635C222.943 192.938 238.311 261.013 238.311 261.013L185.131 285.239C181.829 285.874 182.518 259.017 185.131 247.798C188.828 231.925 185.131 214.322 185.131 198.024C185.131 189.916 226.336 175.635 226.336 175.635Z" stroke="#FEA69E" stroke-width="5"/>
<path d="M226.336 175.635C222.943 192.938 238.311 261.013 238.311 261.013L185.131 285.239C181.829 285.874 182.518 259.017 185.131 247.798C188.828 231.925 185.131 214.322 185.131 198.024C185.131 189.916 226.336 175.635 226.336 175.635Z" stroke="black" stroke-opacity="0.2" stroke-width="5"/>
<path d="M463.836 213.517C429.614 236.226 354.597 168.91 238.294 258.37C218.929 267.62 177.793 265.279 184.241 284.887C195.069 317.81 204.991 335.972 238.294 355.275C267.871 372.419 296.478 379.638 330.655 378.823C379.3 377.662 420.755 367.595 448.86 339.418C486.525 301.656 534.312 166.75 463.836 213.517Z" fill="#FEA69E"/>
<path d="M463.836 213.517C429.614 236.226 354.597 168.91 238.294 258.37C218.929 267.62 177.793 265.279 184.241 284.887C195.069 317.81 204.991 335.972 238.294 355.275C267.871 372.419 296.478 379.638 330.655 378.823C379.3 377.662 420.755 367.595 448.86 339.418C486.525 301.656 534.312 166.75 463.836 213.517Z" stroke="#FEA69E" stroke-width="5"/>
<path d="M463.836 213.517C429.614 236.226 354.597 168.91 238.294 258.37C218.929 267.62 177.793 265.279 184.241 284.887C195.069 317.81 204.991 335.972 238.294 355.275C267.871 372.419 296.478 379.638 330.655 378.823C379.3 377.662 420.755 367.595 448.86 339.418C486.525 301.656 534.312 166.75 463.836 213.517Z" stroke="black" stroke-opacity="0.2" stroke-width="5"/>
<path fill-rule="evenodd" clip-rule="evenodd" d="M413.229 281.643C423.308 272.367 429.221 261.496 429.221 252.38C429.221 242.904 426.592 244.748 419.831 249.489C411.923 255.033 398.362 264.542 376.743 264.542C334.639 260.271 271.787 265.152 271.787 298.713C271.787 299.977 271.965 301.098 272.308 302.092C272.492 322.569 304.932 339.14 344.923 339.14C385.027 339.14 415.097 309.66 415.097 289.102C415.097 284.683 414.525 282.441 413.229 281.643Z" fill="#F4887E"/>
<path d="M413.229 281.643L411.536 279.804L409.104 282.042L411.919 283.773L413.229 281.643ZM419.831 249.489L421.266 251.536L421.266 251.536L419.831 249.489ZM376.743 264.542L376.491 267.029L376.617 267.042H376.743V264.542ZM272.308 302.092L274.808 302.069L274.805 301.661L274.671 301.275L272.308 302.092ZM426.721 252.38C426.721 260.514 421.354 270.768 411.536 279.804L414.922 283.483C425.262 273.966 431.721 262.478 431.721 252.38H426.721ZM421.266 251.536C422.991 250.326 424.32 249.397 425.401 248.773C426.605 248.077 426.951 248.103 426.844 248.094C426.658 248.077 426.427 247.98 426.27 247.824C426.164 247.718 426.222 247.713 426.327 248.035C426.549 248.722 426.721 250.047 426.721 252.38H431.721C431.721 249.975 431.564 247.977 431.083 246.493C430.835 245.729 430.448 244.926 429.795 244.278C429.093 243.579 428.217 243.194 427.279 243.112C425.669 242.972 424.091 243.755 422.9 244.443C421.586 245.202 420.052 246.28 418.396 247.442L421.266 251.536ZM376.743 267.042C399.177 267.042 413.281 257.134 421.266 251.536L418.396 247.442C410.565 252.933 397.547 262.042 376.743 262.042V267.042ZM274.287 298.713C274.287 291.238 277.736 285.319 283.803 280.586C289.949 275.791 298.725 272.276 309.042 269.875C329.656 265.078 355.597 264.91 376.491 267.029L376.995 262.055C355.785 259.903 329.247 260.04 307.909 265.005C297.25 267.486 287.682 271.218 280.727 276.644C273.694 282.131 269.287 289.408 269.287 298.713H274.287ZM274.671 301.275C274.432 300.582 274.287 299.741 274.287 298.713H269.287C269.287 300.212 269.498 301.615 269.946 302.909L274.671 301.275ZM344.923 336.64C325.239 336.64 307.537 332.557 294.824 326.068C281.979 319.512 274.887 310.894 274.808 302.069L269.808 302.114C269.913 313.767 279.133 323.673 292.551 330.521C306.102 337.438 324.615 341.64 344.923 341.64V336.64ZM412.597 289.102C412.597 298.295 405.737 310.16 393.495 319.872C381.366 329.493 364.361 336.64 344.923 336.64V341.64C365.589 341.64 383.671 334.047 396.602 323.789C409.421 313.621 417.597 300.467 417.597 289.102H412.597ZM411.919 283.773C411.765 283.679 411.99 283.694 412.224 284.624C412.454 285.538 412.597 286.96 412.597 289.102H417.597C417.597 286.825 417.454 284.917 417.073 283.405C416.697 281.91 415.988 280.406 414.538 279.514L411.919 283.773Z" fill="#F4887E"/>
<path d="M413.229 281.643L411.536 279.804L409.104 282.042L411.919 283.773L413.229 281.643ZM419.831 249.489L421.266 251.536L421.266 251.536L419.831 249.489ZM376.743 264.542L376.491 267.029L376.617 267.042H376.743V264.542ZM272.308 302.092L274.808 302.069L274.805 301.661L274.671 301.275L272.308 302.092ZM426.721 252.38C426.721 260.514 421.354 270.768 411.536 279.804L414.922 283.483C425.262 273.966 431.721 262.478 431.721 252.38H426.721ZM421.266 251.536C422.991 250.326 424.32 249.397 425.401 248.773C426.605 248.077 426.951 248.103 426.844 248.094C426.658 248.077 426.427 247.98 426.27 247.824C426.164 247.718 426.222 247.713 426.327 248.035C426.549 248.722 426.721 250.047 426.721 252.38H431.721C431.721 249.975 431.564 247.977 431.083 246.493C430.835 245.729 430.448 244.926 429.795 244.278C429.093 243.579 428.217 243.194 427.279 243.112C425.669 242.972 424.091 243.755 422.9 244.443C421.586 245.202 420.052 246.28 418.396 247.442L421.266 251.536ZM376.743 267.042C399.177 267.042 413.281 257.134 421.266 251.536L418.396 247.442C410.565 252.933 397.547 262.042 376.743 262.042V267.042ZM274.287 298.713C274.287 291.238 277.736 285.319 283.803 280.586C289.949 275.791 298.725 272.276 309.042 269.875C329.656 265.078 355.597 264.91 376.491 267.029L376.995 262.055C355.785 259.903 329.247 260.04 307.909 265.005C297.25 267.486 287.682 271.218 280.727 276.644C273.694 282.131 269.287 289.408 269.287 298.713H274.287ZM274.671 301.275C274.432 300.582 274.287 299.741 274.287 298.713H269.287C269.287 300.212 269.498 301.615 269.946 302.909L274.671 301.275ZM344.923 336.64C325.239 336.64 307.537 332.557 294.824 326.068C281.979 319.512 274.887 310.894 274.808 302.069L269.808 302.114C269.913 313.767 279.133 323.673 292.551 330.521C306.102 337.438 324.615 341.64 344.923 341.64V336.64ZM412.597 289.102C412.597 298.295 405.737 310.16 393.495 319.872C381.366 329.493 364.361 336.64 344.923 336.64V341.64C365.589 341.64 383.671 334.047 396.602 323.789C409.421 313.621 417.597 300.467 417.597 289.102H412.597ZM411.919 283.773C411.765 283.679 411.99 283.694 412.224 284.624C412.454 285.538 412.597 286.96 412.597 289.102H417.597C417.597 286.825 417.454 284.917 417.073 283.405C416.697 281.91 415.988 280.406 414.538 279.514L411.919 283.773Z" fill="black" fill-opacity="0.2"/>
<path fill-rule="evenodd" clip-rule="evenodd" d="M379.372 295.99C384.841 290.956 388.05 285.058 388.05 280.111C388.05 274.969 386.623 275.969 382.954 278.542C378.663 281.551 371.305 286.711 359.573 286.711C336.726 284.393 302.62 287.042 302.62 305.253C302.62 305.939 302.717 306.548 302.904 307.087C303.005 318.198 320.607 327.19 342.307 327.19C364.069 327.19 380.386 311.193 380.386 300.037C380.386 297.639 380.075 296.423 379.372 295.99Z" fill="#FF6A5C"/>
<ellipse cx="180.167" cy="154.857" rx="51.0956" ry="52.8575" fill="#FEA69E"/>
<ellipse cx="180.167" cy="154.857" rx="51.0956" ry="52.8575" stroke="#FEA69E" stroke-width="5"/>
<ellipse cx="180.167" cy="154.857" rx="51.0956" ry="52.8575" stroke="black" stroke-opacity="0.2" stroke-width="5"/>
<ellipse cx="177.524" cy="141.251" rx="17.6192" ry="17.2276" fill="white"/>
<ellipse cx="169.694" cy="141.482" rx="9.78843" ry="9.57091" fill="black"/>
<ellipse cx="178.846" cy="137.238" rx="7.48815" ry="4.40479" fill="white" fill-opacity="0.6"/>
<path d="M147.797 185.035C143.689 189.347 138.941 187.989 133.638 190.699C125.461 194.877 123.433 206.021 114.423 204.251C107.241 202.839 104.099 197.532 101.478 190.699C98.0365 181.727 101.11 174.963 105.523 166.427C110.452 156.893 121.425 144.999 132.155 144.727C138.024 144.579 136.732 147.937 139.908 152.875C143.167 157.942 150.655 164.989 152.853 172.091C154.458 177.275 151.54 181.106 147.797 185.035Z" fill="#FEE3C8"/>
<path d="M111.415 204.394C114.606 206.019 118.566 206.32 121.317 204.028C123.518 202.194 125.613 200.031 126.452 197.426C127.536 194.059 124.851 191.763 122.645 188.998C120.041 185.734 116.773 183.122 112.743 182.03C108.872 180.981 104.763 180.703 101.879 183.49C98.2571 186.99 101.534 193.704 104.08 198.16C105.547 200.727 108.604 202.964 111.415 204.394Z" fill="#3D3D3D"/>
</svg>
