<svg width="600" height="600" viewBox="0 0 600 600" fill="none" xmlns="http://www.w3.org/2000/svg">
<path d="M469.022 425.117C450.26 419.852 358.5 313.33 358.5 313.33L392.324 304.306C392.324 304.306 497.672 406.566 495.927 417.939C494.182 429.311 487.784 430.382 469.022 425.117Z" fill="#9F9F9F"/>
<path d="M448.95 428.545C433.236 422.644 351.5 314.104 351.5 314.104L378.708 306.475C378.708 306.475 471.337 411.323 470.593 422.477C469.848 433.63 464.663 434.445 448.95 428.545Z" fill="#474745"/>
<path d="M426.95 433.545C411.236 427.644 329.5 319.104 329.5 319.104L356.708 311.475C356.708 311.475 449.337 416.323 448.593 427.477C447.848 438.63 442.663 439.445 426.95 433.545Z" fill="black"/>
<path d="M441.624 337.091C409.367 326.309 412.812 243.25 295.409 212.841C279.436 204.914 259.431 176.912 250.382 191.066C235.188 214.832 228.869 230.517 234.04 262.02C238.633 289.999 249.004 312.31 267.372 334.173C293.516 365.292 321.546 387.204 354.07 391.223C397.658 396.61 508.054 359.295 441.624 337.091Z" fill="#1D1C1C"/>
<path d="M441.624 337.091C409.367 326.309 412.812 243.25 295.409 212.841C279.436 204.914 259.431 176.912 250.382 191.066C235.188 214.832 228.869 230.517 234.04 262.02C238.633 289.999 249.004 312.31 267.372 334.173C293.516 365.292 321.546 387.204 354.07 391.223C397.658 396.61 508.054 359.295 441.624 337.091Z" stroke="#1D1C1C" stroke-width="5"/>
<path d="M441.624 337.091C409.367 326.309 412.812 243.25 295.409 212.841C279.436 204.914 259.431 176.912 250.382 191.066C235.188 214.832 228.869 230.517 234.04 262.02C238.633 289.999 249.004 312.31 267.372 334.173C293.516 365.292 321.546 387.204 354.07 391.223C397.658 396.61 508.054 359.295 441.624 337.091Z" stroke="black" stroke-opacity="0.2" stroke-width="5"/>
<path fill-rule="evenodd" clip-rule="evenodd" d="M436.664 326.041C451.758 322.305 463.574 314.709 468.547 305.634C473.716 296.202 470.094 296.603 460.777 297.634C449.88 298.84 431.194 300.908 409.673 289.114C370.09 261.894 304.861 232.467 286.553 265.877C285.864 267.134 285.429 268.348 285.229 269.524C274.241 290.008 297.495 324.2 337.304 346.015C377.226 367.892 423.241 354.949 434.455 334.485C436.866 330.086 437.52 327.542 436.664 326.041Z" fill="#222222"/>
<path d="M436.664 326.041L436.063 323.614L432.855 324.408L434.492 327.279L436.664 326.041ZM460.777 297.634L461.052 300.118L461.052 300.118L460.777 297.634ZM409.673 289.114L408.256 291.174L408.361 291.246L408.472 291.307L409.673 289.114ZM285.229 269.524L287.432 270.706L287.625 270.346L287.694 269.943L285.229 269.524ZM466.355 304.433C461.854 312.647 450.813 319.963 436.063 323.614L437.265 328.468C452.703 324.646 465.295 316.771 470.74 306.835L466.355 304.433ZM461.052 300.118C463.422 299.856 465.27 299.654 466.705 299.622C468.281 299.586 468.712 299.793 468.707 299.79C468.593 299.714 468.467 299.556 468.419 299.393C468.391 299.299 468.445 299.385 468.368 299.793C468.204 300.655 467.63 302.106 466.355 304.433L470.74 306.835C472.049 304.446 472.96 302.41 473.28 300.726C473.444 299.861 473.49 298.91 473.215 297.978C472.919 296.978 472.307 296.181 471.482 295.63C470.053 294.677 468.154 294.588 466.592 294.623C464.889 294.661 462.79 294.896 460.502 295.149L461.052 300.118ZM408.472 291.307C430.707 303.492 450.062 301.335 461.052 300.118L460.502 295.149C449.698 296.344 431.681 298.323 410.874 286.922L408.472 291.307ZM288.745 267.078C292.882 259.528 299.645 255.468 308.349 254.053C317.151 252.621 327.858 253.923 339.461 257.167C362.647 263.65 388.596 277.654 408.256 291.174L411.089 287.054C391.167 273.354 364.709 259.035 340.808 252.352C328.867 249.013 317.361 247.521 307.546 249.118C297.633 250.73 289.377 255.521 284.36 264.675L288.745 267.078ZM287.694 269.943C287.84 269.08 288.169 268.129 288.745 267.078L284.36 264.675C283.558 266.139 283.017 267.615 282.764 269.105L287.694 269.943ZM338.505 343.823C318.874 333.065 303.436 319.31 294.284 305.864C285.05 292.295 282.607 279.702 287.432 270.706L283.026 268.342C276.864 279.831 280.554 294.576 290.151 308.677C299.832 322.902 315.924 337.15 336.102 348.208L338.505 343.823ZM432.262 333.284C427.177 342.563 413.757 350.667 396.223 353.664C378.833 356.637 357.928 354.466 338.505 343.823L336.102 348.208C356.602 359.441 378.665 361.738 397.066 358.592C415.324 355.471 430.518 346.871 436.647 335.686L432.262 333.284ZM434.492 327.279C434.454 327.212 434.65 327.454 434.365 328.546C434.085 329.62 433.435 331.143 432.262 333.284L436.647 335.686C437.885 333.428 438.768 331.479 439.204 329.806C439.635 328.151 439.73 326.371 438.836 324.803L434.492 327.279Z" fill="#222222"/>
<path d="M436.664 326.041L436.063 323.614L432.855 324.408L434.492 327.279L436.664 326.041ZM460.777 297.634L461.052 300.118L461.052 300.118L460.777 297.634ZM409.673 289.114L408.256 291.174L408.361 291.246L408.472 291.307L409.673 289.114ZM285.229 269.524L287.432 270.706L287.625 270.346L287.694 269.943L285.229 269.524ZM466.355 304.433C461.854 312.647 450.813 319.963 436.063 323.614L437.265 328.468C452.703 324.646 465.295 316.771 470.74 306.835L466.355 304.433ZM461.052 300.118C463.422 299.856 465.27 299.654 466.705 299.622C468.281 299.586 468.712 299.793 468.707 299.79C468.593 299.714 468.467 299.556 468.419 299.393C468.391 299.299 468.445 299.385 468.368 299.793C468.204 300.655 467.63 302.106 466.355 304.433L470.74 306.835C472.049 304.446 472.96 302.41 473.28 300.726C473.444 299.861 473.49 298.91 473.215 297.978C472.919 296.978 472.307 296.181 471.482 295.63C470.053 294.677 468.154 294.588 466.592 294.623C464.889 294.661 462.79 294.896 460.502 295.149L461.052 300.118ZM408.472 291.307C430.707 303.492 450.062 301.335 461.052 300.118L460.502 295.149C449.698 296.344 431.681 298.323 410.874 286.922L408.472 291.307ZM288.745 267.078C292.882 259.528 299.645 255.468 308.349 254.053C317.151 252.621 327.858 253.923 339.461 257.167C362.647 263.65 388.596 277.654 408.256 291.174L411.089 287.054C391.167 273.354 364.709 259.035 340.808 252.352C328.867 249.013 317.361 247.521 307.546 249.118C297.633 250.73 289.377 255.521 284.36 264.675L288.745 267.078ZM287.694 269.943C287.84 269.08 288.169 268.129 288.745 267.078L284.36 264.675C283.558 266.139 283.017 267.615 282.764 269.105L287.694 269.943ZM338.505 343.823C318.874 333.065 303.436 319.31 294.284 305.864C285.05 292.295 282.607 279.702 287.432 270.706L283.026 268.342C276.864 279.831 280.554 294.576 290.151 308.677C299.832 322.902 315.924 337.15 336.102 348.208L338.505 343.823ZM432.262 333.284C427.177 342.563 413.757 350.667 396.223 353.664C378.833 356.637 357.928 354.466 338.505 343.823L336.102 348.208C356.602 359.441 378.665 361.738 397.066 358.592C415.324 355.471 430.518 346.871 436.647 335.686L432.262 333.284ZM434.492 327.279C434.454 327.212 434.65 327.454 434.365 328.546C434.085 329.62 433.435 331.143 432.262 333.284L436.647 335.686C437.885 333.428 438.768 331.479 439.204 329.806C439.635 328.151 439.73 326.371 438.836 324.803L434.492 327.279Z" fill="black" fill-opacity="0.2"/>
<path fill-rule="evenodd" clip-rule="evenodd" d="M393.923 319.34C402.113 317.313 408.525 313.191 411.223 308.267C414.028 303.148 412.062 303.366 407.007 303.925C401.094 304.58 390.954 305.702 379.276 299.302C357.796 284.532 322.401 268.564 312.466 286.693C312.092 287.375 311.856 288.035 311.748 288.673C305.787 299.789 318.405 318.342 340.006 330.179C361.669 342.05 386.639 335.027 392.724 323.922C394.032 321.535 394.387 320.154 393.923 319.34Z" fill="#474745"/>
<path fill-rule="evenodd" clip-rule="evenodd" d="M375.303 316.953C380.371 315.698 384.338 313.148 386.008 310.101C387.743 306.934 386.527 307.069 383.399 307.415C379.74 307.82 373.467 308.514 366.241 304.555C352.951 295.416 331.051 285.536 324.904 296.753C324.673 297.175 324.527 297.583 324.46 297.978C320.771 304.856 328.579 316.335 341.944 323.659C355.347 331.004 370.796 326.659 374.562 319.788C375.371 318.311 375.591 317.457 375.303 316.953Z" fill="#9F9F9F"/>
<ellipse cx="267.5" cy="202" rx="58" ry="60" fill="#1D1C1C"/>
<ellipse cx="267.5" cy="202" rx="58" ry="60" stroke="#1D1C1C" stroke-width="5"/>
<ellipse cx="267.5" cy="202" rx="58" ry="60" stroke="black" stroke-opacity="0.2" stroke-width="5"/>
<ellipse cx="264.5" cy="186.556" rx="20" ry="19.5556" fill="white"/>
<ellipse cx="255.611" cy="186.817" rx="11.1111" ry="10.8642" fill="#874910"/>
<ellipse cx="252.5" cy="186.889" rx="5" ry="4.88889" fill="black"/>
<ellipse cx="266" cy="182" rx="8.5" ry="5" fill="white" fill-opacity="0.6"/>
<path d="M342.107 386.182C341.476 394.466 344.465 399.239 348.954 401.299C353.727 403.491 358.242 401.13 360.167 393.268C361.856 386.372 360.03 377.256 353.865 374.715C347.631 372.146 342.67 378.779 342.107 386.182Z" fill="#FF9900"/>
<path d="M319.285 385.344C319.098 393.478 321.911 398.31 325.912 400.537C330.167 402.904 333.998 400.776 335.332 393.115C336.503 386.395 334.513 377.334 329.03 374.561C323.486 371.758 319.453 378.076 319.285 385.344Z" fill="#FF9900"/>
<path d="M331.419 386.057C330.969 394.279 333.886 399.077 338.176 401.205C342.738 403.468 346.974 401.202 348.658 393.423C350.135 386.598 348.243 377.505 342.356 374.869C336.403 372.204 331.821 378.709 331.419 386.057Z" fill="#FB8A06"/>
<path d="M228.5 241.5C218.618 218.88 216.633 203.635 214 178C214 178 134.277 203.511 110.5 246C105.804 254.391 102 268 102 268C153.289 255.138 175.443 245.82 228.5 241.5Z" fill="#494949"/>
<path d="M220 216.5C223.853 231.231 229.5 239 231 253.5C228.6 243.5 146.5 266.5 115.5 268C108.875 268.321 102 268 102 268C149.632 247.671 177.5 248.5 220 216.5Z" fill="#494949"/>
<path d="M118 233.5C123.5 227.5 133.5 220 133.5 220C133.5 220 141.515 223.574 144.5 226C151.633 231.798 152.502 240.312 149.5 249C146.975 256.308 142.391 259.494 135.5 263C125.406 268.135 102 268 102 268C102 268 109.157 243.147 118 233.5Z" fill="#3A3740"/>
</svg>
