<svg width="600" height="600" viewBox="0 0 600 600" fill="none" xmlns="http://www.w3.org/2000/svg">
<path d="M253.5 334L203 371.5L183.5 412.5L146 430" stroke="#241E20" stroke-width="5" stroke-linecap="round"/>
<path d="M253.5 334L203 371.5L183.5 412.5L146 430" stroke="black" stroke-opacity="0.2" stroke-width="5" stroke-linecap="round"/>
<path d="M276.191 336L234.506 383.106L223.878 427.245L190.791 452.1" stroke="#241E20" stroke-width="5" stroke-linecap="round"/>
<path d="M276.191 336L234.506 383.106L223.878 427.245L190.791 452.1" stroke="black" stroke-opacity="0.2" stroke-width="5" stroke-linecap="round"/>
<path d="M384.796 354.629L410.501 320.745L437.109 445.874L472.5 480" stroke="#241E20" stroke-width="5" stroke-linecap="round"/>
<path d="M384.796 354.629L410.501 320.745L437.109 445.874L472.5 480" stroke="black" stroke-opacity="0.2" stroke-width="5" stroke-linecap="round"/>
<path d="M303.563 350.629L329.268 316.745L355.876 441.874L391.267 476" stroke="#241E20" stroke-width="5" stroke-linecap="round"/>
<path d="M303.563 350.629L329.268 316.745L355.876 441.874L391.267 476" stroke="black" stroke-opacity="0.2" stroke-width="5" stroke-linecap="round"/>
<path d="M281.296 336.41L317.305 313.777L298.042 440.246L319.112 484.665" stroke="#241E20" stroke-width="5" stroke-linecap="round"/>
<path d="M281.296 336.41L317.305 313.777L298.042 440.246L319.112 484.665" stroke="black" stroke-opacity="0.2" stroke-width="5" stroke-linecap="round"/>
<path d="M407.796 343.424L444 295.5L480.999 434.54L509.005 462.88" stroke="#241E20" stroke-width="5" stroke-linecap="round"/>
<path d="M407.796 343.424L444 295.5L480.999 434.54L509.005 462.88" stroke="black" stroke-opacity="0.2" stroke-width="5" stroke-linecap="round"/>
<path d="M151.206 235.87C156.804 224.789 164.726 218.347 174.839 212.5C184.327 207.015 190.068 206.787 200.499 206C207.547 205.469 213.543 205.33 220 207C226.891 208.782 232.264 210.076 239 214C247.86 219.161 251.689 223.021 255.9 232.37C259.223 239.747 258.892 252.87 258.892 252.87C259.258 263.473 258.788 272.883 255.9 279.87C251.03 291.654 246.732 293.062 237.454 300.87C230.698 306.557 217.255 314.37 207.044 314.37C207.044 314.37 187.324 315.89 174.839 314.37C167.674 313.498 169.653 314.37 156.69 310.87C143.728 307.37 139.747 303.818 138 294.5C136.5 286.5 138.348 280.927 139.74 272.37C142.14 257.623 146.213 245.754 151.206 235.87Z" fill="#241E20"/>
<path d="M151.206 235.87C156.804 224.789 164.726 218.347 174.839 212.5C184.327 207.015 190.068 206.787 200.499 206C207.547 205.469 213.543 205.33 220 207C226.891 208.782 232.264 210.076 239 214C247.86 219.161 251.689 223.021 255.9 232.37C259.223 239.747 258.892 252.87 258.892 252.87C259.258 263.473 258.788 272.883 255.9 279.87C251.03 291.654 246.732 293.062 237.454 300.87C230.698 306.557 217.255 314.37 207.044 314.37C207.044 314.37 187.324 315.89 174.839 314.37C167.674 313.498 169.653 314.37 156.69 310.87C143.728 307.37 139.747 303.818 138 294.5C136.5 286.5 138.348 280.927 139.74 272.37C142.14 257.623 146.213 245.754 151.206 235.87Z" stroke="#241E20" stroke-width="5"/>
<path d="M151.206 235.87C156.804 224.789 164.726 218.347 174.839 212.5C184.327 207.015 190.068 206.787 200.499 206C207.547 205.469 213.543 205.33 220 207C226.891 208.782 232.264 210.076 239 214C247.86 219.161 251.689 223.021 255.9 232.37C259.223 239.747 258.892 252.87 258.892 252.87C259.258 263.473 258.788 272.883 255.9 279.87C251.03 291.654 246.732 293.062 237.454 300.87C230.698 306.557 217.255 314.37 207.044 314.37C207.044 314.37 187.324 315.89 174.839 314.37C167.674 313.498 169.653 314.37 156.69 310.87C143.728 307.37 139.747 303.818 138 294.5C136.5 286.5 138.348 280.927 139.74 272.37C142.14 257.623 146.213 245.754 151.206 235.87Z" stroke="black" stroke-opacity="0.2" stroke-width="5"/>
<ellipse cx="199.864" cy="249.054" rx="15" ry="18.789" transform="rotate(13.8183 199.864 249.054)" fill="white"/>
<ellipse cx="197.528" cy="251.901" rx="8.39758" ry="11.9697" transform="rotate(16.9833 197.528 251.901)" fill="#241E20"/>
<ellipse cx="195.455" cy="248.51" rx="3" ry="3.5" transform="rotate(-26.6009 195.455 248.51)" fill="#FBFAFB"/>
<path d="M240.061 309C238.119 307.485 236.257 306.879 236.009 304.167C235.762 301.455 238.387 300.565 240.061 298.367C243.784 293.477 246.692 291.429 250.697 286.767C252.607 284.544 255.499 281 255.499 281C255.499 281 255.027 274.98 260.32 286.767C265.612 298.555 249.323 316.226 240.061 309Z" fill="#241E20"/>
<path d="M240.061 309C238.119 307.485 236.257 306.879 236.009 304.167C235.762 301.455 238.387 300.565 240.061 298.367C243.784 293.477 246.692 291.429 250.697 286.767C252.607 284.544 255.499 281 255.499 281C255.499 281 255.027 274.98 260.32 286.767C265.612 298.555 249.323 316.226 240.061 309Z" stroke="#241E20" stroke-width="5"/>
<path d="M240.061 309C238.119 307.485 236.257 306.879 236.009 304.167C235.762 301.455 238.387 300.565 240.061 298.367C243.784 293.477 246.692 291.429 250.697 286.767C252.607 284.544 255.499 281 255.499 281C255.499 281 255.027 274.98 260.32 286.767C265.612 298.555 249.323 316.226 240.061 309Z" stroke="black" stroke-opacity="0.2" stroke-width="5"/>
<path d="M266.157 295.016C266.157 295.016 242.657 310.516 241.657 315.516C240.657 320.516 240.657 324.016 242.657 329.016C244.656 334.016 247.801 337.022 252.157 340.516C258.664 345.736 264.316 346.397 272.657 346.516C280.281 346.624 284.974 345.687 291.657 342.016C295.8 339.74 298.225 338.223 301.157 334.516C305.949 328.458 307.803 323.155 306.657 315.516C305.563 308.229 302.238 304.327 296.657 299.516C291.161 294.778 286.904 292.381 279.657 292.016C274.263 291.744 266.157 295.016 266.157 295.016Z" fill="#241E20"/>
<path d="M266.157 295.016C266.157 295.016 242.657 310.516 241.657 315.516C240.657 320.516 240.657 324.016 242.657 329.016C244.656 334.016 247.801 337.022 252.157 340.516C258.664 345.736 264.316 346.397 272.657 346.516C280.281 346.624 284.974 345.687 291.657 342.016C295.8 339.74 298.225 338.223 301.157 334.516C305.949 328.458 307.803 323.155 306.657 315.516C305.563 308.229 302.238 304.327 296.657 299.516C291.161 294.778 286.904 292.381 279.657 292.016C274.263 291.744 266.157 295.016 266.157 295.016Z" stroke="#241E20" stroke-width="5" stroke-linecap="round"/>
<path d="M266.157 295.016C266.157 295.016 242.657 310.516 241.657 315.516C240.657 320.516 240.657 324.016 242.657 329.016C244.656 334.016 247.801 337.022 252.157 340.516C258.664 345.736 264.316 346.397 272.657 346.516C280.281 346.624 284.974 345.687 291.657 342.016C295.8 339.74 298.225 338.223 301.157 334.516C305.949 328.458 307.803 323.155 306.657 315.516C305.563 308.229 302.238 304.327 296.657 299.516C291.161 294.778 286.904 292.381 279.657 292.016C274.263 291.744 266.157 295.016 266.157 295.016Z" stroke="black" stroke-opacity="0.2" stroke-width="5" stroke-linecap="round"/>
<ellipse cx="311" cy="344" rx="16" ry="17" fill="#241E20"/>
<ellipse cx="311" cy="344" rx="16" ry="17" stroke="#241E20" stroke-width="5"/>
<ellipse cx="311" cy="344" rx="16" ry="17" stroke="black" stroke-opacity="0.2" stroke-width="5"/>
<path d="M316.41 358.053C313.915 365.926 313.447 371.173 315.47 379.18C319.064 393.411 327.606 399.989 340.5 407.001C352.872 413.728 364.104 414.073 376.5 415.501C390.854 417.154 401.874 416.75 416 413.709C424.013 411.985 428.64 410.598 436 405.79C441.256 402.357 443.5 400.001 446.926 393.997C448.765 390.775 446.85 388.18 446.223 384.523C443.474 368.481 422.618 350.175 422.618 350.175C422.618 350.175 399.438 328.533 380.693 325.709C365.187 323.374 354.784 324.57 341.062 332.159C328.843 338.915 320.627 344.743 316.41 358.053Z" fill="#241E20"/>
<path d="M316.41 358.053C313.915 365.926 313.447 371.173 315.47 379.18C319.064 393.411 327.606 399.989 340.5 407.001C352.872 413.728 364.104 414.073 376.5 415.501C390.854 417.154 401.874 416.75 416 413.709C424.013 411.985 428.64 410.598 436 405.79C441.256 402.357 443.5 400.001 446.926 393.997C448.765 390.775 446.85 388.18 446.223 384.523C443.474 368.481 422.618 350.175 422.618 350.175C422.618 350.175 399.438 328.533 380.693 325.709C365.187 323.374 354.784 324.57 341.062 332.159C328.843 338.915 320.627 344.743 316.41 358.053Z" stroke="#241E20" stroke-width="5" stroke-linecap="round"/>
<path d="M316.41 358.053C313.915 365.926 313.447 371.173 315.47 379.18C319.064 393.411 327.606 399.989 340.5 407.001C352.872 413.728 364.104 414.073 376.5 415.501C390.854 417.154 401.874 416.75 416 413.709C424.013 411.985 428.64 410.598 436 405.79C441.256 402.357 443.5 400.001 446.926 393.997C448.765 390.775 446.85 388.18 446.223 384.523C443.474 368.481 422.618 350.175 422.618 350.175C422.618 350.175 399.438 328.533 380.693 325.709C365.187 323.374 354.784 324.57 341.062 332.159C328.843 338.915 320.627 344.743 316.41 358.053Z" stroke="black" stroke-opacity="0.2" stroke-width="5" stroke-linecap="round"/>
<path d="M59 218C119.329 160.284 153.467 158.39 215 218" stroke="#241E20" stroke-width="5" stroke-linecap="round"/>
<path d="M70.9998 156.486C149.113 127.005 181.265 138.631 214.541 217.576" stroke="#241E20" stroke-width="5" stroke-linecap="round"/>
</svg>
