<svg width="600" height="600" viewBox="0 0 600 600" fill="none" xmlns="http://www.w3.org/2000/svg">
<path d="M203.791 121.674C219.354 121.863 240.795 136.475 240.795 136.475C240.795 136.475 230.03 254.886 203.791 304C200.098 310.913 195.253 313.131 188.317 316.783C172.508 325.106 157.295 326.898 142.568 316.783C130.935 308.793 126.165 299.232 125.075 285.162C123.803 268.75 139.063 262.896 142.568 246.813C146.092 230.64 142.568 220.979 142.568 204.427C142.568 194.18 140.765 188.275 142.568 178.188C145.837 159.899 151.139 148.331 165.442 136.475C177.802 126.231 187.74 121.479 203.791 121.674Z" fill="#EAA439"/>
<path d="M203.791 121.674C219.354 121.863 240.795 136.475 240.795 136.475C240.795 136.475 230.03 254.886 203.791 304C200.098 310.913 195.253 313.131 188.317 316.783C172.508 325.106 157.295 326.898 142.568 316.783C130.935 308.793 126.165 299.232 125.075 285.162C123.803 268.75 139.063 262.896 142.568 246.813C146.092 230.64 142.568 220.979 142.568 204.427C142.568 194.18 140.765 188.275 142.568 178.188C145.837 159.899 151.139 148.331 165.442 136.475C177.802 126.231 187.74 121.479 203.791 121.674Z" stroke="#EAA439" stroke-width="5" stroke-linecap="round"/>
<path d="M203.791 121.674C219.354 121.863 240.795 136.475 240.795 136.475C240.795 136.475 230.03 254.886 203.791 304C200.098 310.913 195.253 313.131 188.317 316.783C172.508 325.106 157.295 326.898 142.568 316.783C130.935 308.793 126.165 299.232 125.075 285.162C123.803 268.75 139.063 262.896 142.568 246.813C146.092 230.64 142.568 220.979 142.568 204.427C142.568 194.18 140.765 188.275 142.568 178.188C145.837 159.899 151.139 148.331 165.442 136.475C177.802 126.231 187.74 121.479 203.791 121.674Z" stroke="black" stroke-opacity="0.2" stroke-width="5" stroke-linecap="round"/>
<path d="M396.209 127.061C380.646 127.251 359.205 141.863 359.205 141.863C359.205 141.863 369.97 260.274 396.209 309.387C399.902 316.301 404.747 318.519 411.683 322.17C427.492 330.494 442.705 332.286 457.432 322.17C469.065 314.18 473.835 304.619 474.925 290.549C476.197 274.138 460.937 268.283 457.432 252.2C453.908 236.027 457.432 226.367 457.432 209.815C457.432 199.568 459.235 193.663 457.432 183.576C454.163 165.287 448.861 153.719 434.558 141.863C422.198 131.618 412.26 126.866 396.209 127.061Z" fill="#EAA439"/>
<path d="M396.209 127.061C380.646 127.251 359.205 141.863 359.205 141.863C359.205 141.863 369.97 260.274 396.209 309.387C399.902 316.301 404.747 318.519 411.683 322.17C427.492 330.494 442.705 332.286 457.432 322.17C469.065 314.18 473.835 304.619 474.925 290.549C476.197 274.138 460.937 268.283 457.432 252.2C453.908 236.027 457.432 226.367 457.432 209.815C457.432 199.568 459.235 193.663 457.432 183.576C454.163 165.287 448.861 153.719 434.558 141.863C422.198 131.618 412.26 126.866 396.209 127.061Z" stroke="#EAA439" stroke-width="5" stroke-linecap="round"/>
<path d="M396.209 127.061C380.646 127.251 359.205 141.863 359.205 141.863C359.205 141.863 369.97 260.274 396.209 309.387C399.902 316.301 404.747 318.519 411.683 322.17C427.492 330.494 442.705 332.286 457.432 322.17C469.065 314.18 473.835 304.619 474.925 290.549C476.197 274.138 460.937 268.283 457.432 252.2C453.908 236.027 457.432 226.367 457.432 209.815C457.432 199.568 459.235 193.663 457.432 183.576C454.163 165.287 448.861 153.719 434.558 141.863C422.198 131.618 412.26 126.866 396.209 127.061Z" stroke="black" stroke-opacity="0.2" stroke-width="5" stroke-linecap="round"/>
<path d="M389.703 357.019C381.679 365.255 365.847 374.106 365.847 374.106L372.123 394.276C372.123 394.276 393.581 386.032 406.838 379.276C422.954 371.064 441.776 356.597 430.967 343.266C425.894 337.009 423.766 334.545 415.738 335.375C403.396 336.651 398.499 347.99 389.703 357.019Z" fill="#EAA439"/>
<path d="M389.703 357.019C381.679 365.255 365.847 374.106 365.847 374.106L372.123 394.276C372.123 394.276 393.581 386.032 406.838 379.276C422.954 371.064 441.776 356.597 430.967 343.266C425.894 337.009 423.766 334.545 415.738 335.375C403.396 336.651 398.499 347.99 389.703 357.019Z" stroke="#EAA439" stroke-width="5" stroke-linecap="round"/>
<path d="M389.703 357.019C381.679 365.255 365.847 374.106 365.847 374.106L372.123 394.276C372.123 394.276 393.581 386.032 406.838 379.276C422.954 371.064 441.776 356.597 430.967 343.266C425.894 337.009 423.766 334.545 415.738 335.375C403.396 336.651 398.499 347.99 389.703 357.019Z" stroke="black" stroke-opacity="0.2" stroke-width="5" stroke-linecap="round"/>
<path d="M415.047 370.606L399.573 350.422C399.573 350.422 408.944 335.448 418.191 337.1C427.438 338.752 432.861 346.964 431.715 355.648C430.543 364.528 415.047 370.606 415.047 370.606Z" fill="#FEFFFB" fill-opacity="0.9"/>
<path d="M205.319 398.012C206.924 401.558 210.765 406.361 210.765 406.361C206.764 406.159 205.137 405.794 200.6 406.361C196.064 406.928 193.589 409.025 191.162 411.443C188.826 413.77 188.229 415.844 187.532 419.066C186.535 423.672 186.779 426.881 188.984 431.046C190.626 434.148 192.127 435.806 195.155 437.58C197.709 439.077 199.48 439.372 202.415 439.758C204.805 440.072 209.668 439.758 209.668 439.758C209.668 439.758 210.118 443.908 212.217 445.566C214.117 447.068 215.631 447.371 218.025 447.744C219.846 448.029 222.744 447.744 222.744 447.744C222.744 447.744 221.589 452.944 222.374 456.255C222.829 458.176 222.894 459.959 223.826 461.7C225.299 464.453 226.73 466.419 228.908 467.871C231.086 469.324 232.538 469.687 235.079 470.049C237.62 470.412 239.55 469.839 241.613 469.323C243.459 468.862 245.97 466.056 245.97 466.056C245.97 466.056 246.21 466.995 246.696 468.597C247.116 469.985 248.083 471.652 248.874 472.228C251.302 473.995 252.435 474.699 255.408 475.132C257.652 475.459 259.688 475.382 261.942 475.132C264.403 474.859 265.936 474.106 267.757 472.429C268.742 471.524 269.573 469.525 269.573 469.525C269.573 469.525 269.573 470.251 271.388 471.703C273.203 473.155 275.018 473.881 277.922 474.245C277.922 474.245 283.04 474.681 285.908 473.881C288.977 473.026 290.646 471.867 292.805 469.525C295.256 466.868 296.799 461.176 296.799 461.176C296.799 461.176 297.904 465.548 299.332 467.871L299.438 468.043C301.022 470.621 301.972 472.166 304.415 474.043C305.852 475.147 307.277 475.475 308.408 475.858C309.598 476.26 311.218 476.786 313.127 476.786C316.394 476.786 316.925 476.238 319.661 475.495C321.987 474.863 323.291 471.865 323.291 471.865C323.291 471.865 325.102 473.92 326.46 474.832C327.299 475.396 328.243 475.939 329.099 476.221C330.865 476.802 334.182 477.31 334.182 477.31C334.182 477.31 339.278 477.713 342.538 476.786C345.798 475.858 346.161 475.669 347.976 473.68C349.258 472.274 349.428 469.687 349.428 469.687C349.428 469.687 352.389 471.857 354.873 472.228C357.537 472.625 361.42 472.249 363.956 471.34C366.332 470.489 367.997 469.718 369.764 467.71C371.609 465.614 372.233 464.019 373.024 461.337C373.946 458.21 373.727 455.505 373.387 452.262C373.085 449.386 371.935 445.365 371.935 445.365C371.935 445.365 373.717 445.143 374.846 444.114C376.209 442.873 376.661 439.758 376.661 439.758C376.661 439.758 383.517 441.103 387.552 439.758C391.586 438.413 394.192 436.938 396.264 433.224C398.012 430.089 398.155 428.1 398.079 424.512C398.003 420.923 397.585 419.044 396.264 416.162C395.33 414.125 394.576 413.034 392.997 411.443C391.196 409.629 387.552 407.813 387.552 407.813L389.481 404.245C391.41 400.978 392.588 391.983 391.499 387.425C390.41 382.867 372.664 321.986 370.643 317.932C370.643 317.932 228.27 313.456 226.666 317.932C224.761 323.245 202.415 378.21 202.415 383.854C202.415 389.498 202.992 392.87 205.319 398.012Z" fill="#EAA439"/>
<path d="M205.319 398.012C206.924 401.558 210.765 406.361 210.765 406.361C206.764 406.159 205.137 405.794 200.6 406.361C196.064 406.928 193.589 409.025 191.162 411.443C188.826 413.77 188.229 415.844 187.532 419.066C186.535 423.672 186.779 426.881 188.984 431.046C190.626 434.148 192.127 435.806 195.155 437.58C197.709 439.077 199.48 439.372 202.415 439.758C204.805 440.072 209.668 439.758 209.668 439.758C209.668 439.758 210.118 443.908 212.217 445.566C214.117 447.068 215.631 447.371 218.025 447.744C219.846 448.029 222.744 447.744 222.744 447.744C222.744 447.744 221.589 452.944 222.374 456.255C222.829 458.176 222.894 459.959 223.826 461.7C225.299 464.453 226.73 466.419 228.908 467.871C231.086 469.324 232.538 469.687 235.079 470.049C237.62 470.412 239.55 469.839 241.613 469.323C243.459 468.862 245.97 466.056 245.97 466.056C245.97 466.056 246.21 466.995 246.696 468.597C247.116 469.985 248.083 471.652 248.874 472.228C251.302 473.995 252.435 474.699 255.408 475.132C257.652 475.459 259.688 475.382 261.942 475.132C264.403 474.859 265.936 474.106 267.757 472.429C268.742 471.524 269.573 469.525 269.573 469.525C269.573 469.525 269.573 470.251 271.388 471.703C273.203 473.155 275.018 473.881 277.922 474.245C277.922 474.245 283.04 474.681 285.908 473.881C288.977 473.026 290.646 471.867 292.805 469.525C295.256 466.868 296.799 461.176 296.799 461.176C296.799 461.176 297.904 465.548 299.332 467.871L299.438 468.043C301.022 470.621 301.972 472.166 304.415 474.043C305.852 475.147 307.277 475.475 308.408 475.858C309.598 476.26 311.218 476.786 313.127 476.786C316.394 476.786 316.925 476.238 319.661 475.495C321.987 474.863 323.291 471.865 323.291 471.865C323.291 471.865 325.102 473.92 326.46 474.832C327.299 475.396 328.243 475.939 329.099 476.221C330.865 476.802 334.182 477.31 334.182 477.31C334.182 477.31 339.278 477.713 342.538 476.786C345.798 475.858 346.161 475.669 347.976 473.68C349.258 472.274 349.428 469.687 349.428 469.687C349.428 469.687 352.389 471.857 354.873 472.228C357.537 472.625 361.42 472.249 363.956 471.34C366.332 470.489 367.997 469.718 369.764 467.71C371.609 465.614 372.233 464.019 373.024 461.337C373.946 458.21 373.727 455.505 373.387 452.262C373.085 449.386 371.935 445.365 371.935 445.365C371.935 445.365 373.717 445.143 374.846 444.114C376.209 442.873 376.661 439.758 376.661 439.758C376.661 439.758 383.517 441.103 387.552 439.758C391.586 438.413 394.192 436.938 396.264 433.224C398.012 430.089 398.155 428.1 398.079 424.512C398.003 420.923 397.585 419.044 396.264 416.162C395.33 414.125 394.576 413.034 392.997 411.443C391.196 409.629 387.552 407.813 387.552 407.813L389.481 404.245C391.41 400.978 392.588 391.983 391.499 387.425C390.41 382.867 372.664 321.986 370.643 317.932C370.643 317.932 228.27 313.456 226.666 317.932C224.761 323.245 202.415 378.21 202.415 383.854C202.415 389.498 202.992 392.87 205.319 398.012Z" stroke="#EAA439" stroke-width="5"/>
<path d="M205.319 398.012C206.924 401.558 210.765 406.361 210.765 406.361C206.764 406.159 205.137 405.794 200.6 406.361C196.064 406.928 193.589 409.025 191.162 411.443C188.826 413.77 188.229 415.844 187.532 419.066C186.535 423.672 186.779 426.881 188.984 431.046C190.626 434.148 192.127 435.806 195.155 437.58C197.709 439.077 199.48 439.372 202.415 439.758C204.805 440.072 209.668 439.758 209.668 439.758C209.668 439.758 210.118 443.908 212.217 445.566C214.117 447.068 215.631 447.371 218.025 447.744C219.846 448.029 222.744 447.744 222.744 447.744C222.744 447.744 221.589 452.944 222.374 456.255C222.829 458.176 222.894 459.959 223.826 461.7C225.299 464.453 226.73 466.419 228.908 467.871C231.086 469.324 232.538 469.687 235.079 470.049C237.62 470.412 239.55 469.839 241.613 469.323C243.459 468.862 245.97 466.056 245.97 466.056C245.97 466.056 246.21 466.995 246.696 468.597C247.116 469.985 248.083 471.652 248.874 472.228C251.302 473.995 252.435 474.699 255.408 475.132C257.652 475.459 259.688 475.382 261.942 475.132C264.403 474.859 265.936 474.106 267.757 472.429C268.742 471.524 269.573 469.525 269.573 469.525C269.573 469.525 269.573 470.251 271.388 471.703C273.203 473.155 275.018 473.881 277.922 474.245C277.922 474.245 283.04 474.681 285.908 473.881C288.977 473.026 290.646 471.867 292.805 469.525C295.256 466.868 296.799 461.176 296.799 461.176C296.799 461.176 297.904 465.548 299.332 467.871L299.438 468.043C301.022 470.621 301.972 472.166 304.415 474.043C305.852 475.147 307.277 475.475 308.408 475.858C309.598 476.26 311.218 476.786 313.127 476.786C316.394 476.786 316.925 476.238 319.661 475.495C321.987 474.863 323.291 471.865 323.291 471.865C323.291 471.865 325.102 473.92 326.46 474.832C327.299 475.396 328.243 475.939 329.099 476.221C330.865 476.802 334.182 477.31 334.182 477.31C334.182 477.31 339.278 477.713 342.538 476.786C345.798 475.858 346.161 475.669 347.976 473.68C349.258 472.274 349.428 469.687 349.428 469.687C349.428 469.687 352.389 471.857 354.873 472.228C357.537 472.625 361.42 472.249 363.956 471.34C366.332 470.489 367.997 469.718 369.764 467.71C371.609 465.614 372.233 464.019 373.024 461.337C373.946 458.21 373.727 455.505 373.387 452.262C373.085 449.386 371.935 445.365 371.935 445.365C371.935 445.365 373.717 445.143 374.846 444.114C376.209 442.873 376.661 439.758 376.661 439.758C376.661 439.758 383.517 441.103 387.552 439.758C391.586 438.413 394.192 436.938 396.264 433.224C398.012 430.089 398.155 428.1 398.079 424.512C398.003 420.923 397.585 419.044 396.264 416.162C395.33 414.125 394.576 413.034 392.997 411.443C391.196 409.629 387.552 407.813 387.552 407.813L389.481 404.245C391.41 400.978 392.588 391.983 391.499 387.425C390.41 382.867 372.664 321.986 370.643 317.932C370.643 317.932 228.27 313.456 226.666 317.932C224.761 323.245 202.415 378.21 202.415 383.854C202.415 389.498 202.992 392.87 205.319 398.012Z" stroke="black" stroke-opacity="0.2" stroke-width="5"/>
<path d="M278.354 447.568C271.497 448.324 260.51 449.76 260.51 449.76C260.51 449.76 247.458 447.583 241.756 441.752C237.809 437.716 236.061 435.625 233.387 431.039C230.529 426.136 229.302 423.209 227.577 417.573C225.852 411.937 225.742 408.902 225.534 403.211C225.327 397.52 226.554 389.497 226.554 389.497C226.554 389.497 227.931 382.563 229.568 378.369C232.289 371.397 234.763 367.748 239.611 362.046C243.976 356.912 246.868 354.276 252.489 350.559C259.265 346.08 263.731 344.42 271.563 342.266C281.016 339.666 286.764 339.227 296.549 339.836C304.447 340.327 309.987 340.852 317.46 343.453C324.933 346.054 329.557 347.442 336.064 351.806C341.473 355.434 345.322 358.401 349.732 363.196C354.775 368.68 356.494 372.969 359.224 379.901C361.536 385.775 362.104 391.455 362.641 397.746C363.248 404.861 362.432 407.945 361.122 413.692C359.812 419.438 358.429 421.923 355.235 428.118C352.041 434.313 351.149 435.356 347.654 439.032C344.446 442.406 341.7 444.279 337.673 446.614C333.738 448.896 326.808 450.809 326.808 450.809C326.808 450.809 318.111 449.112 311.385 448.241C304.659 447.371 301.366 446.914 295.06 446.614C288.543 446.304 284.839 446.853 278.354 447.568Z" fill="#FEFFFB"/>
<path d="M206.576 437.705C208.812 437.875 213.325 437.705 213.325 437.705C213.325 437.705 214.051 441.857 215.503 442.946C217.365 444.342 219.405 444.983 221.675 445.487C224.942 446.213 225.664 445.487 228.357 445.487C230.909 445.487 232.632 444.495 234.891 443.309C236.58 442.423 238.159 440.405 238.159 440.405C238.159 440.405 241.869 443.296 244.693 444.035C247.573 444.789 249.45 444.842 252.316 444.035C255.007 443.278 256.507 442.379 258.487 440.405C260.867 438.032 261.711 435.946 262.843 432.782C264.202 428.985 264.569 426.64 264.295 422.617C264.001 418.279 263.455 415.426 260.665 412.09C259.046 410.154 257.81 409.286 255.583 408.097C252.368 406.38 246.508 405.919 246.508 405.919H240.337C240.337 405.919 237.624 402.559 234.891 401.563C232.494 400.689 228.572 400.111 228.572 400.111C225.878 400.111 224.942 399.748 222.401 400.474C219.86 401.2 218.336 401.934 216.741 403.741C216.173 404.384 215.14 405.919 215.14 405.919L213.837 408.097L208.243 407.734C206.504 407.734 205.501 407.612 203.887 407.734C203.132 407.791 201.677 407.866 200.983 408.097C199.547 408.576 198.537 409.174 196.99 410.275C196.191 410.844 194.716 412.122 194.086 413.179C192.361 416.074 191.545 416.809 191.182 420.439C190.912 423.14 190.904 424.949 191.545 426.611C192.059 427.946 192.524 429.508 193.723 431.33C194.785 432.944 195.696 433.851 196.825 434.597C197.753 435.21 198.829 435.714 200.257 436.412C202.636 437.575 203.887 437.501 206.576 437.705Z" fill="#FFE3B8"/>
<path d="M206.576 437.705C208.812 437.875 213.325 437.705 213.325 437.705C213.325 437.705 214.051 441.857 215.503 442.946C217.365 444.342 219.405 444.983 221.675 445.487C224.942 446.213 225.664 445.487 228.357 445.487C230.909 445.487 232.632 444.495 234.891 443.309C236.58 442.423 238.159 440.405 238.159 440.405C238.159 440.405 241.869 443.296 244.693 444.035C247.573 444.789 249.45 444.842 252.316 444.035C255.007 443.278 256.507 442.379 258.487 440.405C260.867 438.032 261.711 435.946 262.843 432.782C264.202 428.985 264.569 426.64 264.295 422.617C264.001 418.279 263.455 415.426 260.665 412.09C259.046 410.154 257.81 409.286 255.583 408.097C252.368 406.38 246.508 405.919 246.508 405.919H240.337C240.337 405.919 237.624 402.559 234.891 401.563C232.494 400.689 228.572 400.111 228.572 400.111C225.878 400.111 224.942 399.748 222.401 400.474C219.86 401.2 218.336 401.934 216.741 403.741C216.173 404.384 215.14 405.919 215.14 405.919L213.837 408.097L208.243 407.734C206.504 407.734 205.501 407.612 203.887 407.734C203.132 407.791 201.677 407.866 200.983 408.097C199.547 408.576 198.537 409.174 196.99 410.275C196.191 410.844 194.716 412.122 194.086 413.179C192.361 416.074 191.545 416.809 191.182 420.439C190.912 423.14 190.904 424.949 191.545 426.611C192.059 427.946 192.524 429.508 193.723 431.33C194.785 432.944 195.696 433.851 196.825 434.597C197.753 435.21 198.829 435.714 200.257 436.412C202.636 437.575 203.887 437.501 206.576 437.705Z" stroke="#FFE3B8" stroke-width="5"/>
<path d="M206.576 437.705C208.812 437.875 213.325 437.705 213.325 437.705C213.325 437.705 214.051 441.857 215.503 442.946C217.365 444.342 219.405 444.983 221.675 445.487C224.942 446.213 225.664 445.487 228.357 445.487C230.909 445.487 232.632 444.495 234.891 443.309C236.58 442.423 238.159 440.405 238.159 440.405C238.159 440.405 241.869 443.296 244.693 444.035C247.573 444.789 249.45 444.842 252.316 444.035C255.007 443.278 256.507 442.379 258.487 440.405C260.867 438.032 261.711 435.946 262.843 432.782C264.202 428.985 264.569 426.64 264.295 422.617C264.001 418.279 263.455 415.426 260.665 412.09C259.046 410.154 257.81 409.286 255.583 408.097C252.368 406.38 246.508 405.919 246.508 405.919H240.337C240.337 405.919 237.624 402.559 234.891 401.563C232.494 400.689 228.572 400.111 228.572 400.111C225.878 400.111 224.942 399.748 222.401 400.474C219.86 401.2 218.336 401.934 216.741 403.741C216.173 404.384 215.14 405.919 215.14 405.919L213.837 408.097L208.243 407.734C206.504 407.734 205.501 407.612 203.887 407.734C203.132 407.791 201.677 407.866 200.983 408.097C199.547 408.576 198.537 409.174 196.99 410.275C196.191 410.844 194.716 412.122 194.086 413.179C192.361 416.074 191.545 416.809 191.182 420.439C190.912 423.14 190.904 424.949 191.545 426.611C192.059 427.946 192.524 429.508 193.723 431.33C194.785 432.944 195.696 433.851 196.825 434.597C197.753 435.21 198.829 435.714 200.257 436.412C202.636 437.575 203.887 437.501 206.576 437.705Z" stroke="black" stroke-opacity="0.2" stroke-width="5"/>
<path d="M339.27 436.551C341.535 436.381 346.565 434.376 346.565 434.376C346.565 434.376 347.843 437.396 349.624 438.19C351.722 439.126 352.906 440.243 355.218 440.625C358.547 441.175 360.522 442.238 363.25 442.155C365.834 442.076 368.695 442.077 371.599 440.625C374.503 439.173 375.353 435.777 375.353 435.777C375.353 435.777 375.114 435.264 377.994 435.84C380.931 436.427 383.239 436.651 386.12 435.84C387.497 435.452 388.494 435.109 389.387 434.583C390.247 434.076 391.375 433.401 392.291 432.353C393.273 431.231 393.529 430.652 393.934 430.175C394.469 428.723 394.469 429.086 394.832 426.908C394.957 426.161 395.164 424.73 395.195 424.367C395.407 421.895 395.195 423.641 395.195 420.374C395.195 416.744 393.392 414.363 390.476 411.46C388.783 409.774 387.318 409.028 385.031 408.032C381.728 406.592 380.343 405.909 377.301 405.95C375.32 405.977 374.503 406.216 372.325 406.943C372.325 406.943 371.06 405.409 369.784 404.037C368.729 402.902 366.693 401.634 365.428 401.267C362.976 400.558 359.983 400.474 359.983 400.474C357.255 400.557 356.577 400.539 354.023 401.267C351.47 401.996 348.587 404.037 348.587 404.037L345.765 408.029L338.352 406.301C335.768 406.38 333.94 406.435 331.754 407.153C329.568 407.87 326.706 409.405 324.916 412.244C323.248 414.89 322.763 417.11 322.58 420.128C322.314 424.512 322.643 427.203 325.479 430.784C327.52 433.361 329.377 434.488 332.623 435.777C335.064 436.745 336.595 436.753 339.27 436.551Z" fill="#FFE3B8"/>
<path d="M339.27 436.551C341.535 436.381 346.565 434.376 346.565 434.376C346.565 434.376 347.843 437.396 349.624 438.19C351.722 439.126 352.906 440.243 355.218 440.625C358.547 441.175 360.522 442.238 363.25 442.155C365.834 442.076 368.695 442.077 371.599 440.625C374.503 439.173 375.353 435.777 375.353 435.777C375.353 435.777 375.114 435.264 377.994 435.84C380.931 436.427 383.239 436.651 386.12 435.84C387.497 435.452 388.494 435.109 389.387 434.583C390.247 434.076 391.375 433.401 392.291 432.353C393.273 431.231 393.529 430.652 393.934 430.175C394.469 428.723 394.469 429.086 394.832 426.908C394.957 426.161 395.164 424.73 395.195 424.367C395.407 421.895 395.195 423.641 395.195 420.374C395.195 416.744 393.392 414.363 390.476 411.46C388.783 409.774 387.318 409.028 385.031 408.032C381.728 406.592 380.343 405.909 377.301 405.95C375.32 405.977 374.503 406.216 372.325 406.943C372.325 406.943 371.06 405.409 369.784 404.037C368.729 402.902 366.693 401.634 365.428 401.267C362.976 400.558 359.983 400.474 359.983 400.474C357.255 400.557 356.577 400.539 354.023 401.267C351.47 401.996 348.587 404.037 348.587 404.037L345.765 408.029L338.352 406.301C335.768 406.38 333.94 406.435 331.754 407.153C329.568 407.87 326.706 409.405 324.916 412.244C323.248 414.89 322.763 417.11 322.58 420.128C322.314 424.512 322.643 427.203 325.479 430.784C327.52 433.361 329.377 434.488 332.623 435.777C335.064 436.745 336.595 436.753 339.27 436.551Z" stroke="#FFE3B8" stroke-width="5"/>
<path d="M339.27 436.551C341.535 436.381 346.565 434.376 346.565 434.376C346.565 434.376 347.843 437.396 349.624 438.19C351.722 439.126 352.906 440.243 355.218 440.625C358.547 441.175 360.522 442.238 363.25 442.155C365.834 442.076 368.695 442.077 371.599 440.625C374.503 439.173 375.353 435.777 375.353 435.777C375.353 435.777 375.114 435.264 377.994 435.84C380.931 436.427 383.239 436.651 386.12 435.84C387.497 435.452 388.494 435.109 389.387 434.583C390.247 434.076 391.375 433.401 392.291 432.353C393.273 431.231 393.529 430.652 393.934 430.175C394.469 428.723 394.469 429.086 394.832 426.908C394.957 426.161 395.164 424.73 395.195 424.367C395.407 421.895 395.195 423.641 395.195 420.374C395.195 416.744 393.392 414.363 390.476 411.46C388.783 409.774 387.318 409.028 385.031 408.032C381.728 406.592 380.343 405.909 377.301 405.95C375.32 405.977 374.503 406.216 372.325 406.943C372.325 406.943 371.06 405.409 369.784 404.037C368.729 402.902 366.693 401.634 365.428 401.267C362.976 400.558 359.983 400.474 359.983 400.474C357.255 400.557 356.577 400.539 354.023 401.267C351.47 401.996 348.587 404.037 348.587 404.037L345.765 408.029L338.352 406.301C335.768 406.38 333.94 406.435 331.754 407.153C329.568 407.87 326.706 409.405 324.916 412.244C323.248 414.89 322.763 417.11 322.58 420.128C322.314 424.512 322.643 427.203 325.479 430.784C327.52 433.361 329.377 434.488 332.623 435.777C335.064 436.745 336.595 436.753 339.27 436.551Z" stroke="black" stroke-opacity="0.2" stroke-width="5"/>
<path d="M318.418 472.627C320.588 472.128 324.407 469.083 324.407 469.083C324.407 469.083 327.419 471.497 329.126 472.35C331.304 473.439 332.03 473.802 334.469 474.173C337.738 474.669 338.474 474.286 341.106 473.802C343.599 473.345 344.634 472.071 346.656 470.652C348.167 469.591 349.393 467.583 349.393 467.583C349.393 467.583 353.472 469.389 356.348 469.515C359.28 469.643 361.123 469.351 363.797 468.148C366.308 467.017 367.632 465.98 369.257 463.937C371.211 461.481 371.708 459.546 372.318 456.637C373.049 453.147 373.04 451.076 372.141 447.686C371.172 444.029 370.191 441.687 366.942 439.335C365.056 437.97 363.711 437.45 361.349 436.832C357.938 435.941 352.139 436.598 352.139 436.598L346.109 437.705C346.109 437.705 342.931 435.319 340.104 434.957C337.624 434.639 333.491 434.887 333.491 434.887C330.859 435.37 329.944 435.538 327.575 436.615C325.206 437.691 322.71 440.074 322.71 440.074L320.556 444.32L313.119 443.76C310.626 444.218 308.863 444.541 306.848 445.553C304.834 446.564 302.284 448.459 300.963 451.446C299.732 454.23 299.585 456.43 299.848 459.351C300.229 463.593 300.94 466.125 304.211 469.138C306.564 471.307 308.528 472.113 311.862 472.868C314.37 473.435 315.855 473.216 318.418 472.627Z" fill="#FFE3B8"/>
<path d="M318.418 472.627C320.588 472.128 324.407 469.083 324.407 469.083C324.407 469.083 327.419 471.497 329.126 472.35C331.304 473.439 332.03 473.802 334.469 474.173C337.738 474.669 338.474 474.286 341.106 473.802C343.599 473.345 344.634 472.071 346.656 470.652C348.167 469.591 349.393 467.583 349.393 467.583C349.393 467.583 353.472 469.389 356.348 469.515C359.28 469.643 361.123 469.351 363.797 468.148C366.308 467.017 367.632 465.98 369.257 463.937C371.211 461.481 371.708 459.546 372.318 456.637C373.049 453.147 373.04 451.076 372.141 447.686C371.172 444.029 370.191 441.687 366.942 439.335C365.056 437.97 363.711 437.45 361.349 436.832C357.938 435.941 352.139 436.598 352.139 436.598L346.109 437.705C346.109 437.705 342.931 435.319 340.104 434.957C337.624 434.639 333.491 434.887 333.491 434.887C330.859 435.37 329.944 435.538 327.575 436.615C325.206 437.691 322.71 440.074 322.71 440.074L320.556 444.32L313.119 443.76C310.626 444.218 308.863 444.541 306.848 445.553C304.834 446.564 302.284 448.459 300.963 451.446C299.732 454.23 299.585 456.43 299.848 459.351C300.229 463.593 300.94 466.125 304.211 469.138C306.564 471.307 308.528 472.113 311.862 472.868C314.37 473.435 315.855 473.216 318.418 472.627Z" stroke="#FFE3B8" stroke-width="5"/>
<path d="M318.418 472.627C320.588 472.128 324.407 469.083 324.407 469.083C324.407 469.083 327.419 471.497 329.126 472.35C331.304 473.439 332.03 473.802 334.469 474.173C337.738 474.669 338.474 474.286 341.106 473.802C343.599 473.345 344.634 472.071 346.656 470.652C348.167 469.591 349.393 467.583 349.393 467.583C349.393 467.583 353.472 469.389 356.348 469.515C359.28 469.643 361.123 469.351 363.797 468.148C366.308 467.017 367.632 465.98 369.257 463.937C371.211 461.481 371.708 459.546 372.318 456.637C373.049 453.147 373.04 451.076 372.141 447.686C371.172 444.029 370.191 441.687 366.942 439.335C365.056 437.97 363.711 437.45 361.349 436.832C357.938 435.941 352.139 436.598 352.139 436.598L346.109 437.705C346.109 437.705 342.931 435.319 340.104 434.957C337.624 434.639 333.491 434.887 333.491 434.887C330.859 435.37 329.944 435.538 327.575 436.615C325.206 437.691 322.71 440.074 322.71 440.074L320.556 444.32L313.119 443.76C310.626 444.218 308.863 444.541 306.848 445.553C304.834 446.564 302.284 448.459 300.963 451.446C299.732 454.23 299.585 456.43 299.848 459.351C300.229 463.593 300.94 466.125 304.211 469.138C306.564 471.307 308.528 472.113 311.862 472.868C314.37 473.435 315.855 473.216 318.418 472.627Z" stroke="black" stroke-opacity="0.2" stroke-width="5"/>
<path d="M240.914 466.905C243.137 466.783 247.811 463.638 247.811 463.638C247.811 463.638 248.537 465.816 249.626 467.48C250.811 469.29 251.804 470.535 253.982 471.261C257.158 472.319 258.28 472.202 260.942 471.922C263.784 471.624 264.454 471.226 266.688 470.172C268.358 469.385 270.681 466.542 270.681 466.542C270.681 466.542 271.276 467.599 272.588 468.72C273.861 469.809 275.467 470.959 276.852 471.261C278.283 471.574 280.473 471.783 282.297 471.624C284.129 471.465 285.957 471.264 287.38 470.898C290.047 470.212 291.106 468.87 292.825 466.905C295.366 464.001 295.427 463.08 296.455 460.008C297.582 456.639 297.714 454.39 297.407 450.896C297.075 447.127 296.508 444.653 293.707 441.781C292.082 440.114 290.846 439.372 288.623 438.361C285.414 436.901 279.588 436.559 279.588 436.559L273.458 436.621C273.458 436.621 270.733 433.728 268.01 432.889C265.62 432.154 261.505 431.693 261.505 431.693C258.83 431.72 257.899 431.73 255.381 432.386C252.863 433.043 251.756 433.435 249.997 434.966C248.595 436.186 247.151 438.782 247.151 438.782C247.151 438.782 242.723 436.749 240.188 436.775C237.653 436.801 236.174 436.848 234.017 437.501C231.859 438.154 230.383 439.14 228.572 441.857C226.883 444.391 226.031 447.129 226.031 450.061C226.031 454.2 226.322 456.777 228.209 460.449C228.916 461.827 229.631 462.825 230.387 463.638C231.181 464.493 232.036 465.143 233.654 465.816C236.028 466.803 238.288 467.049 240.914 466.905Z" fill="#FFE3B8"/>
<path d="M240.914 466.905C243.137 466.783 247.811 463.638 247.811 463.638C247.811 463.638 248.537 465.816 249.626 467.48C250.811 469.29 251.804 470.535 253.982 471.261C257.158 472.319 258.28 472.202 260.942 471.922C263.784 471.624 264.454 471.226 266.688 470.172C268.358 469.385 270.681 466.542 270.681 466.542C270.681 466.542 271.276 467.599 272.588 468.72C273.861 469.809 275.467 470.959 276.852 471.261C278.283 471.574 280.473 471.783 282.297 471.624C284.129 471.465 285.957 471.264 287.38 470.898C290.047 470.212 291.106 468.87 292.825 466.905C295.366 464.001 295.427 463.08 296.455 460.008C297.582 456.639 297.714 454.39 297.407 450.896C297.075 447.127 296.508 444.653 293.707 441.781C292.082 440.114 290.846 439.372 288.623 438.361C285.414 436.901 279.588 436.559 279.588 436.559L273.458 436.621C273.458 436.621 270.733 433.728 268.01 432.889C265.62 432.154 261.505 431.693 261.505 431.693C258.83 431.72 257.899 431.73 255.381 432.386C252.863 433.043 251.756 433.435 249.997 434.966C248.595 436.186 247.151 438.782 247.151 438.782C247.151 438.782 242.723 436.749 240.188 436.775C237.653 436.801 236.174 436.848 234.017 437.501C231.859 438.154 230.383 439.14 228.572 441.857C226.883 444.391 226.031 447.129 226.031 450.061C226.031 454.2 226.322 456.777 228.209 460.449C228.916 461.827 229.631 462.825 230.387 463.638C231.181 464.493 232.036 465.143 233.654 465.816C236.028 466.803 238.288 467.049 240.914 466.905Z" stroke="#FFE3B8" stroke-width="5"/>
<path d="M240.914 466.905C243.137 466.783 247.811 463.638 247.811 463.638C247.811 463.638 248.537 465.816 249.626 467.48C250.811 469.29 251.804 470.535 253.982 471.261C257.158 472.319 258.28 472.202 260.942 471.922C263.784 471.624 264.454 471.226 266.688 470.172C268.358 469.385 270.681 466.542 270.681 466.542C270.681 466.542 271.276 467.599 272.588 468.72C273.861 469.809 275.467 470.959 276.852 471.261C278.283 471.574 280.473 471.783 282.297 471.624C284.129 471.465 285.957 471.264 287.38 470.898C290.047 470.212 291.106 468.87 292.825 466.905C295.366 464.001 295.427 463.08 296.455 460.008C297.582 456.639 297.714 454.39 297.407 450.896C297.075 447.127 296.508 444.653 293.707 441.781C292.082 440.114 290.846 439.372 288.623 438.361C285.414 436.901 279.588 436.559 279.588 436.559L273.458 436.621C273.458 436.621 270.733 433.728 268.01 432.889C265.62 432.154 261.505 431.693 261.505 431.693C258.83 431.72 257.899 431.73 255.381 432.386C252.863 433.043 251.756 433.435 249.997 434.966C248.595 436.186 247.151 438.782 247.151 438.782C247.151 438.782 242.723 436.749 240.188 436.775C237.653 436.801 236.174 436.848 234.017 437.501C231.859 438.154 230.383 439.14 228.572 441.857C226.883 444.391 226.031 447.129 226.031 450.061C226.031 454.2 226.322 456.777 228.209 460.449C228.916 461.827 229.631 462.825 230.387 463.638C231.181 464.493 232.036 465.143 233.654 465.816C236.028 466.803 238.288 467.049 240.914 466.905Z" stroke="black" stroke-opacity="0.2" stroke-width="5"/>
<path d="M178.805 260.317C178.549 258.949 177.894 254.541 178.805 248.159C179.715 241.776 178.805 242.994 185.179 224.304C203.591 170.311 235.287 123.558 299.205 123.558C363.123 123.558 394.819 170.311 413.231 224.304C419.605 242.994 418.695 241.776 419.605 248.159C420.516 254.541 421.358 258.949 421.102 260.317C420.846 261.685 421.102 269.015 419.605 273.052C418.108 277.088 415.508 284.022 403.671 294.051C374.828 318.488 337.461 332.799 299.205 332.799C260.949 332.799 223.582 318.488 194.739 294.051C185.179 283.144 184.374 277.761 181.589 273.052C178.805 268.342 178.805 260.317 178.805 260.317Z" fill="#EAA439"/>
<path d="M178.805 260.317C178.549 258.949 177.894 254.541 178.805 248.159C179.715 241.776 178.805 242.994 185.179 224.304C203.591 170.311 235.287 123.558 299.205 123.558C363.123 123.558 394.819 170.311 413.231 224.304C419.605 242.994 418.695 241.776 419.605 248.159C420.516 254.541 421.358 258.949 421.102 260.317C420.846 261.685 421.102 269.015 419.605 273.052C418.108 277.088 415.508 284.022 403.671 294.051C374.828 318.488 337.461 332.799 299.205 332.799C260.949 332.799 223.582 318.488 194.739 294.051C185.179 283.144 184.374 277.761 181.589 273.052C178.805 268.342 178.805 260.317 178.805 260.317Z" stroke="#EAA439" stroke-width="5"/>
<path d="M178.805 260.317C178.549 258.949 177.894 254.541 178.805 248.159C179.715 241.776 178.805 242.994 185.179 224.304C203.591 170.311 235.287 123.558 299.205 123.558C363.123 123.558 394.819 170.311 413.231 224.304C419.605 242.994 418.695 241.776 419.605 248.159C420.516 254.541 421.358 258.949 421.102 260.317C420.846 261.685 421.102 269.015 419.605 273.052C418.108 277.088 415.508 284.022 403.671 294.051C374.828 318.488 337.461 332.799 299.205 332.799C260.949 332.799 223.582 318.488 194.739 294.051C185.179 283.144 184.374 277.761 181.589 273.052C178.805 268.342 178.805 260.317 178.805 260.317Z" stroke="black" stroke-opacity="0.2" stroke-width="5"/>
<path d="M243.752 248.158C235.551 248.158 194.662 251.598 187.71 276.132C177.595 311.823 262.324 336.966 298.933 336.966C335.542 336.966 418.715 315.199 409.744 276.132C404.028 251.243 361.902 248.158 353.701 248.158C345.5 248.158 344.543 264.789 337.298 261.18C323.381 254.247 318.476 249.605 300.707 249.605C282.937 249.605 274.028 254.269 260.155 261.18C252.91 264.789 251.954 248.158 243.752 248.158Z" fill="#FEFFFB"/>
<path fill-rule="evenodd" clip-rule="evenodd" d="M432.522 251.377C432.522 251.377 432.517 251.384 432.502 251.399C432.514 251.384 432.522 251.377 432.522 251.377ZM428.708 274.106C428.708 274.106 428.705 274.1 428.7 274.087C428.706 274.099 428.708 274.106 428.708 274.106Z" fill="#452210"/>
<path d="M304 274.186C304 275.185 301.572 275.995 298.575 275.995C295.579 275.995 293.15 275.185 293.15 274.186C293.15 273.188 295.579 272.378 298.575 272.378C301.572 272.378 304 273.188 304 274.186Z" fill="white" fill-opacity="0.5"/>
<path d="M299.135 287.21V303.549M299.135 303.549C299.135 303.549 294.106 308.444 290.005 308.835C285.072 309.305 278.471 303.549 278.471 303.549M299.135 303.549C299.135 303.549 304.154 308.584 308.266 308.835C312.874 309.117 318.839 303.549 318.839 303.549" stroke="black" stroke-width="5" stroke-linecap="round"/>
<ellipse cx="19.9023" cy="26.7309" rx="19.9023" ry="26.7309" transform="matrix(-0.998648 0.0519817 0.0519817 0.998648 374.763 202.684)" fill="black" stroke="#504B4F"/>
<ellipse cx="5.59751" cy="5.59751" rx="5.59751" ry="5.59751" transform="matrix(-0.923252 0.384195 0.384195 0.923252 353.759 212.051)" fill="white" stroke="#504B4F"/>
<ellipse cx="19.9023" cy="26.7309" rx="19.9023" ry="26.7309" transform="matrix(-0.998648 0.0519817 0.0519817 0.998648 264.424 202.684)" fill="black" stroke="#504B4F"/>
<ellipse cx="5.59751" cy="5.59751" rx="5.59751" ry="5.59751" transform="matrix(-0.923252 0.384195 0.384195 0.923252 243.421 212.052)" fill="white" stroke="#504B4F"/>
<path d="M294.796 290.477C297.756 292.243 301.465 292.162 304.346 290.271L318.311 281.102C323.747 277.532 323.472 269.897 317.305 267.832C312.45 266.207 306.421 264.764 299.636 264.362C293.294 263.986 286.477 265.504 280.676 267.406C274.092 269.565 273.799 277.956 279.749 281.504L294.796 290.477Z" fill="#FE7B6D"/>
<path d="M305.382 271.93C305.382 273.168 302.37 274.172 298.654 274.172C294.938 274.172 291.926 273.168 291.926 271.93C291.926 270.691 294.938 269.687 298.654 269.687C302.37 269.687 305.382 270.691 305.382 271.93Z" fill="white" fill-opacity="0.5"/>
<path d="M257.512 193.883C257.512 198.727 245.609 193.883 241.068 193.883C236.526 193.883 225.993 193.187 225.993 188.343C225.993 183.499 228.277 178.188 241.068 178.188C253.858 178.187 257.512 189.039 257.512 193.883Z" fill="#FEFFFB"/>
<path d="M339.538 193.883C339.538 198.727 351.442 193.883 355.983 193.883C360.524 193.883 371.058 193.187 371.058 188.343C371.058 183.499 368.774 178.188 355.983 178.188C343.193 178.187 339.538 189.039 339.538 193.883Z" fill="#FEFFFB"/>
</svg>
